<?xml version="1.0" standalone="no"?>
<!DOCTYPE svg PUBLIC "-//W3C//DTD SVG 20010904//EN"
 "http://www.w3.org/TR/2001/REC-SVG-20010904/DTD/svg10.dtd">
<svg version="1.0" xmlns="http://www.w3.org/2000/svg"
 width="1024.000000pt" height="1024.000000pt" viewBox="0 0 1024.000000 1024.000000"
 preserveAspectRatio="xMidYMid meet">

<g transform="translate(0.000000,1024.000000) scale(0.100000,-0.100000)"
fill="#000000" stroke="none">
<path d="M3823 9513 c9 -2 25 -2 35 0 9 3 1 5 -18 5 -19 0 -27 -2 -17 -5z"/>
<path d="M3943 9513 c9 -2 23 -2 30 0 6 3 -1 5 -18 5 -16 0 -22 -2 -12 -5z"/>
<path d="M4008 9513 c12 -2 32 -2 45 0 12 2 2 4 -23 4 -25 0 -35 -2 -22 -4z"/>
<path d="M4183 9513 c15 -2 37 -2 50 0 12 2 0 4 -28 4 -27 0 -38 -2 -22 -4z"/>
<path d="M3635 9421 c-156 -21 -323 -106 -423 -215 -63 -70 -136 -164 -145
-188 -3 -10 -11 -18 -17 -18 -13 0 -13 17 0 25 6 3 10 10 10 16 0 5 -4 9 -10
9 -5 0 -10 -5 -10 -11 0 -29 -84 -139 -186 -243 -52 -53 -133 -106 -163 -106
-5 0 -14 -7 -21 -15 -7 -8 -21 -15 -31 -15 -11 0 -19 -5 -19 -11 0 -5 -4 -8
-9 -4 -18 10 -50 -37 -57 -83 -9 -63 8 -128 70 -256 29 -61 61 -136 71 -166
10 -30 31 -68 47 -84 26 -25 34 -28 74 -23 86 9 160 119 188 278 16 97 42 168
92 252 40 68 153 187 177 187 25 0 46 -40 57 -105 12 -74 120 -269 161 -291
16 -8 45 -25 65 -39 20 -14 64 -34 98 -44 222 -72 229 -75 263 -125 48 -70 56
-112 49 -251 -19 -397 -20 -376 4 -471 12 -49 28 -100 35 -114 29 -58 45 -168
48 -315 l2 -150 -92 -133 c-51 -73 -93 -137 -93 -141 0 -5 -13 -25 -30 -46
-16 -21 -30 -43 -30 -50 0 -6 -9 -20 -20 -30 -11 -10 -17 -22 -14 -26 3 -5
143 -9 312 -9 l307 0 1 -45 c2 -58 25 -92 68 -100 62 -12 1067 1 1109 14 27 9
42 22 57 50 10 21 26 41 35 44 8 4 15 13 15 20 0 11 56 15 302 20 166 4 360 7
431 7 l129 0 -24 33 c-13 17 -37 59 -52 92 -15 32 -48 91 -73 130 -37 57 -47
82 -53 135 -5 36 -16 96 -25 135 -21 89 -16 123 47 300 82 230 90 257 93 330
4 67 3 69 -13 48 -12 -16 -28 -21 -57 -21 -21 0 -41 -5 -43 -11 -2 -6 -11 -11
-20 -11 -10 0 -23 -9 -30 -20 -7 -11 -19 -20 -27 -20 -8 0 -15 -4 -15 -10 0
-5 -7 -10 -15 -10 -9 0 -18 -7 -22 -16 -4 -10 -14 -13 -32 -10 -43 10 -57 -6
-44 -51 6 -21 14 -57 18 -80 6 -36 3 -44 -14 -55 -12 -7 -21 -18 -21 -25 0
-15 -70 -27 -147 -24 -34 1 -64 -3 -68 -8 -3 -6 2 -22 11 -36 15 -24 15 -25
-4 -32 -12 -5 -21 -12 -21 -18 -1 -5 -4 -10 -8 -10 -25 -2 -54 -29 -50 -46 4
-13 0 -19 -11 -19 -14 0 -17 -10 -17 -50 -1 -28 3 -50 7 -50 16 0 -17 -143
-46 -198 -19 -37 -36 -44 -57 -25 -14 12 -20 11 -47 -12 -42 -35 -118 -44
-161 -19 -17 10 -31 22 -31 27 0 4 5 5 12 1 7 -4 8 -3 4 5 -4 6 -3 18 3 25 15
18 4 44 -21 48 -13 2 -22 12 -24 25 -3 16 0 21 11 17 11 -5 15 1 15 19 0 17
-7 28 -20 32 -25 8 -42 38 -34 60 4 10 2 15 -7 13 -8 -2 -15 11 -19 37 -3 22
-9 46 -13 52 -5 7 -4 20 1 30 7 11 6 21 -3 30 -13 12 -10 53 4 53 4 0 6 17 5
38 -1 20 4 47 12 58 27 44 55 146 49 178 -14 63 -84 158 -112 149 -6 -2 -18 3
-26 11 -19 20 -99 41 -120 33 -19 -7 -23 -29 -4 -22 31 12 156 -119 134 -141
-3 -3 -25 1 -49 9 -24 9 -88 18 -142 21 -100 5 -236 33 -236 49 0 4 -6 5 -12
1 -10 -6 -10 -4 0 8 7 9 35 22 62 29 27 7 47 16 44 21 -3 5 -14 6 -24 3 -10
-3 -21 -1 -25 5 -4 6 5 10 22 11 27 1 27 1 -5 9 -56 13 -116 -12 -177 -75 -68
-70 -83 -113 -66 -190 8 -36 9 -60 3 -68 -9 -12 -7 -85 3 -95 2 -3 0 -11 -6
-19 -7 -7 -7 -13 -2 -13 21 0 1 -48 -23 -54 -13 -4 -29 -16 -35 -28 -10 -18
-9 -20 5 -15 19 7 22 -9 4 -17 -10 -5 -10 -7 0 -12 10 -5 8 -12 -10 -32 -13
-14 -17 -22 -10 -18 18 11 15 -14 -5 -36 -12 -14 -13 -17 -2 -13 10 3 14 -2
15 -19 1 -14 -5 -27 -13 -30 -9 -4 -13 -13 -9 -22 3 -9 -5 -25 -22 -41 -17
-17 -21 -24 -9 -20 12 5 17 1 17 -13 0 -10 -4 -21 -9 -24 -15 -9 -1 -45 25
-65 40 -31 31 -51 -21 -51 -47 0 -85 25 -85 55 0 8 -6 12 -14 9 -23 -9 -59 52
-52 87 3 16 2 29 -2 29 -4 0 -13 14 -21 31 -12 28 -12 36 2 63 19 37 33 106
32 158 0 21 3 38 7 38 3 0 11 23 17 50 6 28 22 73 36 101 14 27 23 54 20 59
-4 6 1 17 9 26 9 8 16 22 16 31 0 12 -8 14 -34 10 -26 -4 -36 -2 -38 10 -2 12
-8 10 -28 -9 -14 -14 -35 -28 -47 -32 -12 -4 -31 -18 -42 -32 -10 -13 -24 -24
-30 -24 -5 0 -15 -9 -21 -20 -16 -30 -31 -25 -20 6 16 41 12 49 -14 24 -14
-12 -32 -20 -40 -17 -23 9 -9 87 21 115 27 25 46 27 92 11 28 -10 35 -9 57 12
58 54 130 189 102 189 -6 0 -8 6 -5 14 3 7 0 19 -6 25 -6 6 -7 11 -2 11 6 0 4
4 -4 9 -11 7 -11 13 3 32 21 31 20 38 -4 32 -23 -6 -25 0 -8 27 10 16 9 22 -9
39 -11 11 -38 23 -59 27 -22 3 -43 10 -49 14 -5 4 -27 13 -47 19 -52 17 -160
133 -174 189 -21 79 9 58 55 -38 24 -52 44 -76 90 -109 31 -22 40 -23 109 -17
42 4 85 12 96 19 27 14 147 18 164 5 6 -6 12 -8 12 -4 0 12 48 -25 54 -41 4
-8 1 -22 -5 -29 -6 -8 -8 -14 -3 -14 9 0 54 61 54 73 0 4 20 36 44 71 43 63
44 65 25 82 -12 11 -16 20 -9 24 6 4 3 13 -10 25 -11 10 -20 26 -20 36 0 10
-12 31 -26 46 -22 24 -25 35 -21 71 5 46 1 51 -18 25 -10 -14 -12 -1 -10 74 3
84 1 90 -16 86 -11 -3 -19 -10 -20 -17 0 -6 -5 0 -10 13 -5 14 -7 31 -4 39 3
9 0 12 -8 9 -21 -8 -79 24 -73 39 3 7 0 16 -6 20 -7 4 -6 9 3 15 11 7 10 9 -3
9 -15 0 -35 -34 -30 -51 1 -4 -8 -5 -18 -2 -11 3 -20 1 -20 -5 0 -17 32 -37
55 -34 13 2 25 -3 28 -13 5 -13 0 -14 -32 -10 -29 3 -41 1 -45 -11 -3 -9 -4
-20 0 -25 3 -5 7 -18 9 -29 4 -23 -11 -25 -62 -11 -29 8 -56 5 -120 -14 -15
-5 -23 -3 -23 5 0 7 7 10 14 7 10 -4 13 -1 9 9 -3 7 -10 14 -17 14 -17 0 -103
-64 -128 -95 -23 -29 -55 -45 -76 -37 -10 3 -11 16 -7 43 7 39 6 39 -25 39
-31 0 -32 1 -18 23 8 12 21 40 28 62 7 22 24 50 38 63 13 13 22 25 19 28 -11
11 -55 -9 -60 -27 -3 -10 -13 -19 -22 -19 -9 0 -13 -5 -10 -10 3 -6 -6 -15
-21 -20 -22 -9 -30 -7 -46 9 -15 17 -22 19 -43 9 -13 -6 -22 -15 -19 -20 3 -4
-2 -11 -11 -14 -12 -5 -13 -9 -4 -20 8 -10 8 -14 0 -14 -6 0 -11 -9 -11 -19 0
-27 -68 -84 -89 -75 -9 4 -41 14 -71 22 -51 14 -59 14 -89 -1 -19 -9 -40 -17
-48 -17 -15 0 -32 37 -30 66 1 12 -3 18 -13 15 -45 -12 -116 -18 -125 -10 -6
6 13 31 48 66 31 31 57 60 57 64 0 4 7 15 16 23 12 12 20 13 35 6 16 -9 19 -7
19 9 0 11 6 26 14 33 11 12 8 21 -25 59 -27 31 -38 39 -39 26 0 -16 -3 -16
-36 -2 -20 8 -45 15 -55 15 -11 0 -25 11 -31 25 -6 14 -17 24 -24 21 -7 -3
-18 2 -26 11 -11 14 -9 15 19 9 25 -6 36 -3 52 13 17 17 29 20 68 14 27 -3 56
-10 65 -14 12 -7 20 -4 27 8 9 16 11 16 32 -2 16 -14 23 -16 26 -7 8 22 30 13
77 -31 48 -46 62 -83 27 -72 -23 7 -37 -33 -18 -52 19 -18 67 -28 67 -13 0 7
7 10 16 6 9 -3 25 1 37 9 12 8 30 15 40 15 9 0 20 7 23 15 4 8 16 15 28 15 23
0 61 20 39 20 -7 0 -13 5 -13 10 0 18 30 23 55 10 32 -17 55 -6 55 25 0 17 -5
25 -17 25 -13 0 -15 2 -5 8 7 5 10 16 6 25 -5 13 0 17 22 17 34 0 58 14 60 32
3 33 5 38 18 38 21 0 48 30 42 47 -3 7 1 16 9 19 8 4 15 12 15 20 0 8 7 14 15
14 9 0 12 6 8 16 -3 9 -2 19 3 23 18 13 64 117 64 145 0 26 -57 133 -88 165
-14 15 -112 24 -112 10 0 -5 -14 -16 -30 -24 -29 -15 -37 -14 -158 20 -137 39
-255 50 -367 36z m488 -628 c-7 -2 -19 -2 -25 0 -7 3 -2 5 12 5 14 0 19 -2 13
-5z m-622 -119 c10 -12 10 -20 1 -35 -7 -11 -10 -24 -7 -29 10 -16 -15 -21
-50 -10 -32 10 -34 14 -28 43 3 18 11 35 17 39 19 13 53 9 67 -8z m1037 -356
c7 -7 12 -22 12 -35 0 -32 -40 -31 -77 2 -24 21 -26 26 -13 35 21 13 63 13 78
-2z m67 -257 c-6 -5 -23 -12 -40 -16 l-30 -6 30 15 c35 17 53 20 40 7z m-541
-182 c-3 -5 -1 -15 4 -22 17 -21 89 -165 96 -192 13 -53 -70 -39 -91 15 -6 17
-19 30 -28 30 -9 0 -13 5 -10 10 3 6 1 10 -4 10 -13 0 -14 80 -2 112 5 13 12
31 15 41 3 10 10 15 16 12 6 -4 8 -11 4 -16z m476 -439 c0 -5 -5 -10 -11 -10
-5 0 -7 5 -4 10 3 6 8 10 11 10 2 0 4 -4 4 -10z m-259 -256 c8 -63 3 -74 -31
-74 -42 0 -63 38 -47 86 8 21 44 45 62 40 6 -1 13 -25 16 -52z m1861 19 c34
-32 37 -80 8 -114 -10 -13 -19 -18 -20 -11 0 19 -17 14 -23 -8 -5 -21 -31 -27
-42 -10 -3 5 -7 25 -9 44 -1 20 -10 44 -19 54 -16 17 -15 19 18 35 19 9 35 21
35 27 0 18 23 11 52 -17z m-1376 -543 c8 0 14 -10 14 -22 1 -31 21 -55 53 -63
15 -4 27 -11 27 -15 0 -21 -67 20 -104 64 -25 31 -34 47 -23 43 10 -4 25 -7
33 -7z m294 -14 c0 -14 -14 -36 -22 -36 -6 0 -6 6 1 14 10 12 8 15 -11 19 -20
4 -20 4 5 6 15 0 27 -1 27 -3z m-96 -21 c6 -17 4 -18 -18 -9 -20 8 -21 24 -2
24 8 0 16 -7 20 -15z m416 5 c0 -5 -4 -10 -10 -10 -5 0 -10 5 -10 10 0 6 5 10
10 10 6 0 10 -4 10 -10z m-35 -20 c3 -5 -1 -10 -9 -10 -9 0 -16 5 -16 10 0 6
4 10 9 10 6 0 13 -4 16 -10z m-7 -43 c16 4 22 1 22 -11 0 -11 -9 -16 -26 -16
-15 0 -32 -8 -39 -17 -11 -15 -13 -15 -24 5 -15 28 5 55 30 41 9 -4 25 -5 37
-2z m-110 -32 c-3 -3 -9 2 -12 12 -6 14 -5 15 5 6 7 -7 10 -15 7 -18z m-328
-6 c0 -5 -11 -9 -25 -9 -26 0 -34 15 -12 23 16 5 37 -3 37 -14z m355 11 c3 -5
1 -10 -4 -10 -6 0 -11 5 -11 10 0 6 2 10 4 10 3 0 8 -4 11 -10z m-330 -40 c3
-6 17 -7 30 -4 12 3 26 1 29 -4 3 -5 43 -11 88 -12 69 -1 119 -5 136 -9 2 -1
-3 -8 -12 -16 -37 -38 -299 -2 -314 43 -5 15 34 16 43 2z m310 -4 c16 6 34 -9
35 -28 0 -19 -49 -6 -71 18 -23 25 -23 26 -2 15 12 -6 29 -8 38 -5z"/>
<path d="M6154 9322 c-4 -9 -8 -21 -8 -27 -1 -5 -14 -27 -29 -47 -16 -20 -26
-42 -22 -47 3 -6 1 -20 -5 -31 -6 -11 -7 -20 -1 -20 5 0 12 -12 15 -26 4 -15
14 -33 22 -41 10 -11 12 -19 4 -28 -7 -9 -6 -16 5 -25 8 -7 13 -16 10 -20 -3
-4 2 -13 10 -20 8 -7 15 -21 15 -31 0 -11 7 -19 16 -19 10 0 13 -6 9 -19 -4
-14 1 -20 24 -24 21 -4 32 -15 40 -37 6 -18 20 -34 31 -37 13 -4 19 -11 16
-20 -7 -18 15 -53 34 -53 8 0 49 -36 91 -79 100 -105 123 -110 208 -51 34 24
61 47 61 51 0 13 -12 10 -34 -6 -24 -18 -56 -20 -56 -2 1 36 14 57 36 57 12 0
26 4 29 10 8 14 248 1 257 -14 14 -21 2 -31 -58 -47 -90 -25 -139 -51 -142
-76 -3 -19 5 -24 51 -38 30 -9 61 -23 70 -33 24 -27 87 -123 87 -133 0 -15
-47 -10 -60 6 -23 27 -29 16 -23 -41 l5 -56 -58 3 c-41 2 -69 -2 -93 -14 -44
-22 -64 -22 -86 3 -10 11 -26 20 -35 20 -9 0 -26 13 -38 30 -16 21 -34 32 -61
36 -41 7 -64 36 -55 70 3 11 -2 28 -10 39 -9 11 -16 15 -16 8 0 -6 5 -15 10
-18 6 -4 8 -11 4 -16 -10 -17 -24 2 -24 34 0 38 -13 62 -29 53 -14 -9 -14 -63
0 -72 21 -12 0 -116 -29 -146 -25 -28 -55 -40 -34 -15 6 7 7 19 3 26 -13 20
-47 -2 -59 -39 -6 -16 -16 -30 -23 -30 -7 0 -41 32 -78 71 -63 69 -130 115
-154 106 -7 -2 3 -13 20 -23 32 -19 43 -34 23 -34 -16 0 -60 23 -60 32 0 4
-19 8 -42 8 -32 0 -39 3 -28 10 23 15 -27 12 -72 -4 -21 -8 -38 -10 -38 -6 0
5 4 10 8 12 5 2 12 20 15 41 5 32 3 38 -9 33 -9 -3 -24 -1 -34 4 -13 7 -21 7
-26 -1 -4 -8 -9 -7 -15 2 -7 11 -12 12 -29 2 -11 -7 -30 -13 -43 -13 -42 0
-78 -66 -46 -86 6 -3 8 -17 4 -33 -10 -38 -49 -121 -57 -121 -5 0 -8 -9 -8
-19 0 -10 -7 -22 -16 -25 -8 -3 -12 -11 -9 -16 4 -6 2 -17 -4 -24 -6 -7 -9
-21 -5 -30 3 -9 1 -16 -5 -16 -6 0 -11 -13 -11 -29 0 -17 -5 -33 -10 -36 -8
-5 -8 -11 0 -20 8 -10 8 -15 0 -20 -18 -11 81 -113 112 -115 3 0 9 23 13 50 6
46 9 50 28 44 12 -4 31 -8 42 -9 11 0 30 -6 42 -13 26 -15 46 -16 38 -2 -9 15
8 12 32 -5 12 -9 26 -15 30 -14 8 2 56 -8 83 -18 27 -10 115 -2 148 14 38 18
97 83 121 133 27 59 43 63 65 18 21 -41 20 -48 -6 -49 -13 0 -17 -3 -10 -6 21
-8 13 -21 -18 -28 -24 -5 -29 -11 -25 -25 7 -21 -34 -70 -58 -70 -9 0 -22 -6
-29 -13 -19 -20 -56 -38 -71 -36 -6 1 -29 -5 -49 -14 -20 -9 -45 -16 -55 -15
-38 3 -53 -3 -53 -21 0 -10 -8 -29 -18 -42 -36 -47 -53 -96 -43 -122 6 -14 8
-40 6 -57 -7 -52 27 -113 74 -135 27 -12 49 -15 68 -10 15 4 56 9 91 12 49 4
61 7 52 17 -7 10 -4 21 11 41 18 22 20 29 8 36 -12 7 -11 10 2 21 26 22 60 89
54 108 -4 13 1 20 15 25 25 8 61 45 55 55 -3 4 2 13 10 20 12 10 13 16 3 27
-10 12 -9 18 5 28 9 6 14 15 10 18 -3 4 0 20 7 36 11 29 14 30 33 16 12 -8 29
-15 37 -15 18 0 50 -59 50 -90 0 -10 6 -25 13 -32 8 -7 17 -20 20 -28 4 -8 5
8 2 36 -7 68 10 186 34 232 42 81 133 131 290 158 47 9 99 21 115 29 62 26
113 83 172 191 l58 106 34 -38 c18 -22 59 -79 92 -127 75 -110 115 -236 140
-432 5 -44 15 -98 21 -119 15 -54 59 -96 99 -96 53 0 68 15 91 93 26 87 39
112 106 200 59 77 113 205 113 267 0 37 -2 41 -20 35 -15 -5 -29 4 -58 35 -20
24 -51 52 -68 64 -103 70 -220 209 -264 312 -25 56 -45 69 -37 23 6 -34 6 -34
-8 -9 -8 14 -20 41 -26 60 -21 62 -103 191 -159 250 -94 97 -246 186 -390 228
-73 21 -110 25 -256 27 -127 3 -181 8 -209 19 -20 9 -63 18 -95 21 -48 4 -59
2 -66 -13z m799 -783 l21 -12 -23 -9 c-26 -9 -41 -3 -41 18 0 17 14 18 43 3z
m-833 -185 c0 -2 -7 -4 -15 -4 -8 0 -15 4 -15 10 0 5 7 7 15 4 8 -4 15 -8 15
-10z m-185 -54 c3 -5 1 -19 -6 -31 -9 -18 -17 -21 -51 -16 -59 8 -69 23 -27
41 40 18 75 20 84 6z"/>
<path d="M5078 9193 c6 -2 18 -2 25 0 6 3 1 5 -13 5 -14 0 -19 -2 -12 -5z"/>
<path d="M5343 9193 c15 -2 37 -2 50 0 12 2 0 4 -28 4 -27 0 -38 -2 -22 -4z"/>
<path d="M7352 8809 c6 -16 12 -28 14 -26 5 5 -13 57 -20 57 -3 0 0 -14 6 -31z"/>
<path d="M4275 8740 c-3 -5 -1 -10 4 -10 6 0 11 5 11 10 0 6 -2 10 -4 10 -3 0
-8 -4 -11 -10z"/>
<path d="M3665 8710 c3 -5 11 -10 16 -10 6 0 7 5 4 10 -3 6 -11 10 -16 10 -6
0 -7 -4 -4 -10z"/>
<path d="M3740 8692 c0 -5 7 -15 15 -22 8 -7 15 -8 15 -2 0 5 -7 15 -15 22 -8
7 -15 8 -15 2z"/>
<path d="M4235 8690 c-3 -5 -2 -10 4 -10 5 0 13 5 16 10 3 6 2 10 -4 10 -5 0
-13 -4 -16 -10z"/>
<path d="M4070 8680 c-13 -8 -12 -10 3 -10 9 0 17 5 17 10 0 12 -1 12 -20 0z"/>
<path d="M4028 8635 c-23 -30 -22 -35 0 -35 16 0 62 41 62 55 0 16 -48 1 -62
-20z"/>
<path d="M4190 8640 c-9 -6 -10 -10 -3 -10 6 0 15 5 18 10 8 12 4 12 -15 0z"/>
<path d="M4646 8620 c9 -16 17 -30 20 -30 2 0 4 14 4 30 0 23 -5 30 -19 30
-18 0 -19 -2 -5 -30z"/>
<path d="M4000 8570 c0 -5 4 -10 9 -10 6 0 13 5 16 10 3 6 -1 10 -9 10 -9 0
-16 -4 -16 -10z"/>
<path d="M5770 8539 c0 -5 5 -7 10 -4 6 3 10 8 10 11 0 2 -4 4 -10 4 -5 0 -10
-5 -10 -11z"/>
<path d="M4140 8445 c0 -8 5 -15 10 -15 6 0 10 7 10 15 0 8 -4 15 -10 15 -5 0
-10 -7 -10 -15z"/>
<path d="M4575 7710 c-3 -5 -1 -10 4 -10 6 0 11 5 11 10 0 6 -2 10 -4 10 -3 0
-8 -4 -11 -10z"/>
<path d="M5706 7353 c-12 -12 -5 -23 14 -23 11 0 20 4 20 9 0 11 -26 22 -34
14z"/>
<path d="M5714 7241 c3 -5 15 -7 26 -4 28 7 25 13 -6 13 -14 0 -23 -4 -20 -9z"/>
<path d="M4462 6955 c0 -16 2 -22 5 -12 2 9 2 23 0 30 -3 6 -5 -1 -5 -18z"/>
<path d="M4790 6231 c-1494 -6 -1515 -6 -1549 -26 -54 -32 -50 -48 6 -23 47
21 58 21 503 20 250 -1 492 -6 538 -11 95 -10 125 -30 163 -109 19 -38 21 -54
15 -121 -5 -53 -2 -104 7 -157 8 -44 20 -110 27 -149 15 -88 124 -311 180
-370 21 -22 61 -86 90 -142 41 -82 64 -113 117 -164 117 -109 253 -151 420
-130 216 27 357 145 423 356 31 96 39 308 16 414 -30 143 -109 264 -223 343
-33 22 -43 35 -43 56 0 43 59 132 103 155 58 30 272 38 887 35 487 -3 549 -5
583 -20 54 -25 45 -4 -10 24 -58 28 39 27 -2253 19z m580 -561 c48 -93 52
-360 8 -448 -33 -66 -66 -87 -139 -87 -54 0 -62 3 -93 35 -45 45 -66 123 -66
247 0 74 4 103 21 138 26 55 95 119 161 150 61 28 79 23 108 -35z"/>
<path d="M4045 6030 c-28 -11 -87 -82 -241 -290 -194 -261 -296 -408 -310
-449 -30 -85 -9 -196 42 -220 16 -7 108 -11 267 -11 133 0 248 -4 256 -9 10
-7 16 -36 19 -98 4 -65 9 -91 21 -100 20 -15 267 -18 305 -3 25 9 26 12 26
105 0 105 -3 100 75 107 l30 3 6 115 c3 68 2 120 -4 128 -5 7 -32 12 -63 12
l-54 0 -1 63 c-1 34 0 180 1 325 l2 262 -35 35 -35 35 -143 -1 c-79 0 -153 -4
-164 -9z m31 -527 c-4 -109 -9 -199 -10 -201 -2 -1 -67 -1 -145 0 l-142 3 67
100 c90 133 214 295 226 295 8 0 8 -63 4 -197z"/>
<path d="M6563 6033 c-63 -5 -70 -12 -228 -228 -60 -82 -165 -226 -233 -318
-67 -92 -127 -179 -132 -193 -15 -38 -12 -151 4 -183 30 -56 28 -56 310 -56
l261 0 3 -90 c3 -125 4 -125 181 -125 75 0 142 4 149 9 10 6 12 35 10 112 l-3
104 50 5 50 5 3 112 3 112 -58 3 -58 3 -5 342 c-6 385 -2 368 -82 384 -43 8
-124 9 -225 2z m-13 -522 c0 -172 -2 -200 -16 -205 -21 -8 -259 -8 -267 1 -18
18 244 403 274 403 5 0 9 -85 9 -199z"/>
<path d="M2726 5511 c-6 -9 1 -19 56 -82 26 -30 64 -78 85 -106 85 -117 128
-172 137 -172 5 -1 24 -18 42 -38 l33 -38 16 22 c8 12 22 20 29 17 23 -9 24
32 2 77 -19 38 -28 44 -57 47 -39 4 -48 10 -53 39 -4 20 -66 113 -66 99 0 -4
7 -21 16 -39 l17 -32 -27 25 c-24 21 -26 22 -21 5 5 -16 5 -17 -3 -5 -6 8 -8
18 -6 22 3 5 -2 15 -10 24 -9 9 -14 19 -11 24 4 7 -69 74 -103 94 -23 14 -72
25 -76 17z"/>
<path d="M7440 5459 c-36 -33 -76 -64 -90 -70 -24 -10 -24 -11 -6 -25 16 -12
18 -19 10 -42 -10 -29 -31 -33 -86 -19 -25 7 -26 5 -22 -20 3 -15 10 -33 16
-40 16 -20 4 -25 -33 -15 -43 11 -50 44 -18 79 20 20 21 25 9 33 -10 6 -20 4
-30 -6 -12 -11 -15 -41 -15 -135 0 -116 1 -121 25 -139 39 -30 51 -25 49 18
-3 47 34 104 182 275 61 71 98 142 81 159 -4 3 -36 -20 -72 -53z m-223 -355
c-3 -3 -12 -4 -19 -1 -8 3 -5 6 6 6 11 1 17 -2 13 -5z"/>
<path d="M2478 5429 c-26 -14 -22 -41 12 -99 17 -28 39 -74 49 -103 39 -108
53 -141 81 -203 16 -34 34 -65 40 -69 13 -8 13 -35 -1 -35 -5 0 -22 13 -37 29
-15 16 -42 32 -59 36 -29 6 -33 4 -33 -13 0 -11 3 -22 8 -24 15 -7 52 -68 52
-88 0 -29 -34 -26 -59 6 -11 14 -25 41 -32 61 -6 19 -29 70 -50 113 -22 43
-39 82 -39 88 0 6 -4 12 -8 14 -15 6 -52 75 -52 96 0 12 -11 34 -24 49 l-24
28 -6 -25 c-2 -14 -7 -47 -10 -73 -4 -36 -15 -60 -42 -92 -20 -25 -41 -43 -47
-42 -17 3 -21 -42 -7 -88 20 -69 67 -106 157 -125 43 -10 51 -16 75 -59 45
-79 83 -101 224 -127 11 -2 26 -16 33 -30 14 -32 28 -22 33 21 3 32 18 36 71
16 25 -10 27 -15 27 -70 0 -71 14 -86 30 -34 7 21 18 49 25 63 7 14 22 45 34
70 12 25 31 61 44 80 31 50 31 157 -1 178 -31 20 -28 27 19 42 37 13 39 15 23
27 -10 7 -24 11 -31 9 -7 -3 -21 6 -32 19 -10 14 -24 25 -30 25 -6 0 -11 4
-11 9 0 14 -52 61 -61 55 -5 -3 -9 3 -10 13 0 14 -2 15 -6 3 -6 -15 -29 -33
-37 -28 -2 2 -14 -9 -26 -24 -11 -15 -27 -27 -33 -25 -16 3 -36 37 -37 62 0
15 -3 16 -9 7 -8 -13 -29 51 -46 138 -5 23 -24 51 -55 83 -51 50 -55 52 -82
36z m338 -336 c37 -55 56 -106 42 -114 -7 -4 -18 -3 -25 2 -7 6 -16 8 -22 5
-16 -10 -51 50 -51 86 0 56 26 65 56 21z m-56 -224 c0 -6 -4 -7 -10 -4 -5 3
-10 11 -10 16 0 6 5 7 10 4 6 -3 10 -11 10 -16z"/>
<path d="M7751 5403 c-8 -14 -12 -16 -22 -5 -21 19 -29 14 -23 -15 5 -33 -15
-78 -36 -78 -9 0 -15 -12 -16 -33 -2 -40 -9 -49 -28 -33 -18 15 -30 -1 -22
-32 6 -24 -5 -49 -20 -46 -5 1 -17 -1 -27 -6 -11 -4 -36 -2 -60 5 l-41 12 -34
-41 c-18 -23 -41 -41 -50 -41 -8 0 -30 -5 -48 -12 -31 -11 -32 -13 -39 -87
-13 -147 -11 -168 22 -214 17 -23 48 -80 70 -126 22 -46 42 -80 45 -75 3 5 9
35 13 67 6 54 9 58 28 53 11 -3 27 0 34 5 19 16 30 4 37 -42 l6 -41 28 30 c16
17 43 32 67 36 61 12 87 29 153 104 51 57 66 68 86 65 15 -3 41 5 68 21 82 50
111 85 122 148 6 30 3 41 -14 58 -20 20 -22 21 -34 4 -10 -13 -15 -14 -21 -4
-8 14 -16 79 -16 140 l0 35 -16 -28 c-10 -20 -20 -27 -33 -24 -13 3 -19 -2
-23 -22 -8 -42 -56 -203 -62 -209 -3 -4 -15 0 -27 7 -18 11 -23 11 -32 -1 -8
-11 -26 -14 -74 -10 -61 4 -65 3 -97 -28 l-34 -33 -7 27 c-7 28 -6 29 32 96
15 25 43 77 63 115 21 39 43 79 49 90 25 44 62 132 64 154 4 29 -17 38 -31 14z
m-261 -317 c0 -72 -25 -105 -66 -91 -39 14 -41 37 -5 78 17 19 31 39 31 44 0
14 22 33 32 27 4 -3 8 -29 8 -58z m220 -165 c5 -11 10 -29 10 -41 0 -27 -50
-74 -63 -61 -12 12 -19 61 -9 61 4 0 13 14 19 30 13 35 28 38 43 11z"/>
<path d="M3070 5342 c0 -11 22 -32 32 -32 5 0 4 9 -2 20 -11 20 -30 28 -30 12z"/>
<path d="M3356 4648 c-3 -13 -6 -114 -6 -225 0 -193 1 -202 20 -208 11 -3 29
-3 41 0 20 7 21 12 17 190 -1 101 -2 183 -2 182 1 -1 36 -78 79 -172 43 -93
84 -178 93 -187 18 -21 91 -25 110 -6 9 9 12 74 12 230 l0 218 -40 0 -40 0 -1
-172 c0 -154 -2 -169 -13 -138 -18 46 -133 279 -147 296 -7 9 -32 14 -64 14
-46 0 -53 -3 -59 -22z"/>
<path d="M3938 4660 c-50 -15 -90 -52 -116 -108 -21 -47 -24 -64 -20 -131 7
-115 50 -179 134 -200 115 -29 213 11 255 104 35 77 20 233 -28 287 -43 49
-149 71 -225 48z m138 -85 c34 -23 47 -67 42 -151 -3 -71 -6 -78 -36 -105 -25
-23 -42 -29 -76 -29 -25 0 -52 3 -61 6 -63 25 -65 235 -2 279 27 19 106 19
133 0z"/>
<path d="M4267 4663 c-4 -3 -7 -19 -7 -35 0 -27 2 -28 49 -28 l49 0 7 -190 7
-190 44 0 44 0 2 188 3 187 52 3 c45 3 52 6 57 28 4 14 4 29 1 34 -7 11 -298
14 -308 3z"/>
<path d="M4863 4663 l-43 -4 0 -226 0 -225 37 7 c21 4 41 9 45 11 5 3 8 41 8
85 l0 79 65 0 65 0 0 35 0 34 -62 3 -63 3 -3 57 c-3 65 -3 66 98 70 49 3 55 5
58 27 2 13 0 27 -5 32 -10 10 -143 18 -200 12z"/>
<path d="M5270 4661 c-49 -10 -72 -25 -108 -65 -41 -46 -56 -105 -49 -188 7
-76 23 -115 67 -151 72 -61 214 -61 282 0 75 66 87 276 20 346 -15 16 -39 35
-53 42 -33 18 -114 26 -159 16z m104 -82 c43 -20 59 -65 55 -158 -4 -76 -7
-85 -32 -107 -41 -35 -114 -34 -150 2 -32 31 -41 73 -35 156 4 53 9 65 36 89
35 31 82 38 126 18z"/>
<path d="M6562 4658 c-9 -9 -12 -71 -12 -220 0 -242 -7 -228 117 -228 159 1
226 58 240 205 11 116 -26 202 -101 236 -49 22 -224 27 -244 7z m209 -78 c33
-18 49 -64 49 -140 0 -76 -16 -122 -49 -140 -11 -5 -45 -10 -75 -10 l-56 0 0
150 0 150 56 0 c30 0 64 -5 75 -10z"/>
<path d="M5612 4491 c4 -138 8 -175 24 -207 51 -104 249 -102 300 3 15 31 19
69 22 206 l4 167 -46 0 -46 0 0 -164 c0 -150 -2 -165 -21 -190 -15 -19 -30
-26 -54 -26 -84 0 -95 25 -95 225 l0 155 -46 0 -47 0 5 -169z"/>
<path d="M6073 4644 c-10 -27 3 -414 15 -426 6 -6 22 -8 36 -4 l26 6 2 171 3
171 74 -161 c41 -89 84 -169 95 -177 30 -21 89 -18 111 6 16 18 17 36 10 225
l-7 205 -39 0 -39 0 -1 -162 0 -163 -80 163 -80 162 -60 0 c-45 0 -61 -4 -66
-16z"/>
<path d="M7049 4010 c-20 -20 -54 -41 -76 -48 -55 -16 -3638 -17 -3698 -1 -21
6 -54 26 -72 44 -36 36 -44 24 -17 -26 10 -19 33 -39 62 -52 l47 -22 1800 -2
c1203 -1 1817 1 1853 8 61 12 108 48 129 97 8 19 13 35 11 36 -2 0 -19 -15
-39 -34z"/>
<path d="M2870 3738 c0 -5 238 -8 528 -8 l528 0 13 -102 c14 -106 29 -173 55
-243 8 -22 15 -48 16 -57 0 -32 -23 -67 -54 -79 -58 -24 -102 -59 -127 -102
-21 -38 -24 -55 -25 -167 -1 -92 -5 -133 -17 -155 -8 -16 -32 -73 -53 -125
-32 -81 -38 -109 -42 -195 -5 -124 20 -242 78 -360 37 -78 65 -122 181 -290
52 -75 56 -86 70 -175 8 -52 13 -148 13 -212 -2 -112 -3 -120 -34 -174 l-32
-56 29 20 c15 11 40 33 54 48 15 16 52 49 83 73 57 45 65 58 44 79 -15 15 5
39 46 56 28 11 35 10 71 -12 50 -30 71 -75 79 -169 5 -63 4 -72 -11 -78 -56
-18 -73 -109 -38 -196 19 -46 19 -46 -4 -99 -16 -38 -24 -78 -26 -134 -2 -45
-2 -67 1 -51 10 65 15 75 47 89 17 8 43 24 57 35 22 18 23 21 6 21 -22 0 -56
36 -56 60 0 20 40 60 61 60 8 0 20 9 27 21 26 41 76 51 287 59 110 5 203 6
206 5 3 -2 40 -13 82 -24 84 -23 245 -28 327 -11 125 27 276 39 339 29 106
-17 129 -37 144 -129 3 -17 5 -12 6 14 0 25 5 36 10 31 10 -10 15 -46 12 -80
-1 -17 -3 -18 -11 -5 -7 11 -10 5 -10 -23 0 -39 18 -65 70 -98 23 -15 25 -25
30 -100 l5 -84 41 -10 c23 -6 51 -18 61 -28 11 -9 31 -17 46 -17 28 0 77 -19
77 -30 0 -10 91 -28 204 -40 111 -12 153 -6 335 44 63 17 116 37 119 44 2 6
-3 12 -10 12 -8 0 -21 15 -29 32 -18 41 -30 42 -41 3 -5 -16 -11 -36 -13 -42
-3 -9 -11 -10 -27 -4 -17 7 -29 4 -46 -9 -29 -24 -62 -15 -62 16 0 14 -6 24
-14 24 -8 0 -17 10 -19 23 -3 16 -5 13 -6 -10 -1 -42 -30 -113 -45 -113 -20 0
-37 73 -36 150 1 47 -4 86 -13 105 -8 17 -25 53 -37 82 -28 62 -57 82 -46 31
17 -76 36 -216 36 -260 0 -43 -2 -48 -22 -48 -35 0 -51 15 -43 39 3 12 4 35 0
51 l-7 31 -19 -25 c-19 -24 -26 -52 -11 -42 4 2 8 -4 9 -14 1 -16 -6 -18 -61
-16 -81 3 -87 7 -74 53 12 45 3 127 -24 216 -15 47 -24 65 -31 58 -7 -7 -6
-44 5 -116 9 -58 14 -115 11 -126 -5 -19 -28 -26 -37 -10 -3 4 -20 11 -38 15
-27 5 -36 2 -55 -20 -13 -15 -23 -30 -23 -35 0 -4 -8 -5 -18 -2 -15 3 -19 15
-20 56 0 29 -2 86 -3 127 -1 41 1 86 4 100 4 14 4 19 1 13 -13 -29 -23 -9 -24
45 0 31 -1 67 -1 80 -1 35 19 76 43 87 33 15 36 37 4 29 -23 -5 -26 -4 -22 17
4 25 -9 59 -27 71 -6 3 -10 27 -11 52 -1 25 -4 46 -8 46 -15 0 6 40 24 46 15
4 18 12 13 31 -5 22 -3 25 12 19 16 -5 16 -5 2 6 -18 15 -14 38 7 38 8 0 14 4
14 9 0 5 11 12 25 15 14 4 23 11 20 15 -8 14 38 0 58 -17 9 -8 17 -28 17 -43
0 -15 4 -31 10 -34 6 -4 7 1 3 12 -6 16 -5 16 10 4 18 -14 24 -36 7 -26 -5 3
-10 1 -10 -5 0 -7 -7 -5 -16 4 -22 22 -43 20 -41 -4 2 -26 64 -75 95 -75 12
-1 22 3 22 7 0 4 -9 8 -19 8 -11 0 -23 5 -27 11 -5 8 1 10 20 7 14 -3 26 -5
27 -4 0 0 7 87 14 192 9 126 19 202 28 221 8 15 41 60 74 98 75 90 117 156
149 236 28 68 37 151 20 184 -6 11 -11 45 -12 75 -2 71 -11 137 -20 152 -4 7
-7 52 -5 100 2 58 -1 88 -8 88 -6 0 -11 -8 -11 -17 0 -15 -2 -16 -15 -3 -19
19 -22 146 -5 260 19 136 -8 192 -117 242 -41 18 -63 34 -64 46 -3 60 4 138
13 143 5 3 8 22 7 40 -2 19 1 41 6 49 5 8 8 23 7 32 -2 9 4 38 13 63 8 26 13
51 9 56 -3 5 -3 23 1 39 l7 30 545 0 c301 0 543 3 540 7 -10 9 -4487 10 -4487
1z m3286 -264 c8 -32 -8 -51 -25 -30 -13 16 -6 56 9 56 6 0 13 -12 16 -26z
m-894 -584 c3 -16 1 -35 -4 -42 -4 -8 -8 4 -8 30 0 49 6 55 12 12z m222 -101
c-24 -62 -38 -73 -31 -25 6 34 34 82 44 72 2 -2 -4 -23 -13 -47z m-257 -31
c-3 -7 -5 -2 -5 12 0 14 2 19 5 13 2 -7 2 -19 0 -25z m100 0 c-3 -8 -6 -5 -6
6 -1 11 2 17 5 13 3 -3 4 -12 1 -19z m203 -87 c0 -10 -12 -34 -27 -54 -16 -20
-41 -54 -56 -76 -28 -41 -50 -51 -63 -30 -4 7 10 28 32 49 22 20 52 58 69 83
31 50 45 59 45 28z m604 -687 c19 -7 21 -25 5 -41 -17 -17 -39 -4 -39 23 0 25
7 28 34 18z m-1754 -885 c0 -11 -4 -17 -10 -14 -5 3 -10 13 -10 21 0 8 5 14
10 14 6 0 10 -9 10 -21z"/>
<path d="M3857 966 c-9 -7 -17 -18 -17 -25 0 -6 -4 -11 -9 -11 -5 0 -12 -16
-16 -36 -3 -20 -17 -60 -29 -88 -12 -28 -26 -82 -29 -120 -7 -71 -33 -131 -58
-131 -9 0 -14 11 -15 33 0 18 -5 37 -11 43 -6 6 -9 19 -6 28 3 9 -11 -2 -30
-24 -34 -39 -36 -39 -54 -22 -11 9 -23 14 -27 10 -13 -14 -36 -11 -36 5 0 13
-2 12 -14 -3 -13 -19 -14 -18 -9 5 2 15 -3 34 -13 46 l-18 21 -37 -35 c-63
-58 -37 -76 176 -124 130 -28 264 -24 498 16 91 15 129 32 146 65 8 14 5 23
-15 40 -14 12 -29 19 -34 16 -4 -3 -17 5 -27 17 -24 31 -66 26 -93 -12 -11
-15 -20 -33 -20 -39 0 -6 -4 -11 -10 -11 -13 0 -13 22 1 57 6 15 12 41 15 56
2 16 10 54 18 85 32 117 30 109 13 92 -28 -28 -67 -157 -67 -223 0 -34 -4 -67
-8 -72 -4 -6 -26 -12 -49 -14 -39 -2 -43 0 -43 21 -1 72 -33 98 -38 30 -4 -60
-11 -72 -40 -61 -44 17 -53 94 -27 219 8 39 24 89 36 111 23 46 22 53 -4 35z"/>
<path d="M3601 889 c-29 -47 -59 -144 -64 -204 -3 -27 -3 -42 0 -32 2 9 9 15
14 12 10 -7 32 42 24 54 -2 4 9 50 26 101 16 51 27 95 25 98 -3 2 -14 -11 -25
-29z"/>
<path d="M6605 893 c17 -40 45 -152 51 -205 4 -32 10 -58 14 -58 10 0 20 37
20 74 0 34 -37 144 -57 167 -7 8 -13 21 -13 27 0 7 -5 12 -11 12 -7 0 -8 -7
-4 -17z"/>
<path d="M6190 674 c0 -8 5 -12 10 -9 6 3 10 10 10 16 0 5 -4 9 -10 9 -5 0
-10 -7 -10 -16z"/>
</g>
</svg>
