<?xml version="1.0" standalone="no"?>
<!DOCTYPE svg PUBLIC "-//W3C//DTD SVG 20010904//EN"
 "http://www.w3.org/TR/2001/REC-SVG-20010904/DTD/svg10.dtd">
<svg version="1.0" xmlns="http://www.w3.org/2000/svg"
 width="146.000000pt" height="157.000000pt" viewBox="0 0 146.000000 157.000000"
 preserveAspectRatio="xMidYMid meet">

<g transform="translate(0.000000,157.000000) scale(0.100000,-0.100000)"
fill="#000000" stroke="none">
<path d="M530 1386 c0 -43 -1 -44 -38 -50 -45 -7 -90 -38 -102 -72 -6 -14 -18
-24 -28 -24 -45 0 -75 -77 -49 -127 23 -44 41 -55 97 -57 27 -1 53 -6 57 -9 3
-4 -6 -58 -21 -120 -32 -129 -32 -225 -1 -362 15 -66 17 -94 9 -150 l-9 -70
-47 -3 c-40 -3 -48 -6 -48 -23 0 -17 7 -19 60 -19 73 0 77 6 86 122 5 66 2
101 -15 171 -34 145 -22 322 23 332 74 17 217 41 221 37 3 -3 5 -14 5 -25 0
-37 34 -76 94 -108 89 -46 123 -75 148 -122 20 -38 23 -59 26 -224 l4 -183 66
0 c81 0 111 14 135 60 24 46 17 105 -23 206 -56 142 -51 235 16 294 22 19 34
37 30 45 -9 24 -27 17 -66 -24 -72 -76 -77 -171 -16 -328 58 -150 43 -211 -55
-216 l-44 -2 -6 160 c-4 88 -12 176 -18 196 -21 69 -65 115 -152 160 -96 50
-109 71 -109 181 -1 193 -108 398 -209 398 -18 0 -21 -6 -21 -44z m85 -37 c59
-70 105 -199 105 -291 0 -53 11 -47 -118 -73 -103 -21 -100 -22 -95 28 7 59
-25 89 -81 78 -45 -9 -91 39 -80 83 5 21 12 26 39 26 28 0 33 4 43 39 13 42
39 58 102 63 33 3 35 6 38 41 2 20 7 37 12 37 4 0 20 -14 35 -31z"/>
<path d="M454 1246 c-9 -23 0 -51 16 -51 10 0 15 10 15 29 0 32 -21 47 -31 22z"/>
<path d="M722 638 c-88 -43 -122 -133 -88 -237 9 -27 16 -52 16 -55 0 -3 -16
-6 -35 -6 -28 0 -35 -4 -35 -20 0 -19 7 -20 160 -20 153 0 160 1 160 20 0 19
-7 20 -101 20 l-100 0 -17 38 c-9 21 -17 63 -17 99 0 72 20 101 91 130 28 12
44 24 44 36 0 22 -24 21 -78 -5z"/>
</g>
</svg>
