<?xml version="1.0" encoding="UTF-8"?>
<!DOCTYPE svg PUBLIC "-//W3C//DTD SVG 1.1//EN" "http://www.w3.org/Graphics/SVG/1.1/DTD/svg11.dtd">
<svg xmlns="http://www.w3.org/2000/svg" version="1.1" width="500px" height="500px" style="shape-rendering:geometricPrecision; text-rendering:geometricPrecision; image-rendering:optimizeQuality; fill-rule:evenodd; clip-rule:evenodd" xmlns:xlink="http://www.w3.org/1999/xlink">
<g><path style="opacity:0.004" fill="#000000" d="M 1.5,10.5 C 2.83333,11.1667 2.83333,11.1667 1.5,10.5 Z"/></g>
<g><path style="opacity:0.004" fill="#000000" d="M 496.5,39.5 C 497.833,40.1667 497.833,40.1667 496.5,39.5 Z"/></g>
<g><path style="opacity:0.004" fill="#000000" d="M 13.5,46.5 C 14.8333,47.1667 14.8333,47.1667 13.5,46.5 Z"/></g>
<g><path style="opacity:0.004" fill="#000000" d="M 423.5,48.5 C 424.833,49.1667 424.833,49.1667 423.5,48.5 Z"/></g>
<g><path style="opacity:0.004" fill="#000000" d="M 14.5,53.5 C 15.8333,54.1667 15.8333,54.1667 14.5,53.5 Z"/></g>
<g><path style="opacity:0.004" fill="#000000" d="M 287.5,57.5 C 288.833,58.1667 288.833,58.1667 287.5,57.5 Z"/></g>
<g><path style="opacity:0.004" fill="#000000" d="M 64.5,62.5 C 65.8333,63.1667 65.8333,63.1667 64.5,62.5 Z"/></g>
<g><path style="opacity:0.004" fill="#000000" d="M 62.5,74.5 C 63.8333,75.1667 63.8333,75.1667 62.5,74.5 Z"/></g>
<g><path style="opacity:1" fill="#5bb8ab" d="M 266.5,82.5 C 270.323,85.9157 274.657,88.5824 279.5,90.5C 288.844,94.8334 297.511,100.167 305.5,106.5C 308.161,109.502 311.495,111.502 315.5,112.5C 329.838,120.333 343.838,128.666 357.5,137.5C 352.26,138.449 346.927,138.782 341.5,138.5C 315.361,123.932 289.695,108.598 264.5,92.5C 259.522,86.6731 253.189,84.5065 245.5,86C 242.975,86.4238 240.975,87.5905 239.5,89.5C 212.506,106.333 185.172,122.667 157.5,138.5C 152.489,138.666 147.489,138.499 142.5,138C 143.756,137.583 144.423,136.75 144.5,135.5C 150.721,134.057 156.054,131.057 160.5,126.5C 166.319,121.753 172.652,117.753 179.5,114.5C 183.598,113.728 186.931,111.728 189.5,108.5C 206.106,97.856 223.106,87.6894 240.5,78C 250.096,74.9979 258.763,76.4979 266.5,82.5 Z"/></g>
<g><path style="opacity:0.196" fill="#829095" d="M 266.5,82.5 C 271.343,84.4176 275.677,87.0843 279.5,90.5C 274.657,88.5824 270.323,85.9157 266.5,82.5 Z"/></g>
<g><path style="opacity:0.498" fill="#9099a0" d="M 264.5,92.5 C 260.365,89.4371 255.699,87.4371 250.5,86.5C 246.698,87.1248 243.032,88.1248 239.5,89.5C 240.975,87.5905 242.975,86.4238 245.5,86C 253.189,84.5065 259.522,86.6731 264.5,92.5 Z"/></g>
<g><path style="opacity:0.004" fill="#000000" d="M 372.5,95.5 C 373.833,96.1667 373.833,96.1667 372.5,95.5 Z"/></g>
<g><path style="opacity:0.004" fill="#000000" d="M 463.5,98.5 C 464.833,99.1667 464.833,99.1667 463.5,98.5 Z"/></g>
<g><path style="opacity:0.004" fill="#000000" d="M 493.5,98.5 C 494.833,99.1667 494.833,99.1667 493.5,98.5 Z"/></g>
<g><path style="opacity:0.004" fill="#000000" d="M 108.5,101.5 C 109.833,102.167 109.833,102.167 108.5,101.5 Z"/></g>
<g><path style="opacity:0.004" fill="#000000" d="M 29.5,107.5 C 30.8333,108.167 30.8333,108.167 29.5,107.5 Z"/></g>
<g><path style="opacity:0.545" fill="#8b9ca5" d="M 305.5,106.5 C 309.505,107.498 312.839,109.498 315.5,112.5C 311.495,111.502 308.161,109.502 305.5,106.5 Z"/></g>
<g><path style="opacity:0.392" fill="#8a98a0" d="M 189.5,108.5 C 186.931,111.728 183.598,113.728 179.5,114.5C 182.566,112.11 185.9,110.11 189.5,108.5 Z"/></g>
<g><path style="opacity:0.004" fill="#000000" d="M 142.5,127.5 C 143.833,128.167 143.833,128.167 142.5,127.5 Z"/></g>
<g><path style="opacity:0.31" fill="#809096" d="M 160.5,126.5 C 156.054,131.057 150.721,134.057 144.5,135.5C 149.825,132.503 155.159,129.503 160.5,126.5 Z"/></g>
<g><path style="opacity:0.004" fill="#000000" d="M 290.5,129.5 C 291.833,130.167 291.833,130.167 290.5,129.5 Z"/></g>
<g><path style="opacity:0.004" fill="#000000" d="M 373.5,132.5 C 374.833,133.167 374.833,133.167 373.5,132.5 Z"/></g>
<g><path style="opacity:0.485" fill="#798389" d="M 144.5,135.5 C 144.423,136.75 143.756,137.583 142.5,138C 147.489,138.499 152.489,138.666 157.5,138.5C 156.359,139.339 155.026,140.006 153.5,140.5C 148.949,140.738 144.282,140.238 139.5,139C 140.789,137.198 142.456,136.031 144.5,135.5 Z"/></g>
<g><path style="opacity:0.537" fill="#9ca7b1" d="M 357.5,137.5 C 358.043,137.56 358.376,137.893 358.5,138.5C 352.68,139.816 347.013,139.816 341.5,138.5C 346.927,138.782 352.26,138.449 357.5,137.5 Z"/></g>
<g><path style="opacity:0.004" fill="#000000" d="M 66.5,143.5 C 67.8333,144.167 67.8333,144.167 66.5,143.5 Z"/></g>
<g><path style="opacity:0.004" fill="#000000" d="M 175.5,146.5 C 176.833,147.167 176.833,147.167 175.5,146.5 Z"/></g>
<g><path style="opacity:0.106" fill="#6f7c85" d="M 198.5,160.5 C 195.036,157.538 191.703,154.371 188.5,151C 173.5,150.333 158.5,150.333 143.5,151C 137.48,152.847 134.813,157.014 135.5,163.5C 133.488,157.348 135.488,152.848 141.5,150C 157.5,149.333 173.5,149.333 189.5,150C 193.107,153.098 196.107,156.598 198.5,160.5 Z"/></g>
<g><path style="opacity:0.063" fill="#5a6973" d="M 309.5,150.5 C 325.328,149.339 341.328,149.172 357.5,150C 358.942,150.377 359.942,151.21 360.5,152.5C 359.078,152.291 357.745,151.791 356.5,151C 341.17,150.5 325.837,150.333 310.5,150.5C 310.167,150.5 309.833,150.5 309.5,150.5 Z"/></g>
<g><path style="opacity:1" fill="#50c0af" d="M 124.5,159.5 C 119.012,163.413 113.345,167.079 107.5,170.5C 104.818,172.53 103.151,175.197 102.5,178.5C 101.167,225.833 101.167,273.167 102.5,320.5C 105.253,325.341 108.92,329.341 113.5,332.5C 112.262,332.81 112.262,333.31 113.5,334C 118.246,336.456 122.746,339.289 127,342.5C 128.44,343.148 129.94,343.481 131.5,343.5C 133.853,344.34 135.853,345.674 137.5,347.5C 139.629,349.95 142.296,351.617 145.5,352.5C 151.54,357.521 158.206,361.521 165.5,364.5C 165.833,364.5 166.167,364.5 166.5,364.5C 167.957,366.785 169.957,368.618 172.5,370C 176.394,372.446 180.394,374.612 184.5,376.5C 198.675,384.083 212.341,392.417 225.5,401.5C 225.062,401.435 224.728,401.601 224.5,402C 227.901,404.367 231.568,406.2 235.5,407.5C 237.674,407.75 239.341,408.75 240.5,410.5C 240.918,411.222 241.584,411.722 242.5,412C 247.167,412.667 251.833,412.667 256.5,412C 265.569,407.81 273.902,402.644 281.5,396.5C 285.505,395.502 288.839,393.502 291.5,390.5C 294.704,389.617 297.371,387.95 299.5,385.5C 305.293,383.772 310.293,380.772 314.5,376.5C 320.859,373.234 327.026,369.567 333,365.5C 333.333,365.833 333.667,366.167 334,366.5C 336.992,364.34 339.825,362.007 342.5,359.5C 346.758,357.884 350.424,355.551 353.5,352.5C 365.502,346.503 376.835,339.503 387.5,331.5C 389.862,328.808 392.196,326.141 394.5,323.5C 395.966,322.653 396.8,321.32 397,319.5C 397.667,272.5 397.667,225.5 397,178.5C 395.829,176.158 394.662,173.824 393.5,171.5C 392.378,170.37 391.044,169.703 389.5,169.5C 388.833,169.5 388.5,169.167 388.5,168.5C 384.335,164.822 379.835,161.489 375,158.5C 374.182,155.773 374.348,153.106 375.5,150.5C 384.748,154.984 393.414,160.984 401.5,168.5C 401.992,170.819 402.992,172.819 404.5,174.5C 405.404,175.209 405.737,176.209 405.5,177.5C 405.5,225.5 405.5,273.5 405.5,321.5C 402.67,327.162 399.337,332.495 395.5,337.5C 385.206,344.653 374.539,351.32 363.5,357.5C 360.674,357.998 358.34,359.331 356.5,361.5C 356.027,362.906 355.027,363.573 353.5,363.5C 352.127,363.343 350.793,363.51 349.5,364C 347.163,365.634 345.163,367.467 343.5,369.5C 338.108,372.02 332.774,374.853 327.5,378C 325.937,378.759 324.937,379.926 324.5,381.5C 323.71,382.401 322.71,383.068 321.5,383.5C 317.067,384.214 313.4,386.214 310.5,389.5C 308.882,391.316 306.882,392.649 304.5,393.5C 300.619,394.774 296.952,396.607 293.5,399C 291.937,399.759 290.937,400.926 290.5,402.5C 287.001,404.75 283.335,406.75 279.5,408.5C 273.074,411.743 266.74,415.243 260.5,419C 254.286,421.793 247.952,422.127 241.5,420C 237.771,418.463 234.105,416.963 230.5,415.5C 229.508,415.672 228.842,415.338 228.5,414.5C 226.049,411.723 223.049,409.723 219.5,408.5C 217.948,405.888 215.614,404.555 212.5,404.5C 203.491,399.665 194.824,394.332 186.5,388.5C 186.047,387.542 185.381,386.708 184.5,386C 180.78,384.14 177.114,382.307 173.5,380.5C 168.233,377.89 163.233,374.89 158.5,371.5C 156.637,369.623 154.803,367.623 153,365.5C 152.014,366.171 150.847,366.171 149.5,365.5C 144.976,363.957 140.976,361.623 137.5,358.5C 135.167,356.076 132.5,353.909 129.5,352C 128.552,351.517 127.552,351.351 126.5,351.5C 124.847,351.34 123.514,350.674 122.5,349.5C 121.267,347.204 119.267,345.87 116.5,345.5C 113.839,342.498 110.505,340.498 106.5,339.5C 103.551,336.212 100.551,332.879 97.5,329.5C 96.0584,326.95 94.8917,324.284 94,321.5C 93.3333,273.5 93.3333,225.5 94,177.5C 95.1392,174.417 96.4725,171.417 98,168.5C 102.175,163.878 106.675,159.878 111.5,156.5C 115.405,154.548 119.405,152.548 123.5,150.5C 124.484,153.428 124.817,156.428 124.5,159.5 Z M 150.5,160.5 C 153.167,162.833 155.833,165.167 158.5,167.5C 159.585,169.587 161.251,170.92 163.5,171.5C 163.5,172.167 163.833,172.5 164.5,172.5C 165.585,174.587 167.251,175.92 169.5,176.5C 169.973,177.906 170.973,178.573 172.5,178.5C 174.239,181.243 176.573,183.243 179.5,184.5C 181.549,187.55 184.216,189.883 187.5,191.5C 188.833,194.5 188.833,197.5 187.5,200.5C 184.878,204.457 181.878,208.124 178.5,211.5C 175.331,212.917 172.331,214.583 169.5,216.5C 168.07,218.455 168.403,220.121 170.5,221.5C 171.312,222.993 172.645,223.66 174.5,223.5C 177.102,223.533 179.102,222.533 180.5,220.5C 185.061,219.054 188.728,216.387 191.5,212.5C 193.543,211.421 194.876,209.754 195.5,207.5C 195.5,207.167 195.5,206.833 195.5,206.5C 196.117,206.389 196.617,206.056 197,205.5C 197.988,202.362 198.822,199.195 199.5,196C 199.607,193.779 198.94,191.946 197.5,190.5C 197.727,188.067 196.727,186.401 194.5,185.5C 192.833,183.167 190.833,181.167 188.5,179.5C 186.772,177.774 184.772,176.441 182.5,175.5C 180.431,172.427 177.764,170.094 174.5,168.5C 173.833,167.167 172.833,166.167 171.5,165.5C 170.04,163.537 168.373,161.704 166.5,160C 172.5,159.333 178.5,159.333 184.5,160C 189.064,164.395 193.398,168.895 197.5,173.5C 199.766,177.436 202.766,180.769 206.5,183.5C 208.915,187.422 211.915,190.922 215.5,194C 238.167,194.667 260.833,194.667 283.5,194C 284.056,193.617 284.389,193.117 284.5,192.5C 294.212,183.123 303.212,173.123 311.5,162.5C 312.627,161.878 313.627,161.045 314.5,160C 320.196,159.17 325.863,159.337 331.5,160.5C 330.047,162.185 328.714,163.851 327.5,165.5C 322.533,169.132 317.867,173.132 313.5,177.5C 310.236,179.094 307.569,181.427 305.5,184.5C 303.178,185.802 301.845,187.802 301.5,190.5C 298.954,193.868 298.954,197.201 301.5,200.5C 300.557,202.001 300.891,203.335 302.5,204.5C 302.845,207.198 304.178,209.198 306.5,210.5C 307.419,213.089 309.086,215.089 311.5,216.5C 315.48,219.741 319.98,222.074 325,223.5C 330.327,222.52 331.494,219.853 328.5,215.5C 321.25,212.248 315.583,207.248 311.5,200.5C 309.893,197.222 310.227,194.222 312.5,191.5C 324.515,181.481 336.182,171.147 347.5,160.5C 349.167,160.5 350.833,160.5 352.5,160.5C 352.5,162.833 352.5,165.167 352.5,167.5C 352.5,168.5 352.5,169.5 352.5,170.5C 348.901,183.574 345.901,196.907 343.5,210.5C 343.5,210.833 343.5,211.167 343.5,211.5C 341.597,217.249 340.264,223.249 339.5,229.5C 337.269,231.642 337.269,233.642 339.5,235.5C 340.861,249.473 341.861,263.473 342.5,277.5C 335.84,286.495 329.174,295.495 322.5,304.5C 320.453,306.55 318.786,308.883 317.5,311.5C 315.413,312.585 314.08,314.251 313.5,316.5C 311.871,317.625 310.371,318.959 309,320.5C 309.37,314.806 310.203,309.139 311.5,303.5C 313.102,299.079 314.102,294.412 314.5,289.5C 318.442,280.81 319.775,271.81 318.5,262.5C 318.539,259.911 317.539,257.911 315.5,256.5C 313.242,251.249 309.242,248.249 303.5,247.5C 299.402,245.045 295.068,244.878 290.5,247C 284.278,248.414 280.278,252.08 278.5,258C 278.617,260.616 279.95,262.116 282.5,262.5C 285.457,263.535 287.791,262.535 289.5,259.5C 297.744,254.321 304.244,255.988 309,264.5C 308.152,273.238 306.652,281.905 304.5,290.5C 304.5,290.833 304.5,291.167 304.5,291.5C 300.309,311.934 295.309,332.267 289.5,352.5C 287.738,353.262 286.738,354.596 286.5,356.5C 283.159,358.503 279.825,360.503 276.5,362.5C 273.455,362.508 270.455,362.841 267.5,363.5C 264.055,362.27 261.055,360.27 258.5,357.5C 257.928,355.745 257.094,354.078 256,352.5C 255.333,350.5 255.333,348.5 256,346.5C 258.167,345.512 260,344.179 261.5,342.5C 261.833,342.5 262.167,342.5 262.5,342.5C 263.71,342.068 264.71,341.401 265.5,340.5C 266.833,339.833 267.833,338.833 268.5,337.5C 269.898,336.223 270.564,334.557 270.5,332.5C 270.66,330.645 269.993,329.312 268.5,328.5C 268.5,327.833 268.167,327.5 267.5,327.5C 265.035,325.163 262.035,323.663 258.5,323C 252.5,322.333 246.5,322.333 240.5,323C 238.277,323.566 236.277,324.4 234.5,325.5C 227.467,328.84 226.633,333.507 232,339.5C 232.671,340.252 233.504,340.586 234.5,340.5C 235.659,342.25 237.326,343.25 239.5,343.5C 242.232,344.746 243.566,346.913 243.5,350C 243.182,353.123 242.182,355.956 240.5,358.5C 238.405,359.412 236.405,360.579 234.5,362C 231.854,362.497 229.187,362.664 226.5,362.5C 223.579,362.717 220.913,362.051 218.5,360.5C 218.167,360.5 217.833,360.5 217.5,360.5C 213.37,356.713 210.036,352.379 207.5,347.5C 206.924,342.191 205.591,337.191 203.5,332.5C 203.242,326.472 201.908,320.806 199.5,315.5C 198.579,307.226 196.913,299.226 194.5,291.5C 193.924,286.191 192.591,281.191 190.5,276.5C 186.329,263.287 190.995,256.787 204.5,257C 208.134,259.153 211.801,261.32 215.5,263.5C 216.739,263.058 217.739,262.391 218.5,261.5C 219.249,260.469 219.915,259.302 220.5,258C 219.915,256.698 219.249,255.531 218.5,254.5C 216.05,250.432 212.384,248.098 207.5,247.5C 202.029,244.922 196.695,245.256 191.5,248.5C 181.866,253.439 177.866,261.105 179.5,271.5C 180.594,278.095 182.261,284.428 184.5,290.5C 186.358,300.931 188.691,311.264 191.5,321.5C 191.376,322.107 191.043,322.44 190.5,322.5C 179.548,308.042 168.382,293.709 157,279.5C 156.392,277.846 155.892,276.179 155.5,274.5C 156.848,264.012 157.848,253.345 158.5,242.5C 159.164,239.854 159.498,237.021 159.5,234C 159.714,229.867 159.048,226.034 157.5,222.5C 157.5,222.167 157.5,221.833 157.5,221.5C 157.435,218.572 156.768,215.905 155.5,213.5C 154.419,203.857 152.419,194.524 149.5,185.5C 148.354,177.815 147.021,170.148 145.5,162.5C 146.504,159.78 148.171,159.113 150.5,160.5 Z"/></g>
<g><path style="opacity:0.153" fill="#75838c" d="M 124.5,159.5 C 124.817,156.428 124.484,153.428 123.5,150.5C 119.405,152.548 115.405,154.548 111.5,156.5C 115.267,153.107 119.6,150.44 124.5,148.5C 125.808,152.315 125.808,155.981 124.5,159.5 Z"/></g>
<g><path style="opacity:1" fill="#52beae" d="M 198.5,160.5 C 199.419,163.089 201.086,165.089 203.5,166.5C 208.189,170.222 212.189,174.555 215.5,179.5C 216.203,181.716 217.536,183.549 219.5,185C 239.5,185.667 259.5,185.667 279.5,185C 259.662,184.832 239.996,184.332 220.5,183.5C 240.511,183.833 260.511,183.5 280.5,182.5C 283.188,178.479 286.521,175.145 290.5,172.5C 294.536,168.466 298.202,164.132 301.5,159.5C 304.833,156.833 307.833,153.833 310.5,150.5C 325.837,150.333 341.17,150.5 356.5,151C 357.745,151.791 359.078,152.291 360.5,152.5C 361.906,152.973 362.573,153.973 362.5,155.5C 361.609,167.617 359.943,179.617 357.5,191.5C 357.5,191.833 357.5,192.167 357.5,192.5C 354.117,203.547 351.284,214.88 349,226.5C 348.186,231.02 348.353,235.354 349.5,239.5C 349.521,246.374 350.187,253.041 351.5,259.5C 351.5,259.833 351.5,260.167 351.5,260.5C 351.985,268.656 351.318,276.656 349.5,284.5C 343.573,294.087 336.906,303.087 329.5,311.5C 327.983,311.511 326.816,312.177 326,313.5C 323.19,316.464 321.024,319.798 319.5,323.5C 315.543,329.457 311.21,335.123 306.5,340.5C 302.493,342.531 300.493,345.864 300.5,350.5C 298.809,358.191 294.476,363.857 287.5,367.5C 284.092,368.367 280.758,369.533 277.5,371C 270.545,372.121 263.879,371.288 257.5,368.5C 255.596,368.262 254.262,367.262 253.5,365.5C 252.521,363.855 251.188,362.521 249.5,361.5C 248.702,361.957 248.369,362.624 248.5,363.5C 247.833,364.833 246.833,365.833 245.5,366.5C 242.052,367.39 239.052,369.057 236.5,371.5C 235.432,372.434 234.099,372.768 232.5,372.5C 227.668,371.6 222.668,370.934 217.5,370.5C 212.678,369.002 208.678,366.336 205.5,362.5C 204.66,360.147 203.326,358.147 201.5,356.5C 200.675,350.994 198.342,346.327 194.5,342.5C 193.833,342.5 193.5,342.167 193.5,341.5C 192.588,339.405 191.421,337.405 190,335.5C 189.329,334.748 188.496,334.414 187.5,334.5C 182.104,328.709 177.437,322.376 173.5,315.5C 172.92,313.251 171.587,311.585 169.5,310.5C 167.738,309.738 166.738,308.404 166.5,306.5C 165.833,303.833 164.167,302.167 161.5,301.5C 160.075,300.078 159.075,298.411 158.5,296.5C 155.27,290.273 151.27,284.607 146.5,279.5C 146.5,279.167 146.5,278.833 146.5,278.5C 147.832,263.517 149.165,248.517 150.5,233.5C 149.727,224.417 147.727,215.75 144.5,207.5C 143.659,205.621 143.325,203.621 143.5,201.5C 141.958,189.111 139.292,177.111 135.5,165.5C 135.5,164.833 135.5,164.167 135.5,163.5C 134.813,157.014 137.48,152.847 143.5,151C 158.5,150.333 173.5,150.333 188.5,151C 191.703,154.371 195.036,157.538 198.5,160.5 Z M 150.5,160.5 C 153.167,162.833 155.833,165.167 158.5,167.5C 159.585,169.587 161.251,170.92 163.5,171.5C 163.5,172.167 163.833,172.5 164.5,172.5C 165.585,174.587 167.251,175.92 169.5,176.5C 169.973,177.906 170.973,178.573 172.5,178.5C 174.239,181.243 176.573,183.243 179.5,184.5C 181.549,187.55 184.216,189.883 187.5,191.5C 188.833,194.5 188.833,197.5 187.5,200.5C 184.878,204.457 181.878,208.124 178.5,211.5C 175.331,212.917 172.331,214.583 169.5,216.5C 168.07,218.455 168.403,220.121 170.5,221.5C 171.312,222.993 172.645,223.66 174.5,223.5C 177.102,223.533 179.102,222.533 180.5,220.5C 185.061,219.054 188.728,216.387 191.5,212.5C 193.543,211.421 194.876,209.754 195.5,207.5C 195.5,207.167 195.5,206.833 195.5,206.5C 196.117,206.389 196.617,206.056 197,205.5C 197.988,202.362 198.822,199.195 199.5,196C 199.607,193.779 198.94,191.946 197.5,190.5C 197.727,188.067 196.727,186.401 194.5,185.5C 192.833,183.167 190.833,181.167 188.5,179.5C 186.772,177.774 184.772,176.441 182.5,175.5C 180.431,172.427 177.764,170.094 174.5,168.5C 173.833,167.167 172.833,166.167 171.5,165.5C 170.04,163.537 168.373,161.704 166.5,160C 172.5,159.333 178.5,159.333 184.5,160C 189.064,164.395 193.398,168.895 197.5,173.5C 199.766,177.436 202.766,180.769 206.5,183.5C 208.915,187.422 211.915,190.922 215.5,194C 238.167,194.667 260.833,194.667 283.5,194C 284.056,193.617 284.389,193.117 284.5,192.5C 294.212,183.123 303.212,173.123 311.5,162.5C 312.627,161.878 313.627,161.045 314.5,160C 320.196,159.17 325.863,159.337 331.5,160.5C 330.047,162.185 328.714,163.851 327.5,165.5C 322.533,169.132 317.867,173.132 313.5,177.5C 310.236,179.094 307.569,181.427 305.5,184.5C 303.178,185.802 301.845,187.802 301.5,190.5C 298.954,193.868 298.954,197.201 301.5,200.5C 300.557,202.001 300.891,203.335 302.5,204.5C 302.845,207.198 304.178,209.198 306.5,210.5C 307.419,213.089 309.086,215.089 311.5,216.5C 315.48,219.741 319.98,222.074 325,223.5C 330.327,222.52 331.494,219.853 328.5,215.5C 321.25,212.248 315.583,207.248 311.5,200.5C 309.893,197.222 310.227,194.222 312.5,191.5C 324.515,181.481 336.182,171.147 347.5,160.5C 349.167,160.5 350.833,160.5 352.5,160.5C 352.5,162.833 352.5,165.167 352.5,167.5C 352.5,168.5 352.5,169.5 352.5,170.5C 348.901,183.574 345.901,196.907 343.5,210.5C 343.5,210.833 343.5,211.167 343.5,211.5C 341.597,217.249 340.264,223.249 339.5,229.5C 337.269,231.642 337.269,233.642 339.5,235.5C 340.861,249.473 341.861,263.473 342.5,277.5C 335.84,286.495 329.174,295.495 322.5,304.5C 320.453,306.55 318.786,308.883 317.5,311.5C 315.413,312.585 314.08,314.251 313.5,316.5C 311.871,317.625 310.371,318.959 309,320.5C 309.37,314.806 310.203,309.139 311.5,303.5C 313.102,299.079 314.102,294.412 314.5,289.5C 318.442,280.81 319.775,271.81 318.5,262.5C 318.539,259.911 317.539,257.911 315.5,256.5C 313.242,251.249 309.242,248.249 303.5,247.5C 299.402,245.045 295.068,244.878 290.5,247C 284.278,248.414 280.278,252.08 278.5,258C 278.617,260.616 279.95,262.116 282.5,262.5C 285.457,263.535 287.791,262.535 289.5,259.5C 297.744,254.321 304.244,255.988 309,264.5C 308.152,273.238 306.652,281.905 304.5,290.5C 304.5,290.833 304.5,291.167 304.5,291.5C 300.309,311.934 295.309,332.267 289.5,352.5C 287.738,353.262 286.738,354.596 286.5,356.5C 283.159,358.503 279.825,360.503 276.5,362.5C 273.455,362.508 270.455,362.841 267.5,363.5C 264.055,362.27 261.055,360.27 258.5,357.5C 257.928,355.745 257.094,354.078 256,352.5C 255.333,350.5 255.333,348.5 256,346.5C 258.167,345.512 260,344.179 261.5,342.5C 261.833,342.5 262.167,342.5 262.5,342.5C 263.71,342.068 264.71,341.401 265.5,340.5C 266.833,339.833 267.833,338.833 268.5,337.5C 269.898,336.223 270.564,334.557 270.5,332.5C 270.66,330.645 269.993,329.312 268.5,328.5C 268.5,327.833 268.167,327.5 267.5,327.5C 265.035,325.163 262.035,323.663 258.5,323C 252.5,322.333 246.5,322.333 240.5,323C 238.277,323.566 236.277,324.4 234.5,325.5C 227.467,328.84 226.633,333.507 232,339.5C 232.671,340.252 233.504,340.586 234.5,340.5C 235.659,342.25 237.326,343.25 239.5,343.5C 242.232,344.746 243.566,346.913 243.5,350C 243.182,353.123 242.182,355.956 240.5,358.5C 238.405,359.412 236.405,360.579 234.5,362C 231.854,362.497 229.187,362.664 226.5,362.5C 223.579,362.717 220.913,362.051 218.5,360.5C 218.167,360.5 217.833,360.5 217.5,360.5C 213.37,356.713 210.036,352.379 207.5,347.5C 206.924,342.191 205.591,337.191 203.5,332.5C 203.242,326.472 201.908,320.806 199.5,315.5C 198.579,307.226 196.913,299.226 194.5,291.5C 193.924,286.191 192.591,281.191 190.5,276.5C 186.329,263.287 190.995,256.787 204.5,257C 208.134,259.153 211.801,261.32 215.5,263.5C 216.739,263.058 217.739,262.391 218.5,261.5C 219.249,260.469 219.915,259.302 220.5,258C 219.915,256.698 219.249,255.531 218.5,254.5C 216.05,250.432 212.384,248.098 207.5,247.5C 202.029,244.922 196.695,245.256 191.5,248.5C 181.866,253.439 177.866,261.105 179.5,271.5C 180.594,278.095 182.261,284.428 184.5,290.5C 186.358,300.931 188.691,311.264 191.5,321.5C 191.376,322.107 191.043,322.44 190.5,322.5C 179.548,308.042 168.382,293.709 157,279.5C 156.392,277.846 155.892,276.179 155.5,274.5C 156.848,264.012 157.848,253.345 158.5,242.5C 159.164,239.854 159.498,237.021 159.5,234C 159.714,229.867 159.048,226.034 157.5,222.5C 157.5,222.167 157.5,221.833 157.5,221.5C 157.435,218.572 156.768,215.905 155.5,213.5C 154.419,203.857 152.419,194.524 149.5,185.5C 148.354,177.815 147.021,170.148 145.5,162.5C 146.504,159.78 148.171,159.113 150.5,160.5 Z"/></g>
<g><path style="opacity:0.663" fill="#9cafb6" d="M 309.5,150.5 C 309.833,150.5 310.167,150.5 310.5,150.5C 307.833,153.833 304.833,156.833 301.5,159.5C 303.43,155.9 306.097,152.9 309.5,150.5 Z"/></g>
<g><path style="opacity:0.171" fill="#79838b" d="M 197.5,173.5 C 193.398,168.895 189.064,164.395 184.5,160C 178.5,159.333 172.5,159.333 166.5,160C 168.373,161.704 170.04,163.537 171.5,165.5C 168.588,163.934 165.921,161.934 163.5,159.5C 170.811,158.335 178.144,158.169 185.5,159C 190.49,163.144 194.49,167.977 197.5,173.5 Z"/></g>
<g><path style="opacity:0.078" fill="#748389" d="M 327.5,165.5 C 328.714,163.851 330.047,162.185 331.5,160.5C 325.863,159.337 320.196,159.17 314.5,160C 313.627,161.045 312.627,161.878 311.5,162.5C 311.511,160.983 312.177,159.816 313.5,159C 320.833,158.333 328.167,158.333 335.5,159C 333.249,161.758 330.582,163.925 327.5,165.5 Z"/></g>
<g><path style="opacity:0.302" fill="#92a0a7" d="M 401.5,168.5 C 393.414,160.984 384.748,154.984 375.5,150.5C 374.348,153.106 374.182,155.773 375,158.5C 379.835,161.489 384.335,164.822 388.5,168.5C 383.471,165.898 378.638,162.898 374,159.5C 373.087,155.638 373.42,151.972 375,148.5C 381.833,152.667 388.667,156.833 395.5,161C 398.118,163.106 400.118,165.606 401.5,168.5 Z"/></g>
<g><path style="opacity:0.78" fill="#828f97" d="M 362.5,155.5 C 363.525,156.374 364.192,157.541 364.5,159C 362.719,170.079 360.386,180.912 357.5,191.5C 359.943,179.617 361.609,167.617 362.5,155.5 Z"/></g>
<g><path style="opacity:0.816" fill="#919ba2" d="M 198.5,160.5 C 200.914,161.911 202.581,163.911 203.5,166.5C 201.086,165.089 199.419,163.089 198.5,160.5 Z"/></g>
<g><path style="opacity:0.325" fill="#6e8189" d="M 347.5,160.5 C 349.607,159.532 351.941,159.198 354.5,159.5C 354.889,162.553 354.223,165.22 352.5,167.5C 352.5,165.167 352.5,162.833 352.5,160.5C 350.833,160.5 349.167,160.5 347.5,160.5 Z"/></g>
<g><path style="opacity:0.671" fill="#929ea4" d="M 301.5,159.5 C 298.202,164.132 294.536,168.466 290.5,172.5C 293.046,167.281 296.713,162.948 301.5,159.5 Z"/></g>
<g><path style="opacity:0.004" fill="#000000" d="M 132.5,163.5 C 133.833,164.167 133.833,164.167 132.5,163.5 Z"/></g>
<g><path style="opacity:0.678" fill="#96a7ac" d="M 327.5,165.5 C 323.722,170.617 319.055,174.617 313.5,177.5C 317.867,173.132 322.533,169.132 327.5,165.5 Z"/></g>
<g><path style="opacity:0.718" fill="#858f95" d="M 158.5,167.5 C 160.749,168.08 162.415,169.413 163.5,171.5C 161.251,170.92 159.585,169.587 158.5,167.5 Z"/></g>
<g><path style="opacity:0.251" fill="#808c94" d="M 150.5,160.5 C 148.171,159.113 146.504,159.78 145.5,162.5C 147.021,170.148 148.354,177.815 149.5,185.5C 147.204,178.436 145.538,171.103 144.5,163.5C 143.851,159.313 145.518,157.813 149.5,159C 150.056,159.383 150.389,159.883 150.5,160.5 Z"/></g>
<g><path style="opacity:0.008" fill="#80888c" d="M 174.5,168.5 C 177.764,170.094 180.431,172.427 182.5,175.5C 179.236,173.906 176.569,171.573 174.5,168.5 Z"/></g>
<g><path style="opacity:0.325" fill="#a0a6ae" d="M 401.5,168.5 C 403.539,169.911 404.539,171.911 404.5,174.5C 402.992,172.819 401.992,170.819 401.5,168.5 Z"/></g>
<g><path style="opacity:0.078" fill="#7b868f" d="M 135.5,165.5 C 139.292,177.111 141.958,189.111 143.5,201.5C 140.233,189.751 137.566,177.751 135.5,165.5 Z"/></g>
<g><path style="opacity:0.2" fill="#8c9aa1" d="M 107.5,170.5 C 106.331,173.511 104.664,176.178 102.5,178.5C 103.151,175.197 104.818,172.53 107.5,170.5 Z"/></g>
<g><path style="opacity:0.373" fill="#70787d" d="M 164.5,172.5 C 166.749,173.08 168.415,174.413 169.5,176.5C 167.251,175.92 165.585,174.587 164.5,172.5 Z"/></g>
<g><path style="opacity:0.012" fill="#838f93" d="M 197.5,173.5 C 201.234,176.231 204.234,179.564 206.5,183.5C 202.766,180.769 199.766,177.436 197.5,173.5 Z"/></g>
<g><path style="opacity:0.004" fill="#000000" d="M 260.5,176.5 C 261.833,177.167 261.833,177.167 260.5,176.5 Z"/></g>
<g><path style="opacity:0.765" fill="#848c93" d="M 172.5,178.5 C 175.427,179.757 177.761,181.757 179.5,184.5C 176.573,183.243 174.239,181.243 172.5,178.5 Z"/></g>
<g><path style="opacity:0.004" fill="#000000" d="M 114.5,179.5 C 115.833,180.167 115.833,180.167 114.5,179.5 Z"/></g>
<g><path style="opacity:0.506" fill="#849095" d="M 188.5,179.5 C 190.833,181.167 192.833,183.167 194.5,185.5C 191.5,184.5 189.5,182.5 188.5,179.5 Z"/></g>
<g><path style="opacity:0.694" fill="#9aa6ac" d="M 313.5,177.5 C 311.431,180.573 308.764,182.906 305.5,184.5C 307.569,181.427 310.236,179.094 313.5,177.5 Z"/></g>
<g><path style="opacity:0.775" fill="#cfdbe0" d="M 215.5,179.5 C 217.167,180.833 218.833,182.167 220.5,183.5C 239.996,184.332 259.662,184.832 279.5,185C 259.5,185.667 239.5,185.667 219.5,185C 217.536,183.549 216.203,181.716 215.5,179.5 Z"/></g>
<g><path style="opacity:0.404" fill="#8b959e" d="M 352.5,170.5 C 350.501,184.177 347.501,197.51 343.5,210.5C 345.901,196.907 348.901,183.574 352.5,170.5 Z"/></g>
<g><path style="opacity:0.004" fill="#000000" d="M 20.5,190.5 C 21.8333,191.167 21.8333,191.167 20.5,190.5 Z"/></g>
<g><path style="opacity:0.318" fill="#8e99a0" d="M 149.5,185.5 C 152.419,194.524 154.419,203.857 155.5,213.5C 152.898,204.411 150.898,195.078 149.5,185.5 Z"/></g>
<g><path style="opacity:0.012" fill="#666d74" d="M 187.5,191.5 C 189.026,192.492 189.693,193.992 189.5,196C 189.693,198.008 189.026,199.508 187.5,200.5C 188.833,197.5 188.833,194.5 187.5,191.5 Z"/></g>
<g><path style="opacity:0.11" fill="#727e86" d="M 206.5,183.5 C 209.929,186.75 213.596,189.917 217.5,193C 239.876,193.812 262.21,193.645 284.5,192.5C 284.389,193.117 284.056,193.617 283.5,194C 260.833,194.667 238.167,194.667 215.5,194C 211.915,190.922 208.915,187.422 206.5,183.5 Z"/></g>
<g><path style="opacity:0.173" fill="#708287" d="M 312.5,191.5 C 310.227,194.222 309.893,197.222 311.5,200.5C 309.974,199.508 309.307,198.008 309.5,196C 309.05,193.374 310.05,191.874 312.5,191.5 Z"/></g>
<g><path style="opacity:0.827" fill="#90999f" d="M 197.5,190.5 C 198.94,191.946 199.607,193.779 199.5,196C 198.822,199.195 197.988,202.362 197,205.5C 196.617,206.056 196.117,206.389 195.5,206.5C 197.087,201.303 197.754,195.969 197.5,190.5 Z"/></g>
<g><path style="opacity:0.278" fill="#707c82" d="M 301.5,190.5 C 301.5,193.833 301.5,197.167 301.5,200.5C 298.954,197.201 298.954,193.868 301.5,190.5 Z"/></g>
<g><path style="opacity:0.004" fill="#000000" d="M 427.5,198.5 C 428.833,199.167 428.833,199.167 427.5,198.5 Z"/></g>
<g><path style="opacity:0.004" fill="#000000" d="M 129.5,201.5 C 130.833,202.167 130.833,202.167 129.5,201.5 Z"/></g>
<g><path style="opacity:0.325" fill="#8d95a0" d="M 302.5,204.5 C 304.326,206.147 305.66,208.147 306.5,210.5C 304.178,209.198 302.845,207.198 302.5,204.5 Z"/></g>
<g><path style="opacity:0.031" fill="#6e7b88" d="M 195.5,207.5 C 194.876,209.754 193.543,211.421 191.5,212.5C 192.136,210.205 193.469,208.539 195.5,207.5 Z"/></g>
<g><path style="opacity:0.012" fill="#757f85" d="M 306.5,210.5 C 308.914,211.911 310.581,213.911 311.5,216.5C 309.086,215.089 307.419,213.089 306.5,210.5 Z"/></g>
<g><path style="opacity:0.239" fill="#828e95" d="M 178.5,211.5 C 176.272,214.45 173.272,216.116 169.5,216.5C 172.331,214.583 175.331,212.917 178.5,211.5 Z"/></g>
<g><path style="opacity:0.404" fill="#7d868a" d="M 155.5,213.5 C 156.768,215.905 157.435,218.572 157.5,221.5C 155.96,219.162 155.294,216.495 155.5,213.5 Z"/></g>
<g><path style="opacity:0.149" fill="#7d8991" d="M 357.5,192.5 C 354.028,208.048 351.362,223.715 349.5,239.5C 348.353,235.354 348.186,231.02 349,226.5C 351.284,214.88 354.117,203.547 357.5,192.5 Z"/></g>
<g><path style="opacity:0.447" fill="#828e95" d="M 180.5,220.5 C 179.102,222.533 177.102,223.533 174.5,223.5C 172.645,223.66 171.312,222.993 170.5,221.5C 173.97,222.803 177.303,222.469 180.5,220.5 Z"/></g>
<g><path style="opacity:0.004" fill="#000000" d="M 416.5,223.5 C 417.833,224.167 417.833,224.167 416.5,223.5 Z"/></g>
<g><path style="opacity:0.157" fill="#5f6d75" d="M 102.5,178.5 C 102.517,225.685 102.517,273.018 102.5,320.5C 101.167,273.167 101.167,225.833 102.5,178.5 Z"/></g>
<g><path style="opacity:0.031" fill="#2d2f41" d="M 339.5,229.5 C 339.5,231.5 339.5,233.5 339.5,235.5C 337.269,233.642 337.269,231.642 339.5,229.5 Z"/></g>
<g><path style="opacity:0.027" fill="#57656a" d="M 157.5,222.5 C 159.048,226.034 159.714,229.867 159.5,234C 159.498,237.021 159.164,239.854 158.5,242.5C 158.609,235.804 158.276,229.137 157.5,222.5 Z"/></g>
<g><path style="opacity:0.443" fill="#7d8b93" d="M 144.5,207.5 C 147.727,215.75 149.727,224.417 150.5,233.5C 149.165,248.517 147.832,263.517 146.5,278.5C 145.84,277.036 145.507,275.369 145.5,273.5C 146.696,259.649 148.029,245.816 149.5,232C 147.894,223.805 146.228,215.639 144.5,207.5 Z"/></g>
<g><path style="opacity:0.412" fill="#757c83" d="M 405.5,177.5 C 406.246,189.674 406.913,202.007 407.5,214.5C 407.283,237.454 407.283,260.454 407.5,283.5C 406.851,296.295 406.184,308.961 405.5,321.5C 405.5,273.5 405.5,225.5 405.5,177.5 Z"/></g>
<g><path style="opacity:0.792" fill="#8a99a0" d="M 303.5,247.5 C 296.238,246.49 289.571,247.99 283.5,252C 280.066,255.298 279.733,258.798 282.5,262.5C 279.95,262.116 278.617,260.616 278.5,258C 280.278,252.08 284.278,248.414 290.5,247C 295.068,244.878 299.402,245.045 303.5,247.5 Z"/></g>
<g><path style="opacity:0.545" fill="#839098" d="M 111.5,156.5 C 106.675,159.878 102.175,163.878 98,168.5C 96.4725,171.417 95.1392,174.417 94,177.5C 93.3333,225.5 93.3333,273.5 94,321.5C 94.8917,324.284 96.0584,326.95 97.5,329.5C 100.551,332.879 103.551,336.212 106.5,339.5C 96.7656,333.709 91.9323,325.042 92,313.5C 91.3333,270.167 91.3333,226.833 92,183.5C 92.9288,170.414 99.4288,161.414 111.5,156.5 Z"/></g>
<g><path style="opacity:0.835" fill="#88949e" d="M 207.5,247.5 C 202.13,247.392 196.797,247.725 191.5,248.5C 196.695,245.256 202.029,244.922 207.5,247.5 Z"/></g>
<g><path style="opacity:0.004" fill="#000000" d="M 49.5,248.5 C 50.8333,249.167 50.8333,249.167 49.5,248.5 Z"/></g>
<g><path style="opacity:0.282" fill="#828d93" d="M 207.5,247.5 C 212.384,248.098 216.05,250.432 218.5,254.5C 214.966,251.903 211.3,249.57 207.5,247.5 Z"/></g>
<g><path style="opacity:0.451" fill="#98a4a9" d="M 303.5,247.5 C 309.242,248.249 313.242,251.249 315.5,256.5C 312.042,252.699 308.042,249.699 303.5,247.5 Z"/></g>
<g><path style="opacity:0.373" fill="#627178" d="M 349.5,239.5 C 350.936,245.947 351.603,252.614 351.5,259.5C 350.187,253.041 349.521,246.374 349.5,239.5 Z"/></g>
<g><path style="opacity:0.004" fill="#000000" d="M 86.5,251.5 C 87.8333,252.167 87.8333,252.167 86.5,251.5 Z"/></g>
<g><path style="opacity:0.004" fill="#000000" d="M 420.5,251.5 C 421.833,252.167 421.833,252.167 420.5,251.5 Z"/></g>
<g><path style="opacity:0.004" fill="#000000" d="M 111.5,254.5 C 112.833,255.167 112.833,255.167 111.5,254.5 Z"/></g>
<g><path style="opacity:0.871" fill="#8b93a0" d="M 218.5,254.5 C 219.249,255.531 219.915,256.698 220.5,258C 219.915,259.302 219.249,260.469 218.5,261.5C 218.5,259.167 218.5,256.833 218.5,254.5 Z"/></g>
<g><path style="opacity:0.294" fill="#99a2ab" d="M 315.5,256.5 C 317.539,257.911 318.539,259.911 318.5,262.5C 316.992,260.819 315.992,258.819 315.5,256.5 Z"/></g>
<g><path style="opacity:0.004" fill="#000000" d="M 60.5,262.5 C 61.8333,263.167 61.8333,263.167 60.5,262.5 Z"/></g>
<g><path style="opacity:0.004" fill="#000000" d="M 80.5,262.5 C 81.8333,263.167 81.8333,263.167 80.5,262.5 Z"/></g>
<g><path style="opacity:0.263" fill="#869399" d="M 158.5,242.5 C 157.848,253.345 156.848,264.012 155.5,274.5C 155.194,263.566 156.194,252.9 158.5,242.5 Z"/></g>
<g><path style="opacity:0.32" fill="#85909a" d="M 389.5,169.5 C 391.044,169.703 392.378,170.37 393.5,171.5C 394.662,173.824 395.829,176.158 397,178.5C 397.667,225.5 397.667,272.5 397,319.5C 396.8,321.32 395.966,322.653 394.5,323.5C 395.06,321.199 395.56,318.866 396,316.5C 396.667,271.167 396.667,225.833 396,180.5C 394.843,176.178 392.676,172.511 389.5,169.5 Z"/></g>
<g><path style="opacity:0.165" fill="#848d96" d="M 179.5,271.5 C 182.149,277.468 183.816,283.802 184.5,290.5C 182.261,284.428 180.594,278.095 179.5,271.5 Z"/></g>
<g><path style="opacity:0.102" fill="#808f95" d="M 343.5,211.5 C 342.583,218.672 341.583,225.839 340.5,233C 341.68,244.985 342.68,256.985 343.5,269C 343.498,272.021 343.164,274.854 342.5,277.5C 341.861,263.473 340.861,249.473 339.5,235.5C 339.5,233.5 339.5,231.5 339.5,229.5C 340.264,223.249 341.597,217.249 343.5,211.5 Z"/></g>
<g><path style="opacity:0.506" fill="#97a4aa" d="M 318.5,262.5 C 319.775,271.81 318.442,280.81 314.5,289.5C 316.866,280.665 318.2,271.665 318.5,262.5 Z"/></g>
<g><path style="opacity:0.463" fill="#8695a0" d="M 351.5,260.5 C 352.654,266.987 352.821,273.654 352,280.5C 351.392,282.066 350.558,283.4 349.5,284.5C 351.318,276.656 351.985,268.656 351.5,260.5 Z"/></g>
<g><path style="opacity:0.612" fill="#86959b" d="M 304.5,290.5 C 306.652,281.905 308.152,273.238 309,264.5C 304.244,255.988 297.744,254.321 289.5,259.5C 290.122,257.665 291.456,256.498 293.5,256C 301.051,254.026 306.551,256.526 310,263.5C 310.208,272.989 308.375,281.989 304.5,290.5 Z"/></g>
<g><path style="opacity:0.188" fill="#7a8991" d="M 146.5,279.5 C 151.27,284.607 155.27,290.273 158.5,296.5C 153.73,291.393 149.73,285.727 146.5,279.5 Z"/></g>
<g><path style="opacity:0.573" fill="#8999a0" d="M 190.5,276.5 C 192.591,281.191 193.924,286.191 194.5,291.5C 192.098,286.899 190.765,281.899 190.5,276.5 Z"/></g>
<g><path style="opacity:0.004" fill="#000000" d="M 122.5,288.5 C 123.833,289.167 123.833,289.167 122.5,288.5 Z"/></g>
<g><path style="opacity:0.004" fill="#000000" d="M 347.5,290.5 C 348.833,291.167 348.833,291.167 347.5,290.5 Z"/></g>
<g><path style="opacity:0.059" fill="#828c95" d="M 314.5,289.5 C 314.102,294.412 313.102,299.079 311.5,303.5C 311.581,298.523 312.581,293.857 314.5,289.5 Z"/></g>
<g><path style="opacity:0.518" fill="#87959b" d="M 194.5,291.5 C 196.913,299.226 198.579,307.226 199.5,315.5C 196.988,307.791 195.322,299.791 194.5,291.5 Z"/></g>
<g><path style="opacity:0.004" fill="#000000" d="M 391.5,299.5 C 392.833,300.167 392.833,300.167 391.5,299.5 Z"/></g>
<g><path style="opacity:0.439" fill="#848d9c" d="M 161.5,301.5 C 164.167,302.167 165.833,303.833 166.5,306.5C 164.5,305.167 162.833,303.5 161.5,301.5 Z"/></g>
<g><path style="opacity:0.145" fill="#8a959b" d="M 184.5,290.5 C 187.705,301.479 190.705,312.646 193.5,324C 192.075,325.515 191.075,325.015 190.5,322.5C 191.043,322.44 191.376,322.107 191.5,321.5C 188.691,311.264 186.358,300.931 184.5,290.5 Z"/></g>
<g><path style="opacity:0.129" fill="#838d96" d="M 311.5,303.5 C 310.203,309.139 309.37,314.806 309,320.5C 310.371,318.959 311.871,317.625 313.5,316.5C 311.562,320.265 308.895,323.098 305.5,325C 306.973,317.599 308.973,310.432 311.5,303.5 Z"/></g>
<g><path style="opacity:0.792" fill="#9aa3ad" d="M 322.5,304.5 C 321.99,307.674 320.323,310.008 317.5,311.5C 318.786,308.883 320.453,306.55 322.5,304.5 Z"/></g>
<g><path style="opacity:0.024" fill="#879097" d="M 169.5,310.5 C 171.587,311.585 172.92,313.251 173.5,315.5C 171.413,314.415 170.08,312.749 169.5,310.5 Z"/></g>
<g><path style="opacity:0.098" fill="#8a979e" d="M 329.5,311.5 C 326.514,315.817 323.18,319.817 319.5,323.5C 321.024,319.798 323.19,316.464 326,313.5C 326.816,312.177 327.983,311.511 329.5,311.5 Z"/></g>
<g><path style="opacity:0.302" fill="#88939b" d="M 304.5,291.5 C 302.169,307.654 299.003,323.654 295,339.5C 293.815,344.255 291.982,348.588 289.5,352.5C 295.309,332.267 300.309,311.934 304.5,291.5 Z"/></g>
<g><path style="opacity:0.422" fill="#8d9ba4" d="M 267.5,327.5 C 256.766,322.996 245.766,322.329 234.5,325.5C 236.277,324.4 238.277,323.566 240.5,323C 246.5,322.333 252.5,322.333 258.5,323C 262.035,323.663 265.035,325.163 267.5,327.5 Z"/></g>
<g><path style="opacity:0.38" fill="#8c9aa4" d="M 405.5,321.5 C 404.211,328.12 400.878,333.453 395.5,337.5C 399.337,332.495 402.67,327.162 405.5,321.5 Z"/></g>
<g><path style="opacity:0.004" fill="#000000" d="M 89.5,332.5 C 90.8333,333.167 90.8333,333.167 89.5,332.5 Z"/></g>
<g><path style="opacity:0.192" fill="#8fa0a7" d="M 113.5,332.5 C 119.536,336.181 125.536,339.848 131.5,343.5C 129.94,343.481 128.44,343.148 127,342.5C 122.746,339.289 118.246,336.456 113.5,334C 112.262,333.31 112.262,332.81 113.5,332.5 Z"/></g>
<g><path style="opacity:0.353" fill="#868f94" d="M 268.5,328.5 C 269.993,329.312 270.66,330.645 270.5,332.5C 270.564,334.557 269.898,336.223 268.5,337.5C 269.678,334.477 269.678,331.477 268.5,328.5 Z"/></g>
<g><path style="opacity:0.718" fill="#8b94a1" d="M 187.5,334.5 C 188.496,334.414 189.329,334.748 190,335.5C 191.421,337.405 192.588,339.405 193.5,341.5C 190.8,339.766 188.8,337.432 187.5,334.5 Z"/></g>
<g><path style="opacity:0.4" fill="#8699a1" d="M 234.5,325.5 C 232.652,327.516 230.985,329.683 229.5,332C 230.979,334.971 232.645,337.804 234.5,340.5C 233.504,340.586 232.671,340.252 232,339.5C 226.633,333.507 227.467,328.84 234.5,325.5 Z"/></g>
<g><path style="opacity:0.686" fill="#91a3ab" d="M 203.5,332.5 C 205.591,337.191 206.924,342.191 207.5,347.5C 205.168,342.874 203.835,337.874 203.5,332.5 Z"/></g>
<g><path style="opacity:0.004" fill="#000000" d="M 88.5,338.5 C 89.8333,339.167 89.8333,339.167 88.5,338.5 Z"/></g>
<g><path style="opacity:0.192" fill="#77799c" d="M 265.5,340.5 C 264.71,341.401 263.71,342.068 262.5,342.5C 262.821,340.952 263.821,340.285 265.5,340.5 Z"/></g>
<g><path style="opacity:0.325" fill="#687e87" d="M 306.5,340.5 C 304.063,343.597 302.063,346.93 300.5,350.5C 300.493,345.864 302.493,342.531 306.5,340.5 Z"/></g>
<g><path style="opacity:0.471" fill="#94a3ab" d="M 106.5,339.5 C 110.505,340.498 113.839,342.498 116.5,345.5C 112.827,344 109.494,342 106.5,339.5 Z"/></g>
<g><path style="opacity:0.412" fill="#768289" d="M 239.5,343.5 C 243.343,343.491 245.01,345.491 244.5,349.5C 245.035,353.424 243.702,356.424 240.5,358.5C 242.182,355.956 243.182,353.123 243.5,350C 243.566,346.913 242.232,344.746 239.5,343.5 Z"/></g>
<g><path style="opacity:0.255" fill="#80919a" d="M 116.5,345.5 C 119.267,345.87 121.267,347.204 122.5,349.5C 120.147,348.66 118.147,347.326 116.5,345.5 Z"/></g>
<g><path style="opacity:0.592" fill="#95a2aa" d="M 387.5,331.5 C 376.835,339.503 365.502,346.503 353.5,352.5C 364.49,345.002 375.824,338.002 387.5,331.5 Z"/></g>
<g><path style="opacity:0.38" fill="#929ca2" d="M 137.5,347.5 C 140.704,348.383 143.371,350.05 145.5,352.5C 142.296,351.617 139.629,349.95 137.5,347.5 Z"/></g>
<g><path style="opacity:0.275" fill="#819096" d="M 207.5,347.5 C 210.036,352.379 213.37,356.713 217.5,360.5C 211.925,357.921 208.592,353.588 207.5,347.5 Z"/></g>
<g><path style="opacity:0.004" fill="#000000" d="M 87.5,351.5 C 88.8333,352.167 88.8333,352.167 87.5,351.5 Z"/></g>
<g><path style="opacity:0.306" fill="#90a1a7" d="M 126.5,351.5 C 127.552,351.351 128.552,351.517 129.5,352C 132.5,353.909 135.167,356.076 137.5,358.5C 133.317,356.913 129.65,354.579 126.5,351.5 Z"/></g>
<g><path style="opacity:0.251" fill="#7d8991" d="M 194.5,342.5 C 198.342,346.327 200.675,350.994 201.5,356.5C 199.175,351.877 196.842,347.211 194.5,342.5 Z"/></g>
<g><path style="opacity:0.341" fill="#7d8b92" d="M 261.5,342.5 C 260,344.179 258.167,345.512 256,346.5C 255.333,348.5 255.333,350.5 256,352.5C 257.094,354.078 257.928,355.745 258.5,357.5C 254.705,354.32 253.372,350.32 254.5,345.5C 256.739,344.212 259.072,343.212 261.5,342.5 Z"/></g>
<g><path style="opacity:0.612" fill="#9ea9b1" d="M 353.5,352.5 C 350.424,355.551 346.758,357.884 342.5,359.5C 345.65,356.421 349.317,354.087 353.5,352.5 Z"/></g>
<g><path style="opacity:0.357" fill="#87949b" d="M 145.5,352.5 C 152.506,356 159.173,360 165.5,364.5C 158.206,361.521 151.54,357.521 145.5,352.5 Z"/></g>
<g><path style="opacity:0.325" fill="#8c959d" d="M 201.5,356.5 C 203.326,358.147 204.66,360.147 205.5,362.5C 203.178,361.198 201.845,359.198 201.5,356.5 Z"/></g>
<g><path style="opacity:0.71" fill="#7e8795" d="M 258.5,357.5 C 261.055,360.27 264.055,362.27 267.5,363.5C 262.931,363.723 259.931,361.723 258.5,357.5 Z"/></g>
<g><path style="opacity:0.114" fill="#88939b" d="M 363.5,357.5 C 361.664,359.588 359.331,360.921 356.5,361.5C 358.34,359.331 360.674,357.998 363.5,357.5 Z"/></g>
<g><path style="opacity:0.004" fill="#000000" d="M 16.5,359.5 C 17.8333,360.167 17.8333,360.167 16.5,359.5 Z"/></g>
<g><path style="opacity:0.004" fill="#000000" d="M 33.5,359.5 C 34.8333,360.167 34.8333,360.167 33.5,359.5 Z"/></g>
<g><path style="opacity:0.345" fill="#7f9299" d="M 286.5,356.5 C 284.127,360.023 280.793,362.023 276.5,362.5C 279.825,360.503 283.159,358.503 286.5,356.5 Z"/></g>
<g><path style="opacity:0.733" fill="#717782" d="M 218.5,360.5 C 220.913,362.051 223.579,362.717 226.5,362.5C 226.158,363.338 225.492,363.672 224.5,363.5C 221.607,363.969 219.607,362.969 218.5,360.5 Z"/></g>
<g><path style="opacity:0.42" fill="#8a99a3" d="M 240.5,358.5 C 237.479,362.649 233.312,364.649 228,364.5C 226.615,364.486 225.449,364.152 224.5,363.5C 225.492,363.672 226.158,363.338 226.5,362.5C 229.187,362.664 231.854,362.497 234.5,362C 236.405,360.579 238.405,359.412 240.5,358.5 Z"/></g>
<g><path style="opacity:0.004" fill="#000000" d="M 60.5,363.5 C 61.8333,364.167 61.8333,364.167 60.5,363.5 Z"/></g>
<g><path style="opacity:0.047" fill="#5e6a70" d="M 253.5,365.5 C 251.833,364.833 250.167,364.167 248.5,363.5C 248.369,362.624 248.702,361.957 249.5,361.5C 251.188,362.521 252.521,363.855 253.5,365.5 Z"/></g>
<g><path style="opacity:0.208" fill="#7f8c93" d="M 342.5,359.5 C 339.825,362.007 336.992,364.34 334,366.5C 333.667,366.167 333.333,365.833 333,365.5C 327.026,369.567 320.859,373.234 314.5,376.5C 322.826,369.33 332.16,363.663 342.5,359.5 Z"/></g>
<g><path style="opacity:0.239" fill="#839298" d="M 353.5,363.5 C 350.434,365.89 347.1,367.89 343.5,369.5C 345.163,367.467 347.163,365.634 349.5,364C 350.793,363.51 352.127,363.343 353.5,363.5 Z"/></g>
<g><path style="opacity:0.494" fill="#82999e" d="M 149.5,365.5 C 150.847,366.171 152.014,366.171 153,365.5C 154.803,367.623 156.637,369.623 158.5,371.5C 154.975,370.241 151.975,368.241 149.5,365.5 Z"/></g>
<g><path style="opacity:0.067" fill="#75818d" d="M 245.5,366.5 C 242.992,368.924 239.992,370.59 236.5,371.5C 239.052,369.057 242.052,367.39 245.5,366.5 Z"/></g>
<g><path style="opacity:0.573" fill="#8e9ca5" d="M 166.5,364.5 C 172.881,368.017 178.881,372.017 184.5,376.5C 180.394,374.612 176.394,372.446 172.5,370C 169.957,368.618 167.957,366.785 166.5,364.5 Z"/></g>
<g><path style="opacity:0.792" fill="#a0aeb7" d="M 217.5,370.5 C 222.668,370.934 227.668,371.6 232.5,372.5C 227.231,373.644 222.231,372.978 217.5,370.5 Z"/></g>
<g><path style="opacity:0.788" fill="#9babb2" d="M 287.5,367.5 C 279.913,372.783 271.579,374.283 262.5,372C 260.416,371.303 258.749,370.136 257.5,368.5C 263.879,371.288 270.545,372.121 277.5,371C 280.758,369.533 284.092,368.367 287.5,367.5 Z"/></g>
<g><path style="opacity:0.275" fill="#92a1a7" d="M 343.5,369.5 C 337.372,373.736 331.038,377.736 324.5,381.5C 324.937,379.926 325.937,378.759 327.5,378C 332.774,374.853 338.108,372.02 343.5,369.5 Z"/></g>
<g><path style="opacity:0.541" fill="#8fa5a9" d="M 314.5,376.5 C 310.293,380.772 305.293,383.772 299.5,385.5C 304.134,381.948 309.134,378.948 314.5,376.5 Z"/></g>
<g><path style="opacity:0.318" fill="#86959b" d="M 173.5,380.5 C 177.114,382.307 180.78,384.14 184.5,386C 185.381,386.708 186.047,387.542 186.5,388.5C 181.657,386.582 177.323,383.916 173.5,380.5 Z"/></g>
<g><path style="opacity:0.345" fill="#88979f" d="M 321.5,383.5 C 318.001,385.75 314.335,387.75 310.5,389.5C 313.4,386.214 317.067,384.214 321.5,383.5 Z"/></g>
<g><path style="opacity:0.267" fill="#939ba2" d="M 299.5,385.5 C 297.371,387.95 294.704,389.617 291.5,390.5C 293.629,388.05 296.296,386.383 299.5,385.5 Z"/></g>
<g><path style="opacity:0.984" fill="#a4b6ba" d="M 291.5,390.5 C 288.839,393.502 285.505,395.502 281.5,396.5C 284.494,394 287.827,392 291.5,390.5 Z"/></g>
<g><path style="opacity:0.129" fill="#8f9ca1" d="M 304.5,393.5 C 300.21,396.985 295.543,399.985 290.5,402.5C 290.937,400.926 291.937,399.759 293.5,399C 296.952,396.607 300.619,394.774 304.5,393.5 Z"/></g>
<g><path style="opacity:0.004" fill="#000000" d="M 462.5,401.5 C 463.833,402.167 463.833,402.167 462.5,401.5 Z"/></g>
<g><path style="opacity:0.004" fill="#000000" d="M 93.5,402.5 C 94.8333,403.167 94.8333,403.167 93.5,402.5 Z"/></g>
<g><path style="opacity:0.98" fill="#88a5a7" d="M 225.5,401.5 C 229.173,403 232.506,405 235.5,407.5C 231.568,406.2 227.901,404.367 224.5,402C 224.728,401.601 225.062,401.435 225.5,401.5 Z"/></g>
<g><path style="opacity:0.478" fill="#95a2ad" d="M 212.5,404.5 C 215.614,404.555 217.948,405.888 219.5,408.5C 216.996,407.416 214.663,406.083 212.5,404.5 Z"/></g>
<g><path style="opacity:0.004" fill="#000000" d="M 34.5,406.5 C 35.8333,407.167 35.8333,407.167 34.5,406.5 Z"/></g>
<g><path style="opacity:0.376" fill="#829096" d="M 281.5,396.5 C 273.902,402.644 265.569,407.81 256.5,412C 251.833,412.667 247.167,412.667 242.5,412C 241.584,411.722 240.918,411.222 240.5,410.5C 246.218,411.995 251.885,411.829 257.5,410C 265.716,405.729 273.716,401.229 281.5,396.5 Z"/></g>
<g><path style="opacity:0.004" fill="#000000" d="M 456.5,408.5 C 457.833,409.167 457.833,409.167 456.5,408.5 Z"/></g>
<g><path style="opacity:0.341" fill="#8a96a0" d="M 219.5,408.5 C 223.049,409.723 226.049,411.723 228.5,414.5C 224.975,413.241 221.975,411.241 219.5,408.5 Z"/></g>
<g><path style="opacity:0.055" fill="#818c93" d="M 279.5,408.5 C 272.396,414.403 264.396,418.903 255.5,422C 246.121,423.406 237.788,421.24 230.5,415.5C 234.105,416.963 237.771,418.463 241.5,420C 247.952,422.127 254.286,421.793 260.5,419C 266.74,415.243 273.074,411.743 279.5,408.5 Z"/></g>
<g><path style="opacity:0.004" fill="#000000" d="M 9.5,419.5 C 10.8333,420.167 10.8333,420.167 9.5,419.5 Z"/></g>
<g><path style="opacity:0.004" fill="#000000" d="M 472.5,432.5 C 473.833,433.167 473.833,433.167 472.5,432.5 Z"/></g>
<g><path style="opacity:0.004" fill="#000000" d="M 194.5,436.5 C 195.833,437.167 195.833,437.167 194.5,436.5 Z"/></g>
<g><path style="opacity:0.004" fill="#000000" d="M 362.5,454.5 C 363.833,455.167 363.833,455.167 362.5,454.5 Z"/></g>
<g><path style="opacity:0.004" fill="#000000" d="M 82.5,471.5 C 83.8333,472.167 83.8333,472.167 82.5,471.5 Z"/></g>
<g><path style="opacity:0.004" fill="#000000" d="M 165.5,472.5 C 166.833,473.167 166.833,473.167 165.5,472.5 Z"/></g>
<g><path style="opacity:0.004" fill="#000000" d="M 197.5,473.5 C 198.833,474.167 198.833,474.167 197.5,473.5 Z"/></g>
<g><path style="opacity:0.004" fill="#000000" d="M 444.5,487.5 C 445.833,488.167 445.833,488.167 444.5,487.5 Z"/></g>
</svg>
