<svg version="1.1" id="Layer_1" xmlns="http://www.w3.org/2000/svg" xmlns:xlink="http://www.w3.org/1999/xlink" x="0px" y="0px"
	 width="100%" viewBox="0 0 1024 1024" enable-background="new 0 0 1024 1024" xml:space="preserve">
<path fill="#000000" opacity="1.000000" stroke="none" 
	d="
M364.748962,761.020020 
	C367.652100,726.714661 369.195892,692.787354 372.409332,658.969604 
	C374.833496,633.457886 377.313568,607.947937 379.601532,582.422241 
	C380.826965,568.750671 376.878418,555.277344 377.692474,541.584656 
	C377.886505,538.320190 375.577240,536.534363 372.726685,535.417725 
	C367.607635,533.412476 362.510681,531.377380 357.825500,528.421082 
	C340.939758,517.766113 332.858276,501.340668 327.619781,482.923981 
	C324.876678,473.280212 323.389191,463.410461 321.706451,453.575409 
	C319.790833,442.379333 315.142487,433.466003 303.825348,429.056396 
	C298.975342,427.166626 297.163574,422.514893 296.807892,417.731171 
	C296.178528,409.266174 295.998322,400.764343 295.773804,392.274109 
	C295.646820,387.471863 298.113861,384.681274 302.766724,383.255646 
	C310.690430,380.827789 318.875519,380.642334 326.988739,380.139679 
	C348.261261,378.821777 369.551971,377.783600 390.841858,376.769165 
	C398.305237,376.413574 399.012665,375.444183 395.720093,368.983398 
	C384.787415,347.531067 379.469971,324.307312 374.659729,300.979095 
	C369.445923,275.693848 367.795380,250.176849 371.725861,224.527069 
	C373.621735,212.154694 376.392212,199.939484 382.080994,188.669113 
	C390.916595,171.164291 403.836578,158.091476 423.087646,152.300766 
	C431.293518,149.832428 439.266998,150.742538 446.766510,154.879257 
	C459.486145,161.895370 461.798309,173.803802 460.683990,186.675781 
	C459.112091,204.833389 453.949402,222.295135 449.104187,239.788605 
	C444.585876,256.101654 441.182526,272.501770 445.163330,289.507324 
	C446.461700,295.053925 449.410858,299.571228 453.241577,303.637817 
	C456.113434,306.686493 458.651306,306.412628 460.997833,303.021973 
	C462.514587,300.830292 464.223969,298.757721 465.583069,296.474670 
	C467.372803,293.468231 468.990875,293.328644 471.236877,296.054718 
	C474.411926,299.908325 477.807220,303.580200 481.096130,307.340454 
	C482.281860,308.696106 484.036469,310.013153 483.100403,312.051300 
	C482.207825,313.994690 480.125244,312.876190 478.584412,313.189545 
	C478.133331,313.281250 477.719177,313.554291 477.289001,313.743835 
	C476.952881,316.344910 480.471375,317.369324 479.590912,320.402954 
	C476.308105,322.220215 472.997009,320.266022 469.731293,319.738739 
	C465.308319,319.024597 461.084717,317.267548 456.531036,317.112213 
	C449.460388,316.871063 447.815002,318.621918 448.791840,325.566589 
	C447.078796,327.763885 444.250427,327.196808 441.991974,328.059418 
	C434.668976,330.856445 427.332947,333.652802 420.534607,337.550018 
	C416.989807,339.582092 415.701904,338.381317 414.183502,335.191589 
	C410.566437,327.593140 411.167633,319.285217 409.774536,311.329407 
	C404.602448,281.793365 411.722229,253.443069 418.414154,225.046356 
	C421.284119,212.867920 427.900330,203.517303 438.365143,196.859619 
	C445.352325,192.414368 447.845734,186.163834 446.889984,178.089676 
	C445.759827,168.542236 439.828888,163.471207 430.278137,164.262100 
	C416.339874,165.416382 397.157501,182.544388 394.462341,196.278702 
	C394.310669,197.051590 394.442688,197.880142 394.442688,199.467926 
	C397.740967,197.449417 399.415161,194.795624 401.412415,192.490677 
	C408.725098,184.051437 417.497498,178.082825 428.752075,176.289307 
	C431.391418,175.868713 431.386505,175.837967 434.194824,177.335022 
	C434.254028,178.291885 433.718719,178.873459 432.946777,179.297897 
	C415.421051,188.933868 406.776428,205.148849 401.822327,223.374313 
	C394.072113,251.885925 392.324738,280.823822 399.330078,309.833191 
	C401.795532,320.042816 405.080261,330.002289 411.494354,338.635406 
	C414.255585,342.351959 417.424561,343.443237 421.907501,342.199493 
	C425.993958,341.065704 430.056824,339.369415 435.825836,339.868256 
	C431.337646,346.497345 424.234406,349.225464 419.856415,355.172791 
	C422.626740,354.936340 423.495911,351.797485 426.953308,352.225525 
	C420.990784,360.016754 413.339661,366.228302 410.610779,376.174591 
	C415.750061,378.854187 421.424652,377.927399 426.682587,378.325836 
	C444.743042,379.694458 462.112488,384.243103 479.560333,388.585358 
	C492.769592,391.872803 506.201447,391.750092 519.739929,391.610840 
	C539.496826,391.407593 557.828979,384.195160 577.000610,381.231140 
	C587.866150,379.551331 598.774109,378.303925 609.667114,376.891327 
	C611.071167,376.709259 612.729675,377.101776 614.024719,374.912872 
	C606.497620,371.161804 604.622925,363.096954 600.374756,356.720215 
	C596.091370,350.290497 596.133240,350.226044 601.766296,345.187073 
	C611.919434,336.104645 618.309937,324.999329 620.863220,311.516571 
	C623.793640,296.042023 622.945984,280.709351 620.298157,265.344452 
	C617.546692,249.378281 612.534180,234.013901 607.991882,218.520218 
	C605.126465,208.746262 602.620605,198.900024 603.653015,188.548187 
	C603.987488,185.194290 604.210876,181.254776 607.533081,179.916168 
	C610.888000,178.564392 613.275208,181.915070 615.485352,184.038254 
	C619.377991,187.777664 621.980469,192.453995 624.095215,197.391022 
	C624.873413,199.207657 625.279053,201.205551 626.995483,203.046997 
	C628.570190,199.769363 627.415649,196.807053 626.820496,193.890671 
	C625.122986,185.571930 621.972107,177.997879 615.635437,172.016373 
	C605.428955,162.382034 593.193054,164.556000 587.009338,177.214569 
	C582.069580,187.326538 582.790771,197.851135 584.731628,208.508423 
	C587.051880,221.249039 592.448303,232.931427 596.977661,244.910080 
	C602.751221,260.179047 609.069946,275.338837 610.762939,291.729065 
	C612.099182,304.664581 612.584534,317.702087 607.166443,330.098480 
	C605.533325,333.834808 603.493835,337.163208 599.787354,339.247345 
	C593.745605,342.644592 589.137634,341.666260 585.161926,335.991699 
	C584.301758,334.764008 583.487549,333.503235 582.678162,332.241028 
	C579.640015,327.503235 573.777161,323.103485 581.439026,317.555725 
	C577.960510,314.028748 574.686035,316.074371 571.551575,316.432709 
	C567.781799,316.863739 564.029175,320.180939 560.559082,318.499695 
	C557.113281,316.830322 558.377869,311.897217 556.850586,308.626129 
	C555.089355,304.853851 553.848389,300.745575 548.405457,299.883331 
	C546.718384,303.944153 545.276917,308.153137 543.258606,312.064545 
	C541.232849,315.990356 538.763184,319.780853 533.159302,320.566315 
	C531.319580,307.249878 524.856201,297.586243 512.591309,290.854156 
	C512.457336,296.476471 516.825073,299.464417 516.689331,304.766052 
	C510.410797,303.948334 504.388641,303.194336 498.377106,302.363495 
	C496.453461,302.097656 495.745209,300.616516 495.218475,298.917877 
	C493.753662,294.194336 493.215027,289.509491 495.286713,284.629669 
	C499.222870,284.885803 499.372742,289.827728 502.584686,290.526917 
	C504.295807,290.041382 504.619415,288.625671 505.252197,287.498444 
	C508.901886,280.996887 513.568176,279.117035 520.684265,281.589844 
	C527.320190,283.895844 532.802917,287.790314 536.530396,293.905884 
	C537.372986,295.288330 537.913025,297.004028 540.172913,297.451904 
	C542.913025,295.688110 543.875366,292.285583 545.978210,289.807404 
	C550.186340,284.848267 553.469055,284.608215 558.034180,289.247314 
	C558.851379,290.077759 559.912903,290.849396 560.327148,291.866028 
	C563.606628,299.913605 569.971191,300.655762 577.464844,299.718750 
	C582.217590,299.124481 582.393616,295.798218 582.565308,292.518372 
	C583.045471,283.344818 582.040649,274.214630 581.197266,265.101013 
	C579.321777,244.836365 573.599792,225.183289 571.323120,204.998871 
	C569.698303,190.592911 569.980225,176.293655 579.357910,163.885391 
	C588.636169,151.608810 602.635376,148.589890 616.134705,156.046692 
	C628.010376,162.606628 634.799438,173.406967 639.998474,185.326355 
	C647.015564,201.413940 649.830078,218.436340 650.285095,235.899765 
	C651.261108,273.360321 645.827576,309.934479 634.971924,345.738556 
	C631.977112,355.616180 627.617676,364.988861 623.156555,375.385742 
	C629.075500,375.829163 634.418762,376.470001 639.773743,376.589691 
	C665.261780,377.159454 690.639709,379.238708 715.992798,381.770905 
	C726.042786,382.774689 728.367310,385.103394 728.254272,395.355347 
	C728.158813,404.008484 728.665771,412.677246 727.417236,421.311066 
	C726.881104,425.018646 725.169800,427.699615 721.707092,428.787659 
	C711.394470,432.027954 707.125427,440.296692 704.032776,449.566498 
	C700.700378,459.554718 699.635010,470.059296 697.213013,480.259094 
	C692.941467,498.247864 685.167664,514.124756 670.091187,525.610962 
	C664.623108,529.776917 658.464294,532.741577 652.116516,535.327942 
	C649.591919,536.356628 647.445374,537.524475 647.259766,540.900085 
	C646.308105,558.206970 644.890320,575.559509 646.503601,592.832092 
	C648.205627,611.054077 650.202332,629.248657 651.579529,647.504578 
	C653.031616,666.754578 654.696655,685.988403 656.172485,705.236755 
	C658.081360,730.132263 660.331055,755.000916 661.607605,779.945923 
	C662.611450,799.564148 664.082764,819.158020 665.178955,838.772095 
	C665.745911,848.915771 665.810425,859.087524 666.378479,869.231140 
	C666.637756,873.861389 664.847717,875.385376 660.331177,875.346375 
	C652.313782,875.277039 650.901428,874.698059 650.693665,869.362488 
	C650.000183,851.557983 649.637512,833.737244 648.702942,815.946167 
	C647.349670,790.185486 645.599548,764.445679 644.034485,738.696045 
	C642.923523,720.417053 641.896729,702.132690 640.727173,683.857422 
	C639.217529,660.266663 637.616699,636.681702 636.001953,613.097778 
	C635.896362,611.555847 636.394409,609.678650 634.415771,608.591187 
	C631.973389,609.482483 631.163391,611.872925 630.275818,613.861572 
	C626.271729,622.833252 618.772095,628.809998 612.124329,635.509705 
	C609.677551,637.975525 607.430786,640.222839 609.469604,644.083740 
	C610.529419,646.090637 608.924377,647.479553 607.761963,648.901978 
	C606.025452,651.026733 603.407349,652.520569 602.730225,655.339905 
	C604.193970,657.093933 605.340027,654.807129 607.332031,655.864258 
	C603.379456,661.900818 594.824097,666.520508 600.396118,675.783142 
	C593.264587,677.190613 595.771606,684.883179 591.044678,687.550110 
	C589.905823,689.177734 588.547607,686.757019 586.444275,688.150513 
	C587.446167,692.644226 587.236389,697.594055 586.880005,703.010681 
	C582.517944,700.730408 581.665466,695.271606 576.949768,693.590332 
	C575.203064,697.350037 579.091797,699.806091 578.716797,703.334351 
	C576.562744,703.605042 575.684814,701.665527 574.289001,700.800171 
	C572.848999,699.907349 571.564148,697.451233 569.725220,699.445862 
	C568.239746,701.057190 565.739075,702.521301 567.333496,705.784363 
	C568.778870,708.742432 569.295410,712.138855 570.520813,715.223022 
	C573.243713,722.076233 567.466125,726.384460 565.684631,732.173950 
	C566.746948,725.827942 561.756653,721.754333 560.544922,716.333313 
	C559.172852,710.194885 555.365479,708.178467 550.231262,709.739990 
	C549.343567,714.030945 547.399597,718.133789 547.971619,722.117676 
	C546.383301,724.044800 545.551147,721.683228 544.215637,722.592041 
	C543.817566,724.437134 543.375122,726.488220 542.939636,728.506775 
	C540.054810,728.535217 541.189575,725.410583 539.417480,724.655396 
	C537.632568,728.883789 535.858948,733.085449 533.920044,737.678589 
	C530.164795,735.235107 530.218872,730.336365 526.810059,727.388245 
	C525.727234,730.737427 526.628723,733.797974 527.126587,736.922241 
	C527.607422,739.940063 529.334106,742.778320 528.740051,746.373169 
	C524.762390,744.265747 525.821411,739.892090 523.540955,737.200256 
	C522.453674,739.251282 522.827820,741.363403 523.073547,743.542603 
	C523.306458,745.609131 524.078430,747.734558 522.756653,750.767700 
	C520.148499,745.456604 520.009705,740.413513 519.514893,735.415955 
	C508.950867,736.705383 515.130310,744.911194 513.600098,750.114258 
	C509.749603,748.842285 510.506226,744.764282 508.441895,742.085938 
	C505.851807,747.987244 508.467834,752.469299 511.106567,756.977844 
	C507.379089,757.289368 506.311523,756.522278 503.488464,750.810852 
	C501.967896,747.734558 500.878662,744.445068 499.356934,740.660156 
	C496.866241,744.071411 499.757660,747.232666 498.281158,750.774841 
	C493.215271,744.917297 496.979462,735.715637 489.561768,731.461548 
	C486.676117,733.836487 488.381561,737.252686 487.185455,740.268494 
	C485.609009,732.384338 478.746582,726.072998 482.088440,717.009399 
	C476.776764,716.381958 476.819458,721.871765 472.932556,722.370605 
	C473.235962,718.474121 477.005341,714.703247 472.753723,710.324402 
	C466.290497,714.833740 464.617065,721.869934 462.873718,728.865234 
	C456.386292,726.611938 455.568329,723.386963 457.862427,708.818848 
	C456.109222,706.742310 452.001556,707.924805 451.646454,703.339966 
	C449.042725,706.594849 447.123077,708.994568 445.128662,711.487732 
	C441.547668,704.785339 442.607574,698.489746 446.396973,691.556824 
	C438.497284,692.557922 436.996979,698.957092 433.357178,702.979736 
	C432.574890,701.175171 432.574890,701.175171 435.990204,691.939575 
	C430.541107,691.877136 433.986908,684.178528 428.563446,684.009766 
	C428.532684,681.700317 431.004608,680.039978 429.068176,677.677673 
	C427.920807,676.278015 429.340424,674.938171 430.592346,673.973206 
	C432.218750,672.719482 434.166229,672.277649 436.053711,671.613403 
	C440.011414,670.220703 441.417084,668.095215 440.301727,663.302551 
	C438.310760,654.747620 431.440765,651.116150 425.441284,646.688782 
	C419.114563,642.019775 413.148529,637.036072 407.528595,631.555359 
	C402.454224,626.606689 398.627167,620.827332 395.182831,614.716675 
	C394.054596,612.715088 393.089966,610.549561 390.768677,608.887756 
	C388.156616,612.383728 388.799896,616.539307 388.503876,620.237305 
	C385.980682,651.760315 383.744171,683.299500 381.957916,714.881897 
	C380.236694,745.314148 379.297852,775.762451 377.928650,806.199585 
	C377.187225,822.681274 377.646240,839.181702 376.498352,855.648438 
	C376.164612,860.435852 376.707520,865.300964 377.064972,870.114319 
	C377.312195,873.443604 376.244537,875.135681 372.687012,875.109863 
	C358.174774,875.004761 359.157959,877.484436 360.183624,862.298950 
	C360.936493,851.151855 360.647858,839.999939 361.404877,828.848755 
	C362.927185,806.424866 363.668671,783.948059 364.748962,761.020020 
M527.125977,436.333557 
	C525.503845,432.868652 524.201965,429.205048 522.198608,425.976654 
	C516.528564,416.839233 506.961548,417.079895 501.551697,426.401245 
	C498.364349,431.893188 495.806396,437.719788 494.079437,443.820374 
	C488.595703,463.191895 480.209259,481.245911 469.985992,498.530609 
	C464.369171,508.027130 460.525940,518.031067 462.925293,529.430298 
	C463.480347,532.067261 462.449707,534.202332 460.663300,536.235962 
	C455.891327,541.668152 452.337860,547.831421 449.921631,554.688538 
	C447.491211,561.585876 448.067810,568.043701 451.804108,574.333496 
	C458.216553,585.128540 478.128998,594.564392 490.302368,592.471313 
	C499.739960,590.848694 504.246643,587.386658 505.294525,580.318359 
	C507.291962,566.845032 504.605804,554.154236 498.271881,542.182800 
	C497.486725,540.698853 496.429871,539.375977 494.800171,538.720215 
	C494.409760,538.563110 493.902283,538.696899 493.406738,538.696899 
	C492.922821,539.976501 494.738251,541.306091 493.145660,542.484741 
	C491.294098,543.251038 490.033081,541.998352 488.837097,540.888123 
	C484.663086,537.013367 480.159637,533.485718 475.163818,530.865051 
	C468.959930,527.610718 471.404663,522.772217 472.235809,518.277771 
	C472.998566,514.153320 476.009094,512.167847 480.072479,511.801697 
	C489.813141,510.923950 497.307007,514.680542 502.401031,522.994202 
	C505.474945,528.010864 507.196075,533.572815 508.540161,539.286987 
	C508.946411,541.013916 508.598236,543.403564 510.996826,544.281372 
	C513.140503,542.798828 513.337830,540.548096 513.883301,538.511658 
	C518.061096,522.914307 527.855896,514.019409 544.224121,512.652100 
	C547.915771,512.343750 551.225525,512.266479 553.513184,515.757202 
	C555.968750,519.504150 555.301392,523.358765 552.836365,526.480957 
	C547.476013,533.270203 540.176147,537.945923 533.699951,543.696838 
	C531.859009,540.892822 535.018860,538.377563 532.868530,535.946899 
	C530.108887,536.916809 528.179382,538.988342 526.260315,540.994141 
	C515.734253,551.995911 514.832825,565.748901 515.828735,579.756470 
	C516.305725,586.466736 520.922607,590.313782 527.518433,591.689575 
	C540.580811,594.414062 552.483887,591.469849 562.823547,583.419434 
	C577.988403,571.612183 579.451904,558.101135 567.892334,542.718689 
	C567.391968,542.052795 566.977295,541.306946 566.402161,540.715393 
	C562.720032,536.928345 561.604675,532.918579 562.489624,527.318787 
	C564.237671,516.257263 559.424866,506.431824 554.083923,497.102020 
	C547.712219,485.971771 540.753601,475.148346 536.338501,463.023926 
	C533.206360,454.422882 530.390625,445.706635 527.125977,436.333557 
M549.695618,420.262726 
	C544.444946,431.707367 545.486877,443.014130 550.356506,454.225861 
	C550.456299,451.766571 550.188049,449.321381 549.836914,446.888153 
	C549.191589,442.416321 550.800842,440.724182 555.580566,440.745636 
	C591.390686,440.906342 627.201965,440.804230 663.012817,440.843719 
	C664.863098,440.845764 667.055908,440.040039 668.510986,442.176025 
	C667.891296,444.171997 666.019348,444.295410 664.533081,444.804932 
	C662.353882,445.551971 661.562866,446.916107 661.223328,449.195557 
	C659.631409,459.882538 658.203125,470.618469 655.968750,481.178711 
	C653.389221,493.370148 650.628235,505.572968 645.300110,516.981995 
	C643.327393,521.206177 640.185120,523.761169 635.606567,524.806824 
	C628.804688,526.360229 621.979004,527.354919 614.936096,526.665833 
	C615.521118,527.143066 616.113342,527.439026 616.730530,527.506531 
	C641.176453,530.179443 667.423950,514.483887 676.402283,491.629852 
	C684.104980,472.022919 686.429504,451.671661 683.609131,430.836884 
	C681.221008,413.194183 672.177124,400.696075 654.198730,396.471039 
	C626.529968,389.968750 599.042725,390.635284 572.153381,400.410004 
	C562.492554,403.921844 554.755432,410.142273 549.695618,420.262726 
M365.615692,440.689606 
	C381.269623,440.745667 396.923553,440.796722 412.577454,440.859070 
	C431.228973,440.933380 449.880402,441.039337 468.531982,441.079315 
	C472.464905,441.087738 475.153320,441.783142 473.770081,446.800690 
	C472.675812,450.770050 472.109436,454.885010 471.308655,458.935303 
	C473.539093,452.056763 477.789337,445.567841 477.545135,438.271576 
	C476.835022,417.055939 467.229309,404.465088 446.773499,398.413513 
	C422.213440,391.147705 397.175964,391.454376 372.132263,395.660950 
	C360.508911,397.613342 351.276398,403.283478 346.098267,414.408081 
	C342.764954,421.569244 340.811920,429.039490 340.147125,436.943542 
	C338.849335,452.374420 340.847168,467.456299 344.148926,482.472321 
	C351.277832,514.893799 383.149078,528.610352 406.774658,525.395508 
	C400.437073,525.452393 394.157501,524.961853 388.044434,523.249817 
	C381.775726,521.494202 377.522339,518.245667 375.451813,511.304871 
	C370.246765,493.856384 366.733887,476.146149 364.434967,458.120117 
	C363.697876,452.340485 364.806732,445.483429 357.736053,442.234833 
	C357.644684,442.192871 357.788574,441.638824 357.830688,441.249329 
	C360.026794,440.212677 362.384827,440.860687 365.615692,440.689606 
M437.761139,576.630676 
	C435.248260,575.341736 432.659088,574.180176 430.241516,572.732117 
	C427.096954,570.848633 424.310730,569.689819 420.568390,571.964172 
	C416.979889,574.145142 413.390106,572.163818 412.020325,568.022034 
	C410.432861,563.221924 410.801514,558.441406 412.690857,553.843628 
	C414.636414,549.109131 418.706360,548.386047 422.556763,551.821716 
	C424.541016,553.592224 426.481537,555.490662 428.724426,556.872742 
	C431.586395,558.636353 435.189758,559.195618 437.492401,556.547546 
	C441.844818,551.542175 445.979218,546.209290 445.898193,538.942505 
	C445.867249,536.164429 445.641205,533.365784 443.154449,531.837402 
	C440.822845,530.404297 438.697327,532.265625 436.718781,533.389221 
	C433.540863,535.193970 430.619812,537.767822 426.895447,538.124817 
	C416.403137,539.130554 405.914032,540.511719 395.322449,539.490173 
	C389.184845,538.898193 388.608002,539.678528 388.847931,546.080566 
	C389.489227,563.195862 394.572296,579.191101 401.492676,594.595703 
	C411.979095,617.938293 430.893829,632.269531 453.865112,641.922363 
	C455.921112,642.786316 458.591797,643.942383 460.334991,641.674194 
	C462.013611,639.489929 460.411865,637.218079 459.200592,635.226074 
	C452.330902,623.928589 449.109253,611.615967 450.067261,598.497620 
	C450.794861,588.534119 446.080872,582.095459 437.761139,576.630676 
M552.504028,629.991943 
	C561.336060,620.678101 566.190979,609.662415 566.656372,596.789124 
	C566.709656,595.314697 566.890930,593.630859 565.323853,592.754395 
	C563.735474,591.865967 562.486633,593.026855 561.233521,593.809265 
	C547.808777,602.191223 533.431152,608.563904 518.506775,613.683533 
	C513.456299,615.415955 508.200806,615.828796 502.787231,614.471191 
	C487.945221,610.748962 475.104340,602.886780 462.077209,595.359924 
	C460.566742,594.487183 459.119141,593.094910 457.123688,593.848145 
	C455.798279,595.325439 456.167236,597.057495 456.175507,598.675293 
	C456.231506,609.649109 460.415283,619.181580 467.142883,627.515625 
	C488.315826,653.744446 527.034973,655.023132 552.504028,629.991943 
M565.381348,630.757812 
	C564.102905,632.703186 562.764893,634.612671 561.564697,636.605103 
	C560.597534,638.210754 558.358704,639.743103 560.070190,641.837097 
	C561.508911,643.597351 563.771851,642.857727 565.720093,642.482727 
	C566.693604,642.295349 567.665161,641.979187 568.570251,641.571716 
	C590.158752,631.852417 609.725098,619.772644 621.378174,597.925537 
	C630.240112,581.311340 634.644653,563.590576 635.869141,544.926514 
	C636.097473,541.446350 634.878784,540.056091 631.370422,540.190735 
	C628.392029,540.305054 625.363831,540.194397 622.414856,539.778259 
	C616.448486,538.936340 616.014343,539.051758 616.284241,545.180481 
	C617.194214,565.846497 612.510193,585.503235 605.766602,604.797485 
	C605.146851,606.570557 604.564697,608.656555 602.154602,609.103516 
	C601.711304,608.755554 601.219666,608.527466 600.960449,608.142822 
	C596.085938,600.908936 595.217651,600.602661 587.167603,603.769958 
	C584.848450,604.682373 582.647522,605.896667 580.324829,606.798401 
	C575.618652,608.625427 572.770264,611.995117 571.321960,616.781860 
	C569.922607,621.406372 568.199463,625.919556 565.381348,630.757812 
M712.381165,404.690704 
	C714.004944,403.600647 716.329468,404.287994 717.915527,402.555481 
	C715.653259,399.203705 712.618042,400.136475 709.923767,401.182159 
	C705.833008,402.769836 701.480652,402.814880 697.310303,403.846680 
	C696.133362,404.137848 694.864685,404.189728 694.535278,402.634033 
	C694.244324,401.259735 695.106323,400.366577 696.330566,400.078003 
	C697.608154,399.776855 698.966797,399.840149 700.271790,399.630615 
	C704.970886,398.876160 710.283325,400.085205 713.870911,395.367920 
	C707.392700,395.367920 700.987671,395.285187 694.586487,395.406952 
	C691.873718,395.458557 690.360901,397.035034 690.322449,399.877014 
	C690.290649,402.228821 690.580444,404.493378 691.703796,406.598206 
	C697.496765,404.534943 703.452209,403.971100 709.424072,403.521942 
	C703.493652,408.123810 703.493652,408.123810 703.682495,412.560364 
	C705.305542,408.461426 708.143799,406.308777 712.381165,404.690704 
M593.741211,539.518372 
	C591.308167,539.045532 588.876282,538.201721 586.441772,538.193970 
	C583.416870,538.184387 581.773438,541.593567 583.945496,543.364258 
	C587.107300,545.941833 590.536072,548.500854 594.855591,548.917969 
	C596.998474,549.124878 598.847290,548.294373 599.564026,546.065125 
	C600.220337,544.023926 599.239563,542.511230 597.542908,541.447632 
	C596.562378,540.833008 595.495056,540.356873 593.741211,539.518372 
M329.748627,397.782166 
	C329.760223,396.726044 329.656799,395.582581 328.220886,395.906281 
	C323.913879,396.877045 319.602234,397.232605 315.197723,396.719330 
	C314.326324,396.617767 313.869110,397.550690 313.947845,398.860809 
	C318.423187,400.769989 322.915314,403.718964 327.300476,398.301453 
	C327.949554,397.499573 328.788055,397.941864 329.748627,397.782166 
M335.399933,397.378662 
	C332.797913,395.317566 332.259674,397.149353 332.389893,399.192535 
	C332.526428,401.334900 333.165344,403.445251 333.857025,406.949097 
	C335.206818,403.129578 335.823486,400.693665 335.399933,397.378662 
M307.886536,396.854279 
	C308.612274,399.788635 311.496979,402.078339 310.240631,405.604523 
	C312.914093,398.630554 312.557098,397.105103 307.886536,396.854279 
z"/>
<path fill="#000000" opacity="1.000000" stroke="none" 
	d="
M492.633362,308.040039 
	C490.822906,309.400970 489.063293,307.929474 486.984772,309.142456 
	C484.647034,310.506744 482.984100,307.670105 482.674988,305.165039 
	C481.536194,295.935822 484.256714,287.301361 486.448944,277.656128 
	C491.918182,283.490021 493.778107,289.790253 492.950897,296.178314 
	C492.436310,300.152496 492.813782,303.902374 492.633362,308.040039 
z"/>
<path fill="#000000" opacity="1.000000" stroke="none" 
	d="
M466.777161,348.232361 
	C459.078857,350.894257 453.222931,356.247070 445.386597,360.414856 
	C447.425262,353.877350 449.206482,348.886444 455.763947,347.783600 
	C459.037750,347.233032 462.256958,346.337921 465.539459,345.869110 
	C466.725586,345.699738 469.340179,345.419312 466.777161,348.232361 
z"/>
<path fill="#000000" opacity="1.000000" stroke="none" 
	d="
M466.128357,325.948334 
	C470.648560,324.831726 474.567719,325.418182 479.466125,327.351959 
	C475.752350,330.442108 473.070496,333.120178 468.904510,330.313385 
	C466.276276,328.542603 463.955688,329.417206 461.410004,330.451355 
	C457.295959,332.122559 453.391174,334.607666 448.638550,334.301056 
	C453.702362,330.124725 459.824829,328.308472 466.128357,325.948334 
z"/>
<path fill="#000000" opacity="1.000000" stroke="none" 
	d="
M532.930420,331.577271 
	C536.773804,326.775757 541.420410,329.514496 545.510559,330.627869 
	C549.317505,331.664093 550.667847,335.296844 550.806458,340.202057 
	C544.496948,337.243439 538.787231,334.566071 532.930420,331.577271 
z"/>
<path fill="#000000" opacity="1.000000" stroke="none" 
	d="
M497.775391,349.210999 
	C498.790894,352.299957 502.476440,353.492371 502.208344,357.748962 
	C497.222351,356.590088 492.488373,355.489746 487.754395,354.389435 
	C487.668030,353.885193 487.581696,353.380920 487.495331,352.876678 
	C491.439270,352.752167 490.985321,343.765717 497.775391,349.210999 
z"/>
<path fill="#000000" opacity="1.000000" stroke="none" 
	d="
M499.007538,304.570557 
	C501.487122,305.450287 503.673553,306.205566 505.763550,307.169830 
	C511.641479,309.881622 511.845978,311.106628 507.190094,316.999084 
	C504.299988,314.085419 501.343414,311.289581 498.638550,308.268372 
	C497.796417,307.327728 495.718201,305.731903 499.007538,304.570557 
z"/>
<path fill="#000000" opacity="1.000000" stroke="none" 
	d="
M472.687012,370.710144 
	C470.713074,371.848663 469.454071,373.658539 467.210907,373.488312 
	C467.097351,366.202026 477.178467,359.338379 482.814911,364.005096 
	C479.464264,366.216370 476.219330,368.357849 472.687012,370.710144 
z"/>
<path fill="#000000" opacity="1.000000" stroke="none" 
	d="
M580.824951,361.949097 
	C581.936096,363.482147 581.455322,364.444733 580.237122,365.033386 
	C578.688477,365.781738 577.024292,365.818024 575.370361,365.359680 
	C572.475769,364.557556 570.409058,362.735687 569.150635,360.045258 
	C568.685303,359.050446 568.916199,357.914398 569.941711,357.459259 
	C572.639282,356.261963 574.689697,358.200348 576.868347,359.223938 
	C578.200195,359.849731 579.352356,360.857849 580.824951,361.949097 
z"/>
<path fill="#000000" opacity="1.000000" stroke="none" 
	d="
M546.401367,375.410522 
	C548.121765,379.267853 546.230469,379.554596 543.607727,378.582245 
	C540.492920,377.427429 537.846008,371.140350 538.694397,367.062714 
	C542.937317,368.204468 543.640564,372.575714 546.401367,375.410522 
z"/>
<path fill="#000000" opacity="1.000000" stroke="none" 
	d="
M506.271820,363.481812 
	C509.698334,364.801025 509.715424,367.904388 510.938660,370.511322 
	C507.979523,372.689880 505.162964,372.403534 501.971588,372.434509 
	C502.413055,368.634155 503.939270,366.024780 506.271820,363.481812 
z"/>
<path fill="#000000" opacity="1.000000" stroke="none" 
	d="
M517.466309,347.816803 
	C521.796814,348.711639 521.377808,353.403900 524.894958,355.200836 
	C521.988403,357.574432 519.213013,357.048462 517.741882,355.356079 
	C516.100281,353.467499 514.118591,350.634094 517.466309,347.816803 
z"/>
<path fill="#000000" opacity="1.000000" stroke="none" 
	d="
M552.374146,350.633911 
	C555.423157,352.487396 557.059387,354.643311 555.953125,358.581512 
	C552.890320,355.635620 550.171875,353.020966 547.163574,350.127472 
	C549.346436,348.722168 550.677673,349.850647 552.374146,350.633911 
z"/>
<path fill="#000000" opacity="1.000000" stroke="none" 
	d="
M565.829651,339.098816 
	C569.246765,337.705627 571.504150,338.971527 573.535034,343.424866 
	C569.650574,344.368256 568.028137,341.382263 565.829651,339.098816 
z"/>
<path fill="#000000" opacity="1.000000" stroke="none" 
	d="
M426.915771,669.980347 
	C428.338715,669.193970 429.484863,668.383972 430.896942,670.072876 
	C427.887787,671.525940 425.020081,672.910706 421.605011,674.559814 
	C422.064331,670.923096 425.032379,671.383301 426.915771,669.980347 
z"/>
</svg>