<?xml version="1.0" standalone="no"?><svg xmlns:xlink="http://www.w3.org/1999/xlink" xmlns="http://www.w3.org/2000/svg" viewBox="0 0 1000 529.4096169995254" preserveAspectRatio="xMaxYMax slice"><g transform="scale(0.7302201613786556)"><rect x="0" y="0" width="1450" height="725" fill="#f5efd4"/><g transform="translate(112.78,32.22) scale(0.8055) rotate(0)"><path fill-rule="evenodd" clip-rule="evenodd" d="M10 20C15.5228 20 20 15.5228 20 10C20 4.47715 15.5228 0 10 0C4.47715 0 0 4.47715 0 10C0 15.5228 4.47715 20 10 20ZM10 17C13.866 17 17 13.866 17 10C17 6.13401 13.866 3 10 3C6.13401 3 3 6.13401 3 10C3 13.866 6.13401 17 10 17Z" fill="#eeecc3"/></g><g transform="translate(193.33,32.22) scale(0.8055) rotate(0)"><path fill-rule="evenodd" clip-rule="evenodd" d="M10 20C15.5228 20 20 15.5228 20 10C20 4.47715 15.5228 0 10 0C4.47715 0 0 4.47715 0 10C0 15.5228 4.47715 20 10 20ZM10 17C13.866 17 17 13.866 17 10C17 6.13401 13.866 3 10 3C6.13401 3 3 6.13401 3 10C3 13.866 6.13401 17 10 17Z" fill="#53c5b2"/></g><g transform="translate(273.89,32.22) scale(0.8055) rotate(0)"><path fill-rule="evenodd" clip-rule="evenodd" d="M10 20C15.5228 20 20 15.5228 20 10C20 4.47715 15.5228 0 10 0C4.47715 0 0 4.47715 0 10C0 15.5228 4.47715 20 10 20ZM10 17C13.866 17 17 13.866 17 10C17 6.13401 13.866 3 10 3C6.13401 3 3 6.13401 3 10C3 13.866 6.13401 17 10 17Z" fill="#d8e293"/></g><g transform="translate(354.44,32.22) scale(0.8055) rotate(0)"><path d="M10 5L5 0L0 5L5 10L0 15L5 20L10 15L15 20L20 15L15 10L20 5L15 0L10 5Z" fill="#cee5cc"/></g><g transform="translate(435,32.22) scale(0.8055) rotate(0)"><path d="M10 0L20 10L10 20L0 10L10 0Z" fill="#f3eecf"/></g><g transform="translate(515.56,32.22) scale(0.8055) rotate(0)"><path d="M10 5L5 0L0 5L5 10L0 15L5 20L10 15L15 20L20 15L15 10L20 5L15 0L10 5Z" fill="#f5efd4"/></g><g transform="translate(596.11,32.22) scale(0.8055) rotate(0)"><path d="M10 0L20 10L10 20L0 10L10 0Z" fill="#f0edc8"/></g><g transform="translate(757.22,32.22) scale(0.8055) rotate(0)"><path fill-rule="evenodd" clip-rule="evenodd" d="M10 20C15.5228 20 20 15.5228 20 10C20 4.47715 15.5228 0 10 0C4.47715 0 0 4.47715 0 10C0 15.5228 4.47715 20 10 20ZM10 17C13.866 17 17 13.866 17 10C17 6.13401 13.866 3 10 3C6.13401 3 3 6.13401 3 10C3 13.866 6.13401 17 10 17Z" fill="#dde9cf"/></g><g transform="translate(918.33,32.22) scale(0.8055) rotate(0)"><path d="M10 0L20 10L10 20L0 10L10 0Z" fill="#e2e6a8"/></g><g transform="translate(998.89,32.22) scale(0.8055) rotate(0)"><path d="M10 5L5 0L0 5L5 10L0 15L5 20L10 15L15 20L20 15L15 10L20 5L15 0L10 5Z" fill="#abce2c"/></g><g transform="translate(1240.56,32.22) scale(0.8055) rotate(0)"><path d="M10 5L5 0L0 5L5 10L0 15L5 20L10 15L15 20L20 15L15 10L20 5L15 0L10 5Z" fill="#cde5cc"/></g><g transform="translate(1321.11,32.22) scale(0.8055) rotate(0)"><path fill-rule="evenodd" clip-rule="evenodd" d="M10 20C15.5228 20 20 15.5228 20 10C20 4.47715 15.5228 0 10 0C4.47715 0 0 4.47715 0 10C0 15.5228 4.47715 20 10 20ZM10 17C13.866 17 17 13.866 17 10C17 6.13401 13.866 3 10 3C6.13401 3 3 6.13401 3 10C3 13.866 6.13401 17 10 17Z" fill="#abce2d"/></g><g transform="translate(27.93,108.48) scale(1.2349999999999999) rotate(0)"><path d="M10 5L5 0L0 5L5 10L0 15L5 20L10 15L15 20L20 15L15 10L20 5L15 0L10 5Z" fill="#d9e294"/></g><g transform="translate(108.48,108.48) scale(1.2349999999999999) rotate(0)"><path fill-rule="evenodd" clip-rule="evenodd" d="M10 20C15.5228 20 20 15.5228 20 10C20 4.47715 15.5228 0 10 0C4.47715 0 0 4.47715 0 10C0 15.5228 4.47715 20 10 20ZM10 17C13.866 17 17 13.866 17 10C17 6.13401 13.866 3 10 3C6.13401 3 3 6.13401 3 10C3 13.866 6.13401 17 10 17Z" fill="#eaecd2"/></g><g transform="translate(269.59,108.48) scale(1.2349999999999999) rotate(0)"><path d="M10 0L20 10L10 20L0 10L10 0Z" fill="#d3e087"/></g><g transform="translate(350.15,108.48) scale(1.2349999999999999) rotate(0)"><path d="M10 0L20 10L10 20L0 10L10 0Z" fill="#b4dec6"/></g><g transform="translate(430.7,108.48) scale(1.2349999999999999) rotate(0)"><path d="M10 0L20 10L10 20L0 10L10 0Z" fill="#86d2bd"/></g><g transform="translate(591.81,108.48) scale(1.2349999999999999) rotate(0)"><path d="M10 0L20 10L10 20L0 10L10 0Z" fill="#f3efd4"/></g><g transform="translate(672.37,108.48) scale(1.2349999999999999) rotate(0)"><path fill-rule="evenodd" clip-rule="evenodd" d="M10 20C15.5228 20 20 15.5228 20 10C20 4.47715 15.5228 0 10 0C4.47715 0 0 4.47715 0 10C0 15.5228 4.47715 20 10 20ZM10 17C13.866 17 17 13.866 17 10C17 6.13401 13.866 3 10 3C6.13401 3 3 6.13401 3 10C3 13.866 6.13401 17 10 17Z" fill="#68cab7"/></g><g transform="translate(914.04,108.48) scale(1.2349999999999999) rotate(0)"><path d="M10 0L20 10L10 20L0 10L10 0Z" fill="#e8e9b7"/></g><g transform="translate(994.59,108.48) scale(1.2349999999999999) rotate(0)"><path fill-rule="evenodd" clip-rule="evenodd" d="M10 20C15.5228 20 20 15.5228 20 10C20 4.47715 15.5228 0 10 0C4.47715 0 0 4.47715 0 10C0 15.5228 4.47715 20 10 20ZM10 17C13.866 17 17 13.866 17 10C17 6.13401 13.866 3 10 3C6.13401 3 3 6.13401 3 10C3 13.866 6.13401 17 10 17Z" fill="#a7dbc4"/></g><g transform="translate(1155.7,108.48) scale(1.2349999999999999) rotate(0)"><path fill-rule="evenodd" clip-rule="evenodd" d="M10 20C15.5228 20 20 15.5228 20 10C20 4.47715 15.5228 0 10 0C4.47715 0 0 4.47715 0 10C0 15.5228 4.47715 20 10 20ZM10 17C13.866 17 17 13.866 17 10C17 6.13401 13.866 3 10 3C6.13401 3 3 6.13401 3 10C3 13.866 6.13401 17 10 17Z" fill="#d9e294"/></g><g transform="translate(1316.81,108.48) scale(1.2349999999999999) rotate(0)"><path d="M10 5L5 0L0 5L5 10L0 15L5 20L10 15L15 20L20 15L15 10L20 5L15 0L10 5Z" fill="#dbe398"/></g><g transform="translate(506.96,184.74) scale(1.6649999999999998) rotate(0)"><path d="M10 0L20 10L10 20L0 10L10 0Z" fill="#60c8b5"/></g><g transform="translate(909.74,184.74) scale(1.6649999999999998) rotate(0)"><path d="M10 5L5 0L0 5L5 10L0 15L5 20L10 15L15 20L20 15L15 10L20 5L15 0L10 5Z" fill="#94d6c0"/></g><g transform="translate(1312.52,184.74) scale(1.6649999999999998) rotate(0)"><path d="M10 0L20 10L10 20L0 10L10 0Z" fill="#bbd54f"/></g><g transform="translate(99.89,261) scale(2.0945) rotate(0)"><path fill-rule="evenodd" clip-rule="evenodd" d="M10 20C15.5228 20 20 15.5228 20 10C20 4.47715 15.5228 0 10 0C4.47715 0 0 4.47715 0 10C0 15.5228 4.47715 20 10 20ZM10 17C13.866 17 17 13.866 17 10C17 6.13401 13.866 3 10 3C6.13401 3 3 6.13401 3 10C3 13.866 6.13401 17 10 17Z" fill="#bcd552"/></g><g transform="translate(180.44,261) scale(2.0945) rotate(0)"><path d="M10 0L20 10L10 20L0 10L10 0Z" fill="#bfd75a"/></g><g transform="translate(261,261) scale(2.0945) rotate(0)"><path d="M10 5L5 0L0 5L5 10L0 15L5 20L10 15L15 20L20 15L15 10L20 5L15 0L10 5Z" fill="#d6e7cd"/></g><g transform="translate(422.11,261) scale(2.0945) rotate(0)"><path d="M10 0L20 10L10 20L0 10L10 0Z" fill="#d3e086"/></g><g transform="translate(502.67,261) scale(2.0945) rotate(0)"><path fill-rule="evenodd" clip-rule="evenodd" d="M10 20C15.5228 20 20 15.5228 20 10C20 4.47715 15.5228 0 10 0C4.47715 0 0 4.47715 0 10C0 15.5228 4.47715 20 10 20ZM10 17C13.866 17 17 13.866 17 10C17 6.13401 13.866 3 10 3C6.13401 3 3 6.13401 3 10C3 13.866 6.13401 17 10 17Z" fill="#c8e3cb"/></g><g transform="translate(583.22,261) scale(2.0945) rotate(0)"><path d="M10 0L20 10L10 20L0 10L10 0Z" fill="#9bd7c1"/></g><g transform="translate(663.78,261) scale(2.0945) rotate(0)"><path d="M10 5L5 0L0 5L5 10L0 15L5 20L10 15L15 20L20 15L15 10L20 5L15 0L10 5Z" fill="#d5e18c"/></g><g transform="translate(744.33,261) scale(2.0945) rotate(0)"><path d="M10 5L5 0L0 5L5 10L0 15L5 20L10 15L15 20L20 15L15 10L20 5L15 0L10 5Z" fill="#d5e18b"/></g><g transform="translate(824.89,261) scale(2.0945) rotate(0)"><path d="M10 0L20 10L10 20L0 10L10 0Z" fill="#a1d9c2"/></g><g transform="translate(905.44,261) scale(2.0945) rotate(0)"><path d="M10 0L20 10L10 20L0 10L10 0Z" fill="#d0e5cc"/></g><g transform="translate(1147.11,261) scale(2.0945) rotate(0)"><path fill-rule="evenodd" clip-rule="evenodd" d="M10 20C15.5228 20 20 15.5228 20 10C20 4.47715 15.5228 0 10 0C4.47715 0 0 4.47715 0 10C0 15.5228 4.47715 20 10 20ZM10 17C13.866 17 17 13.866 17 10C17 6.13401 13.866 3 10 3C6.13401 3 3 6.13401 3 10C3 13.866 6.13401 17 10 17Z" fill="#bdd656"/></g><g transform="translate(1227.67,261) scale(2.0945) rotate(0)"><path fill-rule="evenodd" clip-rule="evenodd" d="M10 20C15.5228 20 20 15.5228 20 10C20 4.47715 15.5228 0 10 0C4.47715 0 0 4.47715 0 10C0 15.5228 4.47715 20 10 20ZM10 17C13.866 17 17 13.866 17 10C17 6.13401 13.866 3 10 3C6.13401 3 3 6.13401 3 10C3 13.866 6.13401 17 10 17Z" fill="#e5e8af"/></g><g transform="translate(1308.22,261) scale(2.0945) rotate(0)"><path fill-rule="evenodd" clip-rule="evenodd" d="M10 20C15.5228 20 20 15.5228 20 10C20 4.47715 15.5228 0 10 0C4.47715 0 0 4.47715 0 10C0 15.5228 4.47715 20 10 20ZM10 17C13.866 17 17 13.866 17 10C17 6.13401 13.866 3 10 3C6.13401 3 3 6.13401 3 10C3 13.866 6.13401 17 10 17Z" fill="#dde49e"/></g><g transform="translate(1388.78,261) scale(2.0945) rotate(0)"><path d="M10 0L20 10L10 20L0 10L10 0Z" fill="#dde49d"/></g><g transform="translate(176.15,337.26) scale(2.524) rotate(0)"><path fill-rule="evenodd" clip-rule="evenodd" d="M10 20C15.5228 20 20 15.5228 20 10C20 4.47715 15.5228 0 10 0C4.47715 0 0 4.47715 0 10C0 15.5228 4.47715 20 10 20ZM10 17C13.866 17 17 13.866 17 10C17 6.13401 13.866 3 10 3C6.13401 3 3 6.13401 3 10C3 13.866 6.13401 17 10 17Z" fill="#adcf31"/></g><g transform="translate(256.7,337.26) scale(2.524) rotate(0)"><path fill-rule="evenodd" clip-rule="evenodd" d="M10 20C15.5228 20 20 15.5228 20 10C20 4.47715 15.5228 0 10 0C4.47715 0 0 4.47715 0 10C0 15.5228 4.47715 20 10 20ZM10 17C13.866 17 17 13.866 17 10C17 6.13401 13.866 3 10 3C6.13401 3 3 6.13401 3 10C3 13.866 6.13401 17 10 17Z" fill="#b8dfc7"/></g><g transform="translate(337.26,337.26) scale(2.524) rotate(0)"><path d="M10 0L20 10L10 20L0 10L10 0Z" fill="#e6e8b1"/></g><g transform="translate(417.81,337.26) scale(2.524) rotate(0)"><path d="M10 5L5 0L0 5L5 10L0 15L5 20L10 15L15 20L20 15L15 10L20 5L15 0L10 5Z" fill="#b9dfc7"/></g><g transform="translate(498.37,337.26) scale(2.524) rotate(0)"><path fill-rule="evenodd" clip-rule="evenodd" d="M10 20C15.5228 20 20 15.5228 20 10C20 4.47715 15.5228 0 10 0C4.47715 0 0 4.47715 0 10C0 15.5228 4.47715 20 10 20ZM10 17C13.866 17 17 13.866 17 10C17 6.13401 13.866 3 10 3C6.13401 3 3 6.13401 3 10C3 13.866 6.13401 17 10 17Z" fill="#bcd552"/></g><g transform="translate(578.93,337.26) scale(2.524) rotate(0)"><path fill-rule="evenodd" clip-rule="evenodd" d="M10 20C15.5228 20 20 15.5228 20 10C20 4.47715 15.5228 0 10 0C4.47715 0 0 4.47715 0 10C0 15.5228 4.47715 20 10 20ZM10 17C13.866 17 17 13.866 17 10C17 6.13401 13.866 3 10 3C6.13401 3 3 6.13401 3 10C3 13.866 6.13401 17 10 17Z" fill="#c9e3cb"/></g><g transform="translate(659.48,337.26) scale(2.524) rotate(0)"><path d="M10 0L20 10L10 20L0 10L10 0Z" fill="#d8e291"/></g><g transform="translate(740.04,337.26) scale(2.524) rotate(0)"><path d="M10 0L20 10L10 20L0 10L10 0Z" fill="#bde0c8"/></g><g transform="translate(820.59,337.26) scale(2.524) rotate(0)"><path d="M10 0L20 10L10 20L0 10L10 0Z" fill="#77ceba"/></g><g transform="translate(901.15,337.26) scale(2.524) rotate(0)"><path d="M10 0L20 10L10 20L0 10L10 0Z" fill="#d3e087"/></g><g transform="translate(1062.26,337.26) scale(2.524) rotate(0)"><path d="M10 0L20 10L10 20L0 10L10 0Z" fill="#c0d75b"/></g><g transform="translate(1142.81,337.26) scale(2.524) rotate(0)"><path d="M10 5L5 0L0 5L5 10L0 15L5 20L10 15L15 20L20 15L15 10L20 5L15 0L10 5Z" fill="#afcf34"/></g><g transform="translate(1303.93,337.26) scale(2.524) rotate(0)"><path d="M10 0L20 10L10 20L0 10L10 0Z" fill="#e4ebd0"/></g><g transform="translate(1384.48,337.26) scale(2.524) rotate(0)"><path fill-rule="evenodd" clip-rule="evenodd" d="M10 20C15.5228 20 20 15.5228 20 10C20 4.47715 15.5228 0 10 0C4.47715 0 0 4.47715 0 10C0 15.5228 4.47715 20 10 20ZM10 17C13.866 17 17 13.866 17 10C17 6.13401 13.866 3 10 3C6.13401 3 3 6.13401 3 10C3 13.866 6.13401 17 10 17Z" fill="#a9cd27"/></g><g transform="translate(10.74,413.52) scale(2.9535) rotate(0)"><path d="M10 0L20 10L10 20L0 10L10 0Z" fill="#c3d963"/></g><g transform="translate(171.85,413.52) scale(2.9535) rotate(0)"><path d="M10 5L5 0L0 5L5 10L0 15L5 20L10 15L15 20L20 15L15 10L20 5L15 0L10 5Z" fill="#e7e9b5"/></g><g transform="translate(252.41,413.52) scale(2.9535) rotate(0)"><path d="M10 5L5 0L0 5L5 10L0 15L5 20L10 15L15 20L20 15L15 10L20 5L15 0L10 5Z" fill="#aecf33"/></g><g transform="translate(332.96,413.52) scale(2.9535) rotate(0)"><path d="M10 5L5 0L0 5L5 10L0 15L5 20L10 15L15 20L20 15L15 10L20 5L15 0L10 5Z" fill="#bbe0c8"/></g><g transform="translate(413.52,413.52) scale(2.9535) rotate(0)"><path d="M10 0L20 10L10 20L0 10L10 0Z" fill="#d8e291"/></g><g transform="translate(494.07,413.52) scale(2.9535) rotate(0)"><path d="M10 5L5 0L0 5L5 10L0 15L5 20L10 15L15 20L20 15L15 10L20 5L15 0L10 5Z" fill="#9bd7c1"/></g><g transform="translate(574.63,413.52) scale(2.9535) rotate(0)"><path d="M10 5L5 0L0 5L5 10L0 15L5 20L10 15L15 20L20 15L15 10L20 5L15 0L10 5Z" fill="#b2d13b"/></g><g transform="translate(655.19,413.52) scale(2.9535) rotate(0)"><path d="M10 5L5 0L0 5L5 10L0 15L5 20L10 15L15 20L20 15L15 10L20 5L15 0L10 5Z" fill="#c4d964"/></g><g transform="translate(735.74,413.52) scale(2.9535) rotate(0)"><path d="M10 5L5 0L0 5L5 10L0 15L5 20L10 15L15 20L20 15L15 10L20 5L15 0L10 5Z" fill="#e5e8b0"/></g><g transform="translate(816.3,413.52) scale(2.9535) rotate(0)"><path d="M10 5L5 0L0 5L5 10L0 15L5 20L10 15L15 20L20 15L15 10L20 5L15 0L10 5Z" fill="#c7e3ca"/></g><g transform="translate(896.85,413.52) scale(2.9535) rotate(0)"><path fill-rule="evenodd" clip-rule="evenodd" d="M10 20C15.5228 20 20 15.5228 20 10C20 4.47715 15.5228 0 10 0C4.47715 0 0 4.47715 0 10C0 15.5228 4.47715 20 10 20ZM10 17C13.866 17 17 13.866 17 10C17 6.13401 13.866 3 10 3C6.13401 3 3 6.13401 3 10C3 13.866 6.13401 17 10 17Z" fill="#d9e294"/></g><g transform="translate(1057.96,413.52) scale(2.9535) rotate(0)"><path d="M10 5L5 0L0 5L5 10L0 15L5 20L10 15L15 20L20 15L15 10L20 5L15 0L10 5Z" fill="#bee1c9"/></g><g transform="translate(1219.07,413.52) scale(2.9535) rotate(0)"><path d="M10 0L20 10L10 20L0 10L10 0Z" fill="#bad54f"/></g><g transform="translate(1299.63,413.52) scale(2.9535) rotate(0)"><path fill-rule="evenodd" clip-rule="evenodd" d="M10 20C15.5228 20 20 15.5228 20 10C20 4.47715 15.5228 0 10 0C4.47715 0 0 4.47715 0 10C0 15.5228 4.47715 20 10 20ZM10 17C13.866 17 17 13.866 17 10C17 6.13401 13.866 3 10 3C6.13401 3 3 6.13401 3 10C3 13.866 6.13401 17 10 17Z" fill="#88d2bd"/></g><g transform="translate(1380.19,413.52) scale(2.9535) rotate(0)"><path d="M10 0L20 10L10 20L0 10L10 0Z" fill="#63c9b5"/></g><g transform="translate(87,489.78) scale(3.3835) rotate(0)"><path d="M10 5L5 0L0 5L5 10L0 15L5 20L10 15L15 20L20 15L15 10L20 5L15 0L10 5Z" fill="#8fd4bf"/></g><g transform="translate(167.56,489.78) scale(3.3835) rotate(0)"><path fill-rule="evenodd" clip-rule="evenodd" d="M10 20C15.5228 20 20 15.5228 20 10C20 4.47715 15.5228 0 10 0C4.47715 0 0 4.47715 0 10C0 15.5228 4.47715 20 10 20ZM10 17C13.866 17 17 13.866 17 10C17 6.13401 13.866 3 10 3C6.13401 3 3 6.13401 3 10C3 13.866 6.13401 17 10 17Z" fill="#52c4b2"/></g><g transform="translate(328.67,489.78) scale(3.3835) rotate(0)"><path d="M10 5L5 0L0 5L5 10L0 15L5 20L10 15L15 20L20 15L15 10L20 5L15 0L10 5Z" fill="#f2eecd"/></g><g transform="translate(409.22,489.78) scale(3.3835) rotate(0)"><path d="M10 5L5 0L0 5L5 10L0 15L5 20L10 15L15 20L20 15L15 10L20 5L15 0L10 5Z" fill="#c7db6c"/></g><g transform="translate(570.33,489.78) scale(3.3835) rotate(0)"><path d="M10 0L20 10L10 20L0 10L10 0Z" fill="#c8db6f"/></g><g transform="translate(650.89,489.78) scale(3.3835) rotate(0)"><path d="M10 0L20 10L10 20L0 10L10 0Z" fill="#f0eed3"/></g><g transform="translate(731.44,489.78) scale(3.3835) rotate(0)"><path d="M10 5L5 0L0 5L5 10L0 15L5 20L10 15L15 20L20 15L15 10L20 5L15 0L10 5Z" fill="#6acbb7"/></g><g transform="translate(812,489.78) scale(3.3835) rotate(0)"><path d="M10 5L5 0L0 5L5 10L0 15L5 20L10 15L15 20L20 15L15 10L20 5L15 0L10 5Z" fill="#b5dec7"/></g><g transform="translate(892.56,489.78) scale(3.3835) rotate(0)"><path d="M10 5L5 0L0 5L5 10L0 15L5 20L10 15L15 20L20 15L15 10L20 5L15 0L10 5Z" fill="#c7da6b"/></g><g transform="translate(1214.78,489.78) scale(3.3835) rotate(0)"><path fill-rule="evenodd" clip-rule="evenodd" d="M10 20C15.5228 20 20 15.5228 20 10C20 4.47715 15.5228 0 10 0C4.47715 0 0 4.47715 0 10C0 15.5228 4.47715 20 10 20ZM10 17C13.866 17 17 13.866 17 10C17 6.13401 13.866 3 10 3C6.13401 3 3 6.13401 3 10C3 13.866 6.13401 17 10 17Z" fill="#d8e293"/></g><g transform="translate(1295.33,489.78) scale(3.3835) rotate(0)"><path d="M10 5L5 0L0 5L5 10L0 15L5 20L10 15L15 20L20 15L15 10L20 5L15 0L10 5Z" fill="#6acbb7"/></g><g transform="translate(1375.89,489.78) scale(3.3835) rotate(0)"><path d="M10 5L5 0L0 5L5 10L0 15L5 20L10 15L15 20L20 15L15 10L20 5L15 0L10 5Z" fill="#c7da6b"/></g><g transform="translate(2.15,566.04) scale(3.813) rotate(0)"><path fill-rule="evenodd" clip-rule="evenodd" d="M10 20C15.5228 20 20 15.5228 20 10C20 4.47715 15.5228 0 10 0C4.47715 0 0 4.47715 0 10C0 15.5228 4.47715 20 10 20ZM10 17C13.866 17 17 13.866 17 10C17 6.13401 13.866 3 10 3C6.13401 3 3 6.13401 3 10C3 13.866 6.13401 17 10 17Z" fill="#93d5bf"/></g><g transform="translate(82.7,566.04) scale(3.813) rotate(0)"><path d="M10 0L20 10L10 20L0 10L10 0Z" fill="#6ccbb7"/></g><g transform="translate(163.26,566.04) scale(3.813) rotate(0)"><path d="M10 0L20 10L10 20L0 10L10 0Z" fill="#f1edcb"/></g><g transform="translate(243.81,566.04) scale(3.813) rotate(0)"><path d="M10 0L20 10L10 20L0 10L10 0Z" fill="#bdd656"/></g><g transform="translate(324.37,566.04) scale(3.813) rotate(0)"><path d="M10 0L20 10L10 20L0 10L10 0Z" fill="#b2d13c"/></g><g transform="translate(404.93,566.04) scale(3.813) rotate(0)"><path d="M10 5L5 0L0 5L5 10L0 15L5 20L10 15L15 20L20 15L15 10L20 5L15 0L10 5Z" fill="#bdd654"/></g><g transform="translate(485.48,566.04) scale(3.813) rotate(0)"><path d="M10 5L5 0L0 5L5 10L0 15L5 20L10 15L15 20L20 15L15 10L20 5L15 0L10 5Z" fill="#f4efd2"/></g><g transform="translate(646.59,566.04) scale(3.813) rotate(0)"><path d="M10 5L5 0L0 5L5 10L0 15L5 20L10 15L15 20L20 15L15 10L20 5L15 0L10 5Z" fill="#cfe5cc"/></g><g transform="translate(727.15,566.04) scale(3.813) rotate(0)"><path fill-rule="evenodd" clip-rule="evenodd" d="M10 20C15.5228 20 20 15.5228 20 10C20 4.47715 15.5228 0 10 0C4.47715 0 0 4.47715 0 10C0 15.5228 4.47715 20 10 20ZM10 17C13.866 17 17 13.866 17 10C17 6.13401 13.866 3 10 3C6.13401 3 3 6.13401 3 10C3 13.866 6.13401 17 10 17Z" fill="#a9cd27"/></g><g transform="translate(807.7,566.04) scale(3.813) rotate(0)"><path fill-rule="evenodd" clip-rule="evenodd" d="M10 20C15.5228 20 20 15.5228 20 10C20 4.47715 15.5228 0 10 0C4.47715 0 0 4.47715 0 10C0 15.5228 4.47715 20 10 20ZM10 17C13.866 17 17 13.866 17 10C17 6.13401 13.866 3 10 3C6.13401 3 3 6.13401 3 10C3 13.866 6.13401 17 10 17Z" fill="#aedcc5"/></g><g transform="translate(1049.37,566.04) scale(3.813) rotate(0)"><path fill-rule="evenodd" clip-rule="evenodd" d="M10 20C15.5228 20 20 15.5228 20 10C20 4.47715 15.5228 0 10 0C4.47715 0 0 4.47715 0 10C0 15.5228 4.47715 20 10 20ZM10 17C13.866 17 17 13.866 17 10C17 6.13401 13.866 3 10 3C6.13401 3 3 6.13401 3 10C3 13.866 6.13401 17 10 17Z" fill="#d5e18c"/></g><g transform="translate(1129.93,566.04) scale(3.813) rotate(0)"><path d="M10 5L5 0L0 5L5 10L0 15L5 20L10 15L15 20L20 15L15 10L20 5L15 0L10 5Z" fill="#abce2c"/></g><g transform="translate(1291.04,566.04) scale(3.813) rotate(0)"><path d="M10 5L5 0L0 5L5 10L0 15L5 20L10 15L15 20L20 15L15 10L20 5L15 0L10 5Z" fill="#a7cc23"/></g><g transform="translate(1371.59,566.04) scale(3.813) rotate(0)"><path fill-rule="evenodd" clip-rule="evenodd" d="M10 20C15.5228 20 20 15.5228 20 10C20 4.47715 15.5228 0 10 0C4.47715 0 0 4.47715 0 10C0 15.5228 4.47715 20 10 20ZM10 17C13.866 17 17 13.866 17 10C17 6.13401 13.866 3 10 3C6.13401 3 3 6.13401 3 10C3 13.866 6.13401 17 10 17Z" fill="#f0edc8"/></g><g transform="translate(0,644.44) scale(4.0280000000000005) rotate(0)"><path d="M10 5L5 0L0 5L5 10L0 15L5 20L10 15L15 20L20 15L15 10L20 5L15 0L10 5Z" fill="#67cab6"/></g><g transform="translate(161.11,644.44) scale(4.0280000000000005) rotate(0)"><path d="M10 0L20 10L10 20L0 10L10 0Z" fill="#a5dac3"/></g><g transform="translate(241.67,644.44) scale(4.0280000000000005) rotate(0)"><path d="M10 0L20 10L10 20L0 10L10 0Z" fill="#e9ecd1"/></g><g transform="translate(483.33,644.44) scale(4.0280000000000005) rotate(0)"><path d="M10 0L20 10L10 20L0 10L10 0Z" fill="#c5da67"/></g><g transform="translate(563.89,644.44) scale(4.0280000000000005) rotate(0)"><path d="M10 5L5 0L0 5L5 10L0 15L5 20L10 15L15 20L20 15L15 10L20 5L15 0L10 5Z" fill="#d2df85"/></g><g transform="translate(805.56,644.44) scale(4.0280000000000005) rotate(0)"><path d="M10 0L20 10L10 20L0 10L10 0Z" fill="#e2ead0"/></g><g transform="translate(886.11,644.44) scale(4.0280000000000005) rotate(0)"><path d="M10 0L20 10L10 20L0 10L10 0Z" fill="#aacd29"/></g><g transform="translate(966.67,644.44) scale(4.0280000000000005) rotate(0)"><path d="M10 0L20 10L10 20L0 10L10 0Z" fill="#b7d348"/></g><g transform="translate(1047.22,644.44) scale(4.0280000000000005) rotate(0)"><path d="M10 5L5 0L0 5L5 10L0 15L5 20L10 15L15 20L20 15L15 10L20 5L15 0L10 5Z" fill="#adcf31"/></g><g transform="translate(1127.78,644.44) scale(4.0280000000000005) rotate(0)"><path d="M10 0L20 10L10 20L0 10L10 0Z" fill="#d5e08a"/></g><g transform="translate(1208.33,644.44) scale(4.0280000000000005) rotate(0)"><path d="M10 5L5 0L0 5L5 10L0 15L5 20L10 15L15 20L20 15L15 10L20 5L15 0L10 5Z" fill="#efeed3"/></g><g transform="translate(1288.89,644.44) scale(4.0280000000000005) rotate(0)"><path fill-rule="evenodd" clip-rule="evenodd" d="M10 20C15.5228 20 20 15.5228 20 10C20 4.47715 15.5228 0 10 0C4.47715 0 0 4.47715 0 10C0 15.5228 4.47715 20 10 20ZM10 17C13.866 17 17 13.866 17 10C17 6.13401 13.866 3 10 3C6.13401 3 3 6.13401 3 10C3 13.866 6.13401 17 10 17Z" fill="#e4ebd1"/></g><g transform="translate(1369.44,644.44) scale(4.0280000000000005) rotate(0)"><path fill-rule="evenodd" clip-rule="evenodd" d="M10 20C15.5228 20 20 15.5228 20 10C20 4.47715 15.5228 0 10 0C4.47715 0 0 4.47715 0 10C0 15.5228 4.47715 20 10 20ZM10 17C13.866 17 17 13.866 17 10C17 6.13401 13.866 3 10 3C6.13401 3 3 6.13401 3 10C3 13.866 6.13401 17 10 17Z" fill="#a3dac3"/></g></g></svg>