<?xml version="1.0" standalone="no"?><svg xmlns:xlink="http://www.w3.org/1999/xlink" xmlns="http://www.w3.org/2000/svg" viewBox="0 0 1080 674.9999999999999" preserveAspectRatio="xMaxYMax slice"><g transform="scale(0.9970457902511077)"><rect x="0" y="0" width="1083.2" height="677" fill="#f5efd4"/><rect x="67.7" y="0" width="67.7" height="67.7" fill="#f5efd4"/><rect x="67.7" y="33.85" width="33.85" height="33.85" fill="#ecebbf"/><g transform="translate(67.7,33.85) scale(1.6925000000000001) rotate(0)"><path d="M10 5L5 0L0 5L5 10L0 15L5 20L10 15L15 20L20 15L15 10L20 5L15 0L10 5Z" fill="#d3e086"/></g><rect x="135.4" y="0" width="67.7" height="67.7" fill="#f5efd4"/><rect x="169.25" y="0" width="33.85" height="33.85" fill="#aacd2a"/><g transform="translate(169.25,0) scale(1.6925000000000001) rotate(0)"><path d="M10 5L5 0L0 5L5 10L0 15L5 20L10 15L15 20L20 15L15 10L20 5L15 0L10 5Z" fill="#bed658"/></g><rect x="135.4" y="33.85" width="33.85" height="33.85" fill="#f5efd3"/><g transform="translate(135.4,33.85) scale(1.6925000000000001) rotate(0)"><path d="M10 0L20 10L10 20L0 10L10 0Z" fill="#dce49b"/></g><rect x="169.25" y="33.85" width="33.85" height="33.85" fill="#a7dac4"/><g transform="translate(169.25,33.85) scale(1.6925000000000001) rotate(0)"><path fill-rule="evenodd" clip-rule="evenodd" d="M10 20C15.5228 20 20 15.5228 20 10C20 4.47715 15.5228 0 10 0C4.47715 0 0 4.47715 0 10C0 15.5228 4.47715 20 10 20ZM10 17C13.866 17 17 13.866 17 10C17 6.13401 13.866 3 10 3C6.13401 3 3 6.13401 3 10C3 13.866 6.13401 17 10 17Z" fill="#c5d966"/></g><rect x="203.10000000000002" y="0" width="67.7" height="67.7" fill="#f5efd4"/><rect x="203.1" y="0" width="33.85" height="33.85" fill="#e7ebd1"/><g transform="translate(203.1,0) scale(1.6925000000000001) rotate(0)"><path d="M5 0H10L5 5L0 10V5L5 0Z" fill="#e8e9b6"/><path d="M20 15V20H15L20 15Z" fill="#e8e9b6"/><path d="M20 5V10L15 15L10 20H5L20 5Z" fill="#e8e9b6"/><path d="M15 0H20L5 15.0002L0 20.0002V15.0002L15 0Z" fill="#e8e9b6"/></g><rect x="236.95" y="0" width="33.85" height="33.85" fill="#b2d13d"/><g transform="translate(236.95,0) scale(1.6925000000000001) rotate(0)"><path d="M10 5L5 0L0 5L5 10L0 15L5 20L10 15L15 20L20 15L15 10L20 5L15 0L10 5Z" fill="#e8e9b7"/></g><rect x="236.95" y="33.85" width="33.85" height="33.85" fill="#cedd7b"/><g transform="translate(236.95,33.85) scale(1.6925000000000001) rotate(0)"><path fill-rule="evenodd" clip-rule="evenodd" d="M10 20C15.5228 20 20 15.5228 20 10C20 4.47715 15.5228 0 10 0C4.47715 0 0 4.47715 0 10C0 15.5228 4.47715 20 10 20ZM10 17C13.866 17 17 13.866 17 10C17 6.13401 13.866 3 10 3C6.13401 3 3 6.13401 3 10C3 13.866 6.13401 17 10 17Z" fill="#eeecc3"/></g><rect x="406.20000000000005" y="0" width="67.7" height="67.7" fill="#f5efd4"/><rect x="406.2" y="0" width="33.85" height="33.85" fill="#c6da68"/><g transform="translate(406.2,0) scale(1.6925000000000001) rotate(0)"><path d="M5 0H10L5 5L0 10V5L5 0Z" fill="#b2d13c"/><path d="M20 15V20H15L20 15Z" fill="#b2d13c"/><path d="M20 5V10L15 15L10 20H5L20 5Z" fill="#b2d13c"/><path d="M15 0H20L5 15.0002L0 20.0002V15.0002L15 0Z" fill="#b2d13c"/></g><rect x="440.05" y="0" width="33.85" height="33.85" fill="#e7e9b3"/><g transform="translate(440.05,0) scale(1.6925000000000001) rotate(0)"><path d="M10 0L20 10L10 20L0 10L10 0Z" fill="#7acfba"/></g><rect x="440.05" y="33.85" width="33.85" height="33.85" fill="#c2d861"/><g transform="translate(440.05,33.85) scale(1.6925000000000001) rotate(0)"><path d="M5 0H10L5 5L0 10V5L5 0Z" fill="#f4eed1"/><path d="M20 15V20H15L20 15Z" fill="#f4eed1"/><path d="M20 5V10L15 15L10 20H5L20 5Z" fill="#f4eed1"/><path d="M15 0H20L5 15.0002L0 20.0002V15.0002L15 0Z" fill="#f4eed1"/></g><rect x="473.90000000000003" y="0" width="67.7" height="67.7" fill="#f5efd4"/><rect x="473.9" y="0" width="33.85" height="33.85" fill="#abce2b"/><g transform="translate(473.9,0) scale(1.6925000000000001) rotate(0)"><path d="M10 0L20 10L10 20L0 10L10 0Z" fill="#b2ddc6"/></g><rect x="507.75" y="0" width="33.85" height="33.85" fill="#acce2f"/><g transform="translate(507.75,0) scale(1.6925000000000001) rotate(0)"><path d="M5 0H10L5 5L0 10V5L5 0Z" fill="#e9eab8"/><path d="M20 15V20H15L20 15Z" fill="#e9eab8"/><path d="M20 5V10L15 15L10 20H5L20 5Z" fill="#e9eab8"/><path d="M15 0H20L5 15.0002L0 20.0002V15.0002L15 0Z" fill="#e9eab8"/></g><rect x="507.75" y="33.85" width="33.85" height="33.85" fill="#5ec7b4"/><g transform="translate(507.75,33.85) scale(1.6925000000000001) rotate(0)"><path d="M10 0L20 10L10 20L0 10L10 0Z" fill="#cfde7f"/></g><rect x="609.3000000000001" y="0" width="67.7" height="67.7" fill="#f5efd4"/><rect x="609.3" y="0" width="33.85" height="33.85" fill="#e3e7aa"/><g transform="translate(609.3,0) scale(1.6925000000000001) rotate(0)"><path d="M10 0L20 10L10 20L0 10L10 0Z" fill="#8dd4be"/></g><rect x="643.15" y="0" width="33.85" height="33.85" fill="#7ccfbb"/><g transform="translate(643.15,0) scale(1.6925000000000001) rotate(0)"><path d="M10 5L5 0L0 5L5 10L0 15L5 20L10 15L15 20L20 15L15 10L20 5L15 0L10 5Z" fill="#a6dac3"/></g><rect x="609.3" y="33.85" width="33.85" height="33.85" fill="#d3e6cd"/><g transform="translate(609.3,33.85) scale(1.6925000000000001) rotate(0)"><path d="M10 5L5 0L0 5L5 10L0 15L5 20L10 15L15 20L20 15L15 10L20 5L15 0L10 5Z" fill="#b5d242"/></g><rect x="643.15" y="33.85" width="33.85" height="33.85" fill="#c9e4cb"/><g transform="translate(643.15,33.85) scale(1.6925000000000001) rotate(0)"><path fill-rule="evenodd" clip-rule="evenodd" d="M10 20C15.5228 20 20 15.5228 20 10C20 4.47715 15.5228 0 10 0C4.47715 0 0 4.47715 0 10C0 15.5228 4.47715 20 10 20ZM10 17C13.866 17 17 13.866 17 10C17 6.13401 13.866 3 10 3C6.13401 3 3 6.13401 3 10C3 13.866 6.13401 17 10 17Z" fill="#e7e9b5"/></g><rect x="880.1" y="0" width="67.7" height="67.7" fill="#f5efd4"/><rect x="880.1" y="0" width="33.85" height="33.85" fill="#91d5bf"/><g transform="translate(880.1,0) scale(1.6925000000000001) rotate(0)"><path d="M10 5L5 0L0 5L5 10L0 15L5 20L10 15L15 20L20 15L15 10L20 5L15 0L10 5Z" fill="#52c4b2"/></g><rect x="913.95" y="0" width="33.85" height="33.85" fill="#aecf33"/><g transform="translate(913.95,0) scale(1.6925000000000001) rotate(0)"><path fill-rule="evenodd" clip-rule="evenodd" d="M10 20C15.5228 20 20 15.5228 20 10C20 4.47715 15.5228 0 10 0C4.47715 0 0 4.47715 0 10C0 15.5228 4.47715 20 10 20ZM10 17C13.866 17 17 13.866 17 10C17 6.13401 13.866 3 10 3C6.13401 3 3 6.13401 3 10C3 13.866 6.13401 17 10 17Z" fill="#63c9b5"/></g><rect x="880.1" y="33.85" width="33.85" height="33.85" fill="#c3d862"/><g transform="translate(880.1,33.85) scale(1.6925000000000001) rotate(0)"><path d="M10 0L20 10L10 20L0 10L10 0Z" fill="#dee9cf"/></g><rect x="913.95" y="33.85" width="33.85" height="33.85" fill="#aace2b"/><g transform="translate(913.95,33.85) scale(1.6925000000000001) rotate(0)"><path fill-rule="evenodd" clip-rule="evenodd" d="M10 20C15.5228 20 20 15.5228 20 10C20 4.47715 15.5228 0 10 0C4.47715 0 0 4.47715 0 10C0 15.5228 4.47715 20 10 20ZM10 17C13.866 17 17 13.866 17 10C17 6.13401 13.866 3 10 3C6.13401 3 3 6.13401 3 10C3 13.866 6.13401 17 10 17Z" fill="#e8ecd1"/></g><rect x="947.8000000000001" y="0" width="67.7" height="67.7" fill="#f5efd4"/><rect x="0" y="67.7" width="67.7" height="67.7" fill="#f5efd4"/><rect x="33.85" y="67.7" width="33.85" height="33.85" fill="#d6e7ce"/><g transform="translate(33.85,67.7) scale(1.6925000000000001) rotate(0)"><path fill-rule="evenodd" clip-rule="evenodd" d="M10 20C15.5228 20 20 15.5228 20 10C20 4.47715 15.5228 0 10 0C4.47715 0 0 4.47715 0 10C0 15.5228 4.47715 20 10 20ZM10 17C13.866 17 17 13.866 17 10C17 6.13401 13.866 3 10 3C6.13401 3 3 6.13401 3 10C3 13.866 6.13401 17 10 17Z" fill="#dee9cf"/></g><rect x="0" y="101.55" width="33.85" height="33.85" fill="#d2e6cd"/><g transform="translate(0,101.55) scale(1.6925000000000001) rotate(0)"><path fill-rule="evenodd" clip-rule="evenodd" d="M10 20C15.5228 20 20 15.5228 20 10C20 4.47715 15.5228 0 10 0C4.47715 0 0 4.47715 0 10C0 15.5228 4.47715 20 10 20ZM10 17C13.866 17 17 13.866 17 10C17 6.13401 13.866 3 10 3C6.13401 3 3 6.13401 3 10C3 13.866 6.13401 17 10 17Z" fill="#bee1c8"/></g><rect x="33.85" y="101.55" width="33.85" height="33.85" fill="#bfd75a"/><g transform="translate(33.85,101.55) scale(1.6925000000000001) rotate(0)"><path d="M5 0H10L5 5L0 10V5L5 0Z" fill="#f1eed3"/><path d="M20 15V20H15L20 15Z" fill="#f1eed3"/><path d="M20 5V10L15 15L10 20H5L20 5Z" fill="#f1eed3"/><path d="M15 0H20L5 15.0002L0 20.0002V15.0002L15 0Z" fill="#f1eed3"/></g><rect x="135.4" y="67.7" width="67.7" height="67.7" fill="#f5efd4"/><rect x="135.4" y="67.7" width="33.85" height="33.85" fill="#c5d966"/><g transform="translate(135.4,67.7) scale(1.6925000000000001) rotate(0)"><path d="M5 0H10L5 5L0 10V5L5 0Z" fill="#e6ebd1"/><path d="M20 15V20H15L20 15Z" fill="#e6ebd1"/><path d="M20 5V10L15 15L10 20H5L20 5Z" fill="#e6ebd1"/><path d="M15 0H20L5 15.0002L0 20.0002V15.0002L15 0Z" fill="#e6ebd1"/></g><rect x="203.10000000000002" y="67.7" width="67.7" height="67.7" fill="#f5efd4"/><rect x="203.1" y="67.7" width="33.85" height="33.85" fill="#dde9cf"/><g transform="translate(203.1,67.7) scale(1.6925000000000001) rotate(0)"><path fill-rule="evenodd" clip-rule="evenodd" d="M10 20C15.5228 20 20 15.5228 20 10C20 4.47715 15.5228 0 10 0C4.47715 0 0 4.47715 0 10C0 15.5228 4.47715 20 10 20ZM10 17C13.866 17 17 13.866 17 10C17 6.13401 13.866 3 10 3C6.13401 3 3 6.13401 3 10C3 13.866 6.13401 17 10 17Z" fill="#d0de80"/></g><rect x="236.95" y="101.55" width="33.85" height="33.85" fill="#bce0c8"/><g transform="translate(236.95,101.55) scale(1.6925000000000001) rotate(0)"><path d="M5 0H10L5 5L0 10V5L5 0Z" fill="#e6e8b2"/><path d="M20 15V20H15L20 15Z" fill="#e6e8b2"/><path d="M20 5V10L15 15L10 20H5L20 5Z" fill="#e6e8b2"/><path d="M15 0H20L5 15.0002L0 20.0002V15.0002L15 0Z" fill="#e6e8b2"/></g><rect x="338.5" y="67.7" width="67.7" height="67.7" fill="#f5efd4"/><rect x="372.35" y="67.7" width="33.85" height="33.85" fill="#e4ebd0"/><g transform="translate(372.35,67.7) scale(1.6925000000000001) rotate(0)"><path d="M10 5L5 0L0 5L5 10L0 15L5 20L10 15L15 20L20 15L15 10L20 5L15 0L10 5Z" fill="#bbd551"/></g><rect x="338.5" y="101.55" width="33.85" height="33.85" fill="#cadc73"/><g transform="translate(338.5,101.55) scale(1.6925000000000001) rotate(0)"><path d="M5 0H10L5 5L0 10V5L5 0Z" fill="#c1d75d"/><path d="M20 15V20H15L20 15Z" fill="#c1d75d"/><path d="M20 5V10L15 15L10 20H5L20 5Z" fill="#c1d75d"/><path d="M15 0H20L5 15.0002L0 20.0002V15.0002L15 0Z" fill="#c1d75d"/></g><rect x="372.35" y="101.55" width="33.85" height="33.85" fill="#aacd2a"/><g transform="translate(372.35,101.55) scale(1.6925000000000001) rotate(0)"><path d="M10 0L20 10L10 20L0 10L10 0Z" fill="#9cd8c1"/></g><rect x="406.20000000000005" y="67.7" width="67.7" height="67.7" fill="#f5efd4"/><rect x="406.2" y="67.7" width="33.85" height="33.85" fill="#b4dec6"/><g transform="translate(406.2,67.7) scale(1.6925000000000001) rotate(0)"><path d="M5 0H10L5 5L0 10V5L5 0Z" fill="#abce2b"/><path d="M20 15V20H15L20 15Z" fill="#abce2b"/><path d="M20 5V10L15 15L10 20H5L20 5Z" fill="#abce2b"/><path d="M15 0H20L5 15.0002L0 20.0002V15.0002L15 0Z" fill="#abce2b"/></g><rect x="440.05" y="101.55" width="33.85" height="33.85" fill="#97d6c0"/><g transform="translate(440.05,101.55) scale(1.6925000000000001) rotate(0)"><path fill-rule="evenodd" clip-rule="evenodd" d="M10 20C15.5228 20 20 15.5228 20 10C20 4.47715 15.5228 0 10 0C4.47715 0 0 4.47715 0 10C0 15.5228 4.47715 20 10 20ZM10 17C13.866 17 17 13.866 17 10C17 6.13401 13.866 3 10 3C6.13401 3 3 6.13401 3 10C3 13.866 6.13401 17 10 17Z" fill="#a7cc24"/></g><rect x="473.90000000000003" y="67.7" width="67.7" height="67.7" fill="#f5efd4"/><rect x="473.9" y="67.7" width="33.85" height="33.85" fill="#eeecc3"/><g transform="translate(473.9,67.7) scale(1.6925000000000001) rotate(0)"><path fill-rule="evenodd" clip-rule="evenodd" d="M10 20C15.5228 20 20 15.5228 20 10C20 4.47715 15.5228 0 10 0C4.47715 0 0 4.47715 0 10C0 15.5228 4.47715 20 10 20ZM10 17C13.866 17 17 13.866 17 10C17 6.13401 13.866 3 10 3C6.13401 3 3 6.13401 3 10C3 13.866 6.13401 17 10 17Z" fill="#91d5bf"/></g><rect x="507.75" y="67.7" width="33.85" height="33.85" fill="#c9e3cb"/><g transform="translate(507.75,67.7) scale(1.6925000000000001) rotate(0)"><path d="M5 0H10L5 5L0 10V5L5 0Z" fill="#d3e6cd"/><path d="M20 15V20H15L20 15Z" fill="#d3e6cd"/><path d="M20 5V10L15 15L10 20H5L20 5Z" fill="#d3e6cd"/><path d="M15 0H20L5 15.0002L0 20.0002V15.0002L15 0Z" fill="#d3e6cd"/></g><rect x="507.75" y="101.55" width="33.85" height="33.85" fill="#93d5c0"/><g transform="translate(507.75,101.55) scale(1.6925000000000001) rotate(0)"><path fill-rule="evenodd" clip-rule="evenodd" d="M10 20C15.5228 20 20 15.5228 20 10C20 4.47715 15.5228 0 10 0C4.47715 0 0 4.47715 0 10C0 15.5228 4.47715 20 10 20ZM10 17C13.866 17 17 13.866 17 10C17 6.13401 13.866 3 10 3C6.13401 3 3 6.13401 3 10C3 13.866 6.13401 17 10 17Z" fill="#bcd653"/></g><rect x="609.3000000000001" y="67.7" width="67.7" height="67.7" fill="#f5efd4"/><rect x="609.3" y="67.7" width="33.85" height="33.85" fill="#c9db71"/><g transform="translate(609.3,67.7) scale(1.6925000000000001) rotate(0)"><path fill-rule="evenodd" clip-rule="evenodd" d="M10 20C15.5228 20 20 15.5228 20 10C20 4.47715 15.5228 0 10 0C4.47715 0 0 4.47715 0 10C0 15.5228 4.47715 20 10 20ZM10 17C13.866 17 17 13.866 17 10C17 6.13401 13.866 3 10 3C6.13401 3 3 6.13401 3 10C3 13.866 6.13401 17 10 17Z" fill="#b3dec6"/></g><rect x="643.15" y="67.7" width="33.85" height="33.85" fill="#eaecd2"/><g transform="translate(643.15,67.7) scale(1.6925000000000001) rotate(0)"><path d="M5 0H10L5 5L0 10V5L5 0Z" fill="#f3eecf"/><path d="M20 15V20H15L20 15Z" fill="#f3eecf"/><path d="M20 5V10L15 15L10 20H5L20 5Z" fill="#f3eecf"/><path d="M15 0H20L5 15.0002L0 20.0002V15.0002L15 0Z" fill="#f3eecf"/></g><rect x="609.3" y="101.55" width="33.85" height="33.85" fill="#ebecd2"/><g transform="translate(609.3,101.55) scale(1.6925000000000001) rotate(0)"><path fill-rule="evenodd" clip-rule="evenodd" d="M10 20C15.5228 20 20 15.5228 20 10C20 4.47715 15.5228 0 10 0C4.47715 0 0 4.47715 0 10C0 15.5228 4.47715 20 10 20ZM10 17C13.866 17 17 13.866 17 10C17 6.13401 13.866 3 10 3C6.13401 3 3 6.13401 3 10C3 13.866 6.13401 17 10 17Z" fill="#8ed4be"/></g><rect x="643.15" y="101.55" width="33.85" height="33.85" fill="#a3dac3"/><g transform="translate(643.15,101.55) scale(1.6925000000000001) rotate(0)"><path d="M10 5L5 0L0 5L5 10L0 15L5 20L10 15L15 20L20 15L15 10L20 5L15 0L10 5Z" fill="#b5dec7"/></g><rect x="677" y="67.7" width="67.7" height="67.7" fill="#f5efd4"/><rect x="677" y="101.55" width="33.85" height="33.85" fill="#f0edc9"/><g transform="translate(677,101.55) scale(1.6925000000000001) rotate(0)"><path d="M10 5L5 0L0 5L5 10L0 15L5 20L10 15L15 20L20 15L15 10L20 5L15 0L10 5Z" fill="#d1df83"/></g><rect x="744.7" y="67.7" width="67.7" height="67.7" fill="#f5efd4"/><rect x="778.55" y="67.7" width="33.85" height="33.85" fill="#d7e7ce"/><g transform="translate(778.55,67.7) scale(1.6925000000000001) rotate(0)"><path d="M5 0H10L5 5L0 10V5L5 0Z" fill="#e2e6a8"/><path d="M20 15V20H15L20 15Z" fill="#e2e6a8"/><path d="M20 5V10L15 15L10 20H5L20 5Z" fill="#e2e6a8"/><path d="M15 0H20L5 15.0002L0 20.0002V15.0002L15 0Z" fill="#e2e6a8"/></g><rect x="744.7" y="101.55" width="33.85" height="33.85" fill="#bfe1c9"/><g transform="translate(744.7,101.55) scale(1.6925000000000001) rotate(0)"><path fill-rule="evenodd" clip-rule="evenodd" d="M10 20C15.5228 20 20 15.5228 20 10C20 4.47715 15.5228 0 10 0C4.47715 0 0 4.47715 0 10C0 15.5228 4.47715 20 10 20ZM10 17C13.866 17 17 13.866 17 10C17 6.13401 13.866 3 10 3C6.13401 3 3 6.13401 3 10C3 13.866 6.13401 17 10 17Z" fill="#d7e18f"/></g><rect x="947.8000000000001" y="67.7" width="67.7" height="67.7" fill="#f5efd4"/><rect x="947.8" y="67.7" width="33.85" height="33.85" fill="#e8e9b7"/><g transform="translate(947.8,67.7) scale(1.6925000000000001) rotate(0)"><path d="M5 0H10L5 5L0 10V5L5 0Z" fill="#e3ead0"/><path d="M20 15V20H15L20 15Z" fill="#e3ead0"/><path d="M20 5V10L15 15L10 20H5L20 5Z" fill="#e3ead0"/><path d="M15 0H20L5 15.0002L0 20.0002V15.0002L15 0Z" fill="#e3ead0"/></g><rect x="981.65" y="67.7" width="33.85" height="33.85" fill="#a9cd27"/><g transform="translate(981.65,67.7) scale(1.6925000000000001) rotate(0)"><path d="M10 5L5 0L0 5L5 10L0 15L5 20L10 15L15 20L20 15L15 10L20 5L15 0L10 5Z" fill="#b2d13c"/></g><rect x="1015.5" y="67.7" width="67.7" height="67.7" fill="#f5efd4"/><rect x="1015.5" y="67.7" width="33.85" height="33.85" fill="#6fccb8"/><g transform="translate(1015.5,67.7) scale(1.6925000000000001) rotate(0)"><path d="M10 5L5 0L0 5L5 10L0 15L5 20L10 15L15 20L20 15L15 10L20 5L15 0L10 5Z" fill="#bed758"/></g><rect x="1049.35" y="67.7" width="33.85" height="33.85" fill="#5cc7b4"/><g transform="translate(1049.35,67.7) scale(1.6925000000000001) rotate(0)"><path d="M10 0L20 10L10 20L0 10L10 0Z" fill="#6acbb7"/></g><rect x="1049.35" y="101.55" width="33.85" height="33.85" fill="#78ceba"/><g transform="translate(1049.35,101.55) scale(1.6925000000000001) rotate(0)"><path d="M5 0H10L5 5L0 10V5L5 0Z" fill="#b9d44d"/><path d="M20 15V20H15L20 15Z" fill="#b9d44d"/><path d="M20 5V10L15 15L10 20H5L20 5Z" fill="#b9d44d"/><path d="M15 0H20L5 15.0002L0 20.0002V15.0002L15 0Z" fill="#b9d44d"/></g><rect x="0" y="135.4" width="67.7" height="67.7" fill="#f5efd4"/><rect x="0" y="135.4" width="33.85" height="33.85" fill="#aacd29"/><g transform="translate(0,135.4) scale(1.6925000000000001) rotate(0)"><path d="M5 0H10L5 5L0 10V5L5 0Z" fill="#c9e3cb"/><path d="M20 15V20H15L20 15Z" fill="#c9e3cb"/><path d="M20 5V10L15 15L10 20H5L20 5Z" fill="#c9e3cb"/><path d="M15 0H20L5 15.0002L0 20.0002V15.0002L15 0Z" fill="#c9e3cb"/></g><rect x="33.85" y="135.4" width="33.85" height="33.85" fill="#f1edca"/><g transform="translate(33.85,135.4) scale(1.6925000000000001) rotate(0)"><path d="M10 0L20 10L10 20L0 10L10 0Z" fill="#afd036"/></g><rect x="0" y="169.25" width="33.85" height="33.85" fill="#cbdc74"/><g transform="translate(0,169.25) scale(1.6925000000000001) rotate(0)"><path d="M5 0H10L5 5L0 10V5L5 0Z" fill="#adcf30"/><path d="M20 15V20H15L20 15Z" fill="#adcf30"/><path d="M20 5V10L15 15L10 20H5L20 5Z" fill="#adcf30"/><path d="M15 0H20L5 15.0002L0 20.0002V15.0002L15 0Z" fill="#adcf30"/></g><rect x="67.7" y="135.4" width="67.7" height="67.7" fill="#f5efd4"/><rect x="67.7" y="135.4" width="33.85" height="33.85" fill="#abce2c"/><g transform="translate(67.7,135.4) scale(1.6925000000000001) rotate(0)"><path d="M5 0H10L5 5L0 10V5L5 0Z" fill="#d9e294"/><path d="M20 15V20H15L20 15Z" fill="#d9e294"/><path d="M20 5V10L15 15L10 20H5L20 5Z" fill="#d9e294"/><path d="M15 0H20L5 15.0002L0 20.0002V15.0002L15 0Z" fill="#d9e294"/></g><rect x="101.55" y="135.4" width="33.85" height="33.85" fill="#bde0c8"/><g transform="translate(101.55,135.4) scale(1.6925000000000001) rotate(0)"><path d="M5 0H10L5 5L0 10V5L5 0Z" fill="#8ed4be"/><path d="M20 15V20H15L20 15Z" fill="#8ed4be"/><path d="M20 5V10L15 15L10 20H5L20 5Z" fill="#8ed4be"/><path d="M15 0H20L5 15.0002L0 20.0002V15.0002L15 0Z" fill="#8ed4be"/></g><rect x="101.55" y="169.25" width="33.85" height="33.85" fill="#c8e3cb"/><g transform="translate(101.55,169.25) scale(1.6925000000000001) rotate(0)"><path d="M10 5L5 0L0 5L5 10L0 15L5 20L10 15L15 20L20 15L15 10L20 5L15 0L10 5Z" fill="#8cd4be"/></g><rect x="135.4" y="135.4" width="67.7" height="67.7" fill="#f5efd4"/><rect x="135.4" y="135.4" width="33.85" height="33.85" fill="#e6e8b2"/><g transform="translate(135.4,135.4) scale(1.6925000000000001) rotate(0)"><path d="M5 0H10L5 5L0 10V5L5 0Z" fill="#c0d75b"/><path d="M20 15V20H15L20 15Z" fill="#c0d75b"/><path d="M20 5V10L15 15L10 20H5L20 5Z" fill="#c0d75b"/><path d="M15 0H20L5 15.0002L0 20.0002V15.0002L15 0Z" fill="#c0d75b"/></g><rect x="169.25" y="135.4" width="33.85" height="33.85" fill="#a7dbc4"/><g transform="translate(169.25,135.4) scale(1.6925000000000001) rotate(0)"><path d="M10 5L5 0L0 5L5 10L0 15L5 20L10 15L15 20L20 15L15 10L20 5L15 0L10 5Z" fill="#5dc7b4"/></g><rect x="135.4" y="169.25" width="33.85" height="33.85" fill="#c9db6f"/><g transform="translate(135.4,169.25) scale(1.6925000000000001) rotate(0)"><path d="M10 5L5 0L0 5L5 10L0 15L5 20L10 15L15 20L20 15L15 10L20 5L15 0L10 5Z" fill="#dbe8ce"/></g><rect x="270.8" y="135.4" width="67.7" height="67.7" fill="#f5efd4"/><rect x="270.8" y="135.4" width="33.85" height="33.85" fill="#c4d965"/><g transform="translate(270.8,135.4) scale(1.6925000000000001) rotate(0)"><path d="M10 5L5 0L0 5L5 10L0 15L5 20L10 15L15 20L20 15L15 10L20 5L15 0L10 5Z" fill="#b2d13c"/></g><rect x="304.65" y="135.4" width="33.85" height="33.85" fill="#edebc2"/><g transform="translate(304.65,135.4) scale(1.6925000000000001) rotate(0)"><path d="M10 0L20 10L10 20L0 10L10 0Z" fill="#f3eecf"/></g><rect x="270.8" y="169.25" width="33.85" height="33.85" fill="#bde0c8"/><g transform="translate(270.8,169.25) scale(1.6925000000000001) rotate(0)"><path fill-rule="evenodd" clip-rule="evenodd" d="M10 20C15.5228 20 20 15.5228 20 10C20 4.47715 15.5228 0 10 0C4.47715 0 0 4.47715 0 10C0 15.5228 4.47715 20 10 20ZM10 17C13.866 17 17 13.866 17 10C17 6.13401 13.866 3 10 3C6.13401 3 3 6.13401 3 10C3 13.866 6.13401 17 10 17Z" fill="#8ed4bf"/></g><rect x="304.65" y="169.25" width="33.85" height="33.85" fill="#80d0bb"/><g transform="translate(304.65,169.25) scale(1.6925000000000001) rotate(0)"><path d="M10 0L20 10L10 20L0 10L10 0Z" fill="#afd036"/></g><rect x="338.5" y="135.4" width="67.7" height="67.7" fill="#f5efd4"/><rect x="372.35" y="169.25" width="33.85" height="33.85" fill="#dfe5a2"/><g transform="translate(372.35,169.25) scale(1.6925000000000001) rotate(0)"><path d="M5 0H10L5 5L0 10V5L5 0Z" fill="#c6da6a"/><path d="M20 15V20H15L20 15Z" fill="#c6da6a"/><path d="M20 5V10L15 15L10 20H5L20 5Z" fill="#c6da6a"/><path d="M15 0H20L5 15.0002L0 20.0002V15.0002L15 0Z" fill="#c6da6a"/></g><rect x="406.20000000000005" y="135.4" width="67.7" height="67.7" fill="#f5efd4"/><rect x="406.2" y="135.4" width="33.85" height="33.85" fill="#90d5bf"/><g transform="translate(406.2,135.4) scale(1.6925000000000001) rotate(0)"><path d="M5 0H10L5 5L0 10V5L5 0Z" fill="#f2eecd"/><path d="M20 15V20H15L20 15Z" fill="#f2eecd"/><path d="M20 5V10L15 15L10 20H5L20 5Z" fill="#f2eecd"/><path d="M15 0H20L5 15.0002L0 20.0002V15.0002L15 0Z" fill="#f2eecd"/></g><rect x="440.05" y="135.4" width="33.85" height="33.85" fill="#eaeabb"/><g transform="translate(440.05,135.4) scale(1.6925000000000001) rotate(0)"><path d="M10 0L20 10L10 20L0 10L10 0Z" fill="#d7e7ce"/></g><rect x="406.2" y="169.25" width="33.85" height="33.85" fill="#65c9b6"/><g transform="translate(406.2,169.25) scale(1.6925000000000001) rotate(0)"><path d="M10 0L20 10L10 20L0 10L10 0Z" fill="#e8e9b6"/></g><rect x="440.05" y="169.25" width="33.85" height="33.85" fill="#b2d13c"/><g transform="translate(440.05,169.25) scale(1.6925000000000001) rotate(0)"><path fill-rule="evenodd" clip-rule="evenodd" d="M10 20C15.5228 20 20 15.5228 20 10C20 4.47715 15.5228 0 10 0C4.47715 0 0 4.47715 0 10C0 15.5228 4.47715 20 10 20ZM10 17C13.866 17 17 13.866 17 10C17 6.13401 13.866 3 10 3C6.13401 3 3 6.13401 3 10C3 13.866 6.13401 17 10 17Z" fill="#a8cc25"/></g><rect x="473.90000000000003" y="135.4" width="67.7" height="67.7" fill="#f5efd4"/><rect x="473.9" y="135.4" width="33.85" height="33.85" fill="#a7cc23"/><g transform="translate(473.9,135.4) scale(1.6925000000000001) rotate(0)"><path d="M10 0L20 10L10 20L0 10L10 0Z" fill="#57c6b3"/></g><rect x="473.9" y="169.25" width="33.85" height="33.85" fill="#5bc7b4"/><g transform="translate(473.9,169.25) scale(1.6925000000000001) rotate(0)"><path fill-rule="evenodd" clip-rule="evenodd" d="M10 20C15.5228 20 20 15.5228 20 10C20 4.47715 15.5228 0 10 0C4.47715 0 0 4.47715 0 10C0 15.5228 4.47715 20 10 20ZM10 17C13.866 17 17 13.866 17 10C17 6.13401 13.866 3 10 3C6.13401 3 3 6.13401 3 10C3 13.866 6.13401 17 10 17Z" fill="#b9dfc7"/></g><rect x="507.75" y="169.25" width="33.85" height="33.85" fill="#e9eab8"/><g transform="translate(507.75,169.25) scale(1.6925000000000001) rotate(0)"><path fill-rule="evenodd" clip-rule="evenodd" d="M10 20C15.5228 20 20 15.5228 20 10C20 4.47715 15.5228 0 10 0C4.47715 0 0 4.47715 0 10C0 15.5228 4.47715 20 10 20ZM10 17C13.866 17 17 13.866 17 10C17 6.13401 13.866 3 10 3C6.13401 3 3 6.13401 3 10C3 13.866 6.13401 17 10 17Z" fill="#71ccb8"/></g><rect x="541.6" y="135.4" width="67.7" height="67.7" fill="#f5efd4"/><rect x="541.6" y="169.25" width="33.85" height="33.85" fill="#87d2bd"/><g transform="translate(541.6,169.25) scale(1.6925000000000001) rotate(0)"><path fill-rule="evenodd" clip-rule="evenodd" d="M10 20C15.5228 20 20 15.5228 20 10C20 4.47715 15.5228 0 10 0C4.47715 0 0 4.47715 0 10C0 15.5228 4.47715 20 10 20ZM10 17C13.866 17 17 13.866 17 10C17 6.13401 13.866 3 10 3C6.13401 3 3 6.13401 3 10C3 13.866 6.13401 17 10 17Z" fill="#ededd2"/></g><rect x="575.45" y="169.25" width="33.85" height="33.85" fill="#b6dec7"/><g transform="translate(575.45,169.25) scale(1.6925000000000001) rotate(0)"><path d="M10 0L20 10L10 20L0 10L10 0Z" fill="#86d2bd"/></g><rect x="609.3000000000001" y="135.4" width="67.7" height="67.7" fill="#f5efd4"/><rect x="643.15" y="135.4" width="33.85" height="33.85" fill="#adcf30"/><g transform="translate(643.15,135.4) scale(1.6925000000000001) rotate(0)"><path fill-rule="evenodd" clip-rule="evenodd" d="M10 20C15.5228 20 20 15.5228 20 10C20 4.47715 15.5228 0 10 0C4.47715 0 0 4.47715 0 10C0 15.5228 4.47715 20 10 20ZM10 17C13.866 17 17 13.866 17 10C17 6.13401 13.866 3 10 3C6.13401 3 3 6.13401 3 10C3 13.866 6.13401 17 10 17Z" fill="#b6d346"/></g><rect x="609.3" y="169.25" width="33.85" height="33.85" fill="#dde49d"/><g transform="translate(609.3,169.25) scale(1.6925000000000001) rotate(0)"><path d="M10 0L20 10L10 20L0 10L10 0Z" fill="#f1edcb"/></g><rect x="643.15" y="169.25" width="33.85" height="33.85" fill="#edebc2"/><g transform="translate(643.15,169.25) scale(1.6925000000000001) rotate(0)"><path fill-rule="evenodd" clip-rule="evenodd" d="M10 20C15.5228 20 20 15.5228 20 10C20 4.47715 15.5228 0 10 0C4.47715 0 0 4.47715 0 10C0 15.5228 4.47715 20 10 20ZM10 17C13.866 17 17 13.866 17 10C17 6.13401 13.866 3 10 3C6.13401 3 3 6.13401 3 10C3 13.866 6.13401 17 10 17Z" fill="#51c4b2"/></g><rect x="677" y="135.4" width="67.7" height="67.7" fill="#f5efd4"/><rect x="677" y="135.4" width="33.85" height="33.85" fill="#4dc3b1"/><g transform="translate(677,135.4) scale(1.6925000000000001) rotate(0)"><path d="M5 0H10L5 5L0 10V5L5 0Z" fill="#bad54e"/><path d="M20 15V20H15L20 15Z" fill="#bad54e"/><path d="M20 5V10L15 15L10 20H5L20 5Z" fill="#bad54e"/><path d="M15 0H20L5 15.0002L0 20.0002V15.0002L15 0Z" fill="#bad54e"/></g><rect x="710.85" y="135.4" width="33.85" height="33.85" fill="#4ac2b0"/><g transform="translate(710.85,135.4) scale(1.6925000000000001) rotate(0)"><path d="M5 0H10L5 5L0 10V5L5 0Z" fill="#c0d75b"/><path d="M20 15V20H15L20 15Z" fill="#c0d75b"/><path d="M20 5V10L15 15L10 20H5L20 5Z" fill="#c0d75b"/><path d="M15 0H20L5 15.0002L0 20.0002V15.0002L15 0Z" fill="#c0d75b"/></g><rect x="677" y="169.25" width="33.85" height="33.85" fill="#a2d9c3"/><g transform="translate(677,169.25) scale(1.6925000000000001) rotate(0)"><path d="M10 0L20 10L10 20L0 10L10 0Z" fill="#80d0bb"/></g><rect x="710.85" y="169.25" width="33.85" height="33.85" fill="#76ceb9"/><g transform="translate(710.85,169.25) scale(1.6925000000000001) rotate(0)"><path d="M10 0L20 10L10 20L0 10L10 0Z" fill="#f3eed0"/></g><rect x="744.7" y="135.4" width="67.7" height="67.7" fill="#f5efd4"/><rect x="744.7" y="169.25" width="33.85" height="33.85" fill="#4ec3b1"/><g transform="translate(744.7,169.25) scale(1.6925000000000001) rotate(0)"><path fill-rule="evenodd" clip-rule="evenodd" d="M10 20C15.5228 20 20 15.5228 20 10C20 4.47715 15.5228 0 10 0C4.47715 0 0 4.47715 0 10C0 15.5228 4.47715 20 10 20ZM10 17C13.866 17 17 13.866 17 10C17 6.13401 13.866 3 10 3C6.13401 3 3 6.13401 3 10C3 13.866 6.13401 17 10 17Z" fill="#c2d861"/></g><rect x="880.1" y="135.4" width="67.7" height="67.7" fill="#f5efd4"/><rect x="913.95" y="135.4" width="33.85" height="33.85" fill="#e2e6a9"/><g transform="translate(913.95,135.4) scale(1.6925000000000001) rotate(0)"><path d="M10 5L5 0L0 5L5 10L0 15L5 20L10 15L15 20L20 15L15 10L20 5L15 0L10 5Z" fill="#f1eed3"/></g><rect x="880.1" y="169.25" width="33.85" height="33.85" fill="#e9ecd2"/><g transform="translate(880.1,169.25) scale(1.6925000000000001) rotate(0)"><path d="M10 0L20 10L10 20L0 10L10 0Z" fill="#ccdc76"/></g><rect x="913.95" y="169.25" width="33.85" height="33.85" fill="#76ceb9"/><g transform="translate(913.95,169.25) scale(1.6925000000000001) rotate(0)"><path d="M5 0H10L5 5L0 10V5L5 0Z" fill="#b3d13e"/><path d="M20 15V20H15L20 15Z" fill="#b3d13e"/><path d="M20 5V10L15 15L10 20H5L20 5Z" fill="#b3d13e"/><path d="M15 0H20L5 15.0002L0 20.0002V15.0002L15 0Z" fill="#b3d13e"/></g><rect x="1015.5" y="135.4" width="67.7" height="67.7" fill="#f5efd4"/><rect x="1015.5" y="135.4" width="33.85" height="33.85" fill="#c6da6a"/><g transform="translate(1015.5,135.4) scale(1.6925000000000001) rotate(0)"><path fill-rule="evenodd" clip-rule="evenodd" d="M10 20C15.5228 20 20 15.5228 20 10C20 4.47715 15.5228 0 10 0C4.47715 0 0 4.47715 0 10C0 15.5228 4.47715 20 10 20ZM10 17C13.866 17 17 13.866 17 10C17 6.13401 13.866 3 10 3C6.13401 3 3 6.13401 3 10C3 13.866 6.13401 17 10 17Z" fill="#8ed4be"/></g><rect x="1015.5" y="169.25" width="33.85" height="33.85" fill="#e5e8b0"/><g transform="translate(1015.5,169.25) scale(1.6925000000000001) rotate(0)"><path d="M5 0H10L5 5L0 10V5L5 0Z" fill="#e4e7ae"/><path d="M20 15V20H15L20 15Z" fill="#e4e7ae"/><path d="M20 5V10L15 15L10 20H5L20 5Z" fill="#e4e7ae"/><path d="M15 0H20L5 15.0002L0 20.0002V15.0002L15 0Z" fill="#e4e7ae"/></g><rect x="473.90000000000003" y="203.10000000000002" width="67.7" height="67.7" fill="#f5efd4"/><rect x="473.9" y="203.1" width="33.85" height="33.85" fill="#d0de80"/><g transform="translate(473.9,203.1) scale(1.6925000000000001) rotate(0)"><path d="M10 5L5 0L0 5L5 10L0 15L5 20L10 15L15 20L20 15L15 10L20 5L15 0L10 5Z" fill="#c8db6e"/></g><rect x="507.75" y="203.1" width="33.85" height="33.85" fill="#bbe0c8"/><g transform="translate(507.75,203.1) scale(1.6925000000000001) rotate(0)"><path d="M5 0H10L5 5L0 10V5L5 0Z" fill="#c7da6b"/><path d="M20 15V20H15L20 15Z" fill="#c7da6b"/><path d="M20 5V10L15 15L10 20H5L20 5Z" fill="#c7da6b"/><path d="M15 0H20L5 15.0002L0 20.0002V15.0002L15 0Z" fill="#c7da6b"/></g><rect x="507.75" y="236.95" width="33.85" height="33.85" fill="#c5e2ca"/><g transform="translate(507.75,236.95) scale(1.6925000000000001) rotate(0)"><path d="M10 0L20 10L10 20L0 10L10 0Z" fill="#bad54f"/></g><rect x="541.6" y="203.10000000000002" width="67.7" height="67.7" fill="#f5efd4"/><rect x="575.45" y="203.1" width="33.85" height="33.85" fill="#f2edcc"/><g transform="translate(575.45,203.1) scale(1.6925000000000001) rotate(0)"><path d="M5 0H10L5 5L0 10V5L5 0Z" fill="#e5e8af"/><path d="M20 15V20H15L20 15Z" fill="#e5e8af"/><path d="M20 5V10L15 15L10 20H5L20 5Z" fill="#e5e8af"/><path d="M15 0H20L5 15.0002L0 20.0002V15.0002L15 0Z" fill="#e5e8af"/></g><rect x="541.6" y="236.95" width="33.85" height="33.85" fill="#4bc2b0"/><g transform="translate(541.6,236.95) scale(1.6925000000000001) rotate(0)"><path fill-rule="evenodd" clip-rule="evenodd" d="M10 20C15.5228 20 20 15.5228 20 10C20 4.47715 15.5228 0 10 0C4.47715 0 0 4.47715 0 10C0 15.5228 4.47715 20 10 20ZM10 17C13.866 17 17 13.866 17 10C17 6.13401 13.866 3 10 3C6.13401 3 3 6.13401 3 10C3 13.866 6.13401 17 10 17Z" fill="#dae8ce"/></g><rect x="609.3000000000001" y="203.10000000000002" width="67.7" height="67.7" fill="#f5efd4"/><rect x="609.3" y="203.1" width="33.85" height="33.85" fill="#a4dac3"/><g transform="translate(609.3,203.1) scale(1.6925000000000001) rotate(0)"><path d="M5 0H10L5 5L0 10V5L5 0Z" fill="#c8db6f"/><path d="M20 15V20H15L20 15Z" fill="#c8db6f"/><path d="M20 5V10L15 15L10 20H5L20 5Z" fill="#c8db6f"/><path d="M15 0H20L5 15.0002L0 20.0002V15.0002L15 0Z" fill="#c8db6f"/></g><rect x="609.3" y="236.95" width="33.85" height="33.85" fill="#d5e7cd"/><g transform="translate(609.3,236.95) scale(1.6925000000000001) rotate(0)"><path fill-rule="evenodd" clip-rule="evenodd" d="M10 20C15.5228 20 20 15.5228 20 10C20 4.47715 15.5228 0 10 0C4.47715 0 0 4.47715 0 10C0 15.5228 4.47715 20 10 20ZM10 17C13.866 17 17 13.866 17 10C17 6.13401 13.866 3 10 3C6.13401 3 3 6.13401 3 10C3 13.866 6.13401 17 10 17Z" fill="#b4dec6"/></g><rect x="643.15" y="236.95" width="33.85" height="33.85" fill="#b6d344"/><g transform="translate(643.15,236.95) scale(1.6925000000000001) rotate(0)"><path d="M10 5L5 0L0 5L5 10L0 15L5 20L10 15L15 20L20 15L15 10L20 5L15 0L10 5Z" fill="#92d5bf"/></g><rect x="677" y="203.10000000000002" width="67.7" height="67.7" fill="#f5efd4"/><rect x="677" y="203.1" width="33.85" height="33.85" fill="#ebebbe"/><g transform="translate(677,203.1) scale(1.6925000000000001) rotate(0)"><path d="M5 0H10L5 5L0 10V5L5 0Z" fill="#cae4cb"/><path d="M20 15V20H15L20 15Z" fill="#cae4cb"/><path d="M20 5V10L15 15L10 20H5L20 5Z" fill="#cae4cb"/><path d="M15 0H20L5 15.0002L0 20.0002V15.0002L15 0Z" fill="#cae4cb"/></g><rect x="677" y="236.95" width="33.85" height="33.85" fill="#a6dac4"/><g transform="translate(677,236.95) scale(1.6925000000000001) rotate(0)"><path d="M10 5L5 0L0 5L5 10L0 15L5 20L10 15L15 20L20 15L15 10L20 5L15 0L10 5Z" fill="#eeedd3"/></g><rect x="744.7" y="203.10000000000002" width="67.7" height="67.7" fill="#f5efd4"/><rect x="778.55" y="203.1" width="33.85" height="33.85" fill="#dbe398"/><g transform="translate(778.55,203.1) scale(1.6925000000000001) rotate(0)"><path d="M10 5L5 0L0 5L5 10L0 15L5 20L10 15L15 20L20 15L15 10L20 5L15 0L10 5Z" fill="#66cab6"/></g><rect x="744.7" y="236.95" width="33.85" height="33.85" fill="#88d2bd"/><g transform="translate(744.7,236.95) scale(1.6925000000000001) rotate(0)"><path d="M5 0H10L5 5L0 10V5L5 0Z" fill="#e2e6a8"/><path d="M20 15V20H15L20 15Z" fill="#e2e6a8"/><path d="M20 5V10L15 15L10 20H5L20 5Z" fill="#e2e6a8"/><path d="M15 0H20L5 15.0002L0 20.0002V15.0002L15 0Z" fill="#e2e6a8"/></g><rect x="778.55" y="236.95" width="33.85" height="33.85" fill="#eaeaba"/><g transform="translate(778.55,236.95) scale(1.6925000000000001) rotate(0)"><path d="M5 0H10L5 5L0 10V5L5 0Z" fill="#dee5a1"/><path d="M20 15V20H15L20 15Z" fill="#dee5a1"/><path d="M20 5V10L15 15L10 20H5L20 5Z" fill="#dee5a1"/><path d="M15 0H20L5 15.0002L0 20.0002V15.0002L15 0Z" fill="#dee5a1"/></g><rect x="812.4000000000001" y="203.10000000000002" width="67.7" height="67.7" fill="#f5efd4"/><rect x="812.4" y="203.1" width="33.85" height="33.85" fill="#95d6c0"/><g transform="translate(812.4,203.1) scale(1.6925000000000001) rotate(0)"><path d="M10 5L5 0L0 5L5 10L0 15L5 20L10 15L15 20L20 15L15 10L20 5L15 0L10 5Z" fill="#e8ecd1"/></g><rect x="812.4" y="236.95" width="33.85" height="33.85" fill="#b0ddc6"/><g transform="translate(812.4,236.95) scale(1.6925000000000001) rotate(0)"><path d="M5 0H10L5 5L0 10V5L5 0Z" fill="#cbdc75"/><path d="M20 15V20H15L20 15Z" fill="#cbdc75"/><path d="M20 5V10L15 15L10 20H5L20 5Z" fill="#cbdc75"/><path d="M15 0H20L5 15.0002L0 20.0002V15.0002L15 0Z" fill="#cbdc75"/></g><rect x="846.25" y="236.95" width="33.85" height="33.85" fill="#82d1bc"/><g transform="translate(846.25,236.95) scale(1.6925000000000001) rotate(0)"><path fill-rule="evenodd" clip-rule="evenodd" d="M10 20C15.5228 20 20 15.5228 20 10C20 4.47715 15.5228 0 10 0C4.47715 0 0 4.47715 0 10C0 15.5228 4.47715 20 10 20ZM10 17C13.866 17 17 13.866 17 10C17 6.13401 13.866 3 10 3C6.13401 3 3 6.13401 3 10C3 13.866 6.13401 17 10 17Z" fill="#79cfba"/></g><rect x="0" y="270.8" width="67.7" height="67.7" fill="#f5efd4"/><rect x="0" y="270.8" width="33.85" height="33.85" fill="#d0e5cc"/><g transform="translate(0,270.8) scale(1.6925000000000001) rotate(0)"><path d="M10 0L20 10L10 20L0 10L10 0Z" fill="#a7dbc4"/></g><rect x="33.85" y="270.8" width="33.85" height="33.85" fill="#c0d75c"/><g transform="translate(33.85,270.8) scale(1.6925000000000001) rotate(0)"><path d="M10 5L5 0L0 5L5 10L0 15L5 20L10 15L15 20L20 15L15 10L20 5L15 0L10 5Z" fill="#b6d345"/></g><rect x="0" y="304.65" width="33.85" height="33.85" fill="#dce49c"/><g transform="translate(0,304.65) scale(1.6925000000000001) rotate(0)"><path fill-rule="evenodd" clip-rule="evenodd" d="M10 20C15.5228 20 20 15.5228 20 10C20 4.47715 15.5228 0 10 0C4.47715 0 0 4.47715 0 10C0 15.5228 4.47715 20 10 20ZM10 17C13.866 17 17 13.866 17 10C17 6.13401 13.866 3 10 3C6.13401 3 3 6.13401 3 10C3 13.866 6.13401 17 10 17Z" fill="#d2e6cd"/></g><rect x="67.7" y="270.8" width="67.7" height="67.7" fill="#f5efd4"/><rect x="67.7" y="270.8" width="33.85" height="33.85" fill="#c0d75c"/><g transform="translate(67.7,270.8) scale(1.6925000000000001) rotate(0)"><path d="M10 5L5 0L0 5L5 10L0 15L5 20L10 15L15 20L20 15L15 10L20 5L15 0L10 5Z" fill="#b0d037"/></g><rect x="101.55" y="304.65" width="33.85" height="33.85" fill="#82d1bc"/><g transform="translate(101.55,304.65) scale(1.6925000000000001) rotate(0)"><path d="M10 0L20 10L10 20L0 10L10 0Z" fill="#bcd552"/></g><rect x="135.4" y="270.8" width="67.7" height="67.7" fill="#f5efd4"/><rect x="135.4" y="304.65" width="33.85" height="33.85" fill="#83d1bc"/><g transform="translate(135.4,304.65) scale(1.6925000000000001) rotate(0)"><path d="M5 0H10L5 5L0 10V5L5 0Z" fill="#d9e395"/><path d="M20 15V20H15L20 15Z" fill="#d9e395"/><path d="M20 5V10L15 15L10 20H5L20 5Z" fill="#d9e395"/><path d="M15 0H20L5 15.0002L0 20.0002V15.0002L15 0Z" fill="#d9e395"/></g><rect x="169.25" y="304.65" width="33.85" height="33.85" fill="#5fc8b5"/><g transform="translate(169.25,304.65) scale(1.6925000000000001) rotate(0)"><path d="M5 0H10L5 5L0 10V5L5 0Z" fill="#97d6c0"/><path d="M20 15V20H15L20 15Z" fill="#97d6c0"/><path d="M20 5V10L15 15L10 20H5L20 5Z" fill="#97d6c0"/><path d="M15 0H20L5 15.0002L0 20.0002V15.0002L15 0Z" fill="#97d6c0"/></g><rect x="203.10000000000002" y="270.8" width="67.7" height="67.7" fill="#f5efd4"/><rect x="203.1" y="270.8" width="33.85" height="33.85" fill="#a3dac3"/><g transform="translate(203.1,270.8) scale(1.6925000000000001) rotate(0)"><path d="M5 0H10L5 5L0 10V5L5 0Z" fill="#9cd8c1"/><path d="M20 15V20H15L20 15Z" fill="#9cd8c1"/><path d="M20 5V10L15 15L10 20H5L20 5Z" fill="#9cd8c1"/><path d="M15 0H20L5 15.0002L0 20.0002V15.0002L15 0Z" fill="#9cd8c1"/></g><rect x="236.95" y="270.8" width="33.85" height="33.85" fill="#abce2d"/><g transform="translate(236.95,270.8) scale(1.6925000000000001) rotate(0)"><path fill-rule="evenodd" clip-rule="evenodd" d="M10 20C15.5228 20 20 15.5228 20 10C20 4.47715 15.5228 0 10 0C4.47715 0 0 4.47715 0 10C0 15.5228 4.47715 20 10 20ZM10 17C13.866 17 17 13.866 17 10C17 6.13401 13.866 3 10 3C6.13401 3 3 6.13401 3 10C3 13.866 6.13401 17 10 17Z" fill="#a2d9c3"/></g><rect x="203.1" y="304.65" width="33.85" height="33.85" fill="#c9db71"/><g transform="translate(203.1,304.65) scale(1.6925000000000001) rotate(0)"><path d="M10 5L5 0L0 5L5 10L0 15L5 20L10 15L15 20L20 15L15 10L20 5L15 0L10 5Z" fill="#f4efd2"/></g><rect x="270.8" y="270.8" width="67.7" height="67.7" fill="#f5efd4"/><rect x="304.65" y="270.8" width="33.85" height="33.85" fill="#b3dec6"/><g transform="translate(304.65,270.8) scale(1.6925000000000001) rotate(0)"><path fill-rule="evenodd" clip-rule="evenodd" d="M10 20C15.5228 20 20 15.5228 20 10C20 4.47715 15.5228 0 10 0C4.47715 0 0 4.47715 0 10C0 15.5228 4.47715 20 10 20ZM10 17C13.866 17 17 13.866 17 10C17 6.13401 13.866 3 10 3C6.13401 3 3 6.13401 3 10C3 13.866 6.13401 17 10 17Z" fill="#4ac2b0"/></g><rect x="270.8" y="304.65" width="33.85" height="33.85" fill="#ccdd77"/><g transform="translate(270.8,304.65) scale(1.6925000000000001) rotate(0)"><path d="M10 5L5 0L0 5L5 10L0 15L5 20L10 15L15 20L20 15L15 10L20 5L15 0L10 5Z" fill="#f1edcc"/></g><rect x="338.5" y="270.8" width="67.7" height="67.7" fill="#f5efd4"/><rect x="372.35" y="270.8" width="33.85" height="33.85" fill="#c6e3ca"/><g transform="translate(372.35,270.8) scale(1.6925000000000001) rotate(0)"><path d="M10 0L20 10L10 20L0 10L10 0Z" fill="#afcf34"/></g><rect x="338.5" y="304.65" width="33.85" height="33.85" fill="#83d1bc"/><g transform="translate(338.5,304.65) scale(1.6925000000000001) rotate(0)"><path d="M10 0L20 10L10 20L0 10L10 0Z" fill="#59c6b3"/></g><rect x="372.35" y="304.65" width="33.85" height="33.85" fill="#89d3bd"/><g transform="translate(372.35,304.65) scale(1.6925000000000001) rotate(0)"><path d="M10 5L5 0L0 5L5 10L0 15L5 20L10 15L15 20L20 15L15 10L20 5L15 0L10 5Z" fill="#4bc3b1"/></g><rect x="406.20000000000005" y="270.8" width="67.7" height="67.7" fill="#f5efd4"/><rect x="440.05" y="270.8" width="33.85" height="33.85" fill="#bbd551"/><g transform="translate(440.05,270.8) scale(1.6925000000000001) rotate(0)"><path d="M5 0H10L5 5L0 10V5L5 0Z" fill="#aecf33"/><path d="M20 15V20H15L20 15Z" fill="#aecf33"/><path d="M20 5V10L15 15L10 20H5L20 5Z" fill="#aecf33"/><path d="M15 0H20L5 15.0002L0 20.0002V15.0002L15 0Z" fill="#aecf33"/></g><rect x="406.2" y="304.65" width="33.85" height="33.85" fill="#6dccb8"/><g transform="translate(406.2,304.65) scale(1.6925000000000001) rotate(0)"><path fill-rule="evenodd" clip-rule="evenodd" d="M10 20C15.5228 20 20 15.5228 20 10C20 4.47715 15.5228 0 10 0C4.47715 0 0 4.47715 0 10C0 15.5228 4.47715 20 10 20ZM10 17C13.866 17 17 13.866 17 10C17 6.13401 13.866 3 10 3C6.13401 3 3 6.13401 3 10C3 13.866 6.13401 17 10 17Z" fill="#b9dfc7"/></g><rect x="609.3000000000001" y="270.8" width="67.7" height="67.7" fill="#f5efd4"/><rect x="609.3" y="270.8" width="33.85" height="33.85" fill="#dae8ce"/><g transform="translate(609.3,270.8) scale(1.6925000000000001) rotate(0)"><path fill-rule="evenodd" clip-rule="evenodd" d="M10 20C15.5228 20 20 15.5228 20 10C20 4.47715 15.5228 0 10 0C4.47715 0 0 4.47715 0 10C0 15.5228 4.47715 20 10 20ZM10 17C13.866 17 17 13.866 17 10C17 6.13401 13.866 3 10 3C6.13401 3 3 6.13401 3 10C3 13.866 6.13401 17 10 17Z" fill="#d1df83"/></g><rect x="643.15" y="270.8" width="33.85" height="33.85" fill="#a6dac3"/><g transform="translate(643.15,270.8) scale(1.6925000000000001) rotate(0)"><path fill-rule="evenodd" clip-rule="evenodd" d="M10 20C15.5228 20 20 15.5228 20 10C20 4.47715 15.5228 0 10 0C4.47715 0 0 4.47715 0 10C0 15.5228 4.47715 20 10 20ZM10 17C13.866 17 17 13.866 17 10C17 6.13401 13.866 3 10 3C6.13401 3 3 6.13401 3 10C3 13.866 6.13401 17 10 17Z" fill="#c5da68"/></g><rect x="609.3" y="304.65" width="33.85" height="33.85" fill="#cce4cb"/><g transform="translate(609.3,304.65) scale(1.6925000000000001) rotate(0)"><path d="M5 0H10L5 5L0 10V5L5 0Z" fill="#dee9cf"/><path d="M20 15V20H15L20 15Z" fill="#dee9cf"/><path d="M20 5V10L15 15L10 20H5L20 5Z" fill="#dee9cf"/><path d="M15 0H20L5 15.0002L0 20.0002V15.0002L15 0Z" fill="#dee9cf"/></g><rect x="744.7" y="270.8" width="67.7" height="67.7" fill="#f5efd4"/><rect x="744.7" y="270.8" width="33.85" height="33.85" fill="#b4d240"/><g transform="translate(744.7,270.8) scale(1.6925000000000001) rotate(0)"><path fill-rule="evenodd" clip-rule="evenodd" d="M10 20C15.5228 20 20 15.5228 20 10C20 4.47715 15.5228 0 10 0C4.47715 0 0 4.47715 0 10C0 15.5228 4.47715 20 10 20ZM10 17C13.866 17 17 13.866 17 10C17 6.13401 13.866 3 10 3C6.13401 3 3 6.13401 3 10C3 13.866 6.13401 17 10 17Z" fill="#82d1bc"/></g><rect x="778.55" y="270.8" width="33.85" height="33.85" fill="#87d2bd"/><g transform="translate(778.55,270.8) scale(1.6925000000000001) rotate(0)"><path d="M10 5L5 0L0 5L5 10L0 15L5 20L10 15L15 20L20 15L15 10L20 5L15 0L10 5Z" fill="#b4d23f"/></g><rect x="778.55" y="304.65" width="33.85" height="33.85" fill="#efecc7"/><g transform="translate(778.55,304.65) scale(1.6925000000000001) rotate(0)"><path fill-rule="evenodd" clip-rule="evenodd" d="M10 20C15.5228 20 20 15.5228 20 10C20 4.47715 15.5228 0 10 0C4.47715 0 0 4.47715 0 10C0 15.5228 4.47715 20 10 20ZM10 17C13.866 17 17 13.866 17 10C17 6.13401 13.866 3 10 3C6.13401 3 3 6.13401 3 10C3 13.866 6.13401 17 10 17Z" fill="#bae0c8"/></g><rect x="812.4000000000001" y="270.8" width="67.7" height="67.7" fill="#f5efd4"/><rect x="812.4" y="270.8" width="33.85" height="33.85" fill="#b5d242"/><g transform="translate(812.4,270.8) scale(1.6925000000000001) rotate(0)"><path fill-rule="evenodd" clip-rule="evenodd" d="M10 20C15.5228 20 20 15.5228 20 10C20 4.47715 15.5228 0 10 0C4.47715 0 0 4.47715 0 10C0 15.5228 4.47715 20 10 20ZM10 17C13.866 17 17 13.866 17 10C17 6.13401 13.866 3 10 3C6.13401 3 3 6.13401 3 10C3 13.866 6.13401 17 10 17Z" fill="#c8e3cb"/></g><rect x="846.25" y="270.8" width="33.85" height="33.85" fill="#56c5b3"/><g transform="translate(846.25,270.8) scale(1.6925000000000001) rotate(0)"><path fill-rule="evenodd" clip-rule="evenodd" d="M10 20C15.5228 20 20 15.5228 20 10C20 4.47715 15.5228 0 10 0C4.47715 0 0 4.47715 0 10C0 15.5228 4.47715 20 10 20ZM10 17C13.866 17 17 13.866 17 10C17 6.13401 13.866 3 10 3C6.13401 3 3 6.13401 3 10C3 13.866 6.13401 17 10 17Z" fill="#cbdc74"/></g><rect x="812.4" y="304.65" width="33.85" height="33.85" fill="#eaeabc"/><g transform="translate(812.4,304.65) scale(1.6925000000000001) rotate(0)"><path d="M10 5L5 0L0 5L5 10L0 15L5 20L10 15L15 20L20 15L15 10L20 5L15 0L10 5Z" fill="#eaeaba"/></g><rect x="846.25" y="304.65" width="33.85" height="33.85" fill="#91d5bf"/><g transform="translate(846.25,304.65) scale(1.6925000000000001) rotate(0)"><path d="M5 0H10L5 5L0 10V5L5 0Z" fill="#e4ead0"/><path d="M20 15V20H15L20 15Z" fill="#e4ead0"/><path d="M20 5V10L15 15L10 20H5L20 5Z" fill="#e4ead0"/><path d="M15 0H20L5 15.0002L0 20.0002V15.0002L15 0Z" fill="#e4ead0"/></g><rect x="947.8000000000001" y="270.8" width="67.7" height="67.7" fill="#f5efd4"/><rect x="981.65" y="270.8" width="33.85" height="33.85" fill="#c7da6b"/><g transform="translate(981.65,270.8) scale(1.6925000000000001) rotate(0)"><path d="M10 5L5 0L0 5L5 10L0 15L5 20L10 15L15 20L20 15L15 10L20 5L15 0L10 5Z" fill="#dce49a"/></g><rect x="947.8" y="304.65" width="33.85" height="33.85" fill="#8fd4bf"/><g transform="translate(947.8,304.65) scale(1.6925000000000001) rotate(0)"><path fill-rule="evenodd" clip-rule="evenodd" d="M10 20C15.5228 20 20 15.5228 20 10C20 4.47715 15.5228 0 10 0C4.47715 0 0 4.47715 0 10C0 15.5228 4.47715 20 10 20ZM10 17C13.866 17 17 13.866 17 10C17 6.13401 13.866 3 10 3C6.13401 3 3 6.13401 3 10C3 13.866 6.13401 17 10 17Z" fill="#e2ead0"/></g><rect x="1015.5" y="270.8" width="67.7" height="67.7" fill="#f5efd4"/><rect x="1015.5" y="270.8" width="33.85" height="33.85" fill="#dae8ce"/><g transform="translate(1015.5,270.8) scale(1.6925000000000001) rotate(0)"><path d="M10 5L5 0L0 5L5 10L0 15L5 20L10 15L15 20L20 15L15 10L20 5L15 0L10 5Z" fill="#a3dac3"/></g><rect x="1049.35" y="270.8" width="33.85" height="33.85" fill="#c7db6d"/><g transform="translate(1049.35,270.8) scale(1.6925000000000001) rotate(0)"><path fill-rule="evenodd" clip-rule="evenodd" d="M10 20C15.5228 20 20 15.5228 20 10C20 4.47715 15.5228 0 10 0C4.47715 0 0 4.47715 0 10C0 15.5228 4.47715 20 10 20ZM10 17C13.866 17 17 13.866 17 10C17 6.13401 13.866 3 10 3C6.13401 3 3 6.13401 3 10C3 13.866 6.13401 17 10 17Z" fill="#c7da6b"/></g><rect x="1015.5" y="304.65" width="33.85" height="33.85" fill="#cbe4cb"/><g transform="translate(1015.5,304.65) scale(1.6925000000000001) rotate(0)"><path d="M10 0L20 10L10 20L0 10L10 0Z" fill="#b0d038"/></g><rect x="0" y="338.5" width="67.7" height="67.7" fill="#f5efd4"/><rect x="0" y="338.5" width="33.85" height="33.85" fill="#adcf32"/><g transform="translate(0,338.5) scale(1.6925000000000001) rotate(0)"><path d="M10 5L5 0L0 5L5 10L0 15L5 20L10 15L15 20L20 15L15 10L20 5L15 0L10 5Z" fill="#f1eed3"/></g><rect x="33.85" y="338.5" width="33.85" height="33.85" fill="#e2e6a8"/><g transform="translate(33.85,338.5) scale(1.6925000000000001) rotate(0)"><path d="M5 0H10L5 5L0 10V5L5 0Z" fill="#e0e9d0"/><path d="M20 15V20H15L20 15Z" fill="#e0e9d0"/><path d="M20 5V10L15 15L10 20H5L20 5Z" fill="#e0e9d0"/><path d="M15 0H20L5 15.0002L0 20.0002V15.0002L15 0Z" fill="#e0e9d0"/></g><rect x="0" y="372.35" width="33.85" height="33.85" fill="#bdd654"/><g transform="translate(0,372.35) scale(1.6925000000000001) rotate(0)"><path d="M10 0L20 10L10 20L0 10L10 0Z" fill="#f0edc8"/></g><rect x="135.4" y="338.5" width="67.7" height="67.7" fill="#f5efd4"/><rect x="169.25" y="372.35" width="33.85" height="33.85" fill="#bfe1c9"/><g transform="translate(169.25,372.35) scale(1.6925000000000001) rotate(0)"><path fill-rule="evenodd" clip-rule="evenodd" d="M10 20C15.5228 20 20 15.5228 20 10C20 4.47715 15.5228 0 10 0C4.47715 0 0 4.47715 0 10C0 15.5228 4.47715 20 10 20ZM10 17C13.866 17 17 13.866 17 10C17 6.13401 13.866 3 10 3C6.13401 3 3 6.13401 3 10C3 13.866 6.13401 17 10 17Z" fill="#92d5bf"/></g><rect x="203.10000000000002" y="338.5" width="67.7" height="67.7" fill="#f5efd4"/><rect x="203.1" y="338.5" width="33.85" height="33.85" fill="#b0ddc6"/><g transform="translate(203.1,338.5) scale(1.6925000000000001) rotate(0)"><path d="M5 0H10L5 5L0 10V5L5 0Z" fill="#68cab6"/><path d="M20 15V20H15L20 15Z" fill="#68cab6"/><path d="M20 5V10L15 15L10 20H5L20 5Z" fill="#68cab6"/><path d="M15 0H20L5 15.0002L0 20.0002V15.0002L15 0Z" fill="#68cab6"/></g><rect x="236.95" y="338.5" width="33.85" height="33.85" fill="#bad54f"/><g transform="translate(236.95,338.5) scale(1.6925000000000001) rotate(0)"><path d="M10 5L5 0L0 5L5 10L0 15L5 20L10 15L15 20L20 15L15 10L20 5L15 0L10 5Z" fill="#b2d13d"/></g><rect x="236.95" y="372.35" width="33.85" height="33.85" fill="#eeecc4"/><g transform="translate(236.95,372.35) scale(1.6925000000000001) rotate(0)"><path d="M10 5L5 0L0 5L5 10L0 15L5 20L10 15L15 20L20 15L15 10L20 5L15 0L10 5Z" fill="#9cd8c1"/></g><rect x="270.8" y="338.5" width="67.7" height="67.7" fill="#f5efd4"/><rect x="270.8" y="338.5" width="33.85" height="33.85" fill="#c1d85e"/><g transform="translate(270.8,338.5) scale(1.6925000000000001) rotate(0)"><path d="M10 5L5 0L0 5L5 10L0 15L5 20L10 15L15 20L20 15L15 10L20 5L15 0L10 5Z" fill="#9ad7c1"/></g><rect x="304.65" y="372.35" width="33.85" height="33.85" fill="#bde0c8"/><g transform="translate(304.65,372.35) scale(1.6925000000000001) rotate(0)"><path d="M10 0L20 10L10 20L0 10L10 0Z" fill="#9ed8c2"/></g><rect x="338.5" y="338.5" width="67.7" height="67.7" fill="#f5efd4"/><rect x="338.5" y="338.5" width="33.85" height="33.85" fill="#aadbc4"/><g transform="translate(338.5,338.5) scale(1.6925000000000001) rotate(0)"><path fill-rule="evenodd" clip-rule="evenodd" d="M10 20C15.5228 20 20 15.5228 20 10C20 4.47715 15.5228 0 10 0C4.47715 0 0 4.47715 0 10C0 15.5228 4.47715 20 10 20ZM10 17C13.866 17 17 13.866 17 10C17 6.13401 13.866 3 10 3C6.13401 3 3 6.13401 3 10C3 13.866 6.13401 17 10 17Z" fill="#c9e3cb"/></g><rect x="338.5" y="372.35" width="33.85" height="33.85" fill="#56c6b3"/><g transform="translate(338.5,372.35) scale(1.6925000000000001) rotate(0)"><path d="M5 0H10L5 5L0 10V5L5 0Z" fill="#acce2f"/><path d="M20 15V20H15L20 15Z" fill="#acce2f"/><path d="M20 5V10L15 15L10 20H5L20 5Z" fill="#acce2f"/><path d="M15 0H20L5 15.0002L0 20.0002V15.0002L15 0Z" fill="#acce2f"/></g><rect x="372.35" y="372.35" width="33.85" height="33.85" fill="#d8e293"/><g transform="translate(372.35,372.35) scale(1.6925000000000001) rotate(0)"><path d="M10 5L5 0L0 5L5 10L0 15L5 20L10 15L15 20L20 15L15 10L20 5L15 0L10 5Z" fill="#e0e6a5"/></g><rect x="473.90000000000003" y="338.5" width="67.7" height="67.7" fill="#f5efd4"/><rect x="507.75" y="372.35" width="33.85" height="33.85" fill="#adce30"/><g transform="translate(507.75,372.35) scale(1.6925000000000001) rotate(0)"><path d="M10 5L5 0L0 5L5 10L0 15L5 20L10 15L15 20L20 15L15 10L20 5L15 0L10 5Z" fill="#c8db6e"/></g><rect x="541.6" y="338.5" width="67.7" height="67.7" fill="#f5efd4"/><rect x="541.6" y="338.5" width="33.85" height="33.85" fill="#6acbb7"/><g transform="translate(541.6,338.5) scale(1.6925000000000001) rotate(0)"><path fill-rule="evenodd" clip-rule="evenodd" d="M10 20C15.5228 20 20 15.5228 20 10C20 4.47715 15.5228 0 10 0C4.47715 0 0 4.47715 0 10C0 15.5228 4.47715 20 10 20ZM10 17C13.866 17 17 13.866 17 10C17 6.13401 13.866 3 10 3C6.13401 3 3 6.13401 3 10C3 13.866 6.13401 17 10 17Z" fill="#c9db71"/></g><rect x="575.45" y="338.5" width="33.85" height="33.85" fill="#77ceba"/><g transform="translate(575.45,338.5) scale(1.6925000000000001) rotate(0)"><path d="M10 5L5 0L0 5L5 10L0 15L5 20L10 15L15 20L20 15L15 10L20 5L15 0L10 5Z" fill="#6acbb7"/></g><rect x="575.45" y="372.35" width="33.85" height="33.85" fill="#dfe5a2"/><g transform="translate(575.45,372.35) scale(1.6925000000000001) rotate(0)"><path fill-rule="evenodd" clip-rule="evenodd" d="M10 20C15.5228 20 20 15.5228 20 10C20 4.47715 15.5228 0 10 0C4.47715 0 0 4.47715 0 10C0 15.5228 4.47715 20 10 20ZM10 17C13.866 17 17 13.866 17 10C17 6.13401 13.866 3 10 3C6.13401 3 3 6.13401 3 10C3 13.866 6.13401 17 10 17Z" fill="#70ccb8"/></g><rect x="812.4000000000001" y="338.5" width="67.7" height="67.7" fill="#f5efd4"/><rect x="846.25" y="338.5" width="33.85" height="33.85" fill="#cbdc75"/><g transform="translate(846.25,338.5) scale(1.6925000000000001) rotate(0)"><path d="M10 0L20 10L10 20L0 10L10 0Z" fill="#c5da68"/></g><rect x="846.25" y="372.35" width="33.85" height="33.85" fill="#bfd758"/><g transform="translate(846.25,372.35) scale(1.6925000000000001) rotate(0)"><path fill-rule="evenodd" clip-rule="evenodd" d="M10 20C15.5228 20 20 15.5228 20 10C20 4.47715 15.5228 0 10 0C4.47715 0 0 4.47715 0 10C0 15.5228 4.47715 20 10 20ZM10 17C13.866 17 17 13.866 17 10C17 6.13401 13.866 3 10 3C6.13401 3 3 6.13401 3 10C3 13.866 6.13401 17 10 17Z" fill="#8ad3be"/></g><rect x="880.1" y="338.5" width="67.7" height="67.7" fill="#f5efd4"/><rect x="880.1" y="338.5" width="33.85" height="33.85" fill="#86d2bd"/><g transform="translate(880.1,338.5) scale(1.6925000000000001) rotate(0)"><path fill-rule="evenodd" clip-rule="evenodd" d="M10 20C15.5228 20 20 15.5228 20 10C20 4.47715 15.5228 0 10 0C4.47715 0 0 4.47715 0 10C0 15.5228 4.47715 20 10 20ZM10 17C13.866 17 17 13.866 17 10C17 6.13401 13.866 3 10 3C6.13401 3 3 6.13401 3 10C3 13.866 6.13401 17 10 17Z" fill="#d3e088"/></g><rect x="913.95" y="372.35" width="33.85" height="33.85" fill="#5ac6b4"/><g transform="translate(913.95,372.35) scale(1.6925000000000001) rotate(0)"><path fill-rule="evenodd" clip-rule="evenodd" d="M10 20C15.5228 20 20 15.5228 20 10C20 4.47715 15.5228 0 10 0C4.47715 0 0 4.47715 0 10C0 15.5228 4.47715 20 10 20ZM10 17C13.866 17 17 13.866 17 10C17 6.13401 13.866 3 10 3C6.13401 3 3 6.13401 3 10C3 13.866 6.13401 17 10 17Z" fill="#54c5b2"/></g><rect x="947.8000000000001" y="338.5" width="67.7" height="67.7" fill="#f5efd4"/><rect x="947.8" y="338.5" width="33.85" height="33.85" fill="#60c8b5"/><g transform="translate(947.8,338.5) scale(1.6925000000000001) rotate(0)"><path d="M10 5L5 0L0 5L5 10L0 15L5 20L10 15L15 20L20 15L15 10L20 5L15 0L10 5Z" fill="#f3eecf"/></g><rect x="981.65" y="338.5" width="33.85" height="33.85" fill="#76ceb9"/><g transform="translate(981.65,338.5) scale(1.6925000000000001) rotate(0)"><path d="M5 0H10L5 5L0 10V5L5 0Z" fill="#c2d861"/><path d="M20 15V20H15L20 15Z" fill="#c2d861"/><path d="M20 5V10L15 15L10 20H5L20 5Z" fill="#c2d861"/><path d="M15 0H20L5 15.0002L0 20.0002V15.0002L15 0Z" fill="#c2d861"/></g><rect x="947.8" y="372.35" width="33.85" height="33.85" fill="#d5e08b"/><g transform="translate(947.8,372.35) scale(1.6925000000000001) rotate(0)"><path d="M10 5L5 0L0 5L5 10L0 15L5 20L10 15L15 20L20 15L15 10L20 5L15 0L10 5Z" fill="#d6e18d"/></g><rect x="1015.5" y="338.5" width="67.7" height="67.7" fill="#f5efd4"/><rect x="1015.5" y="338.5" width="33.85" height="33.85" fill="#d0e5cc"/><g transform="translate(1015.5,338.5) scale(1.6925000000000001) rotate(0)"><path d="M5 0H10L5 5L0 10V5L5 0Z" fill="#a4dac3"/><path d="M20 15V20H15L20 15Z" fill="#a4dac3"/><path d="M20 5V10L15 15L10 20H5L20 5Z" fill="#a4dac3"/><path d="M15 0H20L5 15.0002L0 20.0002V15.0002L15 0Z" fill="#a4dac3"/></g><rect x="1015.5" y="372.35" width="33.85" height="33.85" fill="#c4d964"/><g transform="translate(1015.5,372.35) scale(1.6925000000000001) rotate(0)"><path d="M10 0L20 10L10 20L0 10L10 0Z" fill="#7acfba"/></g><rect x="1049.35" y="372.35" width="33.85" height="33.85" fill="#a4dac3"/><g transform="translate(1049.35,372.35) scale(1.6925000000000001) rotate(0)"><path d="M10 0L20 10L10 20L0 10L10 0Z" fill="#eeecc4"/></g><rect x="67.7" y="406.20000000000005" width="67.7" height="67.7" fill="#f5efd4"/><rect x="67.7" y="440.05" width="33.85" height="33.85" fill="#ccdc76"/><g transform="translate(67.7,440.05) scale(1.6925000000000001) rotate(0)"><path d="M5 0H10L5 5L0 10V5L5 0Z" fill="#49c2b0"/><path d="M20 15V20H15L20 15Z" fill="#49c2b0"/><path d="M20 5V10L15 15L10 20H5L20 5Z" fill="#49c2b0"/><path d="M15 0H20L5 15.0002L0 20.0002V15.0002L15 0Z" fill="#49c2b0"/></g><rect x="101.55" y="440.05" width="33.85" height="33.85" fill="#a0d9c2"/><g transform="translate(101.55,440.05) scale(1.6925000000000001) rotate(0)"><path d="M10 5L5 0L0 5L5 10L0 15L5 20L10 15L15 20L20 15L15 10L20 5L15 0L10 5Z" fill="#cbdc74"/></g><rect x="203.10000000000002" y="406.20000000000005" width="67.7" height="67.7" fill="#f5efd4"/><rect x="203.1" y="406.2" width="33.85" height="33.85" fill="#a2d9c3"/><g transform="translate(203.1,406.2) scale(1.6925000000000001) rotate(0)"><path fill-rule="evenodd" clip-rule="evenodd" d="M10 20C15.5228 20 20 15.5228 20 10C20 4.47715 15.5228 0 10 0C4.47715 0 0 4.47715 0 10C0 15.5228 4.47715 20 10 20ZM10 17C13.866 17 17 13.866 17 10C17 6.13401 13.866 3 10 3C6.13401 3 3 6.13401 3 10C3 13.866 6.13401 17 10 17Z" fill="#c3e2ca"/></g><rect x="236.95" y="406.2" width="33.85" height="33.85" fill="#cee5cc"/><g transform="translate(236.95,406.2) scale(1.6925000000000001) rotate(0)"><path d="M5 0H10L5 5L0 10V5L5 0Z" fill="#d0e5cc"/><path d="M20 15V20H15L20 15Z" fill="#d0e5cc"/><path d="M20 5V10L15 15L10 20H5L20 5Z" fill="#d0e5cc"/><path d="M15 0H20L5 15.0002L0 20.0002V15.0002L15 0Z" fill="#d0e5cc"/></g><rect x="236.95" y="440.05" width="33.85" height="33.85" fill="#b2d13d"/><g transform="translate(236.95,440.05) scale(1.6925000000000001) rotate(0)"><path d="M5 0H10L5 5L0 10V5L5 0Z" fill="#b5dec7"/><path d="M20 15V20H15L20 15Z" fill="#b5dec7"/><path d="M20 5V10L15 15L10 20H5L20 5Z" fill="#b5dec7"/><path d="M15 0H20L5 15.0002L0 20.0002V15.0002L15 0Z" fill="#b5dec7"/></g><rect x="270.8" y="406.20000000000005" width="67.7" height="67.7" fill="#f5efd4"/><rect x="270.8" y="406.2" width="33.85" height="33.85" fill="#b5d243"/><g transform="translate(270.8,406.2) scale(1.6925000000000001) rotate(0)"><path d="M10 0L20 10L10 20L0 10L10 0Z" fill="#59c6b3"/></g><rect x="270.8" y="440.05" width="33.85" height="33.85" fill="#dae398"/><g transform="translate(270.8,440.05) scale(1.6925000000000001) rotate(0)"><path d="M10 5L5 0L0 5L5 10L0 15L5 20L10 15L15 20L20 15L15 10L20 5L15 0L10 5Z" fill="#4dc3b1"/></g><rect x="304.65" y="440.05" width="33.85" height="33.85" fill="#c2d860"/><g transform="translate(304.65,440.05) scale(1.6925000000000001) rotate(0)"><path d="M10 5L5 0L0 5L5 10L0 15L5 20L10 15L15 20L20 15L15 10L20 5L15 0L10 5Z" fill="#58c6b3"/></g><rect x="338.5" y="406.20000000000005" width="67.7" height="67.7" fill="#f5efd4"/><rect x="338.5" y="440.05" width="33.85" height="33.85" fill="#b0ddc6"/><g transform="translate(338.5,440.05) scale(1.6925000000000001) rotate(0)"><path d="M10 0L20 10L10 20L0 10L10 0Z" fill="#addcc5"/></g><rect x="406.20000000000005" y="406.20000000000005" width="67.7" height="67.7" fill="#f5efd4"/><rect x="406.2" y="406.2" width="33.85" height="33.85" fill="#9bd7c1"/><g transform="translate(406.2,406.2) scale(1.6925000000000001) rotate(0)"><path d="M10 0L20 10L10 20L0 10L10 0Z" fill="#55c5b3"/></g><rect x="406.2" y="440.05" width="33.85" height="33.85" fill="#82d1bc"/><g transform="translate(406.2,440.05) scale(1.6925000000000001) rotate(0)"><path d="M5 0H10L5 5L0 10V5L5 0Z" fill="#d9e294"/><path d="M20 15V20H15L20 15Z" fill="#d9e294"/><path d="M20 5V10L15 15L10 20H5L20 5Z" fill="#d9e294"/><path d="M15 0H20L5 15.0002L0 20.0002V15.0002L15 0Z" fill="#d9e294"/></g><rect x="440.05" y="440.05" width="33.85" height="33.85" fill="#e4e7ad"/><g transform="translate(440.05,440.05) scale(1.6925000000000001) rotate(0)"><path d="M10 5L5 0L0 5L5 10L0 15L5 20L10 15L15 20L20 15L15 10L20 5L15 0L10 5Z" fill="#c8db6e"/></g><rect x="473.90000000000003" y="406.20000000000005" width="67.7" height="67.7" fill="#f5efd4"/><rect x="473.9" y="406.2" width="33.85" height="33.85" fill="#54c5b2"/><g transform="translate(473.9,406.2) scale(1.6925000000000001) rotate(0)"><path fill-rule="evenodd" clip-rule="evenodd" d="M10 20C15.5228 20 20 15.5228 20 10C20 4.47715 15.5228 0 10 0C4.47715 0 0 4.47715 0 10C0 15.5228 4.47715 20 10 20ZM10 17C13.866 17 17 13.866 17 10C17 6.13401 13.866 3 10 3C6.13401 3 3 6.13401 3 10C3 13.866 6.13401 17 10 17Z" fill="#e9eab9"/></g><rect x="507.75" y="406.2" width="33.85" height="33.85" fill="#e1e6a7"/><g transform="translate(507.75,406.2) scale(1.6925000000000001) rotate(0)"><path d="M10 0L20 10L10 20L0 10L10 0Z" fill="#b9d44b"/></g><rect x="473.9" y="440.05" width="33.85" height="33.85" fill="#bad54e"/><g transform="translate(473.9,440.05) scale(1.6925000000000001) rotate(0)"><path fill-rule="evenodd" clip-rule="evenodd" d="M10 20C15.5228 20 20 15.5228 20 10C20 4.47715 15.5228 0 10 0C4.47715 0 0 4.47715 0 10C0 15.5228 4.47715 20 10 20ZM10 17C13.866 17 17 13.866 17 10C17 6.13401 13.866 3 10 3C6.13401 3 3 6.13401 3 10C3 13.866 6.13401 17 10 17Z" fill="#c3d963"/></g><rect x="507.75" y="440.05" width="33.85" height="33.85" fill="#b6d345"/><g transform="translate(507.75,440.05) scale(1.6925000000000001) rotate(0)"><path d="M10 5L5 0L0 5L5 10L0 15L5 20L10 15L15 20L20 15L15 10L20 5L15 0L10 5Z" fill="#e8e9b7"/></g><rect x="541.6" y="406.20000000000005" width="67.7" height="67.7" fill="#f5efd4"/><rect x="575.45" y="406.2" width="33.85" height="33.85" fill="#adcf31"/><g transform="translate(575.45,406.2) scale(1.6925000000000001) rotate(0)"><path d="M5 0H10L5 5L0 10V5L5 0Z" fill="#64c9b6"/><path d="M20 15V20H15L20 15Z" fill="#64c9b6"/><path d="M20 5V10L15 15L10 20H5L20 5Z" fill="#64c9b6"/><path d="M15 0H20L5 15.0002L0 20.0002V15.0002L15 0Z" fill="#64c9b6"/></g><rect x="541.6" y="440.05" width="33.85" height="33.85" fill="#c2e2c9"/><g transform="translate(541.6,440.05) scale(1.6925000000000001) rotate(0)"><path d="M10 0L20 10L10 20L0 10L10 0Z" fill="#d3e087"/></g><rect x="575.45" y="440.05" width="33.85" height="33.85" fill="#b8dfc7"/><g transform="translate(575.45,440.05) scale(1.6925000000000001) rotate(0)"><path fill-rule="evenodd" clip-rule="evenodd" d="M10 20C15.5228 20 20 15.5228 20 10C20 4.47715 15.5228 0 10 0C4.47715 0 0 4.47715 0 10C0 15.5228 4.47715 20 10 20ZM10 17C13.866 17 17 13.866 17 10C17 6.13401 13.866 3 10 3C6.13401 3 3 6.13401 3 10C3 13.866 6.13401 17 10 17Z" fill="#d8e292"/></g><rect x="677" y="406.20000000000005" width="67.7" height="67.7" fill="#f5efd4"/><rect x="677" y="406.2" width="33.85" height="33.85" fill="#abce2c"/><g transform="translate(677,406.2) scale(1.6925000000000001) rotate(0)"><path fill-rule="evenodd" clip-rule="evenodd" d="M10 20C15.5228 20 20 15.5228 20 10C20 4.47715 15.5228 0 10 0C4.47715 0 0 4.47715 0 10C0 15.5228 4.47715 20 10 20ZM10 17C13.866 17 17 13.866 17 10C17 6.13401 13.866 3 10 3C6.13401 3 3 6.13401 3 10C3 13.866 6.13401 17 10 17Z" fill="#bfd759"/></g><rect x="677" y="440.05" width="33.85" height="33.85" fill="#abce2d"/><g transform="translate(677,440.05) scale(1.6925000000000001) rotate(0)"><path d="M5 0H10L5 5L0 10V5L5 0Z" fill="#dfe5a3"/><path d="M20 15V20H15L20 15Z" fill="#dfe5a3"/><path d="M20 5V10L15 15L10 20H5L20 5Z" fill="#dfe5a3"/><path d="M15 0H20L5 15.0002L0 20.0002V15.0002L15 0Z" fill="#dfe5a3"/></g><rect x="744.7" y="406.20000000000005" width="67.7" height="67.7" fill="#f5efd4"/><rect x="744.7" y="406.2" width="33.85" height="33.85" fill="#dfe5a3"/><g transform="translate(744.7,406.2) scale(1.6925000000000001) rotate(0)"><path d="M5 0H10L5 5L0 10V5L5 0Z" fill="#aace2b"/><path d="M20 15V20H15L20 15Z" fill="#aace2b"/><path d="M20 5V10L15 15L10 20H5L20 5Z" fill="#aace2b"/><path d="M15 0H20L5 15.0002L0 20.0002V15.0002L15 0Z" fill="#aace2b"/></g><rect x="744.7" y="440.05" width="33.85" height="33.85" fill="#b2d13d"/><g transform="translate(744.7,440.05) scale(1.6925000000000001) rotate(0)"><path d="M10 0L20 10L10 20L0 10L10 0Z" fill="#afcf35"/></g><rect x="812.4000000000001" y="406.20000000000005" width="67.7" height="67.7" fill="#f5efd4"/><rect x="812.4" y="406.2" width="33.85" height="33.85" fill="#4ec3b1"/><g transform="translate(812.4,406.2) scale(1.6925000000000001) rotate(0)"><path d="M10 5L5 0L0 5L5 10L0 15L5 20L10 15L15 20L20 15L15 10L20 5L15 0L10 5Z" fill="#afddc5"/></g><rect x="846.25" y="406.2" width="33.85" height="33.85" fill="#cfde7e"/><g transform="translate(846.25,406.2) scale(1.6925000000000001) rotate(0)"><path fill-rule="evenodd" clip-rule="evenodd" d="M10 20C15.5228 20 20 15.5228 20 10C20 4.47715 15.5228 0 10 0C4.47715 0 0 4.47715 0 10C0 15.5228 4.47715 20 10 20ZM10 17C13.866 17 17 13.866 17 10C17 6.13401 13.866 3 10 3C6.13401 3 3 6.13401 3 10C3 13.866 6.13401 17 10 17Z" fill="#c8db6d"/></g><rect x="812.4" y="440.05" width="33.85" height="33.85" fill="#a7dbc4"/><g transform="translate(812.4,440.05) scale(1.6925000000000001) rotate(0)"><path d="M10 0L20 10L10 20L0 10L10 0Z" fill="#4bc2b0"/></g><rect x="846.25" y="440.05" width="33.85" height="33.85" fill="#ccdd78"/><g transform="translate(846.25,440.05) scale(1.6925000000000001) rotate(0)"><path d="M10 0L20 10L10 20L0 10L10 0Z" fill="#98d7c0"/></g><rect x="880.1" y="406.20000000000005" width="67.7" height="67.7" fill="#f5efd4"/><rect x="880.1" y="406.2" width="33.85" height="33.85" fill="#b7d347"/><g transform="translate(880.1,406.2) scale(1.6925000000000001) rotate(0)"><path d="M10 0L20 10L10 20L0 10L10 0Z" fill="#acce2e"/></g><rect x="947.8000000000001" y="406.20000000000005" width="67.7" height="67.7" fill="#f5efd4"/><rect x="947.8" y="406.2" width="33.85" height="33.85" fill="#d6e18f"/><g transform="translate(947.8,406.2) scale(1.6925000000000001) rotate(0)"><path d="M5 0H10L5 5L0 10V5L5 0Z" fill="#c6da6a"/><path d="M20 15V20H15L20 15Z" fill="#c6da6a"/><path d="M20 5V10L15 15L10 20H5L20 5Z" fill="#c6da6a"/><path d="M15 0H20L5 15.0002L0 20.0002V15.0002L15 0Z" fill="#c6da6a"/></g><rect x="981.65" y="406.2" width="33.85" height="33.85" fill="#79cfba"/><g transform="translate(981.65,406.2) scale(1.6925000000000001) rotate(0)"><path d="M10 0L20 10L10 20L0 10L10 0Z" fill="#dee5a0"/></g><rect x="947.8" y="440.05" width="33.85" height="33.85" fill="#5bc7b4"/><g transform="translate(947.8,440.05) scale(1.6925000000000001) rotate(0)"><path d="M5 0H10L5 5L0 10V5L5 0Z" fill="#e3e7ac"/><path d="M20 15V20H15L20 15Z" fill="#e3e7ac"/><path d="M20 5V10L15 15L10 20H5L20 5Z" fill="#e3e7ac"/><path d="M15 0H20L5 15.0002L0 20.0002V15.0002L15 0Z" fill="#e3e7ac"/></g><rect x="981.65" y="440.05" width="33.85" height="33.85" fill="#acce2d"/><g transform="translate(981.65,440.05) scale(1.6925000000000001) rotate(0)"><path d="M10 0L20 10L10 20L0 10L10 0Z" fill="#dce49b"/></g><rect x="0" y="473.90000000000003" width="67.7" height="67.7" fill="#f5efd4"/><rect x="0" y="473.9" width="33.85" height="33.85" fill="#a8dbc4"/><g transform="translate(0,473.9) scale(1.6925000000000001) rotate(0)"><path d="M10 5L5 0L0 5L5 10L0 15L5 20L10 15L15 20L20 15L15 10L20 5L15 0L10 5Z" fill="#e5ebd1"/></g><rect x="33.85" y="473.9" width="33.85" height="33.85" fill="#b3d23f"/><g transform="translate(33.85,473.9) scale(1.6925000000000001) rotate(0)"><path d="M10 5L5 0L0 5L5 10L0 15L5 20L10 15L15 20L20 15L15 10L20 5L15 0L10 5Z" fill="#eaecd2"/></g><rect x="0" y="507.75" width="33.85" height="33.85" fill="#4fc4b1"/><g transform="translate(0,507.75) scale(1.6925000000000001) rotate(0)"><path d="M10 0L20 10L10 20L0 10L10 0Z" fill="#d0e5cc"/></g><rect x="33.85" y="507.75" width="33.85" height="33.85" fill="#f4efd2"/><g transform="translate(33.85,507.75) scale(1.6925000000000001) rotate(0)"><path d="M5 0H10L5 5L0 10V5L5 0Z" fill="#acce2e"/><path d="M20 15V20H15L20 15Z" fill="#acce2e"/><path d="M20 5V10L15 15L10 20H5L20 5Z" fill="#acce2e"/><path d="M15 0H20L5 15.0002L0 20.0002V15.0002L15 0Z" fill="#acce2e"/></g><rect x="203.10000000000002" y="473.90000000000003" width="67.7" height="67.7" fill="#f5efd4"/><rect x="203.1" y="473.9" width="33.85" height="33.85" fill="#90d5bf"/><g transform="translate(203.1,473.9) scale(1.6925000000000001) rotate(0)"><path fill-rule="evenodd" clip-rule="evenodd" d="M10 20C15.5228 20 20 15.5228 20 10C20 4.47715 15.5228 0 10 0C4.47715 0 0 4.47715 0 10C0 15.5228 4.47715 20 10 20ZM10 17C13.866 17 17 13.866 17 10C17 6.13401 13.866 3 10 3C6.13401 3 3 6.13401 3 10C3 13.866 6.13401 17 10 17Z" fill="#ebebbe"/></g><rect x="203.1" y="507.75" width="33.85" height="33.85" fill="#c8db6d"/><g transform="translate(203.1,507.75) scale(1.6925000000000001) rotate(0)"><path d="M5 0H10L5 5L0 10V5L5 0Z" fill="#addcc5"/><path d="M20 15V20H15L20 15Z" fill="#addcc5"/><path d="M20 5V10L15 15L10 20H5L20 5Z" fill="#addcc5"/><path d="M15 0H20L5 15.0002L0 20.0002V15.0002L15 0Z" fill="#addcc5"/></g><rect x="236.95" y="507.75" width="33.85" height="33.85" fill="#d1df82"/><g transform="translate(236.95,507.75) scale(1.6925000000000001) rotate(0)"><path d="M10 0L20 10L10 20L0 10L10 0Z" fill="#a4dac3"/></g><rect x="270.8" y="473.90000000000003" width="67.7" height="67.7" fill="#f5efd4"/><rect x="304.65" y="473.9" width="33.85" height="33.85" fill="#5fc8b5"/><g transform="translate(304.65,473.9) scale(1.6925000000000001) rotate(0)"><path fill-rule="evenodd" clip-rule="evenodd" d="M10 20C15.5228 20 20 15.5228 20 10C20 4.47715 15.5228 0 10 0C4.47715 0 0 4.47715 0 10C0 15.5228 4.47715 20 10 20ZM10 17C13.866 17 17 13.866 17 10C17 6.13401 13.866 3 10 3C6.13401 3 3 6.13401 3 10C3 13.866 6.13401 17 10 17Z" fill="#69cab7"/></g><rect x="270.8" y="507.75" width="33.85" height="33.85" fill="#9bd7c1"/><g transform="translate(270.8,507.75) scale(1.6925000000000001) rotate(0)"><path d="M5 0H10L5 5L0 10V5L5 0Z" fill="#d9e8ce"/><path d="M20 15V20H15L20 15Z" fill="#d9e8ce"/><path d="M20 5V10L15 15L10 20H5L20 5Z" fill="#d9e8ce"/><path d="M15 0H20L5 15.0002L0 20.0002V15.0002L15 0Z" fill="#d9e8ce"/></g><rect x="338.5" y="473.90000000000003" width="67.7" height="67.7" fill="#f5efd4"/><rect x="338.5" y="473.9" width="33.85" height="33.85" fill="#cddd78"/><g transform="translate(338.5,473.9) scale(1.6925000000000001) rotate(0)"><path fill-rule="evenodd" clip-rule="evenodd" d="M10 20C15.5228 20 20 15.5228 20 10C20 4.47715 15.5228 0 10 0C4.47715 0 0 4.47715 0 10C0 15.5228 4.47715 20 10 20ZM10 17C13.866 17 17 13.866 17 10C17 6.13401 13.866 3 10 3C6.13401 3 3 6.13401 3 10C3 13.866 6.13401 17 10 17Z" fill="#d6e7cd"/></g><rect x="372.35" y="473.9" width="33.85" height="33.85" fill="#a9cd27"/><g transform="translate(372.35,473.9) scale(1.6925000000000001) rotate(0)"><path d="M5 0H10L5 5L0 10V5L5 0Z" fill="#9bd7c1"/><path d="M20 15V20H15L20 15Z" fill="#9bd7c1"/><path d="M20 5V10L15 15L10 20H5L20 5Z" fill="#9bd7c1"/><path d="M15 0H20L5 15.0002L0 20.0002V15.0002L15 0Z" fill="#9bd7c1"/></g><rect x="338.5" y="507.75" width="33.85" height="33.85" fill="#b4d241"/><g transform="translate(338.5,507.75) scale(1.6925000000000001) rotate(0)"><path fill-rule="evenodd" clip-rule="evenodd" d="M10 20C15.5228 20 20 15.5228 20 10C20 4.47715 15.5228 0 10 0C4.47715 0 0 4.47715 0 10C0 15.5228 4.47715 20 10 20ZM10 17C13.866 17 17 13.866 17 10C17 6.13401 13.866 3 10 3C6.13401 3 3 6.13401 3 10C3 13.866 6.13401 17 10 17Z" fill="#dce49b"/></g><rect x="372.35" y="507.75" width="33.85" height="33.85" fill="#b6dfc7"/><g transform="translate(372.35,507.75) scale(1.6925000000000001) rotate(0)"><path d="M5 0H10L5 5L0 10V5L5 0Z" fill="#dce49b"/><path d="M20 15V20H15L20 15Z" fill="#dce49b"/><path d="M20 5V10L15 15L10 20H5L20 5Z" fill="#dce49b"/><path d="M15 0H20L5 15.0002L0 20.0002V15.0002L15 0Z" fill="#dce49b"/></g><rect x="473.90000000000003" y="473.90000000000003" width="67.7" height="67.7" fill="#f5efd4"/><rect x="507.75" y="473.9" width="33.85" height="33.85" fill="#78ceba"/><g transform="translate(507.75,473.9) scale(1.6925000000000001) rotate(0)"><path d="M10 5L5 0L0 5L5 10L0 15L5 20L10 15L15 20L20 15L15 10L20 5L15 0L10 5Z" fill="#dfe9cf"/></g><rect x="507.75" y="507.75" width="33.85" height="33.85" fill="#d8e7ce"/><g transform="translate(507.75,507.75) scale(1.6925000000000001) rotate(0)"><path fill-rule="evenodd" clip-rule="evenodd" d="M10 20C15.5228 20 20 15.5228 20 10C20 4.47715 15.5228 0 10 0C4.47715 0 0 4.47715 0 10C0 15.5228 4.47715 20 10 20ZM10 17C13.866 17 17 13.866 17 10C17 6.13401 13.866 3 10 3C6.13401 3 3 6.13401 3 10C3 13.866 6.13401 17 10 17Z" fill="#a9cd27"/></g><rect x="541.6" y="473.90000000000003" width="67.7" height="67.7" fill="#f5efd4"/><rect x="541.6" y="473.9" width="33.85" height="33.85" fill="#cedd7b"/><g transform="translate(541.6,473.9) scale(1.6925000000000001) rotate(0)"><path fill-rule="evenodd" clip-rule="evenodd" d="M10 20C15.5228 20 20 15.5228 20 10C20 4.47715 15.5228 0 10 0C4.47715 0 0 4.47715 0 10C0 15.5228 4.47715 20 10 20ZM10 17C13.866 17 17 13.866 17 10C17 6.13401 13.866 3 10 3C6.13401 3 3 6.13401 3 10C3 13.866 6.13401 17 10 17Z" fill="#4ac2b0"/></g><rect x="575.45" y="473.9" width="33.85" height="33.85" fill="#c5e3ca"/><g transform="translate(575.45,473.9) scale(1.6925000000000001) rotate(0)"><path d="M5 0H10L5 5L0 10V5L5 0Z" fill="#e7ebd1"/><path d="M20 15V20H15L20 15Z" fill="#e7ebd1"/><path d="M20 5V10L15 15L10 20H5L20 5Z" fill="#e7ebd1"/><path d="M15 0H20L5 15.0002L0 20.0002V15.0002L15 0Z" fill="#e7ebd1"/></g><rect x="575.45" y="507.75" width="33.85" height="33.85" fill="#d2df84"/><g transform="translate(575.45,507.75) scale(1.6925000000000001) rotate(0)"><path d="M5 0H10L5 5L0 10V5L5 0Z" fill="#8cd3be"/><path d="M20 15V20H15L20 15Z" fill="#8cd3be"/><path d="M20 5V10L15 15L10 20H5L20 5Z" fill="#8cd3be"/><path d="M15 0H20L5 15.0002L0 20.0002V15.0002L15 0Z" fill="#8cd3be"/></g><rect x="609.3000000000001" y="473.90000000000003" width="67.7" height="67.7" fill="#f5efd4"/><rect x="609.3" y="473.9" width="33.85" height="33.85" fill="#4ec3b1"/><g transform="translate(609.3,473.9) scale(1.6925000000000001) rotate(0)"><path d="M10 5L5 0L0 5L5 10L0 15L5 20L10 15L15 20L20 15L15 10L20 5L15 0L10 5Z" fill="#f5efd4"/></g><rect x="643.15" y="473.9" width="33.85" height="33.85" fill="#d1df83"/><g transform="translate(643.15,473.9) scale(1.6925000000000001) rotate(0)"><path d="M10 0L20 10L10 20L0 10L10 0Z" fill="#bee1c9"/></g><rect x="609.3" y="507.75" width="33.85" height="33.85" fill="#ebeabd"/><g transform="translate(609.3,507.75) scale(1.6925000000000001) rotate(0)"><path d="M10 0L20 10L10 20L0 10L10 0Z" fill="#c8e3cb"/></g><rect x="643.15" y="507.75" width="33.85" height="33.85" fill="#e5ebd1"/><g transform="translate(643.15,507.75) scale(1.6925000000000001) rotate(0)"><path d="M10 0L20 10L10 20L0 10L10 0Z" fill="#b7d347"/></g><rect x="744.7" y="473.90000000000003" width="67.7" height="67.7" fill="#f5efd4"/><rect x="778.55" y="473.9" width="33.85" height="33.85" fill="#edebc2"/><g transform="translate(778.55,473.9) scale(1.6925000000000001) rotate(0)"><path d="M5 0H10L5 5L0 10V5L5 0Z" fill="#b9d44d"/><path d="M20 15V20H15L20 15Z" fill="#b9d44d"/><path d="M20 5V10L15 15L10 20H5L20 5Z" fill="#b9d44d"/><path d="M15 0H20L5 15.0002L0 20.0002V15.0002L15 0Z" fill="#b9d44d"/></g><rect x="778.55" y="507.75" width="33.85" height="33.85" fill="#9dd8c2"/><g transform="translate(778.55,507.75) scale(1.6925000000000001) rotate(0)"><path fill-rule="evenodd" clip-rule="evenodd" d="M10 20C15.5228 20 20 15.5228 20 10C20 4.47715 15.5228 0 10 0C4.47715 0 0 4.47715 0 10C0 15.5228 4.47715 20 10 20ZM10 17C13.866 17 17 13.866 17 10C17 6.13401 13.866 3 10 3C6.13401 3 3 6.13401 3 10C3 13.866 6.13401 17 10 17Z" fill="#eeecc5"/></g><rect x="812.4000000000001" y="473.90000000000003" width="67.7" height="67.7" fill="#f5efd4"/><rect x="812.4" y="473.9" width="33.85" height="33.85" fill="#91d5bf"/><g transform="translate(812.4,473.9) scale(1.6925000000000001) rotate(0)"><path d="M10 5L5 0L0 5L5 10L0 15L5 20L10 15L15 20L20 15L15 10L20 5L15 0L10 5Z" fill="#dae398"/></g><rect x="812.4" y="507.75" width="33.85" height="33.85" fill="#b5d243"/><g transform="translate(812.4,507.75) scale(1.6925000000000001) rotate(0)"><path d="M10 0L20 10L10 20L0 10L10 0Z" fill="#bcd653"/></g><rect x="846.25" y="507.75" width="33.85" height="33.85" fill="#b1d13a"/><g transform="translate(846.25,507.75) scale(1.6925000000000001) rotate(0)"><path d="M5 0H10L5 5L0 10V5L5 0Z" fill="#cddd7a"/><path d="M20 15V20H15L20 15Z" fill="#cddd7a"/><path d="M20 5V10L15 15L10 20H5L20 5Z" fill="#cddd7a"/><path d="M15 0H20L5 15.0002L0 20.0002V15.0002L15 0Z" fill="#cddd7a"/></g><rect x="880.1" y="473.90000000000003" width="67.7" height="67.7" fill="#f5efd4"/><rect x="880.1" y="507.75" width="33.85" height="33.85" fill="#e2e7a9"/><g transform="translate(880.1,507.75) scale(1.6925000000000001) rotate(0)"><path d="M5 0H10L5 5L0 10V5L5 0Z" fill="#dee5a0"/><path d="M20 15V20H15L20 15Z" fill="#dee5a0"/><path d="M20 5V10L15 15L10 20H5L20 5Z" fill="#dee5a0"/><path d="M15 0H20L5 15.0002L0 20.0002V15.0002L15 0Z" fill="#dee5a0"/></g><rect x="913.95" y="507.75" width="33.85" height="33.85" fill="#b7d347"/><g transform="translate(913.95,507.75) scale(1.6925000000000001) rotate(0)"><path d="M5 0H10L5 5L0 10V5L5 0Z" fill="#71ccb8"/><path d="M20 15V20H15L20 15Z" fill="#71ccb8"/><path d="M20 5V10L15 15L10 20H5L20 5Z" fill="#71ccb8"/><path d="M15 0H20L5 15.0002L0 20.0002V15.0002L15 0Z" fill="#71ccb8"/></g><rect x="1015.5" y="473.90000000000003" width="67.7" height="67.7" fill="#f5efd4"/><rect x="1015.5" y="473.9" width="33.85" height="33.85" fill="#cbdc74"/><g transform="translate(1015.5,473.9) scale(1.6925000000000001) rotate(0)"><path d="M10 0L20 10L10 20L0 10L10 0Z" fill="#bae0c8"/></g><rect x="1049.35" y="473.9" width="33.85" height="33.85" fill="#c8db6d"/><g transform="translate(1049.35,473.9) scale(1.6925000000000001) rotate(0)"><path d="M10 5L5 0L0 5L5 10L0 15L5 20L10 15L15 20L20 15L15 10L20 5L15 0L10 5Z" fill="#e9eab9"/></g><rect x="1049.35" y="507.75" width="33.85" height="33.85" fill="#9cd8c1"/><g transform="translate(1049.35,507.75) scale(1.6925000000000001) rotate(0)"><path d="M10 5L5 0L0 5L5 10L0 15L5 20L10 15L15 20L20 15L15 10L20 5L15 0L10 5Z" fill="#cede7c"/></g><rect x="0" y="541.6" width="67.7" height="67.7" fill="#f5efd4"/><rect x="0" y="541.6" width="33.85" height="33.85" fill="#afd035"/><g transform="translate(0,541.6) scale(1.6925000000000001) rotate(0)"><path fill-rule="evenodd" clip-rule="evenodd" d="M10 20C15.5228 20 20 15.5228 20 10C20 4.47715 15.5228 0 10 0C4.47715 0 0 4.47715 0 10C0 15.5228 4.47715 20 10 20ZM10 17C13.866 17 17 13.866 17 10C17 6.13401 13.866 3 10 3C6.13401 3 3 6.13401 3 10C3 13.866 6.13401 17 10 17Z" fill="#d5e08b"/></g><rect x="33.85" y="541.6" width="33.85" height="33.85" fill="#94d6c0"/><g transform="translate(33.85,541.6) scale(1.6925000000000001) rotate(0)"><path fill-rule="evenodd" clip-rule="evenodd" d="M10 20C15.5228 20 20 15.5228 20 10C20 4.47715 15.5228 0 10 0C4.47715 0 0 4.47715 0 10C0 15.5228 4.47715 20 10 20ZM10 17C13.866 17 17 13.866 17 10C17 6.13401 13.866 3 10 3C6.13401 3 3 6.13401 3 10C3 13.866 6.13401 17 10 17Z" fill="#efedc7"/></g><rect x="0" y="575.45" width="33.85" height="33.85" fill="#dfe5a3"/><g transform="translate(0,575.45) scale(1.6925000000000001) rotate(0)"><path fill-rule="evenodd" clip-rule="evenodd" d="M10 20C15.5228 20 20 15.5228 20 10C20 4.47715 15.5228 0 10 0C4.47715 0 0 4.47715 0 10C0 15.5228 4.47715 20 10 20ZM10 17C13.866 17 17 13.866 17 10C17 6.13401 13.866 3 10 3C6.13401 3 3 6.13401 3 10C3 13.866 6.13401 17 10 17Z" fill="#b3dec6"/></g><rect x="67.7" y="541.6" width="67.7" height="67.7" fill="#f5efd4"/><rect x="67.7" y="541.6" width="33.85" height="33.85" fill="#d4e08a"/><g transform="translate(67.7,541.6) scale(1.6925000000000001) rotate(0)"><path fill-rule="evenodd" clip-rule="evenodd" d="M10 20C15.5228 20 20 15.5228 20 10C20 4.47715 15.5228 0 10 0C4.47715 0 0 4.47715 0 10C0 15.5228 4.47715 20 10 20ZM10 17C13.866 17 17 13.866 17 10C17 6.13401 13.866 3 10 3C6.13401 3 3 6.13401 3 10C3 13.866 6.13401 17 10 17Z" fill="#b4d241"/></g><rect x="101.55" y="541.6" width="33.85" height="33.85" fill="#dae397"/><g transform="translate(101.55,541.6) scale(1.6925000000000001) rotate(0)"><path d="M10 5L5 0L0 5L5 10L0 15L5 20L10 15L15 20L20 15L15 10L20 5L15 0L10 5Z" fill="#6ccbb7"/></g><rect x="67.7" y="575.45" width="33.85" height="33.85" fill="#dde9cf"/><g transform="translate(67.7,575.45) scale(1.6925000000000001) rotate(0)"><path d="M5 0H10L5 5L0 10V5L5 0Z" fill="#c0d75b"/><path d="M20 15V20H15L20 15Z" fill="#c0d75b"/><path d="M20 5V10L15 15L10 20H5L20 5Z" fill="#c0d75b"/><path d="M15 0H20L5 15.0002L0 20.0002V15.0002L15 0Z" fill="#c0d75b"/></g><rect x="203.10000000000002" y="541.6" width="67.7" height="67.7" fill="#f5efd4"/><rect x="203.1" y="541.6" width="33.85" height="33.85" fill="#ebebbe"/><g transform="translate(203.1,541.6) scale(1.6925000000000001) rotate(0)"><path fill-rule="evenodd" clip-rule="evenodd" d="M10 20C15.5228 20 20 15.5228 20 10C20 4.47715 15.5228 0 10 0C4.47715 0 0 4.47715 0 10C0 15.5228 4.47715 20 10 20ZM10 17C13.866 17 17 13.866 17 10C17 6.13401 13.866 3 10 3C6.13401 3 3 6.13401 3 10C3 13.866 6.13401 17 10 17Z" fill="#f2edcc"/></g><rect x="236.95" y="575.45" width="33.85" height="33.85" fill="#e7e9b4"/><g transform="translate(236.95,575.45) scale(1.6925000000000001) rotate(0)"><path fill-rule="evenodd" clip-rule="evenodd" d="M10 20C15.5228 20 20 15.5228 20 10C20 4.47715 15.5228 0 10 0C4.47715 0 0 4.47715 0 10C0 15.5228 4.47715 20 10 20ZM10 17C13.866 17 17 13.866 17 10C17 6.13401 13.866 3 10 3C6.13401 3 3 6.13401 3 10C3 13.866 6.13401 17 10 17Z" fill="#c9db6f"/></g><rect x="270.8" y="541.6" width="67.7" height="67.7" fill="#f5efd4"/><rect x="270.8" y="541.6" width="33.85" height="33.85" fill="#c5d967"/><g transform="translate(270.8,541.6) scale(1.6925000000000001) rotate(0)"><path d="M10 5L5 0L0 5L5 10L0 15L5 20L10 15L15 20L20 15L15 10L20 5L15 0L10 5Z" fill="#c9db71"/></g><rect x="304.65" y="541.6" width="33.85" height="33.85" fill="#a6dac4"/><g transform="translate(304.65,541.6) scale(1.6925000000000001) rotate(0)"><path d="M10 0L20 10L10 20L0 10L10 0Z" fill="#f0edc9"/></g><rect x="270.8" y="575.45" width="33.85" height="33.85" fill="#7fd0bb"/><g transform="translate(270.8,575.45) scale(1.6925000000000001) rotate(0)"><path d="M5 0H10L5 5L0 10V5L5 0Z" fill="#aecf32"/><path d="M20 15V20H15L20 15Z" fill="#aecf32"/><path d="M20 5V10L15 15L10 20H5L20 5Z" fill="#aecf32"/><path d="M15 0H20L5 15.0002L0 20.0002V15.0002L15 0Z" fill="#aecf32"/></g><rect x="406.20000000000005" y="541.6" width="67.7" height="67.7" fill="#f5efd4"/><rect x="406.2" y="541.6" width="33.85" height="33.85" fill="#55c5b3"/><g transform="translate(406.2,541.6) scale(1.6925000000000001) rotate(0)"><path d="M5 0H10L5 5L0 10V5L5 0Z" fill="#e6e8b3"/><path d="M20 15V20H15L20 15Z" fill="#e6e8b3"/><path d="M20 5V10L15 15L10 20H5L20 5Z" fill="#e6e8b3"/><path d="M15 0H20L5 15.0002L0 20.0002V15.0002L15 0Z" fill="#e6e8b3"/></g><rect x="406.2" y="575.45" width="33.85" height="33.85" fill="#a8cd26"/><g transform="translate(406.2,575.45) scale(1.6925000000000001) rotate(0)"><path fill-rule="evenodd" clip-rule="evenodd" d="M10 20C15.5228 20 20 15.5228 20 10C20 4.47715 15.5228 0 10 0C4.47715 0 0 4.47715 0 10C0 15.5228 4.47715 20 10 20ZM10 17C13.866 17 17 13.866 17 10C17 6.13401 13.866 3 10 3C6.13401 3 3 6.13401 3 10C3 13.866 6.13401 17 10 17Z" fill="#b3d13f"/></g><rect x="440.05" y="575.45" width="33.85" height="33.85" fill="#a2d9c3"/><g transform="translate(440.05,575.45) scale(1.6925000000000001) rotate(0)"><path d="M10 5L5 0L0 5L5 10L0 15L5 20L10 15L15 20L20 15L15 10L20 5L15 0L10 5Z" fill="#f3eed4"/></g><rect x="473.90000000000003" y="541.6" width="67.7" height="67.7" fill="#f5efd4"/><rect x="507.75" y="541.6" width="33.85" height="33.85" fill="#c1e1c9"/><g transform="translate(507.75,541.6) scale(1.6925000000000001) rotate(0)"><path d="M10 0L20 10L10 20L0 10L10 0Z" fill="#f2edcc"/></g><rect x="473.9" y="575.45" width="33.85" height="33.85" fill="#bfd75a"/><g transform="translate(473.9,575.45) scale(1.6925000000000001) rotate(0)"><path d="M10 5L5 0L0 5L5 10L0 15L5 20L10 15L15 20L20 15L15 10L20 5L15 0L10 5Z" fill="#e4e7ad"/></g><rect x="541.6" y="541.6" width="67.7" height="67.7" fill="#f5efd4"/><rect x="541.6" y="541.6" width="33.85" height="33.85" fill="#61c8b5"/><g transform="translate(541.6,541.6) scale(1.6925000000000001) rotate(0)"><path d="M5 0H10L5 5L0 10V5L5 0Z" fill="#c3d964"/><path d="M20 15V20H15L20 15Z" fill="#c3d964"/><path d="M20 5V10L15 15L10 20H5L20 5Z" fill="#c3d964"/><path d="M15 0H20L5 15.0002L0 20.0002V15.0002L15 0Z" fill="#c3d964"/></g><rect x="541.6" y="575.45" width="33.85" height="33.85" fill="#a1d9c2"/><g transform="translate(541.6,575.45) scale(1.6925000000000001) rotate(0)"><path d="M10 0L20 10L10 20L0 10L10 0Z" fill="#bdd654"/></g><rect x="575.45" y="575.45" width="33.85" height="33.85" fill="#9ad7c1"/><g transform="translate(575.45,575.45) scale(1.6925000000000001) rotate(0)"><path d="M5 0H10L5 5L0 10V5L5 0Z" fill="#59c6b3"/><path d="M20 15V20H15L20 15Z" fill="#59c6b3"/><path d="M20 5V10L15 15L10 20H5L20 5Z" fill="#59c6b3"/><path d="M15 0H20L5 15.0002L0 20.0002V15.0002L15 0Z" fill="#59c6b3"/></g><rect x="677" y="541.6" width="67.7" height="67.7" fill="#f5efd4"/><rect x="677" y="541.6" width="33.85" height="33.85" fill="#79ceba"/><g transform="translate(677,541.6) scale(1.6925000000000001) rotate(0)"><path d="M10 0L20 10L10 20L0 10L10 0Z" fill="#ebecd2"/></g><rect x="677" y="575.45" width="33.85" height="33.85" fill="#c9db70"/><g transform="translate(677,575.45) scale(1.6925000000000001) rotate(0)"><path d="M10 5L5 0L0 5L5 10L0 15L5 20L10 15L15 20L20 15L15 10L20 5L15 0L10 5Z" fill="#7fd0bb"/></g><rect x="744.7" y="541.6" width="67.7" height="67.7" fill="#f5efd4"/><rect x="778.55" y="541.6" width="33.85" height="33.85" fill="#dee59f"/><g transform="translate(778.55,541.6) scale(1.6925000000000001) rotate(0)"><path fill-rule="evenodd" clip-rule="evenodd" d="M10 20C15.5228 20 20 15.5228 20 10C20 4.47715 15.5228 0 10 0C4.47715 0 0 4.47715 0 10C0 15.5228 4.47715 20 10 20ZM10 17C13.866 17 17 13.866 17 10C17 6.13401 13.866 3 10 3C6.13401 3 3 6.13401 3 10C3 13.866 6.13401 17 10 17Z" fill="#e3e7ab"/></g><rect x="744.7" y="575.45" width="33.85" height="33.85" fill="#9fd8c2"/><g transform="translate(744.7,575.45) scale(1.6925000000000001) rotate(0)"><path d="M10 0L20 10L10 20L0 10L10 0Z" fill="#a9dbc4"/></g><rect x="778.55" y="575.45" width="33.85" height="33.85" fill="#4dc3b1"/><g transform="translate(778.55,575.45) scale(1.6925000000000001) rotate(0)"><path d="M5 0H10L5 5L0 10V5L5 0Z" fill="#b5d242"/><path d="M20 15V20H15L20 15Z" fill="#b5d242"/><path d="M20 5V10L15 15L10 20H5L20 5Z" fill="#b5d242"/><path d="M15 0H20L5 15.0002L0 20.0002V15.0002L15 0Z" fill="#b5d242"/></g><rect x="1015.5" y="541.6" width="67.7" height="67.7" fill="#f5efd4"/><rect x="1015.5" y="541.6" width="33.85" height="33.85" fill="#d2e086"/><g transform="translate(1015.5,541.6) scale(1.6925000000000001) rotate(0)"><path d="M5 0H10L5 5L0 10V5L5 0Z" fill="#60c8b5"/><path d="M20 15V20H15L20 15Z" fill="#60c8b5"/><path d="M20 5V10L15 15L10 20H5L20 5Z" fill="#60c8b5"/><path d="M15 0H20L5 15.0002L0 20.0002V15.0002L15 0Z" fill="#60c8b5"/></g><rect x="1049.35" y="541.6" width="33.85" height="33.85" fill="#e0ead0"/><g transform="translate(1049.35,541.6) scale(1.6925000000000001) rotate(0)"><path d="M10 0L20 10L10 20L0 10L10 0Z" fill="#78ceba"/></g><rect x="1049.35" y="575.45" width="33.85" height="33.85" fill="#c4d964"/><g transform="translate(1049.35,575.45) scale(1.6925000000000001) rotate(0)"><path d="M10 0L20 10L10 20L0 10L10 0Z" fill="#bde0c8"/></g><rect x="0" y="609.3000000000001" width="67.7" height="67.7" fill="#f5efd4"/><rect x="0" y="609.3" width="33.85" height="33.85" fill="#c7da6c"/><g transform="translate(0,609.3) scale(1.6925000000000001) rotate(0)"><path d="M10 5L5 0L0 5L5 10L0 15L5 20L10 15L15 20L20 15L15 10L20 5L15 0L10 5Z" fill="#8bd3be"/></g><rect x="33.85" y="609.3" width="33.85" height="33.85" fill="#b8dfc7"/><g transform="translate(33.85,609.3) scale(1.6925000000000001) rotate(0)"><path d="M10 0L20 10L10 20L0 10L10 0Z" fill="#c8db6f"/></g><rect x="0" y="643.15" width="33.85" height="33.85" fill="#56c5b3"/><g transform="translate(0,643.15) scale(1.6925000000000001) rotate(0)"><path d="M10 0L20 10L10 20L0 10L10 0Z" fill="#c5da68"/></g><rect x="33.85" y="643.15" width="33.85" height="33.85" fill="#92d5bf"/><g transform="translate(33.85,643.15) scale(1.6925000000000001) rotate(0)"><path fill-rule="evenodd" clip-rule="evenodd" d="M10 20C15.5228 20 20 15.5228 20 10C20 4.47715 15.5228 0 10 0C4.47715 0 0 4.47715 0 10C0 15.5228 4.47715 20 10 20ZM10 17C13.866 17 17 13.866 17 10C17 6.13401 13.866 3 10 3C6.13401 3 3 6.13401 3 10C3 13.866 6.13401 17 10 17Z" fill="#d4e088"/></g><rect x="203.10000000000002" y="609.3000000000001" width="67.7" height="67.7" fill="#f5efd4"/><rect x="203.1" y="609.3" width="33.85" height="33.85" fill="#52c4b2"/><g transform="translate(203.1,609.3) scale(1.6925000000000001) rotate(0)"><path d="M5 0H10L5 5L0 10V5L5 0Z" fill="#d4e08a"/><path d="M20 15V20H15L20 15Z" fill="#d4e08a"/><path d="M20 5V10L15 15L10 20H5L20 5Z" fill="#d4e08a"/><path d="M15 0H20L5 15.0002L0 20.0002V15.0002L15 0Z" fill="#d4e08a"/></g><rect x="236.95" y="609.3" width="33.85" height="33.85" fill="#aacd29"/><g transform="translate(236.95,609.3) scale(1.6925000000000001) rotate(0)"><path d="M10 0L20 10L10 20L0 10L10 0Z" fill="#ccdd78"/></g><rect x="270.8" y="609.3000000000001" width="67.7" height="67.7" fill="#f5efd4"/><rect x="270.8" y="609.3" width="33.85" height="33.85" fill="#a9dbc4"/><g transform="translate(270.8,609.3) scale(1.6925000000000001) rotate(0)"><path d="M10 5L5 0L0 5L5 10L0 15L5 20L10 15L15 20L20 15L15 10L20 5L15 0L10 5Z" fill="#79cfba"/></g><rect x="304.65" y="609.3" width="33.85" height="33.85" fill="#8ad3be"/><g transform="translate(304.65,609.3) scale(1.6925000000000001) rotate(0)"><path fill-rule="evenodd" clip-rule="evenodd" d="M10 20C15.5228 20 20 15.5228 20 10C20 4.47715 15.5228 0 10 0C4.47715 0 0 4.47715 0 10C0 15.5228 4.47715 20 10 20ZM10 17C13.866 17 17 13.866 17 10C17 6.13401 13.866 3 10 3C6.13401 3 3 6.13401 3 10C3 13.866 6.13401 17 10 17Z" fill="#d8e292"/></g><rect x="609.3000000000001" y="609.3000000000001" width="67.7" height="67.7" fill="#f5efd4"/><rect x="609.3" y="609.3" width="33.85" height="33.85" fill="#a1d9c2"/><g transform="translate(609.3,609.3) scale(1.6925000000000001) rotate(0)"><path fill-rule="evenodd" clip-rule="evenodd" d="M10 20C15.5228 20 20 15.5228 20 10C20 4.47715 15.5228 0 10 0C4.47715 0 0 4.47715 0 10C0 15.5228 4.47715 20 10 20ZM10 17C13.866 17 17 13.866 17 10C17 6.13401 13.866 3 10 3C6.13401 3 3 6.13401 3 10C3 13.866 6.13401 17 10 17Z" fill="#adce30"/></g><rect x="643.15" y="609.3" width="33.85" height="33.85" fill="#98d7c1"/><g transform="translate(643.15,609.3) scale(1.6925000000000001) rotate(0)"><path fill-rule="evenodd" clip-rule="evenodd" d="M10 20C15.5228 20 20 15.5228 20 10C20 4.47715 15.5228 0 10 0C4.47715 0 0 4.47715 0 10C0 15.5228 4.47715 20 10 20ZM10 17C13.866 17 17 13.866 17 10C17 6.13401 13.866 3 10 3C6.13401 3 3 6.13401 3 10C3 13.866 6.13401 17 10 17Z" fill="#e7ebd1"/></g><rect x="609.3" y="643.15" width="33.85" height="33.85" fill="#6fccb8"/><g transform="translate(609.3,643.15) scale(1.6925000000000001) rotate(0)"><path d="M5 0H10L5 5L0 10V5L5 0Z" fill="#bdd655"/><path d="M20 15V20H15L20 15Z" fill="#bdd655"/><path d="M20 5V10L15 15L10 20H5L20 5Z" fill="#bdd655"/><path d="M15 0H20L5 15.0002L0 20.0002V15.0002L15 0Z" fill="#bdd655"/></g><rect x="744.7" y="609.3000000000001" width="67.7" height="67.7" fill="#f5efd4"/><rect x="744.7" y="609.3" width="33.85" height="33.85" fill="#d6e7ce"/><g transform="translate(744.7,609.3) scale(1.6925000000000001) rotate(0)"><path d="M5 0H10L5 5L0 10V5L5 0Z" fill="#ebecd2"/><path d="M20 15V20H15L20 15Z" fill="#ebecd2"/><path d="M20 5V10L15 15L10 20H5L20 5Z" fill="#ebecd2"/><path d="M15 0H20L5 15.0002L0 20.0002V15.0002L15 0Z" fill="#ebecd2"/></g><rect x="778.55" y="643.15" width="33.85" height="33.85" fill="#bfd75b"/><g transform="translate(778.55,643.15) scale(1.6925000000000001) rotate(0)"><path fill-rule="evenodd" clip-rule="evenodd" d="M10 20C15.5228 20 20 15.5228 20 10C20 4.47715 15.5228 0 10 0C4.47715 0 0 4.47715 0 10C0 15.5228 4.47715 20 10 20ZM10 17C13.866 17 17 13.866 17 10C17 6.13401 13.866 3 10 3C6.13401 3 3 6.13401 3 10C3 13.866 6.13401 17 10 17Z" fill="#a9dbc4"/></g><rect x="812.4000000000001" y="609.3000000000001" width="67.7" height="67.7" fill="#f5efd4"/><rect x="812.4" y="609.3" width="33.85" height="33.85" fill="#e1e6a6"/><g transform="translate(812.4,609.3) scale(1.6925000000000001) rotate(0)"><path fill-rule="evenodd" clip-rule="evenodd" d="M10 20C15.5228 20 20 15.5228 20 10C20 4.47715 15.5228 0 10 0C4.47715 0 0 4.47715 0 10C0 15.5228 4.47715 20 10 20ZM10 17C13.866 17 17 13.866 17 10C17 6.13401 13.866 3 10 3C6.13401 3 3 6.13401 3 10C3 13.866 6.13401 17 10 17Z" fill="#7bcfba"/></g><rect x="846.25" y="609.3" width="33.85" height="33.85" fill="#88d3bd"/><g transform="translate(846.25,609.3) scale(1.6925000000000001) rotate(0)"><path fill-rule="evenodd" clip-rule="evenodd" d="M10 20C15.5228 20 20 15.5228 20 10C20 4.47715 15.5228 0 10 0C4.47715 0 0 4.47715 0 10C0 15.5228 4.47715 20 10 20ZM10 17C13.866 17 17 13.866 17 10C17 6.13401 13.866 3 10 3C6.13401 3 3 6.13401 3 10C3 13.866 6.13401 17 10 17Z" fill="#99d7c1"/></g><rect x="812.4" y="643.15" width="33.85" height="33.85" fill="#afd035"/><g transform="translate(812.4,643.15) scale(1.6925000000000001) rotate(0)"><path d="M10 0L20 10L10 20L0 10L10 0Z" fill="#74cdb9"/></g><rect x="947.8000000000001" y="609.3000000000001" width="67.7" height="67.7" fill="#f5efd4"/><rect x="947.8" y="643.15" width="33.85" height="33.85" fill="#a9cd28"/><g transform="translate(947.8,643.15) scale(1.6925000000000001) rotate(0)"><path d="M5 0H10L5 5L0 10V5L5 0Z" fill="#e3e7aa"/><path d="M20 15V20H15L20 15Z" fill="#e3e7aa"/><path d="M20 5V10L15 15L10 20H5L20 5Z" fill="#e3e7aa"/><path d="M15 0H20L5 15.0002L0 20.0002V15.0002L15 0Z" fill="#e3e7aa"/></g><rect x="981.65" y="643.15" width="33.85" height="33.85" fill="#aecf33"/><g transform="translate(981.65,643.15) scale(1.6925000000000001) rotate(0)"><path fill-rule="evenodd" clip-rule="evenodd" d="M10 20C15.5228 20 20 15.5228 20 10C20 4.47715 15.5228 0 10 0C4.47715 0 0 4.47715 0 10C0 15.5228 4.47715 20 10 20ZM10 17C13.866 17 17 13.866 17 10C17 6.13401 13.866 3 10 3C6.13401 3 3 6.13401 3 10C3 13.866 6.13401 17 10 17Z" fill="#bad54f"/></g></g></svg>