<?xml version="1.0" standalone="no"?><svg xmlns:xlink="http://www.w3.org/1999/xlink" xmlns="http://www.w3.org/2000/svg" viewBox="0 0 1000 562.5038793370989" preserveAspectRatio="xMaxYMax slice"><g transform="scale(0.7758674197753087)"><rect x="0" y="0" width="1288.888888888889" height="725" fill="#f5efd4"/><rect x="0" y="0" width="80.55555555555556" height="80.55555555555556" fill="#f5efd4"/><rect x="0" y="0" width="40.28" height="40.28" fill="#4ec3b1"/><g transform="translate(0,0) scale(2.0140000000000002) rotate(0)"><path d="M13 0H20V7L7 20H0V13L13 0Z" fill="#82d1bc"/></g><rect x="40.28" y="0" width="40.28" height="40.28" fill="#d6e18e"/><g transform="translate(40.28,0) scale(2.0140000000000002) rotate(0)"><path d="M13 0H20V7L7 20H0V13L13 0Z" fill="#a8cd26"/></g><rect x="0" y="40.28" width="40.28" height="40.28" fill="#b2d13c"/><g transform="translate(0,40.28) scale(2.0140000000000002) rotate(0)"><path d="M10 0H20L0 20V10L10 0Z" fill="#e8ecd1"/><path d="M20 10V20H10L20 10Z" fill="#e8ecd1"/></g><rect x="80.55555555555556" y="0" width="80.55555555555556" height="80.55555555555556" fill="#f5efd4"/><rect x="80.56" y="0" width="40.28" height="40.28" fill="#d5e7cd"/><g transform="translate(80.56,0) scale(2.0140000000000002) rotate(0)"><path d="M10 5L5 0L0 5L5 10L0 15L5 20L10 15L15 20L20 15L15 10L20 5L15 0L10 5Z" fill="#acce2f"/></g><rect x="80.56" y="40.28" width="40.28" height="40.28" fill="#54c5b2"/><g transform="translate(80.56,40.28) scale(2.0140000000000002) rotate(0)"><path d="M10 5L5 0L0 5L5 10L0 15L5 20L10 15L15 20L20 15L15 10L20 5L15 0L10 5Z" fill="#bdd655"/></g><rect x="241.66666666666669" y="0" width="80.55555555555556" height="80.55555555555556" fill="#f5efd4"/><rect x="241.67" y="0" width="40.28" height="40.28" fill="#abce2b"/><g transform="translate(241.67,0) scale(2.0140000000000002) rotate(0)"><path d="M10 0H20V10L10 20H0V10L10 0Z" fill="#dce9cf"/></g><rect x="241.67" y="40.28" width="40.28" height="40.28" fill="#c0e1c9"/><g transform="translate(241.67,40.28) scale(2.0140000000000002) rotate(0)"><path d="M13 0H20V7L7 20H0V13L13 0Z" fill="#70ccb8"/></g><rect x="322.22222222222223" y="0" width="80.55555555555556" height="80.55555555555556" fill="#f5efd4"/><rect x="362.5" y="0" width="40.28" height="40.28" fill="#b2d13d"/><path d="M 362.5 40.28 A 40.28 40.28 0 0 1  402.78 0 L 362.5 40.28 A 40.28 40.28 0 0 0 402.78 0" fill="#9ed8c2"/><rect x="362.5" y="40.28" width="40.28" height="40.28" fill="#b0d037"/><g transform="translate(362.5,40.28) scale(2.0140000000000002) rotate(0)"><path fill-rule="evenodd" clip-rule="evenodd" d="M10 20C15.5228 20 20 15.5228 20 10C20 4.47715 15.5228 0 10 0C4.47715 0 0 4.47715 0 10C0 15.5228 4.47715 20 10 20ZM10 17C13.866 17 17 13.866 17 10C17 6.13401 13.866 3 10 3C6.13401 3 3 6.13401 3 10C3 13.866 6.13401 17 10 17Z" fill="#bed758"/></g><rect x="402.77777777777777" y="0" width="80.55555555555556" height="80.55555555555556" fill="#f5efd4"/><rect x="402.78" y="0" width="40.28" height="40.28" fill="#87d2bd"/><g transform="translate(402.78,0) scale(2.0140000000000002) rotate(0)"><path d="M10 5L5 0L0 5L5 10L0 15L5 20L10 15L15 20L20 15L15 10L20 5L15 0L10 5Z" fill="#e3e7ab"/></g><rect x="443.06" y="0" width="40.28" height="40.28" fill="#e6ebd1"/><g transform="translate(443.06,0) scale(2.0140000000000002) rotate(0)"><path fill-rule="evenodd" clip-rule="evenodd" d="M10 20C15.5228 20 20 15.5228 20 10C20 4.47715 15.5228 0 10 0C4.47715 0 0 4.47715 0 10C0 15.5228 4.47715 20 10 20ZM10 17C13.866 17 17 13.866 17 10C17 6.13401 13.866 3 10 3C6.13401 3 3 6.13401 3 10C3 13.866 6.13401 17 10 17Z" fill="#c7e3ca"/></g><rect x="443.06" y="40.28" width="40.28" height="40.28" fill="#cbdc74"/><g transform="translate(443.06,40.28) scale(2.0140000000000002) rotate(0)"><path d="M10 0H20V10L10 20H0V10L10 0Z" fill="#61c8b5"/></g><rect x="483.33333333333337" y="0" width="80.55555555555556" height="80.55555555555556" fill="#f5efd4"/><rect x="483.33" y="0" width="40.28" height="40.28" fill="#b0d037"/><g transform="translate(483.33,0) scale(2.0140000000000002) rotate(0)"><path d="M10 0H20L0 20V10L10 0Z" fill="#adcf32"/><path d="M20 10V20H10L20 10Z" fill="#adcf32"/></g><rect x="523.61" y="0" width="40.28" height="40.28" fill="#d8e293"/><g transform="translate(523.61,0) scale(2.0140000000000002) rotate(0)"><path d="M10 5L5 0L0 5L5 10L0 15L5 20L10 15L15 20L20 15L15 10L20 5L15 0L10 5Z" fill="#cbe4cb"/></g><rect x="483.33" y="40.28" width="40.28" height="40.28" fill="#9ed8c2"/><path d="M 483.33 80.56 A 40.28 40.28 0 0 1  523.61 40.28 L 483.33 80.56 A 40.28 40.28 0 0 0 523.61 40.28" fill="#badfc8"/><rect x="523.61" y="40.28" width="40.28" height="40.28" fill="#f1edcb"/><g transform="translate(523.61,40.28) scale(2.0140000000000002) rotate(0)"><path d="M13 0H20V7L7 20H0V13L13 0Z" fill="#e2e6a9"/></g><rect x="805.5555555555555" y="0" width="80.55555555555556" height="80.55555555555556" fill="#f5efd4"/><rect x="805.56" y="0" width="40.28" height="40.28" fill="#edebc1"/><g transform="translate(805.56,0) scale(2.0140000000000002) rotate(0)"><path d="M13 0H20V7L7 20H0V13L13 0Z" fill="#dde9cf"/></g><rect x="845.83" y="40.28" width="40.28" height="40.28" fill="#ecebbf"/><g transform="translate(845.83,40.28) scale(2.0140000000000002) rotate(0)"><path fill-rule="evenodd" clip-rule="evenodd" d="M10 20C15.5228 20 20 15.5228 20 10C20 4.47715 15.5228 0 10 0C4.47715 0 0 4.47715 0 10C0 15.5228 4.47715 20 10 20ZM10 17C13.866 17 17 13.866 17 10C17 6.13401 13.866 3 10 3C6.13401 3 3 6.13401 3 10C3 13.866 6.13401 17 10 17Z" fill="#b9dfc7"/></g><rect x="886.1111111111111" y="0" width="80.55555555555556" height="80.55555555555556" fill="#f5efd4"/><rect x="886.11" y="0" width="40.28" height="40.28" fill="#dbe8cf"/><g transform="translate(886.11,0) scale(2.0140000000000002) rotate(0)"><path d="M10 5L5 0L0 5L5 10L0 15L5 20L10 15L15 20L20 15L15 10L20 5L15 0L10 5Z" fill="#ccdd77"/></g><rect x="926.39" y="0" width="40.28" height="40.28" fill="#b7d348"/><g transform="translate(926.39,0) scale(2.0140000000000002) rotate(0)"><path d="M10 0H20L0 20V10L10 0Z" fill="#73cdb9"/><path d="M20 10V20H10L20 10Z" fill="#73cdb9"/></g><rect x="886.11" y="40.28" width="40.28" height="40.28" fill="#b2ddc6"/><g transform="translate(886.11,40.28) scale(2.0140000000000002) rotate(0)"><path d="M10 0H20L0 20V10L10 0Z" fill="#bdd655"/><path d="M20 10V20H10L20 10Z" fill="#bdd655"/></g><rect x="926.39" y="40.28" width="40.28" height="40.28" fill="#c5da67"/><g transform="translate(926.39,40.28) scale(2.0140000000000002) rotate(0)"><path fill-rule="evenodd" clip-rule="evenodd" d="M10 20C15.5228 20 20 15.5228 20 10C20 4.47715 15.5228 0 10 0C4.47715 0 0 4.47715 0 10C0 15.5228 4.47715 20 10 20ZM10 17C13.866 17 17 13.866 17 10C17 6.13401 13.866 3 10 3C6.13401 3 3 6.13401 3 10C3 13.866 6.13401 17 10 17Z" fill="#f2eecd"/></g><rect x="1047.2222222222222" y="0" width="80.55555555555556" height="80.55555555555556" fill="#f5efd4"/><rect x="1047.22" y="0" width="40.28" height="40.28" fill="#a3d9c3"/><g transform="translate(1047.22,0) scale(2.0140000000000002) rotate(0)"><path d="M13 0H20V7L7 20H0V13L13 0Z" fill="#ecebc0"/></g><rect x="1087.5" y="0" width="40.28" height="40.28" fill="#c3e2ca"/><g transform="translate(1087.5,0) scale(2.0140000000000002) rotate(0)"><path fill-rule="evenodd" clip-rule="evenodd" d="M10 20C15.5228 20 20 15.5228 20 10C20 4.47715 15.5228 0 10 0C4.47715 0 0 4.47715 0 10C0 15.5228 4.47715 20 10 20ZM10 17C13.866 17 17 13.866 17 10C17 6.13401 13.866 3 10 3C6.13401 3 3 6.13401 3 10C3 13.866 6.13401 17 10 17Z" fill="#c0e1c9"/></g><rect x="1047.22" y="40.28" width="40.28" height="40.28" fill="#cce4cb"/><g transform="translate(1047.22,40.28) scale(2.0140000000000002) rotate(0)"><path d="M13 0H20V7L7 20H0V13L13 0Z" fill="#dde49d"/></g><rect x="1208.3333333333333" y="0" width="80.55555555555556" height="80.55555555555556" fill="#f5efd4"/><rect x="1208.33" y="0" width="40.28" height="40.28" fill="#c3e2ca"/><path d="M 1208.33 0 A 40.28 40.28 0 0 0 1248.61 40.28 L 1248.61 0" fill="#9ad7c1"/><rect x="1248.61" y="0" width="40.28" height="40.28" fill="#d5e18b"/><g transform="translate(1248.61,0) scale(2.0140000000000002) rotate(0)"><path d="M10 5L5 0L0 5L5 10L0 15L5 20L10 15L15 20L20 15L15 10L20 5L15 0L10 5Z" fill="#c4e2ca"/></g><rect x="1208.33" y="40.28" width="40.28" height="40.28" fill="#93d5c0"/><g transform="translate(1208.33,40.28) scale(2.0140000000000002) rotate(0)"><path d="M10 5L5 0L0 5L5 10L0 15L5 20L10 15L15 20L20 15L15 10L20 5L15 0L10 5Z" fill="#eaeabb"/></g><rect x="1248.61" y="40.28" width="40.28" height="40.28" fill="#f2eed3"/><g transform="translate(1248.61,40.28) scale(2.0140000000000002) rotate(0)"><path d="M10 0H20V10L10 20H0V10L10 0Z" fill="#5ec8b4"/></g><rect x="0" y="80.55555555555556" width="80.55555555555556" height="80.55555555555556" fill="#f5efd4"/><rect x="0" y="80.56" width="40.28" height="40.28" fill="#69cab7"/><g transform="translate(0,80.56) scale(2.0140000000000002) rotate(0)"><path d="M10 0H20V10L10 20H0V10L10 0Z" fill="#ecebc1"/></g><rect x="40.28" y="80.56" width="40.28" height="40.28" fill="#d5e18c"/><g transform="translate(40.28,80.56) scale(2.0140000000000002) rotate(0)"><path d="M10 0H20V10L10 20H0V10L10 0Z" fill="#f2edcc"/></g><rect x="0" y="120.83" width="40.28" height="40.28" fill="#9bd8c1"/><g transform="translate(0,120.83) scale(2.0140000000000002) rotate(0)"><path fill-rule="evenodd" clip-rule="evenodd" d="M10 20C15.5228 20 20 15.5228 20 10C20 4.47715 15.5228 0 10 0C4.47715 0 0 4.47715 0 10C0 15.5228 4.47715 20 10 20ZM10 17C13.866 17 17 13.866 17 10C17 6.13401 13.866 3 10 3C6.13401 3 3 6.13401 3 10C3 13.866 6.13401 17 10 17Z" fill="#b7d347"/></g><rect x="40.28" y="120.83" width="40.28" height="40.28" fill="#f0edc9"/><g transform="translate(40.28,120.83) scale(2.0140000000000002) rotate(0)"><path fill-rule="evenodd" clip-rule="evenodd" d="M10 20C15.5228 20 20 15.5228 20 10C20 4.47715 15.5228 0 10 0C4.47715 0 0 4.47715 0 10C0 15.5228 4.47715 20 10 20ZM10 17C13.866 17 17 13.866 17 10C17 6.13401 13.866 3 10 3C6.13401 3 3 6.13401 3 10C3 13.866 6.13401 17 10 17Z" fill="#f2edcc"/></g><rect x="80.55555555555556" y="80.55555555555556" width="80.55555555555556" height="80.55555555555556" fill="#f5efd4"/><rect x="80.56" y="80.56" width="40.28" height="40.28" fill="#aecf33"/><g transform="translate(80.56,80.56) scale(2.0140000000000002) rotate(0)"><path d="M13 0H20V7L7 20H0V13L13 0Z" fill="#64c9b6"/></g><rect x="120.83" y="80.56" width="40.28" height="40.28" fill="#e0e5a4"/><path d="M 120.83 120.84 A 40.28 40.28 0 0 1  161.11 80.56 L 120.83 120.84 A 40.28 40.28 0 0 0 161.11 80.56" fill="#96d6c0"/><rect x="80.56" y="120.83" width="40.28" height="40.28" fill="#e1e6a6"/><g transform="translate(80.56,120.83) scale(2.0140000000000002) rotate(0)"><path d="M10 0H20V10L10 20H0V10L10 0Z" fill="#72cdb9"/></g><rect x="120.83" y="120.83" width="40.28" height="40.28" fill="#f1edcb"/><g transform="translate(120.83,120.83) scale(2.0140000000000002) rotate(0)"><path d="M10 0H20V10L10 20H0V10L10 0Z" fill="#f4efd2"/></g><rect x="161.11111111111111" y="80.55555555555556" width="80.55555555555556" height="80.55555555555556" fill="#f5efd4"/><rect x="201.39" y="80.56" width="40.28" height="40.28" fill="#cddd7a"/><g transform="translate(201.39,80.56) scale(2.0140000000000002) rotate(0)"><path fill-rule="evenodd" clip-rule="evenodd" d="M10 20C15.5228 20 20 15.5228 20 10C20 4.47715 15.5228 0 10 0C4.47715 0 0 4.47715 0 10C0 15.5228 4.47715 20 10 20ZM10 17C13.866 17 17 13.866 17 10C17 6.13401 13.866 3 10 3C6.13401 3 3 6.13401 3 10C3 13.866 6.13401 17 10 17Z" fill="#81d1bc"/></g><rect x="161.11" y="120.83" width="40.28" height="40.28" fill="#e0e5a3"/><g transform="translate(161.11,120.83) scale(2.0140000000000002) rotate(0)"><path d="M10 5L5 0L0 5L5 10L0 15L5 20L10 15L15 20L20 15L15 10L20 5L15 0L10 5Z" fill="#a4dac3"/></g><rect x="201.39" y="120.83" width="40.28" height="40.28" fill="#e5e8af"/><g transform="translate(201.39,120.83) scale(2.0140000000000002) rotate(0)"><path fill-rule="evenodd" clip-rule="evenodd" d="M10 20C15.5228 20 20 15.5228 20 10C20 4.47715 15.5228 0 10 0C4.47715 0 0 4.47715 0 10C0 15.5228 4.47715 20 10 20ZM10 17C13.866 17 17 13.866 17 10C17 6.13401 13.866 3 10 3C6.13401 3 3 6.13401 3 10C3 13.866 6.13401 17 10 17Z" fill="#f0eed3"/></g><rect x="322.22222222222223" y="80.55555555555556" width="80.55555555555556" height="80.55555555555556" fill="#f5efd4"/><rect x="362.5" y="80.56" width="40.28" height="40.28" fill="#b5dec7"/><path d="M 362.5 120.84 A 40.28 40.28 0 0 0 402.78 80.56 L 362.5 80.56" fill="#f1edcb"/><rect x="362.5" y="120.83" width="40.28" height="40.28" fill="#e1e6a7"/><g transform="translate(362.5,120.83) scale(2.0140000000000002) rotate(0)"><path fill-rule="evenodd" clip-rule="evenodd" d="M10 20C15.5228 20 20 15.5228 20 10C20 4.47715 15.5228 0 10 0C4.47715 0 0 4.47715 0 10C0 15.5228 4.47715 20 10 20ZM10 17C13.866 17 17 13.866 17 10C17 6.13401 13.866 3 10 3C6.13401 3 3 6.13401 3 10C3 13.866 6.13401 17 10 17Z" fill="#b9dfc7"/></g><rect x="402.77777777777777" y="80.55555555555556" width="80.55555555555556" height="80.55555555555556" fill="#f5efd4"/><rect x="402.78" y="80.56" width="40.28" height="40.28" fill="#f3eecf"/><g transform="translate(402.78,80.56) scale(2.0140000000000002) rotate(0)"><path fill-rule="evenodd" clip-rule="evenodd" d="M10 20C15.5228 20 20 15.5228 20 10C20 4.47715 15.5228 0 10 0C4.47715 0 0 4.47715 0 10C0 15.5228 4.47715 20 10 20ZM10 17C13.866 17 17 13.866 17 10C17 6.13401 13.866 3 10 3C6.13401 3 3 6.13401 3 10C3 13.866 6.13401 17 10 17Z" fill="#dbe399"/></g><rect x="443.06" y="80.56" width="40.28" height="40.28" fill="#d8e291"/><g transform="translate(443.06,80.56) scale(2.0140000000000002) rotate(0)"><path d="M10 5L5 0L0 5L5 10L0 15L5 20L10 15L15 20L20 15L15 10L20 5L15 0L10 5Z" fill="#d2df84"/></g><rect x="563.8888888888889" y="80.55555555555556" width="80.55555555555556" height="80.55555555555556" fill="#f5efd4"/><rect x="563.89" y="80.56" width="40.28" height="40.28" fill="#c0d75b"/><g transform="translate(563.89,80.56) scale(2.0140000000000002) rotate(0)"><path d="M13 0H20V7L7 20H0V13L13 0Z" fill="#c9db71"/></g><rect x="604.17" y="80.56" width="40.28" height="40.28" fill="#b9dfc7"/><g transform="translate(604.17,80.56) scale(2.0140000000000002) rotate(0)"><path d="M10 5L5 0L0 5L5 10L0 15L5 20L10 15L15 20L20 15L15 10L20 5L15 0L10 5Z" fill="#d9e295"/></g><rect x="604.17" y="120.83" width="40.28" height="40.28" fill="#63c9b5"/><g transform="translate(604.17,120.83) scale(2.0140000000000002) rotate(0)"><path d="M13 0H20V7L7 20H0V13L13 0Z" fill="#b0ddc6"/></g><rect x="644.4444444444445" y="80.55555555555556" width="80.55555555555556" height="80.55555555555556" fill="#f5efd4"/><rect x="644.44" y="80.56" width="40.28" height="40.28" fill="#95d6c0"/><g transform="translate(644.44,80.56) scale(2.0140000000000002) rotate(0)"><path d="M10 0H20L0 20V10L10 0Z" fill="#a9cd28"/><path d="M20 10V20H10L20 10Z" fill="#a9cd28"/></g><rect x="644.44" y="120.83" width="40.28" height="40.28" fill="#cfde7e"/><g transform="translate(644.44,120.83) scale(2.0140000000000002) rotate(0)"><path d="M10 0H20L0 20V10L10 0Z" fill="#cae4cb"/><path d="M20 10V20H10L20 10Z" fill="#cae4cb"/></g><rect x="684.72" y="120.83" width="40.28" height="40.28" fill="#cddd79"/><g transform="translate(684.72,120.83) scale(2.0140000000000002) rotate(0)"><path d="M10 0H20V10L10 20H0V10L10 0Z" fill="#dae8ce"/></g><rect x="805.5555555555555" y="80.55555555555556" width="80.55555555555556" height="80.55555555555556" fill="#f5efd4"/><rect x="845.83" y="80.56" width="40.28" height="40.28" fill="#d3e087"/><g transform="translate(845.83,80.56) scale(2.0140000000000002) rotate(0)"><path d="M10 5L5 0L0 5L5 10L0 15L5 20L10 15L15 20L20 15L15 10L20 5L15 0L10 5Z" fill="#a8cc25"/></g><rect x="805.56" y="120.83" width="40.28" height="40.28" fill="#86d2bd"/><g transform="translate(805.56,120.83) scale(2.0140000000000002) rotate(0)"><path d="M10 0H20V10L10 20H0V10L10 0Z" fill="#b4d240"/></g><rect x="966.6666666666667" y="80.55555555555556" width="80.55555555555556" height="80.55555555555556" fill="#f5efd4"/><rect x="966.67" y="80.56" width="40.28" height="40.28" fill="#e1ead0"/><g transform="translate(966.67,80.56) scale(2.0140000000000002) rotate(0)"><path d="M13 0H20V7L7 20H0V13L13 0Z" fill="#aadbc4"/></g><rect x="1006.94" y="120.83" width="40.28" height="40.28" fill="#88d3bd"/><g transform="translate(1006.94,120.83) scale(2.0140000000000002) rotate(0)"><path d="M13 0H20V7L7 20H0V13L13 0Z" fill="#4ac2b0"/></g><rect x="1047.2222222222222" y="80.55555555555556" width="80.55555555555556" height="80.55555555555556" fill="#f5efd4"/><rect x="1087.5" y="80.56" width="40.28" height="40.28" fill="#d4e089"/><g transform="translate(1087.5,80.56) scale(2.0140000000000002) rotate(0)"><path d="M10 0H20L0 20V10L10 0Z" fill="#4ec3b1"/><path d="M20 10V20H10L20 10Z" fill="#4ec3b1"/></g><rect x="1047.22" y="120.83" width="40.28" height="40.28" fill="#dae396"/><path d="M 1047.22 161.11 A 40.28 40.28 0 0 1  1087.5 120.83 L 1047.22 161.11 A 40.28 40.28 0 0 0 1087.5 120.83" fill="#7ccfbb"/><rect x="1127.7777777777778" y="80.55555555555556" width="80.55555555555556" height="80.55555555555556" fill="#f5efd4"/><rect x="1127.78" y="80.56" width="40.28" height="40.28" fill="#a6dac4"/><g transform="translate(1127.78,80.56) scale(2.0140000000000002) rotate(0)"><path d="M10 0H20L0 20V10L10 0Z" fill="#cbdc75"/><path d="M20 10V20H10L20 10Z" fill="#cbdc75"/></g><rect x="1168.06" y="80.56" width="40.28" height="40.28" fill="#b4dec6"/><g transform="translate(1168.06,80.56) scale(2.0140000000000002) rotate(0)"><path d="M10 0H20V10L10 20H0V10L10 0Z" fill="#c1d85e"/></g><rect x="1168.06" y="120.83" width="40.28" height="40.28" fill="#e4ead0"/><path d="M 1168.06 120.83 A 40.28 40.28 0 0 1  1208.34 161.11 L 1168.06 120.83 A 40.28 40.28 0 0 0 1208.34 161.11" fill="#d2df85"/><rect x="1208.3333333333333" y="80.55555555555556" width="80.55555555555556" height="80.55555555555556" fill="#f5efd4"/><rect x="1208.33" y="80.56" width="40.28" height="40.28" fill="#a3dac3"/><path d="M 1208.33 120.84 A 40.28 40.28 0 0 1  1248.61 80.56 L 1248.61 120.84" fill="#66cab6"/><rect x="1248.61" y="80.56" width="40.28" height="40.28" fill="#6bcbb7"/><g transform="translate(1248.61,80.56) scale(2.0140000000000002) rotate(0)"><path d="M10 0H20L0 20V10L10 0Z" fill="#f0edca"/><path d="M20 10V20H10L20 10Z" fill="#f0edca"/></g><rect x="1208.33" y="120.83" width="40.28" height="40.28" fill="#d0df81"/><g transform="translate(1208.33,120.83) scale(2.0140000000000002) rotate(0)"><path d="M10 5L5 0L0 5L5 10L0 15L5 20L10 15L15 20L20 15L15 10L20 5L15 0L10 5Z" fill="#e6e8b2"/></g><rect x="0" y="161.11111111111111" width="80.55555555555556" height="80.55555555555556" fill="#f5efd4"/><rect x="0" y="161.11" width="40.28" height="40.28" fill="#57c6b3"/><g transform="translate(0,161.11) scale(2.0140000000000002) rotate(0)"><path d="M10 5L5 0L0 5L5 10L0 15L5 20L10 15L15 20L20 15L15 10L20 5L15 0L10 5Z" fill="#cbdc74"/></g><rect x="0" y="201.39" width="40.28" height="40.28" fill="#f3eecf"/><path d="M 0 201.39 A 40.28 40.28 0 0 0 40.28 241.67 L 40.28 201.39" fill="#dde49e"/><rect x="80.55555555555556" y="161.11111111111111" width="80.55555555555556" height="80.55555555555556" fill="#f5efd4"/><rect x="80.56" y="161.11" width="40.28" height="40.28" fill="#cee5cc"/><g transform="translate(80.56,161.11) scale(2.0140000000000002) rotate(0)"><path fill-rule="evenodd" clip-rule="evenodd" d="M10 20C15.5228 20 20 15.5228 20 10C20 4.47715 15.5228 0 10 0C4.47715 0 0 4.47715 0 10C0 15.5228 4.47715 20 10 20ZM10 17C13.866 17 17 13.866 17 10C17 6.13401 13.866 3 10 3C6.13401 3 3 6.13401 3 10C3 13.866 6.13401 17 10 17Z" fill="#77ceba"/></g><rect x="80.56" y="201.39" width="40.28" height="40.28" fill="#98d7c0"/><path d="M 80.56 201.39 A 40.28 40.28 0 0 1 120.84 241.67 L 80.56 241.67" fill="#55c5b2"/><rect x="120.83" y="201.39" width="40.28" height="40.28" fill="#dee5a0"/><g transform="translate(120.83,201.39) scale(2.0140000000000002) rotate(0)"><path fill-rule="evenodd" clip-rule="evenodd" d="M10 20C15.5228 20 20 15.5228 20 10C20 4.47715 15.5228 0 10 0C4.47715 0 0 4.47715 0 10C0 15.5228 4.47715 20 10 20ZM10 17C13.866 17 17 13.866 17 10C17 6.13401 13.866 3 10 3C6.13401 3 3 6.13401 3 10C3 13.866 6.13401 17 10 17Z" fill="#d3e087"/></g><rect x="241.66666666666669" y="161.11111111111111" width="80.55555555555556" height="80.55555555555556" fill="#f5efd4"/><rect x="241.67" y="161.11" width="40.28" height="40.28" fill="#62c8b5"/><g transform="translate(241.67,161.11) scale(2.0140000000000002) rotate(0)"><path d="M10 0H20L0 20V10L10 0Z" fill="#aecf33"/><path d="M20 10V20H10L20 10Z" fill="#aecf33"/></g><rect x="281.94" y="161.11" width="40.28" height="40.28" fill="#5ac6b3"/><g transform="translate(281.94,161.11) scale(2.0140000000000002) rotate(0)"><path d="M10 0H20L0 20V10L10 0Z" fill="#82d1bc"/><path d="M20 10V20H10L20 10Z" fill="#82d1bc"/></g><rect x="241.67" y="201.39" width="40.28" height="40.28" fill="#7dd0bb"/><g transform="translate(241.67,201.39) scale(2.0140000000000002) rotate(0)"><path d="M10 0H20L0 20V10L10 0Z" fill="#adcf32"/><path d="M20 10V20H10L20 10Z" fill="#adcf32"/></g><rect x="281.94" y="201.39" width="40.28" height="40.28" fill="#7dd0bb"/><g transform="translate(281.94,201.39) scale(2.0140000000000002) rotate(0)"><path d="M10 0H20L0 20V10L10 0Z" fill="#f2edcc"/><path d="M20 10V20H10L20 10Z" fill="#f2edcc"/></g><rect x="322.22222222222223" y="161.11111111111111" width="80.55555555555556" height="80.55555555555556" fill="#f5efd4"/><rect x="322.22" y="161.11" width="40.28" height="40.28" fill="#9cd8c1"/><g transform="translate(322.22,161.11) scale(2.0140000000000002) rotate(0)"><path d="M10 0H20V10L10 20H0V10L10 0Z" fill="#eeecc5"/></g><rect x="362.5" y="161.11" width="40.28" height="40.28" fill="#e1e6a6"/><g transform="translate(362.5,161.11) scale(2.0140000000000002) rotate(0)"><path d="M10 5L5 0L0 5L5 10L0 15L5 20L10 15L15 20L20 15L15 10L20 5L15 0L10 5Z" fill="#62c9b5"/></g><rect x="362.5" y="201.39" width="40.28" height="40.28" fill="#ecebc0"/><path d="M 362.5 201.39 A 40.28 40.28 0 0 0 402.78 241.67 L 402.78 201.39" fill="#cbdc74"/><rect x="402.77777777777777" y="161.11111111111111" width="80.55555555555556" height="80.55555555555556" fill="#f5efd4"/><rect x="443.06" y="161.11" width="40.28" height="40.28" fill="#92d5bf"/><g transform="translate(443.06,161.11) scale(2.0140000000000002) rotate(0)"><path d="M10 0H20V10L10 20H0V10L10 0Z" fill="#e7ebd1"/></g><rect x="483.33333333333337" y="161.11111111111111" width="80.55555555555556" height="80.55555555555556" fill="#f5efd4"/><rect x="483.33" y="161.11" width="40.28" height="40.28" fill="#c4e2ca"/><g transform="translate(483.33,161.11) scale(2.0140000000000002) rotate(0)"><path d="M10 0H20L0 20V10L10 0Z" fill="#abdcc4"/><path d="M20 10V20H10L20 10Z" fill="#abdcc4"/></g><rect x="523.61" y="161.11" width="40.28" height="40.28" fill="#97d6c0"/><g transform="translate(523.61,161.11) scale(2.0140000000000002) rotate(0)"><path d="M13 0H20V7L7 20H0V13L13 0Z" fill="#93d5bf"/></g><rect x="523.61" y="201.39" width="40.28" height="40.28" fill="#b6d345"/><path d="M 523.61 201.39 A 40.28 40.28 0 0 1 563.89 241.67 L 523.61 241.67" fill="#a1d9c2"/><rect x="563.8888888888889" y="161.11111111111111" width="80.55555555555556" height="80.55555555555556" fill="#f5efd4"/><rect x="563.89" y="161.11" width="40.28" height="40.28" fill="#dce49b"/><g transform="translate(563.89,161.11) scale(2.0140000000000002) rotate(0)"><path d="M13 0H20V7L7 20H0V13L13 0Z" fill="#b4d240"/></g><rect x="563.89" y="201.39" width="40.28" height="40.28" fill="#9cd8c1"/><g transform="translate(563.89,201.39) scale(2.0140000000000002) rotate(0)"><path d="M10 0H20L0 20V10L10 0Z" fill="#d2df85"/><path d="M20 10V20H10L20 10Z" fill="#d2df85"/></g><rect x="644.4444444444445" y="161.11111111111111" width="80.55555555555556" height="80.55555555555556" fill="#f5efd4"/><rect x="684.72" y="161.11" width="40.28" height="40.28" fill="#bfd759"/><g transform="translate(684.72,161.11) scale(2.0140000000000002) rotate(0)"><path fill-rule="evenodd" clip-rule="evenodd" d="M10 20C15.5228 20 20 15.5228 20 10C20 4.47715 15.5228 0 10 0C4.47715 0 0 4.47715 0 10C0 15.5228 4.47715 20 10 20ZM10 17C13.866 17 17 13.866 17 10C17 6.13401 13.866 3 10 3C6.13401 3 3 6.13401 3 10C3 13.866 6.13401 17 10 17Z" fill="#c4e2ca"/></g><rect x="684.72" y="201.39" width="40.28" height="40.28" fill="#7acfba"/><g transform="translate(684.72,201.39) scale(2.0140000000000002) rotate(0)"><path d="M10 0H20V10L10 20H0V10L10 0Z" fill="#ccdd78"/></g><rect x="725" y="161.11111111111111" width="80.55555555555556" height="80.55555555555556" fill="#f5efd4"/><rect x="725" y="161.11" width="40.28" height="40.28" fill="#c7da6b"/><g transform="translate(725,161.11) scale(2.0140000000000002) rotate(0)"><path d="M10 0H20L0 20V10L10 0Z" fill="#a2d9c3"/><path d="M20 10V20H10L20 10Z" fill="#a2d9c3"/></g><rect x="765.28" y="161.11" width="40.28" height="40.28" fill="#eaeabc"/><g transform="translate(765.28,161.11) scale(2.0140000000000002) rotate(0)"><path d="M10 5L5 0L0 5L5 10L0 15L5 20L10 15L15 20L20 15L15 10L20 5L15 0L10 5Z" fill="#b9d44c"/></g><rect x="725" y="201.39" width="40.28" height="40.28" fill="#5cc7b4"/><g transform="translate(725,201.39) scale(2.0140000000000002) rotate(0)"><path d="M10 0H20V10L10 20H0V10L10 0Z" fill="#5ac6b4"/></g><rect x="805.5555555555555" y="161.11111111111111" width="80.55555555555556" height="80.55555555555556" fill="#f5efd4"/><rect x="845.83" y="161.11" width="40.28" height="40.28" fill="#e2ead0"/><g transform="translate(845.83,161.11) scale(2.0140000000000002) rotate(0)"><path d="M10 0H20L0 20V10L10 0Z" fill="#d0e5cc"/><path d="M20 10V20H10L20 10Z" fill="#d0e5cc"/></g><rect x="845.83" y="201.39" width="40.28" height="40.28" fill="#f0edca"/><g transform="translate(845.83,201.39) scale(2.0140000000000002) rotate(0)"><path d="M10 5L5 0L0 5L5 10L0 15L5 20L10 15L15 20L20 15L15 10L20 5L15 0L10 5Z" fill="#e5e8b0"/></g><rect x="966.6666666666667" y="161.11111111111111" width="80.55555555555556" height="80.55555555555556" fill="#f5efd4"/><rect x="1006.94" y="161.11" width="40.28" height="40.28" fill="#d7e291"/><g transform="translate(1006.94,161.11) scale(2.0140000000000002) rotate(0)"><path d="M10 0H20L0 20V10L10 0Z" fill="#67cab6"/><path d="M20 10V20H10L20 10Z" fill="#67cab6"/></g><rect x="1006.94" y="201.39" width="40.28" height="40.28" fill="#f3eecf"/><g transform="translate(1006.94,201.39) scale(2.0140000000000002) rotate(0)"><path fill-rule="evenodd" clip-rule="evenodd" d="M10 20C15.5228 20 20 15.5228 20 10C20 4.47715 15.5228 0 10 0C4.47715 0 0 4.47715 0 10C0 15.5228 4.47715 20 10 20ZM10 17C13.866 17 17 13.866 17 10C17 6.13401 13.866 3 10 3C6.13401 3 3 6.13401 3 10C3 13.866 6.13401 17 10 17Z" fill="#d5e7cd"/></g><rect x="1047.2222222222222" y="161.11111111111111" width="80.55555555555556" height="80.55555555555556" fill="#f5efd4"/><rect x="1047.22" y="161.11" width="40.28" height="40.28" fill="#d7e7ce"/><g transform="translate(1047.22,161.11) scale(2.0140000000000002) rotate(0)"><path fill-rule="evenodd" clip-rule="evenodd" d="M10 20C15.5228 20 20 15.5228 20 10C20 4.47715 15.5228 0 10 0C4.47715 0 0 4.47715 0 10C0 15.5228 4.47715 20 10 20ZM10 17C13.866 17 17 13.866 17 10C17 6.13401 13.866 3 10 3C6.13401 3 3 6.13401 3 10C3 13.866 6.13401 17 10 17Z" fill="#e0e6a5"/></g><rect x="1087.5" y="161.11" width="40.28" height="40.28" fill="#e3ead0"/><g transform="translate(1087.5,161.11) scale(2.0140000000000002) rotate(0)"><path d="M13 0H20V7L7 20H0V13L13 0Z" fill="#99d7c1"/></g><rect x="1127.7777777777778" y="161.11111111111111" width="80.55555555555556" height="80.55555555555556" fill="#f5efd4"/><rect x="1127.78" y="161.11" width="40.28" height="40.28" fill="#e5e8b0"/><g transform="translate(1127.78,161.11) scale(2.0140000000000002) rotate(0)"><path d="M10 5L5 0L0 5L5 10L0 15L5 20L10 15L15 20L20 15L15 10L20 5L15 0L10 5Z" fill="#c4d966"/></g><rect x="1127.78" y="201.39" width="40.28" height="40.28" fill="#b7d347"/><g transform="translate(1127.78,201.39) scale(2.0140000000000002) rotate(0)"><path fill-rule="evenodd" clip-rule="evenodd" d="M10 20C15.5228 20 20 15.5228 20 10C20 4.47715 15.5228 0 10 0C4.47715 0 0 4.47715 0 10C0 15.5228 4.47715 20 10 20ZM10 17C13.866 17 17 13.866 17 10C17 6.13401 13.866 3 10 3C6.13401 3 3 6.13401 3 10C3 13.866 6.13401 17 10 17Z" fill="#bcd653"/></g><rect x="1208.3333333333333" y="161.11111111111111" width="80.55555555555556" height="80.55555555555556" fill="#f5efd4"/><rect x="1208.33" y="161.11" width="40.28" height="40.28" fill="#aacd2a"/><g transform="translate(1208.33,161.11) scale(2.0140000000000002) rotate(0)"><path d="M10 0H20L0 20V10L10 0Z" fill="#c1d85e"/><path d="M20 10V20H10L20 10Z" fill="#c1d85e"/></g><rect x="1248.61" y="161.11" width="40.28" height="40.28" fill="#adcf31"/><g transform="translate(1248.61,161.11) scale(2.0140000000000002) rotate(0)"><path d="M10 0H20L0 20V10L10 0Z" fill="#bbe0c8"/><path d="M20 10V20H10L20 10Z" fill="#bbe0c8"/></g><rect x="1208.33" y="201.39" width="40.28" height="40.28" fill="#87d2bd"/><g transform="translate(1208.33,201.39) scale(2.0140000000000002) rotate(0)"><path d="M10 0H20V10L10 20H0V10L10 0Z" fill="#86d2bd"/></g><rect x="80.55555555555556" y="241.66666666666669" width="80.55555555555556" height="80.55555555555556" fill="#f5efd4"/><rect x="120.83" y="241.67" width="40.28" height="40.28" fill="#d3e086"/><g transform="translate(120.83,241.67) scale(2.0140000000000002) rotate(0)"><path d="M10 5L5 0L0 5L5 10L0 15L5 20L10 15L15 20L20 15L15 10L20 5L15 0L10 5Z" fill="#56c5b3"/></g><rect x="80.56" y="281.94" width="40.28" height="40.28" fill="#aacd29"/><g transform="translate(80.56,281.94) scale(2.0140000000000002) rotate(0)"><path d="M13 0H20V7L7 20H0V13L13 0Z" fill="#89d3bd"/></g><rect x="161.11111111111111" y="241.66666666666669" width="80.55555555555556" height="80.55555555555556" fill="#f5efd4"/><rect x="161.11" y="241.67" width="40.28" height="40.28" fill="#98d7c1"/><g transform="translate(161.11,241.67) scale(2.0140000000000002) rotate(0)"><path d="M13 0H20V7L7 20H0V13L13 0Z" fill="#dde9cf"/></g><rect x="161.11" y="281.94" width="40.28" height="40.28" fill="#e4ebd1"/><g transform="translate(161.11,281.94) scale(2.0140000000000002) rotate(0)"><path d="M10 0H20V10L10 20H0V10L10 0Z" fill="#dfe5a3"/></g><rect x="241.66666666666669" y="241.66666666666669" width="80.55555555555556" height="80.55555555555556" fill="#f5efd4"/><rect x="281.94" y="241.67" width="40.28" height="40.28" fill="#b7d346"/><g transform="translate(281.94,241.67) scale(2.0140000000000002) rotate(0)"><path d="M10 0H20V10L10 20H0V10L10 0Z" fill="#f2eecd"/></g><rect x="241.67" y="281.94" width="40.28" height="40.28" fill="#f2eed3"/><g transform="translate(241.67,281.94) scale(2.0140000000000002) rotate(0)"><path d="M10 5L5 0L0 5L5 10L0 15L5 20L10 15L15 20L20 15L15 10L20 5L15 0L10 5Z" fill="#c3d963"/></g><rect x="281.94" y="281.94" width="40.28" height="40.28" fill="#cadc73"/><g transform="translate(281.94,281.94) scale(2.0140000000000002) rotate(0)"><path d="M10 0H20L0 20V10L10 0Z" fill="#ecebc0"/><path d="M20 10V20H10L20 10Z" fill="#ecebc0"/></g><rect x="563.8888888888889" y="241.66666666666669" width="80.55555555555556" height="80.55555555555556" fill="#f5efd4"/><rect x="604.17" y="241.67" width="40.28" height="40.28" fill="#bbd550"/><g transform="translate(604.17,241.67) scale(2.0140000000000002) rotate(0)"><path d="M10 0H20V10L10 20H0V10L10 0Z" fill="#4ac2b0"/></g><rect x="604.17" y="281.94" width="40.28" height="40.28" fill="#cddd7a"/><path d="M 604.17 281.94 A 40.28 40.28 0 0 1  644.4499999999999 322.22 L 604.17 281.94 A 40.28 40.28 0 0 0 644.4499999999999 322.22" fill="#6fccb8"/><rect x="644.4444444444445" y="241.66666666666669" width="80.55555555555556" height="80.55555555555556" fill="#f5efd4"/><rect x="684.72" y="241.67" width="40.28" height="40.28" fill="#dae397"/><g transform="translate(684.72,241.67) scale(2.0140000000000002) rotate(0)"><path d="M10 0H20L0 20V10L10 0Z" fill="#c6e3ca"/><path d="M20 10V20H10L20 10Z" fill="#c6e3ca"/></g><rect x="644.44" y="281.94" width="40.28" height="40.28" fill="#73cdb9"/><g transform="translate(644.44,281.94) scale(2.0140000000000002) rotate(0)"><path fill-rule="evenodd" clip-rule="evenodd" d="M10 20C15.5228 20 20 15.5228 20 10C20 4.47715 15.5228 0 10 0C4.47715 0 0 4.47715 0 10C0 15.5228 4.47715 20 10 20ZM10 17C13.866 17 17 13.866 17 10C17 6.13401 13.866 3 10 3C6.13401 3 3 6.13401 3 10C3 13.866 6.13401 17 10 17Z" fill="#bad54e"/></g><rect x="684.72" y="281.94" width="40.28" height="40.28" fill="#afcf34"/><g transform="translate(684.72,281.94) scale(2.0140000000000002) rotate(0)"><path d="M10 0H20V10L10 20H0V10L10 0Z" fill="#eeecc3"/></g><rect x="1047.2222222222222" y="241.66666666666669" width="80.55555555555556" height="80.55555555555556" fill="#f5efd4"/><rect x="1047.22" y="241.67" width="40.28" height="40.28" fill="#e1ead0"/><g transform="translate(1047.22,241.67) scale(2.0140000000000002) rotate(0)"><path d="M10 0H20L0 20V10L10 0Z" fill="#e6e8b1"/><path d="M20 10V20H10L20 10Z" fill="#e6e8b1"/></g><rect x="1208.3333333333333" y="241.66666666666669" width="80.55555555555556" height="80.55555555555556" fill="#f5efd4"/><rect x="1208.33" y="241.67" width="40.28" height="40.28" fill="#83d1bc"/><g transform="translate(1208.33,241.67) scale(2.0140000000000002) rotate(0)"><path fill-rule="evenodd" clip-rule="evenodd" d="M10 20C15.5228 20 20 15.5228 20 10C20 4.47715 15.5228 0 10 0C4.47715 0 0 4.47715 0 10C0 15.5228 4.47715 20 10 20ZM10 17C13.866 17 17 13.866 17 10C17 6.13401 13.866 3 10 3C6.13401 3 3 6.13401 3 10C3 13.866 6.13401 17 10 17Z" fill="#f2eed3"/></g><rect x="1248.61" y="241.67" width="40.28" height="40.28" fill="#d6e18d"/><g transform="translate(1248.61,241.67) scale(2.0140000000000002) rotate(0)"><path fill-rule="evenodd" clip-rule="evenodd" d="M10 20C15.5228 20 20 15.5228 20 10C20 4.47715 15.5228 0 10 0C4.47715 0 0 4.47715 0 10C0 15.5228 4.47715 20 10 20ZM10 17C13.866 17 17 13.866 17 10C17 6.13401 13.866 3 10 3C6.13401 3 3 6.13401 3 10C3 13.866 6.13401 17 10 17Z" fill="#67cab6"/></g><rect x="1248.61" y="281.94" width="40.28" height="40.28" fill="#e6e8b2"/><g transform="translate(1248.61,281.94) scale(2.0140000000000002) rotate(0)"><path fill-rule="evenodd" clip-rule="evenodd" d="M10 20C15.5228 20 20 15.5228 20 10C20 4.47715 15.5228 0 10 0C4.47715 0 0 4.47715 0 10C0 15.5228 4.47715 20 10 20ZM10 17C13.866 17 17 13.866 17 10C17 6.13401 13.866 3 10 3C6.13401 3 3 6.13401 3 10C3 13.866 6.13401 17 10 17Z" fill="#b3d13e"/></g><rect x="0" y="322.22222222222223" width="80.55555555555556" height="80.55555555555556" fill="#f5efd4"/><rect x="40.28" y="322.22" width="40.28" height="40.28" fill="#cbdc75"/><g transform="translate(40.28,322.22) scale(2.0140000000000002) rotate(0)"><path d="M10 5L5 0L0 5L5 10L0 15L5 20L10 15L15 20L20 15L15 10L20 5L15 0L10 5Z" fill="#a8dbc4"/></g><rect x="40.28" y="362.5" width="40.28" height="40.28" fill="#afddc5"/><path d="M 40.28 362.5 A 40.28 40.28 0 0 1  80.56 402.78 L 40.28 362.5 A 40.28 40.28 0 0 0 80.56 402.78" fill="#e1e6a7"/><rect x="80.55555555555556" y="322.22222222222223" width="80.55555555555556" height="80.55555555555556" fill="#f5efd4"/><rect x="80.56" y="322.22" width="40.28" height="40.28" fill="#cce4cb"/><g transform="translate(80.56,322.22) scale(2.0140000000000002) rotate(0)"><path d="M10 5L5 0L0 5L5 10L0 15L5 20L10 15L15 20L20 15L15 10L20 5L15 0L10 5Z" fill="#70ccb8"/></g><rect x="80.56" y="362.5" width="40.28" height="40.28" fill="#f2eecd"/><g transform="translate(80.56,362.5) scale(2.0140000000000002) rotate(0)"><path d="M10 0H20L0 20V10L10 0Z" fill="#7fd0bb"/><path d="M20 10V20H10L20 10Z" fill="#7fd0bb"/></g><rect x="120.83" y="362.5" width="40.28" height="40.28" fill="#b5dec7"/><g transform="translate(120.83,362.5) scale(2.0140000000000002) rotate(0)"><path d="M10 0H20V10L10 20H0V10L10 0Z" fill="#5bc7b4"/></g><rect x="241.66666666666669" y="322.22222222222223" width="80.55555555555556" height="80.55555555555556" fill="#f5efd4"/><rect x="241.67" y="362.5" width="40.28" height="40.28" fill="#e4ead0"/><g transform="translate(241.67,362.5) scale(2.0140000000000002) rotate(0)"><path d="M10 0H20L0 20V10L10 0Z" fill="#e9eab9"/><path d="M20 10V20H10L20 10Z" fill="#e9eab9"/></g><rect x="281.94" y="362.5" width="40.28" height="40.28" fill="#a3dac3"/><path d="M 281.94 362.5 A 40.28 40.28 0 0 1 322.22 402.78 L 281.94 402.78" fill="#b9d44b"/><rect x="322.22222222222223" y="322.22222222222223" width="80.55555555555556" height="80.55555555555556" fill="#f5efd4"/><rect x="362.5" y="322.22" width="40.28" height="40.28" fill="#f2edcc"/><path d="M 362.5 362.5 A 40.28 40.28 0 0 1  402.78 322.22 L 402.78 362.5" fill="#d8e7ce"/><rect x="322.22" y="362.5" width="40.28" height="40.28" fill="#bae0c8"/><g transform="translate(322.22,362.5) scale(2.0140000000000002) rotate(0)"><path d="M10 5L5 0L0 5L5 10L0 15L5 20L10 15L15 20L20 15L15 10L20 5L15 0L10 5Z" fill="#dae398"/></g><rect x="362.5" y="362.5" width="40.28" height="40.28" fill="#70ccb8"/><g transform="translate(362.5,362.5) scale(2.0140000000000002) rotate(0)"><path d="M13 0H20V7L7 20H0V13L13 0Z" fill="#9fd9c2"/></g><rect x="402.77777777777777" y="322.22222222222223" width="80.55555555555556" height="80.55555555555556" fill="#f5efd4"/><rect x="443.06" y="322.22" width="40.28" height="40.28" fill="#7acfba"/><path d="M 443.06 322.22 A 40.28 40.28 0 0 1 483.34000000000003 362.5 L 443.06 362.5" fill="#dbe8cf"/><rect x="402.78" y="362.5" width="40.28" height="40.28" fill="#c9db71"/><g transform="translate(402.78,362.5) scale(2.0140000000000002) rotate(0)"><path fill-rule="evenodd" clip-rule="evenodd" d="M10 20C15.5228 20 20 15.5228 20 10C20 4.47715 15.5228 0 10 0C4.47715 0 0 4.47715 0 10C0 15.5228 4.47715 20 10 20ZM10 17C13.866 17 17 13.866 17 10C17 6.13401 13.866 3 10 3C6.13401 3 3 6.13401 3 10C3 13.866 6.13401 17 10 17Z" fill="#d0e5cc"/></g><rect x="644.4444444444445" y="322.22222222222223" width="80.55555555555556" height="80.55555555555556" fill="#f5efd4"/><rect x="644.44" y="322.22" width="40.28" height="40.28" fill="#d4e088"/><g transform="translate(644.44,322.22) scale(2.0140000000000002) rotate(0)"><path d="M10 0H20L0 20V10L10 0Z" fill="#ededd2"/><path d="M20 10V20H10L20 10Z" fill="#ededd2"/></g><rect x="684.72" y="322.22" width="40.28" height="40.28" fill="#b8d44a"/><g transform="translate(684.72,322.22) scale(2.0140000000000002) rotate(0)"><path d="M10 0H20L0 20V10L10 0Z" fill="#c9db70"/><path d="M20 10V20H10L20 10Z" fill="#c9db70"/></g><rect x="684.72" y="362.5" width="40.28" height="40.28" fill="#c9db71"/><path d="M 684.72 362.5 A 40.28 40.28 0 0 1 725 402.78 L 684.72 402.78" fill="#eeedd3"/><rect x="886.1111111111111" y="322.22222222222223" width="80.55555555555556" height="80.55555555555556" fill="#f5efd4"/><rect x="886.11" y="322.22" width="40.28" height="40.28" fill="#c1d85e"/><g transform="translate(886.11,322.22) scale(2.0140000000000002) rotate(0)"><path d="M10 5L5 0L0 5L5 10L0 15L5 20L10 15L15 20L20 15L15 10L20 5L15 0L10 5Z" fill="#d3e086"/></g><rect x="926.39" y="362.5" width="40.28" height="40.28" fill="#e2ead0"/><g transform="translate(926.39,362.5) scale(2.0140000000000002) rotate(0)"><path d="M10 5L5 0L0 5L5 10L0 15L5 20L10 15L15 20L20 15L15 10L20 5L15 0L10 5Z" fill="#cfe5cc"/></g><rect x="1047.2222222222222" y="322.22222222222223" width="80.55555555555556" height="80.55555555555556" fill="#f5efd4"/><rect x="1047.22" y="322.22" width="40.28" height="40.28" fill="#60c8b5"/><g transform="translate(1047.22,322.22) scale(2.0140000000000002) rotate(0)"><path d="M13 0H20V7L7 20H0V13L13 0Z" fill="#dce8cf"/></g><rect x="1087.5" y="322.22" width="40.28" height="40.28" fill="#cee5cc"/><g transform="translate(1087.5,322.22) scale(2.0140000000000002) rotate(0)"><path d="M13 0H20V7L7 20H0V13L13 0Z" fill="#a7dbc4"/></g><rect x="1047.22" y="362.5" width="40.28" height="40.28" fill="#e7ebd1"/><g transform="translate(1047.22,362.5) scale(2.0140000000000002) rotate(0)"><path fill-rule="evenodd" clip-rule="evenodd" d="M10 20C15.5228 20 20 15.5228 20 10C20 4.47715 15.5228 0 10 0C4.47715 0 0 4.47715 0 10C0 15.5228 4.47715 20 10 20ZM10 17C13.866 17 17 13.866 17 10C17 6.13401 13.866 3 10 3C6.13401 3 3 6.13401 3 10C3 13.866 6.13401 17 10 17Z" fill="#dde9cf"/></g><rect x="1087.5" y="362.5" width="40.28" height="40.28" fill="#54c5b2"/><g transform="translate(1087.5,362.5) scale(2.0140000000000002) rotate(0)"><path d="M10 0H20V10L10 20H0V10L10 0Z" fill="#59c6b3"/></g><rect x="1208.3333333333333" y="322.22222222222223" width="80.55555555555556" height="80.55555555555556" fill="#f5efd4"/><rect x="1208.33" y="322.22" width="40.28" height="40.28" fill="#c1e1c9"/><g transform="translate(1208.33,322.22) scale(2.0140000000000002) rotate(0)"><path d="M10 5L5 0L0 5L5 10L0 15L5 20L10 15L15 20L20 15L15 10L20 5L15 0L10 5Z" fill="#b0d037"/></g><rect x="1208.33" y="362.5" width="40.28" height="40.28" fill="#ecebbf"/><g transform="translate(1208.33,362.5) scale(2.0140000000000002) rotate(0)"><path fill-rule="evenodd" clip-rule="evenodd" d="M10 20C15.5228 20 20 15.5228 20 10C20 4.47715 15.5228 0 10 0C4.47715 0 0 4.47715 0 10C0 15.5228 4.47715 20 10 20ZM10 17C13.866 17 17 13.866 17 10C17 6.13401 13.866 3 10 3C6.13401 3 3 6.13401 3 10C3 13.866 6.13401 17 10 17Z" fill="#94d6c0"/></g><rect x="1248.61" y="362.5" width="40.28" height="40.28" fill="#cadc72"/><g transform="translate(1248.61,362.5) scale(2.0140000000000002) rotate(0)"><path fill-rule="evenodd" clip-rule="evenodd" d="M10 20C15.5228 20 20 15.5228 20 10C20 4.47715 15.5228 0 10 0C4.47715 0 0 4.47715 0 10C0 15.5228 4.47715 20 10 20ZM10 17C13.866 17 17 13.866 17 10C17 6.13401 13.866 3 10 3C6.13401 3 3 6.13401 3 10C3 13.866 6.13401 17 10 17Z" fill="#bbd551"/></g><rect x="80.55555555555556" y="402.77777777777777" width="80.55555555555556" height="80.55555555555556" fill="#f5efd4"/><rect x="80.56" y="402.78" width="40.28" height="40.28" fill="#dbe49a"/><path d="M 80.56 402.78 A 40.28 40.28 0 0 1 120.84 443.05999999999995 L 80.56 443.05999999999995" fill="#d9e8ce"/><rect x="80.56" y="443.06" width="40.28" height="40.28" fill="#cfde7e"/><g transform="translate(80.56,443.06) scale(2.0140000000000002) rotate(0)"><path d="M10 5L5 0L0 5L5 10L0 15L5 20L10 15L15 20L20 15L15 10L20 5L15 0L10 5Z" fill="#b1d039"/></g><rect x="161.11111111111111" y="402.77777777777777" width="80.55555555555556" height="80.55555555555556" fill="#f5efd4"/><rect x="161.11" y="402.78" width="40.28" height="40.28" fill="#d0de80"/><g transform="translate(161.11,402.78) scale(2.0140000000000002) rotate(0)"><path d="M10 5L5 0L0 5L5 10L0 15L5 20L10 15L15 20L20 15L15 10L20 5L15 0L10 5Z" fill="#d1df82"/></g><rect x="201.39" y="402.78" width="40.28" height="40.28" fill="#b5dec7"/><g transform="translate(201.39,402.78) scale(2.0140000000000002) rotate(0)"><path d="M10 5L5 0L0 5L5 10L0 15L5 20L10 15L15 20L20 15L15 10L20 5L15 0L10 5Z" fill="#afcf34"/></g><rect x="201.39" y="443.06" width="40.28" height="40.28" fill="#d6e7ce"/><path d="M 201.39 443.06 A 40.28 40.28 0 0 1 241.67 483.34000000000003 L 201.39 483.34000000000003" fill="#d3e6cd"/><rect x="241.66666666666669" y="402.77777777777777" width="80.55555555555556" height="80.55555555555556" fill="#f5efd4"/><rect x="281.94" y="402.78" width="40.28" height="40.28" fill="#6dcbb7"/><g transform="translate(281.94,402.78) scale(2.0140000000000002) rotate(0)"><path d="M13 0H20V7L7 20H0V13L13 0Z" fill="#e6ebd1"/></g><rect x="322.22222222222223" y="402.77777777777777" width="80.55555555555556" height="80.55555555555556" fill="#f5efd4"/><rect x="362.5" y="402.78" width="40.28" height="40.28" fill="#e1e6a7"/><g transform="translate(362.5,402.78) scale(2.0140000000000002) rotate(0)"><path d="M10 5L5 0L0 5L5 10L0 15L5 20L10 15L15 20L20 15L15 10L20 5L15 0L10 5Z" fill="#8ad3be"/></g><rect x="362.5" y="443.06" width="40.28" height="40.28" fill="#e9ecd2"/><g transform="translate(362.5,443.06) scale(2.0140000000000002) rotate(0)"><path d="M10 0H20V10L10 20H0V10L10 0Z" fill="#cbdc75"/></g><rect x="483.33333333333337" y="402.77777777777777" width="80.55555555555556" height="80.55555555555556" fill="#f5efd4"/><rect x="483.33" y="402.78" width="40.28" height="40.28" fill="#bcd553"/><path d="M 483.33 402.78 A 40.28 40.28 0 0 1  523.61 443.05999999999995 L 483.33 402.78 A 40.28 40.28 0 0 0 523.61 443.05999999999995" fill="#b8dfc7"/><rect x="523.61" y="402.78" width="40.28" height="40.28" fill="#e5e8af"/><g transform="translate(523.61,402.78) scale(2.0140000000000002) rotate(0)"><path d="M13 0H20V7L7 20H0V13L13 0Z" fill="#bce0c8"/></g><rect x="523.61" y="443.06" width="40.28" height="40.28" fill="#5ac6b4"/><g transform="translate(523.61,443.06) scale(2.0140000000000002) rotate(0)"><path d="M10 5L5 0L0 5L5 10L0 15L5 20L10 15L15 20L20 15L15 10L20 5L15 0L10 5Z" fill="#96d6c0"/></g><rect x="644.4444444444445" y="402.77777777777777" width="80.55555555555556" height="80.55555555555556" fill="#f5efd4"/><rect x="684.72" y="402.78" width="40.28" height="40.28" fill="#f4efd4"/><g transform="translate(684.72,402.78) scale(2.0140000000000002) rotate(0)"><path d="M13 0H20V7L7 20H0V13L13 0Z" fill="#b0d038"/></g><rect x="644.44" y="443.06" width="40.28" height="40.28" fill="#94d6c0"/><g transform="translate(644.44,443.06) scale(2.0140000000000002) rotate(0)"><path d="M13 0H20V7L7 20H0V13L13 0Z" fill="#f1eed3"/></g><rect x="684.72" y="443.06" width="40.28" height="40.28" fill="#bce0c8"/><g transform="translate(684.72,443.06) scale(2.0140000000000002) rotate(0)"><path d="M13 0H20V7L7 20H0V13L13 0Z" fill="#c9e3cb"/></g><rect x="725" y="402.77777777777777" width="80.55555555555556" height="80.55555555555556" fill="#f5efd4"/><rect x="725" y="402.78" width="40.28" height="40.28" fill="#d9e295"/><g transform="translate(725,402.78) scale(2.0140000000000002) rotate(0)"><path fill-rule="evenodd" clip-rule="evenodd" d="M10 20C15.5228 20 20 15.5228 20 10C20 4.47715 15.5228 0 10 0C4.47715 0 0 4.47715 0 10C0 15.5228 4.47715 20 10 20ZM10 17C13.866 17 17 13.866 17 10C17 6.13401 13.866 3 10 3C6.13401 3 3 6.13401 3 10C3 13.866 6.13401 17 10 17Z" fill="#b5d244"/></g><rect x="725" y="443.06" width="40.28" height="40.28" fill="#90d5bf"/><g transform="translate(725,443.06) scale(2.0140000000000002) rotate(0)"><path fill-rule="evenodd" clip-rule="evenodd" d="M10 20C15.5228 20 20 15.5228 20 10C20 4.47715 15.5228 0 10 0C4.47715 0 0 4.47715 0 10C0 15.5228 4.47715 20 10 20ZM10 17C13.866 17 17 13.866 17 10C17 6.13401 13.866 3 10 3C6.13401 3 3 6.13401 3 10C3 13.866 6.13401 17 10 17Z" fill="#6acbb7"/></g><rect x="765.28" y="443.06" width="40.28" height="40.28" fill="#abdcc4"/><path d="M 765.28 443.06 A 40.28 40.28 0 0 0 805.56 483.34000000000003 L 805.56 443.06" fill="#94d6c0"/><rect x="805.5555555555555" y="402.77777777777777" width="80.55555555555556" height="80.55555555555556" fill="#f5efd4"/><rect x="845.83" y="402.78" width="40.28" height="40.28" fill="#e5e8b0"/><g transform="translate(845.83,402.78) scale(2.0140000000000002) rotate(0)"><path d="M10 0H20V10L10 20H0V10L10 0Z" fill="#adcf30"/></g><rect x="845.83" y="443.06" width="40.28" height="40.28" fill="#c8db6d"/><g transform="translate(845.83,443.06) scale(2.0140000000000002) rotate(0)"><path d="M10 5L5 0L0 5L5 10L0 15L5 20L10 15L15 20L20 15L15 10L20 5L15 0L10 5Z" fill="#d4e08a"/></g><rect x="886.1111111111111" y="402.77777777777777" width="80.55555555555556" height="80.55555555555556" fill="#f5efd4"/><rect x="886.11" y="402.78" width="40.28" height="40.28" fill="#b1d039"/><g transform="translate(886.11,402.78) scale(2.0140000000000002) rotate(0)"><path d="M10 5L5 0L0 5L5 10L0 15L5 20L10 15L15 20L20 15L15 10L20 5L15 0L10 5Z" fill="#d2df85"/></g><rect x="926.39" y="402.78" width="40.28" height="40.28" fill="#90d5bf"/><g transform="translate(926.39,402.78) scale(2.0140000000000002) rotate(0)"><path d="M10 0H20L0 20V10L10 0Z" fill="#d9e294"/><path d="M20 10V20H10L20 10Z" fill="#d9e294"/></g><rect x="926.39" y="443.06" width="40.28" height="40.28" fill="#7bcfba"/><path d="M 926.39 443.06 A 40.28 40.28 0 0 1 966.67 483.34000000000003 L 926.39 483.34000000000003" fill="#afd036"/><rect x="1047.2222222222222" y="402.77777777777777" width="80.55555555555556" height="80.55555555555556" fill="#f5efd4"/><rect x="1087.5" y="443.06" width="40.28" height="40.28" fill="#bee1c8"/><path d="M 1087.5 443.06 A 40.28 40.28 0 0 1 1127.78 483.34000000000003 L 1087.5 483.34000000000003" fill="#a3dac3"/><rect x="161.11111111111111" y="483.33333333333337" width="80.55555555555556" height="80.55555555555556" fill="#f5efd4"/><rect x="161.11" y="483.33" width="40.28" height="40.28" fill="#ecebbf"/><g transform="translate(161.11,483.33) scale(2.0140000000000002) rotate(0)"><path d="M10 5L5 0L0 5L5 10L0 15L5 20L10 15L15 20L20 15L15 10L20 5L15 0L10 5Z" fill="#a6dac3"/></g><rect x="201.39" y="483.33" width="40.28" height="40.28" fill="#a3dac3"/><g transform="translate(201.39,483.33) scale(2.0140000000000002) rotate(0)"><path d="M10 0H20L0 20V10L10 0Z" fill="#c7e3ca"/><path d="M20 10V20H10L20 10Z" fill="#c7e3ca"/></g><rect x="161.11" y="523.61" width="40.28" height="40.28" fill="#92d5bf"/><g transform="translate(161.11,523.61) scale(2.0140000000000002) rotate(0)"><path d="M10 5L5 0L0 5L5 10L0 15L5 20L10 15L15 20L20 15L15 10L20 5L15 0L10 5Z" fill="#6ccbb7"/></g><rect x="201.39" y="523.61" width="40.28" height="40.28" fill="#c8db6e"/><g transform="translate(201.39,523.61) scale(2.0140000000000002) rotate(0)"><path d="M13 0H20V7L7 20H0V13L13 0Z" fill="#c0d75c"/></g><rect x="241.66666666666669" y="483.33333333333337" width="80.55555555555556" height="80.55555555555556" fill="#f5efd4"/><rect x="281.94" y="483.33" width="40.28" height="40.28" fill="#abce2c"/><g transform="translate(281.94,483.33) scale(2.0140000000000002) rotate(0)"><path d="M10 0H20L0 20V10L10 0Z" fill="#f5efd4"/><path d="M20 10V20H10L20 10Z" fill="#f5efd4"/></g><rect x="241.67" y="523.61" width="40.28" height="40.28" fill="#79cfba"/><g transform="translate(241.67,523.61) scale(2.0140000000000002) rotate(0)"><path d="M10 0H20V10L10 20H0V10L10 0Z" fill="#bde0c8"/></g><rect x="402.77777777777777" y="483.33333333333337" width="80.55555555555556" height="80.55555555555556" fill="#f5efd4"/><rect x="402.78" y="483.33" width="40.28" height="40.28" fill="#bcd553"/><g transform="translate(402.78,483.33) scale(2.0140000000000002) rotate(0)"><path fill-rule="evenodd" clip-rule="evenodd" d="M10 20C15.5228 20 20 15.5228 20 10C20 4.47715 15.5228 0 10 0C4.47715 0 0 4.47715 0 10C0 15.5228 4.47715 20 10 20ZM10 17C13.866 17 17 13.866 17 10C17 6.13401 13.866 3 10 3C6.13401 3 3 6.13401 3 10C3 13.866 6.13401 17 10 17Z" fill="#d3e6cd"/></g><rect x="443.06" y="483.33" width="40.28" height="40.28" fill="#acdcc5"/><path d="M 443.06 483.33 A 40.28 40.28 0 0 1  483.34000000000003 523.61 L 443.06 483.33 A 40.28 40.28 0 0 0 483.34000000000003 523.61" fill="#a9cd27"/><rect x="402.78" y="523.61" width="40.28" height="40.28" fill="#dae398"/><g transform="translate(402.78,523.61) scale(2.0140000000000002) rotate(0)"><path d="M10 0H20L0 20V10L10 0Z" fill="#76ceb9"/><path d="M20 10V20H10L20 10Z" fill="#76ceb9"/></g><rect x="443.06" y="523.61" width="40.28" height="40.28" fill="#a3dac3"/><path d="M 443.06 523.61 A 40.28 40.28 0 0 0 483.34000000000003 563.89 L 483.34000000000003 523.61" fill="#cee5cc"/><rect x="483.33333333333337" y="483.33333333333337" width="80.55555555555556" height="80.55555555555556" fill="#f5efd4"/><rect x="483.33" y="483.33" width="40.28" height="40.28" fill="#95d6c0"/><g transform="translate(483.33,483.33) scale(2.0140000000000002) rotate(0)"><path d="M10 5L5 0L0 5L5 10L0 15L5 20L10 15L15 20L20 15L15 10L20 5L15 0L10 5Z" fill="#cedd7b"/></g><rect x="483.33" y="523.61" width="40.28" height="40.28" fill="#51c4b2"/><g transform="translate(483.33,523.61) scale(2.0140000000000002) rotate(0)"><path d="M10 5L5 0L0 5L5 10L0 15L5 20L10 15L15 20L20 15L15 10L20 5L15 0L10 5Z" fill="#62c9b5"/></g><rect x="523.61" y="523.61" width="40.28" height="40.28" fill="#bfd75a"/><g transform="translate(523.61,523.61) scale(2.0140000000000002) rotate(0)"><path d="M10 0H20L0 20V10L10 0Z" fill="#dde49e"/><path d="M20 10V20H10L20 10Z" fill="#dde49e"/></g><rect x="805.5555555555555" y="483.33333333333337" width="80.55555555555556" height="80.55555555555556" fill="#f5efd4"/><rect x="845.83" y="483.33" width="40.28" height="40.28" fill="#abce2d"/><g transform="translate(845.83,483.33) scale(2.0140000000000002) rotate(0)"><path d="M10 5L5 0L0 5L5 10L0 15L5 20L10 15L15 20L20 15L15 10L20 5L15 0L10 5Z" fill="#82d1bc"/></g><rect x="805.56" y="523.61" width="40.28" height="40.28" fill="#d9e294"/><g transform="translate(805.56,523.61) scale(2.0140000000000002) rotate(0)"><path d="M10 0H20L0 20V10L10 0Z" fill="#b1d039"/><path d="M20 10V20H10L20 10Z" fill="#b1d039"/></g><rect x="845.83" y="523.61" width="40.28" height="40.28" fill="#69cab7"/><g transform="translate(845.83,523.61) scale(2.0140000000000002) rotate(0)"><path d="M10 0H20V10L10 20H0V10L10 0Z" fill="#79ceba"/></g><rect x="1208.3333333333333" y="483.33333333333337" width="80.55555555555556" height="80.55555555555556" fill="#f5efd4"/><rect x="1208.33" y="483.33" width="40.28" height="40.28" fill="#4bc2b0"/><g transform="translate(1208.33,483.33) scale(2.0140000000000002) rotate(0)"><path d="M10 5L5 0L0 5L5 10L0 15L5 20L10 15L15 20L20 15L15 10L20 5L15 0L10 5Z" fill="#85d2bd"/></g><rect x="1248.61" y="483.33" width="40.28" height="40.28" fill="#edebc2"/><g transform="translate(1248.61,483.33) scale(2.0140000000000002) rotate(0)"><path fill-rule="evenodd" clip-rule="evenodd" d="M10 20C15.5228 20 20 15.5228 20 10C20 4.47715 15.5228 0 10 0C4.47715 0 0 4.47715 0 10C0 15.5228 4.47715 20 10 20ZM10 17C13.866 17 17 13.866 17 10C17 6.13401 13.866 3 10 3C6.13401 3 3 6.13401 3 10C3 13.866 6.13401 17 10 17Z" fill="#98d7c1"/></g><rect x="1248.61" y="523.61" width="40.28" height="40.28" fill="#84d2bc"/><g transform="translate(1248.61,523.61) scale(2.0140000000000002) rotate(0)"><path d="M10 5L5 0L0 5L5 10L0 15L5 20L10 15L15 20L20 15L15 10L20 5L15 0L10 5Z" fill="#b8dfc7"/></g><rect x="80.55555555555556" y="563.8888888888889" width="80.55555555555556" height="80.55555555555556" fill="#f5efd4"/><rect x="80.56" y="563.89" width="40.28" height="40.28" fill="#ccdd78"/><g transform="translate(80.56,563.89) scale(2.0140000000000002) rotate(0)"><path d="M10 0H20V10L10 20H0V10L10 0Z" fill="#a0d9c2"/></g><rect x="120.83" y="604.17" width="40.28" height="40.28" fill="#b9d44d"/><g transform="translate(120.83,604.17) scale(2.0140000000000002) rotate(0)"><path d="M10 5L5 0L0 5L5 10L0 15L5 20L10 15L15 20L20 15L15 10L20 5L15 0L10 5Z" fill="#e2ead0"/></g><rect x="483.33333333333337" y="563.8888888888889" width="80.55555555555556" height="80.55555555555556" fill="#f5efd4"/><rect x="483.33" y="563.89" width="40.28" height="40.28" fill="#d8e7ce"/><g transform="translate(483.33,563.89) scale(2.0140000000000002) rotate(0)"><path d="M13 0H20V7L7 20H0V13L13 0Z" fill="#b7d348"/></g><rect x="523.61" y="563.89" width="40.28" height="40.28" fill="#c6da69"/><g transform="translate(523.61,563.89) scale(2.0140000000000002) rotate(0)"><path d="M10 0H20V10L10 20H0V10L10 0Z" fill="#b4d240"/></g><rect x="483.33" y="604.17" width="40.28" height="40.28" fill="#adcf30"/><g transform="translate(483.33,604.17) scale(2.0140000000000002) rotate(0)"><path d="M10 0H20L0 20V10L10 0Z" fill="#d8e292"/><path d="M20 10V20H10L20 10Z" fill="#d8e292"/></g><rect x="523.61" y="604.17" width="40.28" height="40.28" fill="#4ac2b0"/><g transform="translate(523.61,604.17) scale(2.0140000000000002) rotate(0)"><path d="M10 0H20V10L10 20H0V10L10 0Z" fill="#e4e7ae"/></g><rect x="644.4444444444445" y="563.8888888888889" width="80.55555555555556" height="80.55555555555556" fill="#f5efd4"/><rect x="644.44" y="604.17" width="40.28" height="40.28" fill="#60c8b5"/><g transform="translate(644.44,604.17) scale(2.0140000000000002) rotate(0)"><path fill-rule="evenodd" clip-rule="evenodd" d="M10 20C15.5228 20 20 15.5228 20 10C20 4.47715 15.5228 0 10 0C4.47715 0 0 4.47715 0 10C0 15.5228 4.47715 20 10 20ZM10 17C13.866 17 17 13.866 17 10C17 6.13401 13.866 3 10 3C6.13401 3 3 6.13401 3 10C3 13.866 6.13401 17 10 17Z" fill="#e1ead0"/></g><rect x="684.72" y="604.17" width="40.28" height="40.28" fill="#cee5cc"/><g transform="translate(684.72,604.17) scale(2.0140000000000002) rotate(0)"><path d="M13 0H20V7L7 20H0V13L13 0Z" fill="#55c5b2"/></g><rect x="725" y="563.8888888888889" width="80.55555555555556" height="80.55555555555556" fill="#f5efd4"/><rect x="725" y="563.89" width="40.28" height="40.28" fill="#aacd29"/><g transform="translate(725,563.89) scale(2.0140000000000002) rotate(0)"><path d="M10 5L5 0L0 5L5 10L0 15L5 20L10 15L15 20L20 15L15 10L20 5L15 0L10 5Z" fill="#d4e6cd"/></g><rect x="765.28" y="563.89" width="40.28" height="40.28" fill="#adcf31"/><g transform="translate(765.28,563.89) scale(2.0140000000000002) rotate(0)"><path fill-rule="evenodd" clip-rule="evenodd" d="M10 20C15.5228 20 20 15.5228 20 10C20 4.47715 15.5228 0 10 0C4.47715 0 0 4.47715 0 10C0 15.5228 4.47715 20 10 20ZM10 17C13.866 17 17 13.866 17 10C17 6.13401 13.866 3 10 3C6.13401 3 3 6.13401 3 10C3 13.866 6.13401 17 10 17Z" fill="#ebecd2"/></g><rect x="725" y="604.17" width="40.28" height="40.28" fill="#4ec3b1"/><g transform="translate(725,604.17) scale(2.0140000000000002) rotate(0)"><path d="M13 0H20V7L7 20H0V13L13 0Z" fill="#a9cd28"/></g><rect x="805.5555555555555" y="563.8888888888889" width="80.55555555555556" height="80.55555555555556" fill="#f5efd4"/><rect x="845.83" y="563.89" width="40.28" height="40.28" fill="#b5d242"/><g transform="translate(845.83,563.89) scale(2.0140000000000002) rotate(0)"><path fill-rule="evenodd" clip-rule="evenodd" d="M10 20C15.5228 20 20 15.5228 20 10C20 4.47715 15.5228 0 10 0C4.47715 0 0 4.47715 0 10C0 15.5228 4.47715 20 10 20ZM10 17C13.866 17 17 13.866 17 10C17 6.13401 13.866 3 10 3C6.13401 3 3 6.13401 3 10C3 13.866 6.13401 17 10 17Z" fill="#c0d75c"/></g><rect x="805.56" y="604.17" width="40.28" height="40.28" fill="#c6da68"/><g transform="translate(805.56,604.17) scale(2.0140000000000002) rotate(0)"><path d="M10 0H20L0 20V10L10 0Z" fill="#acce2f"/><path d="M20 10V20H10L20 10Z" fill="#acce2f"/></g><rect x="966.6666666666667" y="563.8888888888889" width="80.55555555555556" height="80.55555555555556" fill="#f5efd4"/><rect x="966.67" y="563.89" width="40.28" height="40.28" fill="#5ac7b4"/><g transform="translate(966.67,563.89) scale(2.0140000000000002) rotate(0)"><path fill-rule="evenodd" clip-rule="evenodd" d="M10 20C15.5228 20 20 15.5228 20 10C20 4.47715 15.5228 0 10 0C4.47715 0 0 4.47715 0 10C0 15.5228 4.47715 20 10 20ZM10 17C13.866 17 17 13.866 17 10C17 6.13401 13.866 3 10 3C6.13401 3 3 6.13401 3 10C3 13.866 6.13401 17 10 17Z" fill="#c5d967"/></g><rect x="1006.94" y="563.89" width="40.28" height="40.28" fill="#b6dfc7"/><path d="M 1006.94 563.89 A 40.28 40.28 0 0 1  1047.22 604.17 L 1006.94 563.89 A 40.28 40.28 0 0 0 1047.22 604.17" fill="#a8cc24"/><rect x="966.67" y="604.17" width="40.28" height="40.28" fill="#a9cd28"/><g transform="translate(966.67,604.17) scale(2.0140000000000002) rotate(0)"><path d="M10 5L5 0L0 5L5 10L0 15L5 20L10 15L15 20L20 15L15 10L20 5L15 0L10 5Z" fill="#dfe5a1"/></g><rect x="1006.94" y="604.17" width="40.28" height="40.28" fill="#a9cd27"/><g transform="translate(1006.94,604.17) scale(2.0140000000000002) rotate(0)"><path fill-rule="evenodd" clip-rule="evenodd" d="M10 20C15.5228 20 20 15.5228 20 10C20 4.47715 15.5228 0 10 0C4.47715 0 0 4.47715 0 10C0 15.5228 4.47715 20 10 20ZM10 17C13.866 17 17 13.866 17 10C17 6.13401 13.866 3 10 3C6.13401 3 3 6.13401 3 10C3 13.866 6.13401 17 10 17Z" fill="#bbe0c8"/></g><rect x="1047.2222222222222" y="563.8888888888889" width="80.55555555555556" height="80.55555555555556" fill="#f5efd4"/><rect x="1047.22" y="563.89" width="40.28" height="40.28" fill="#dfe5a3"/><g transform="translate(1047.22,563.89) scale(2.0140000000000002) rotate(0)"><path d="M13 0H20V7L7 20H0V13L13 0Z" fill="#8cd4be"/></g><rect x="1047.22" y="604.17" width="40.28" height="40.28" fill="#a8cc25"/><g transform="translate(1047.22,604.17) scale(2.0140000000000002) rotate(0)"><path d="M10 5L5 0L0 5L5 10L0 15L5 20L10 15L15 20L20 15L15 10L20 5L15 0L10 5Z" fill="#71cdb8"/></g><rect x="1208.3333333333333" y="563.8888888888889" width="80.55555555555556" height="80.55555555555556" fill="#f5efd4"/><rect x="1208.33" y="563.89" width="40.28" height="40.28" fill="#c1d85f"/><g transform="translate(1208.33,563.89) scale(2.0140000000000002) rotate(0)"><path d="M10 0H20L0 20V10L10 0Z" fill="#d3e6cd"/><path d="M20 10V20H10L20 10Z" fill="#d3e6cd"/></g><rect x="1248.61" y="563.89" width="40.28" height="40.28" fill="#e3ead0"/><path d="M 1248.61 604.17 A 40.28 40.28 0 0 1  1288.8899999999999 563.89 L 1248.61 604.17 A 40.28 40.28 0 0 0 1288.8899999999999 563.89" fill="#f5efd4"/><rect x="1208.33" y="604.17" width="40.28" height="40.28" fill="#5dc7b4"/><g transform="translate(1208.33,604.17) scale(2.0140000000000002) rotate(0)"><path fill-rule="evenodd" clip-rule="evenodd" d="M10 20C15.5228 20 20 15.5228 20 10C20 4.47715 15.5228 0 10 0C4.47715 0 0 4.47715 0 10C0 15.5228 4.47715 20 10 20ZM10 17C13.866 17 17 13.866 17 10C17 6.13401 13.866 3 10 3C6.13401 3 3 6.13401 3 10C3 13.866 6.13401 17 10 17Z" fill="#52c4b2"/></g><rect x="1248.61" y="604.17" width="40.28" height="40.28" fill="#d7e290"/><g transform="translate(1248.61,604.17) scale(2.0140000000000002) rotate(0)"><path d="M13 0H20V7L7 20H0V13L13 0Z" fill="#9bd7c1"/></g><rect x="402.77777777777777" y="644.4444444444445" width="80.55555555555556" height="80.55555555555556" fill="#f5efd4"/><rect x="402.78" y="644.44" width="40.28" height="40.28" fill="#f4eed1"/><path d="M 402.78 684.72 A 40.28 40.28 0 0 0 443.05999999999995 644.44 L 402.78 644.44" fill="#ededd2"/><rect x="443.06" y="644.44" width="40.28" height="40.28" fill="#dbe39a"/><path d="M 443.06 644.44 A 40.28 40.28 0 0 1  483.34000000000003 684.72 L 443.06 644.44 A 40.28 40.28 0 0 0 483.34000000000003 684.72" fill="#cfde7d"/><rect x="443.06" y="684.72" width="40.28" height="40.28" fill="#bcd553"/><g transform="translate(443.06,684.72) scale(2.0140000000000002) rotate(0)"><path d="M13 0H20V7L7 20H0V13L13 0Z" fill="#c0e1c9"/></g><rect x="563.8888888888889" y="644.4444444444445" width="80.55555555555556" height="80.55555555555556" fill="#f5efd4"/><rect x="563.89" y="644.44" width="40.28" height="40.28" fill="#dee49f"/><g transform="translate(563.89,644.44) scale(2.0140000000000002) rotate(0)"><path d="M10 5L5 0L0 5L5 10L0 15L5 20L10 15L15 20L20 15L15 10L20 5L15 0L10 5Z" fill="#78ceba"/></g><rect x="604.17" y="644.44" width="40.28" height="40.28" fill="#c7db6d"/><g transform="translate(604.17,644.44) scale(2.0140000000000002) rotate(0)"><path d="M10 0H20L0 20V10L10 0Z" fill="#f2eed3"/><path d="M20 10V20H10L20 10Z" fill="#f2eed3"/></g><rect x="563.89" y="684.72" width="40.28" height="40.28" fill="#e6ebd1"/><g transform="translate(563.89,684.72) scale(2.0140000000000002) rotate(0)"><path d="M10 0H20V10L10 20H0V10L10 0Z" fill="#b6dfc7"/></g><rect x="604.17" y="684.72" width="40.28" height="40.28" fill="#aacd2a"/><g transform="translate(604.17,684.72) scale(2.0140000000000002) rotate(0)"><path d="M10 0H20L0 20V10L10 0Z" fill="#d2df84"/><path d="M20 10V20H10L20 10Z" fill="#d2df84"/></g><rect x="644.4444444444445" y="644.4444444444445" width="80.55555555555556" height="80.55555555555556" fill="#f5efd4"/><rect x="684.72" y="644.44" width="40.28" height="40.28" fill="#a8cc24"/><g transform="translate(684.72,644.44) scale(2.0140000000000002) rotate(0)"><path fill-rule="evenodd" clip-rule="evenodd" d="M10 20C15.5228 20 20 15.5228 20 10C20 4.47715 15.5228 0 10 0C4.47715 0 0 4.47715 0 10C0 15.5228 4.47715 20 10 20ZM10 17C13.866 17 17 13.866 17 10C17 6.13401 13.866 3 10 3C6.13401 3 3 6.13401 3 10C3 13.866 6.13401 17 10 17Z" fill="#e2e7a9"/></g><rect x="684.72" y="684.72" width="40.28" height="40.28" fill="#e3e7ab"/><path d="M 684.72 725 A 40.28 40.28 0 0 1  725 684.72 L 725 725" fill="#c6da6a"/><rect x="725" y="644.4444444444445" width="80.55555555555556" height="80.55555555555556" fill="#f5efd4"/><rect x="725" y="644.44" width="40.28" height="40.28" fill="#4cc3b1"/><path d="M 725 684.72 A 40.28 40.28 0 0 0 765.28 644.44 L 725 644.44" fill="#b7d347"/><rect x="725" y="684.72" width="40.28" height="40.28" fill="#eeedd3"/><g transform="translate(725,684.72) scale(2.0140000000000002) rotate(0)"><path d="M10 0H20V10L10 20H0V10L10 0Z" fill="#a4dac3"/></g><rect x="966.6666666666667" y="644.4444444444445" width="80.55555555555556" height="80.55555555555556" fill="#f5efd4"/><rect x="1006.94" y="684.72" width="40.28" height="40.28" fill="#96d6c0"/><g transform="translate(1006.94,684.72) scale(2.0140000000000002) rotate(0)"><path d="M10 0H20V10L10 20H0V10L10 0Z" fill="#b5d242"/></g><rect x="1047.2222222222222" y="644.4444444444445" width="80.55555555555556" height="80.55555555555556" fill="#f5efd4"/><rect x="1087.5" y="644.44" width="40.28" height="40.28" fill="#bce0c8"/><g transform="translate(1087.5,644.44) scale(2.0140000000000002) rotate(0)"><path fill-rule="evenodd" clip-rule="evenodd" d="M10 20C15.5228 20 20 15.5228 20 10C20 4.47715 15.5228 0 10 0C4.47715 0 0 4.47715 0 10C0 15.5228 4.47715 20 10 20ZM10 17C13.866 17 17 13.866 17 10C17 6.13401 13.866 3 10 3C6.13401 3 3 6.13401 3 10C3 13.866 6.13401 17 10 17Z" fill="#d0e5cc"/></g><rect x="1047.22" y="684.72" width="40.28" height="40.28" fill="#70ccb8"/><g transform="translate(1047.22,684.72) scale(2.0140000000000002) rotate(0)"><path d="M10 0H20L0 20V10L10 0Z" fill="#4fc3b1"/><path d="M20 10V20H10L20 10Z" fill="#4fc3b1"/></g><rect x="1087.5" y="684.72" width="40.28" height="40.28" fill="#bbd551"/><g transform="translate(1087.5,684.72) scale(2.0140000000000002) rotate(0)"><path fill-rule="evenodd" clip-rule="evenodd" d="M10 20C15.5228 20 20 15.5228 20 10C20 4.47715 15.5228 0 10 0C4.47715 0 0 4.47715 0 10C0 15.5228 4.47715 20 10 20ZM10 17C13.866 17 17 13.866 17 10C17 6.13401 13.866 3 10 3C6.13401 3 3 6.13401 3 10C3 13.866 6.13401 17 10 17Z" fill="#b7d348"/></g></g></svg>