<?xml version="1.0" standalone="no"?><svg xmlns:xlink="http://www.w3.org/1999/xlink" xmlns="http://www.w3.org/2000/svg" viewBox="0 0 1000 529.4096169995254" preserveAspectRatio="xMaxYMax slice"><g transform="scale(0.7302201613786556)"><rect x="0" y="0" width="1450" height="725" fill="#f5efd4"/><rect x="20.13888888888889" y="20.13888888888889" width="40.27777777777778" height="40.27777777777778" fill="#f5efd4"/><rect x="100.69444444444444" y="20.13888888888889" width="40.27777777777778" height="40.27777777777778" fill="#f5efd4"/><g transform="translate(120.83,20.14) scale(1.0070000000000001) rotate(0)"><path d="M13 0H20V7L7 20H0V13L13 0Z" fill="#e0e5a4"/></g><rect x="261.8055555555556" y="20.13888888888889" width="40.27777777777778" height="40.27777777777778" fill="#f5efd4"/><g transform="translate(281.94,20.14) scale(1.0070000000000001) rotate(0)"><path d="M5 0H10L5 5L0 10V5L5 0Z" fill="#f3eece"/><path d="M20 15V20H15L20 15Z" fill="#f3eece"/><path d="M20 5V10L15 15L10 20H5L20 5Z" fill="#f3eece"/><path d="M15 0H20L5 15.0002L0 20.0002V15.0002L15 0Z" fill="#f3eece"/></g><rect x="503.4722222222223" y="20.13888888888889" width="40.27777777777778" height="40.27777777777778" fill="#f5efd4"/><g transform="translate(523.61,20.14) scale(1.0070000000000001) rotate(0)"><path d="M10 0L20 10L10 20L0 10L10 0Z" fill="#d9e8ce"/></g><g transform="translate(503.47,40.28) scale(1.0070000000000001) rotate(0)"><path d="M10 0H20L0 20V10L10 0Z" fill="#92d5bf"/><path d="M20 10V20H10L20 10Z" fill="#92d5bf"/></g><rect x="584.0277777777778" y="20.13888888888889" width="40.27777777777778" height="40.27777777777778" fill="#f5efd4"/><rect x="745.1388888888889" y="20.13888888888889" width="40.27777777777778" height="40.27777777777778" fill="#f5efd4"/><g transform="translate(745.14,20.14) scale(1.0070000000000001) rotate(0)"><path d="M13 0H20V7L7 20H0V13L13 0Z" fill="#d1df82"/></g><path d="M 765.28 40.28 A 20.14 20.14 0 0 0 785.42 20.14 L 765.28 20.14" fill="#6fccb8"/><rect x="986.8055555555557" y="20.13888888888889" width="40.27777777777778" height="40.27777777777778" fill="#f5efd4"/><g transform="translate(1006.94,20.14) scale(1.0070000000000001) rotate(0)"><path d="M10 0H20L0 20V10L10 0Z" fill="#abce2d"/><path d="M20 10V20H10L20 10Z" fill="#abce2d"/></g><rect x="1067.361111111111" y="20.13888888888889" width="40.27777777777778" height="40.27777777777778" fill="#f5efd4"/><g transform="translate(1067.36,40.28) scale(1.0070000000000001) rotate(0)"><path d="M10 0L20 10L10 20L0 10L10 0Z" fill="#bdd655"/></g><rect x="1309.0277777777778" y="20.13888888888889" width="40.27777777777778" height="40.27777777777778" fill="#f5efd4"/><path d="M 1309.03 20.14 A 20.14 20.14 0 0 0 1329.17 40.28 L 1329.17 20.14" fill="#b1d03a"/><rect x="20.13888888888889" y="100.69444444444444" width="40.27777777777778" height="40.27777777777778" fill="#f5efd4"/><rect x="664.5833333333334" y="100.69444444444444" width="40.27777777777778" height="40.27777777777778" fill="#f5efd4"/><polygon points="684.72,120.83 704.86,120.83 684.72,140.97" fill="#c0e1c9"/><rect x="1067.361111111111" y="100.69444444444444" width="40.27777777777778" height="40.27777777777778" fill="#f5efd4"/><g transform="translate(1067.36,100.69) scale(1.0070000000000001) rotate(0)"><rect width="20" height="2" fill="#c0e1c9"/><rect y="4" width="20" height="2" fill="#c0e1c9"/><rect y="8" width="20" height="2" fill="#c0e1c9"/><rect y="12" width="20" height="2" fill="#c0e1c9"/><rect y="16" width="20" height="2" fill="#c0e1c9"/></g><g transform="translate(1087.5,100.69) scale(1.0070000000000001) rotate(0)"><path d="M13 0H20V7L7 20H0V13L13 0Z" fill="#84d1bc"/></g><rect x="1087.5" y="120.83" width="20.14" height="20.14" fill="#d5e7cd"/><rect x="20.13888888888889" y="181.25" width="40.27777777777778" height="40.27777777777778" fill="#f5efd4"/><rect x="261.8055555555556" y="181.25" width="40.27777777777778" height="40.27777777777778" fill="#f5efd4"/><rect x="261.81" y="181.25" width="20.14" height="20.14" fill="#f5efd4"/><rect x="342.36111111111114" y="181.25" width="40.27777777777778" height="40.27777777777778" fill="#f5efd4"/><rect x="422.9166666666667" y="181.25" width="40.27777777777778" height="40.27777777777778" fill="#f5efd4"/><rect x="664.5833333333334" y="181.25" width="40.27777777777778" height="40.27777777777778" fill="#f5efd4"/><g transform="translate(664.58,181.25) scale(1.0070000000000001) rotate(0)"><path d="M10 0L20 10L10 20L0 10L10 0Z" fill="#e5e8af"/></g><rect x="684.72" y="181.25" width="20.14" height="20.14" fill="#7ed0bb"/><polygon points="684.72,201.39 704.86,201.39 704.86,221.52999999999997" fill="#d2df84"/><rect x="745.1388888888889" y="181.25" width="40.27777777777778" height="40.27777777777778" fill="#f5efd4"/><rect x="1067.361111111111" y="181.25" width="40.27777777777778" height="40.27777777777778" fill="#f5efd4"/><g transform="translate(1087.5,181.25) scale(1.0070000000000001) rotate(0)"><path d="M10 0H20L0 20V10L10 0Z" fill="#83d1bc"/><path d="M20 10V20H10L20 10Z" fill="#83d1bc"/></g><rect x="20.13888888888889" y="261.8055555555556" width="40.27777777777778" height="40.27777777777778" fill="#f5efd4"/><g transform="translate(40.28,261.81) scale(1.0070000000000001) rotate(0)"><path d="M10 0H20L0 20V10L10 0Z" fill="#dbe399"/><path d="M20 10V20H10L20 10Z" fill="#dbe399"/></g><g transform="translate(20.14,281.94) scale(1.0070000000000001) rotate(0)"><rect width="20" height="2" fill="#bed657"/><rect y="4" width="20" height="2" fill="#bed657"/><rect y="8" width="20" height="2" fill="#bed657"/><rect y="12" width="20" height="2" fill="#bed657"/><rect y="16" width="20" height="2" fill="#bed657"/></g><rect x="261.8055555555556" y="261.8055555555556" width="40.27777777777778" height="40.27777777777778" fill="#f5efd4"/><g transform="translate(261.81,261.81) scale(1.0070000000000001) rotate(0)"><path d="M10 0H20L0 20V10L10 0Z" fill="#aedcc5"/><path d="M20 10V20H10L20 10Z" fill="#aedcc5"/></g><g transform="translate(281.94,261.81) scale(1.0070000000000001) rotate(0)"><path d="M13 0H20V7L7 20H0V13L13 0Z" fill="#d0de80"/></g><polygon points="281.94,281.94 302.08,302.08 281.94,302.08" fill="#e7ebd1"/><rect x="584.0277777777778" y="261.8055555555556" width="40.27777777777778" height="40.27777777777778" fill="#f5efd4"/><g transform="translate(584.03,261.81) scale(1.0070000000000001) rotate(0)"><path d="M10 0L20 10L10 20L0 10L10 0Z" fill="#80d0bb"/></g><rect x="604.17" y="261.81" width="20.14" height="20.14" fill="#bce0c8"/><g transform="translate(604.17,281.94) scale(1.0070000000000001) rotate(0)"><path d="M10 0L20 10L10 20L0 10L10 0Z" fill="#85d2bc"/></g><rect x="664.5833333333334" y="261.8055555555556" width="40.27777777777778" height="40.27777777777778" fill="#f5efd4"/><rect x="745.1388888888889" y="261.8055555555556" width="40.27777777777778" height="40.27777777777778" fill="#f5efd4"/><rect x="745.14" y="261.81" width="20.14" height="20.14" fill="#a8cd26"/><g transform="translate(745.14,281.94) scale(1.0070000000000001) rotate(0)"><path d="M10 0H20L0 20V10L10 0Z" fill="#7dd0bb"/><path d="M20 10V20H10L20 10Z" fill="#7dd0bb"/></g><rect x="986.8055555555557" y="261.8055555555556" width="40.27777777777778" height="40.27777777777778" fill="#f5efd4"/><path d="M 1006.94 302.08 A 20.14 20.14 0 0 0 1027.0800000000002 281.94 L 1006.94 281.94" fill="#83d1bc"/><rect x="1309.0277777777778" y="261.8055555555556" width="40.27777777777778" height="40.27777777777778" fill="#f5efd4"/><path d="M 1309.03 302.08 A 20.14 20.14 0 0 1  1329.17 281.94 L 1309.03 302.08 A 20.14 20.14 0 0 0 1329.17 281.94" fill="#c0d75c"/><rect x="1389.5833333333335" y="261.8055555555556" width="40.27777777777778" height="40.27777777777778" fill="#f5efd4"/><polygon points="1409.72,261.81 1429.8600000000001,281.95 1409.72,281.95" fill="#64c9b6"/><g transform="translate(1409.72,281.94) scale(1.0070000000000001) rotate(0)"><path d="M10 0H20L0 20V10L10 0Z" fill="#a8cd26"/><path d="M20 10V20H10L20 10Z" fill="#a8cd26"/></g><rect x="261.8055555555556" y="342.36111111111114" width="40.27777777777778" height="40.27777777777778" fill="#f5efd4"/><path d="M 261.81 362.5 A 20.14 20.14 0 0 1  281.95 382.64 L 261.81 362.5 A 20.14 20.14 0 0 0 281.95 382.64" fill="#9fd8c2"/><rect x="342.36111111111114" y="342.36111111111114" width="40.27777777777778" height="40.27777777777778" fill="#f5efd4"/><g transform="translate(362.5,342.36) scale(1.0070000000000001) rotate(0)"><path d="M13 0H20V7L7 20H0V13L13 0Z" fill="#52c4b2"/></g><rect x="422.9166666666667" y="342.36111111111114" width="40.27777777777778" height="40.27777777777778" fill="#f5efd4"/><g transform="translate(422.92,342.36) scale(1.0070000000000001) rotate(0)"><path d="M13 0H20V7L7 20H0V13L13 0Z" fill="#6bcbb7"/></g><rect x="503.4722222222223" y="342.36111111111114" width="40.27777777777778" height="40.27777777777778" fill="#f5efd4"/><g transform="translate(503.47,362.5) scale(1.0070000000000001) rotate(0)"><path d="M10 0L20 10L10 20L0 10L10 0Z" fill="#98d7c1"/></g><g transform="translate(523.61,362.5) scale(1.0070000000000001) rotate(0)"><path fill-rule="evenodd" clip-rule="evenodd" d="M10 20C15.5228 20 20 15.5228 20 10C20 4.47715 15.5228 0 10 0C4.47715 0 0 4.47715 0 10C0 15.5228 4.47715 20 10 20ZM10 17C13.866 17 17 13.866 17 10C17 6.13401 13.866 3 10 3C6.13401 3 3 6.13401 3 10C3 13.866 6.13401 17 10 17Z" fill="#69cab7"/></g><rect x="1147.9166666666667" y="342.36111111111114" width="40.27777777777778" height="40.27777777777778" fill="#f5efd4"/><rect x="1168.06" y="362.5" width="20.14" height="20.14" fill="#cee5cc"/><rect x="1228.4722222222222" y="342.36111111111114" width="40.27777777777778" height="40.27777777777778" fill="#f5efd4"/><g transform="translate(1228.47,342.36) scale(1.0070000000000001) rotate(0)"><path d="M5 0H10L5 5L0 10V5L5 0Z" fill="#5fc8b5"/><path d="M20 15V20H15L20 15Z" fill="#5fc8b5"/><path d="M20 5V10L15 15L10 20H5L20 5Z" fill="#5fc8b5"/><path d="M15 0H20L5 15.0002L0 20.0002V15.0002L15 0Z" fill="#5fc8b5"/></g><g transform="translate(1228.47,362.5) scale(1.0070000000000001) rotate(0)"><path d="M10 0L20 10L10 20L0 10L10 0Z" fill="#b7dfc7"/></g><rect x="1309.0277777777778" y="342.36111111111114" width="40.27777777777778" height="40.27777777777778" fill="#f5efd4"/><polygon points="1349.3100000000002,362.5 1349.3100000000002,382.64 1329.17,382.64" fill="#68cab6"/><rect x="20.13888888888889" y="422.9166666666667" width="40.27777777777778" height="40.27777777777778" fill="#f5efd4"/><rect x="181.25" y="422.9166666666667" width="40.27777777777778" height="40.27777777777778" fill="#f5efd4"/><g transform="translate(181.25,443.06) scale(1.0070000000000001) rotate(0)"><path fill-rule="evenodd" clip-rule="evenodd" d="M10 20C15.5228 20 20 15.5228 20 10C20 4.47715 15.5228 0 10 0C4.47715 0 0 4.47715 0 10C0 15.5228 4.47715 20 10 20ZM10 17C13.866 17 17 13.866 17 10C17 6.13401 13.866 3 10 3C6.13401 3 3 6.13401 3 10C3 13.866 6.13401 17 10 17Z" fill="#d7e290"/></g><rect x="422.9166666666667" y="422.9166666666667" width="40.27777777777778" height="40.27777777777778" fill="#f5efd4"/><g transform="translate(443.06,443.06) scale(1.0070000000000001) rotate(0)"><path d="M13 0H20V7L7 20H0V13L13 0Z" fill="#d0e5cc"/></g><rect x="503.4722222222223" y="422.9166666666667" width="40.27777777777778" height="40.27777777777778" fill="#f5efd4"/><rect x="745.1388888888889" y="422.9166666666667" width="40.27777777777778" height="40.27777777777778" fill="#f5efd4"/><g transform="translate(745.14,422.92) scale(1.0070000000000001) rotate(0)"><path d="M10 0L20 10L10 20L0 10L10 0Z" fill="#b3d13f"/></g><polygon points="765.28,422.92 785.42,443.06 765.28,443.06" fill="#b4d240"/><rect x="825.6944444444445" y="422.9166666666667" width="40.27777777777778" height="40.27777777777778" fill="#f5efd4"/><path d="M 825.69 443.06 A 20.14 20.14 0 0 1  845.83 422.92 L 845.83 443.06" fill="#f2eece"/><g transform="translate(825.69,443.06) scale(1.0070000000000001) rotate(0)"><path d="M13 0H20V7L7 20H0V13L13 0Z" fill="#dce49c"/></g><path d="M 845.83 443.06 A 20.14 20.14 0 0 1 865.97 463.2 L 845.83 463.2" fill="#a7cc24"/><rect x="906.25" y="422.9166666666667" width="40.27777777777778" height="40.27777777777778" fill="#f5efd4"/><rect x="1309.0277777777778" y="422.9166666666667" width="40.27777777777778" height="40.27777777777778" fill="#f5efd4"/><rect x="1389.5833333333335" y="422.9166666666667" width="40.27777777777778" height="40.27777777777778" fill="#f5efd4"/><rect x="20.13888888888889" y="503.4722222222223" width="40.27777777777778" height="40.27777777777778" fill="#f5efd4"/><path d="M 20.14 523.61 A 20.14 20.14 0 0 0 40.28 543.75 L 40.28 523.61" fill="#f5efd4"/><rect x="181.25" y="503.4722222222223" width="40.27777777777778" height="40.27777777777778" fill="#f5efd4"/><polygon points="181.25,503.47 201.39,503.47 201.39,523.61" fill="#e4e7ad"/><g transform="translate(201.39,503.47) scale(1.0070000000000001) rotate(0)"><rect width="20" height="2" fill="#f2eece"/><rect y="4" width="20" height="2" fill="#f2eece"/><rect y="8" width="20" height="2" fill="#f2eece"/><rect y="12" width="20" height="2" fill="#f2eece"/><rect y="16" width="20" height="2" fill="#f2eece"/></g><rect x="342.36111111111114" y="503.4722222222223" width="40.27777777777778" height="40.27777777777778" fill="#f5efd4"/><polygon points="362.5,503.47 382.64,503.47 362.5,523.61" fill="#dbe398"/><rect x="503.4722222222223" y="503.4722222222223" width="40.27777777777778" height="40.27777777777778" fill="#f5efd4"/><rect x="503.47" y="503.47" width="20.14" height="20.14" fill="#ebeabd"/><rect x="1067.361111111111" y="503.4722222222223" width="40.27777777777778" height="40.27777777777778" fill="#f5efd4"/><path d="M 1067.36 523.61 A 20.14 20.14 0 0 1  1087.5 543.75 L 1067.36 523.61 A 20.14 20.14 0 0 0 1087.5 543.75" fill="#90d4bf"/><rect x="100.69444444444444" y="584.0277777777778" width="40.27777777777778" height="40.27777777777778" fill="#f5efd4"/><rect x="100.69" y="584.03" width="20.14" height="20.14" fill="#84d2bc"/><rect x="181.25" y="584.0277777777778" width="40.27777777777778" height="40.27777777777778" fill="#f5efd4"/><rect x="201.39" y="584.03" width="20.14" height="20.14" fill="#e9eab9"/><rect x="422.9166666666667" y="584.0277777777778" width="40.27777777777778" height="40.27777777777778" fill="#f5efd4"/><path d="M 443.06 584.03 A 20.14 20.14 0 0 1  463.2 604.17 L 443.06 584.03 A 20.14 20.14 0 0 0 463.2 604.17" fill="#c7da6b"/><rect x="584.0277777777778" y="584.0277777777778" width="40.27777777777778" height="40.27777777777778" fill="#f5efd4"/><path d="M 584.03 624.31 A 20.14 20.14 0 0 1  604.17 604.17 L 604.17 624.31" fill="#d2df84"/><g transform="translate(604.17,604.17) scale(1.0070000000000001) rotate(0)"><path fill-rule="evenodd" clip-rule="evenodd" d="M10 20C15.5228 20 20 15.5228 20 10C20 4.47715 15.5228 0 10 0C4.47715 0 0 4.47715 0 10C0 15.5228 4.47715 20 10 20ZM10 17C13.866 17 17 13.866 17 10C17 6.13401 13.866 3 10 3C6.13401 3 3 6.13401 3 10C3 13.866 6.13401 17 10 17Z" fill="#c3d964"/></g><rect x="745.1388888888889" y="584.0277777777778" width="40.27777777777778" height="40.27777777777778" fill="#f5efd4"/><g transform="translate(765.28,604.17) scale(1.0070000000000001) rotate(0)"><path d="M10 0H20L0 20V10L10 0Z" fill="#d5e18c"/><path d="M20 10V20H10L20 10Z" fill="#d5e18c"/></g><rect x="906.25" y="584.0277777777778" width="40.27777777777778" height="40.27777777777778" fill="#f5efd4"/><path d="M 926.39 604.17 A 20.14 20.14 0 0 1 946.53 624.31 L 926.39 624.31" fill="#aecf34"/><rect x="1067.361111111111" y="584.0277777777778" width="40.27777777777778" height="40.27777777777778" fill="#f5efd4"/><rect x="1389.5833333333335" y="584.0277777777778" width="40.27777777777778" height="40.27777777777778" fill="#f5efd4"/><g transform="translate(1409.72,584.03) scale(1.0070000000000001) rotate(0)"><path d="M5 0H10L5 5L0 10V5L5 0Z" fill="#60c8b5"/><path d="M20 15V20H15L20 15Z" fill="#60c8b5"/><path d="M20 5V10L15 15L10 20H5L20 5Z" fill="#60c8b5"/><path d="M15 0H20L5 15.0002L0 20.0002V15.0002L15 0Z" fill="#60c8b5"/></g><polygon points="1409.72,604.17 1409.72,624.31 1389.58,624.31" fill="#cddd78"/><rect x="825.6944444444445" y="664.5833333333334" width="40.27777777777778" height="40.27777777777778" fill="#f5efd4"/><g transform="translate(825.69,664.58) scale(1.0070000000000001) rotate(0)"><path d="M5 0H10L5 5L0 10V5L5 0Z" fill="#b8dfc7"/><path d="M20 15V20H15L20 15Z" fill="#b8dfc7"/><path d="M20 5V10L15 15L10 20H5L20 5Z" fill="#b8dfc7"/><path d="M15 0H20L5 15.0002L0 20.0002V15.0002L15 0Z" fill="#b8dfc7"/></g><path d="M 825.69 684.72 A 20.14 20.14 0 0 1  845.83 704.86 L 825.69 684.72 A 20.14 20.14 0 0 0 845.83 704.86" fill="#d9e8ce"/><rect x="986.8055555555557" y="664.5833333333334" width="40.27777777777778" height="40.27777777777778" fill="#f5efd4"/><polygon points="1006.94,684.72 1027.0800000000002,684.72 1006.94,704.86" fill="#f4efd4"/><rect x="1067.361111111111" y="664.5833333333334" width="40.27777777777778" height="40.27777777777778" fill="#f5efd4"/><rect x="1087.5" y="664.58" width="20.14" height="20.14" fill="#a9cd28"/><polygon points="1067.36,684.72 1087.5,684.72 1087.5,704.86" fill="#b3d13d"/><rect x="1228.4722222222222" y="664.5833333333334" width="40.27777777777778" height="40.27777777777778" fill="#f5efd4"/><g transform="translate(1248.61,684.72) scale(1.0070000000000001) rotate(0)"><path fill-rule="evenodd" clip-rule="evenodd" d="M10 20C15.5228 20 20 15.5228 20 10C20 4.47715 15.5228 0 10 0C4.47715 0 0 4.47715 0 10C0 15.5228 4.47715 20 10 20ZM10 17C13.866 17 17 13.866 17 10C17 6.13401 13.866 3 10 3C6.13401 3 3 6.13401 3 10C3 13.866 6.13401 17 10 17Z" fill="#cde5cc"/></g><rect x="1389.5833333333335" y="664.5833333333334" width="40.27777777777778" height="40.27777777777778" fill="#f5efd4"/><path d="M 1389.58 704.86 A 20.14 20.14 0 0 1  1409.72 684.72 L 1409.72 704.86" fill="#eeecc4"/><g transform="translate(1409.72,684.72) scale(1.0070000000000001) rotate(0)"><path d="M10 0L20 10L10 20L0 10L10 0Z" fill="#eeecc4"/></g></g></svg>