<?xml version="1.0" standalone="no"?><svg xmlns:xlink="http://www.w3.org/1999/xlink" xmlns="http://www.w3.org/2000/svg" viewBox="0 0 1900 1187.5" preserveAspectRatio="xMaxYMax slice"><g transform="scale(1.6379310344827587)"><rect x="0" y="0" width="1160" height="725" fill="#ffffff"/><rect x="145" y="0" width="72.5" height="72.5" fill="#e8f2c6"/><g transform="translate(145,0) scale(3.625) rotate(0)"><path fill-rule="evenodd" clip-rule="evenodd" d="M10 20C15.5228 20 20 15.5228 20 10C20 4.47715 15.5228 0 10 0C4.47715 0 0 4.47715 0 10C0 15.5228 4.47715 20 10 20ZM10 17C13.866 17 17 13.866 17 10C17 6.13401 13.866 3 10 3C6.13401 3 3 6.13401 3 10C3 13.866 6.13401 17 10 17Z" fill="#8dd9ce"/></g><rect x="362.5" y="0" width="72.5" height="72.5" fill="#8fd9ce"/><g transform="translate(362.5,0) scale(3.625) rotate(0)"><path d="M10 5L5 0L0 5L5 10L0 15L5 20L10 15L15 20L20 15L15 10L20 5L15 0L10 5Z" fill="#e5f0bd"/></g><rect x="580" y="0" width="72.5" height="72.5" fill="#f2f7dd"/><g transform="translate(580,0) scale(3.625) rotate(0)"><path d="M5 0H10L5 5L0 10V5L5 0Z" fill="#bbe8e2"/><path d="M20 15V20H15L20 15Z" fill="#bbe8e2"/><path d="M20 5V10L15 15L10 20H5L20 5Z" fill="#bbe8e2"/><path d="M15 0H20L5 15.0002L0 20.0002V15.0002L15 0Z" fill="#bbe8e2"/></g><rect x="797.5" y="0" width="72.5" height="72.5" fill="#b2d23f"/><g transform="translate(797.5,0) scale(3.625) rotate(0)"><path d="M10 5L5 0L0 5L5 10L0 15L5 20L10 15L15 20L20 15L15 10L20 5L15 0L10 5Z" fill="#cbeee9"/></g><rect x="870" y="0" width="72.5" height="72.5" fill="#e9f8f5"/><g transform="translate(870,0) scale(3.625) rotate(0)"><path d="M10 5L5 0L0 5L5 10L0 15L5 20L10 15L15 20L20 15L15 10L20 5L15 0L10 5Z" fill="#fefefc"/></g><rect x="942.5" y="0" width="72.5" height="72.5" fill="#7ed4c7"/><g transform="translate(942.5,0) scale(3.625) rotate(0)"><path d="M10 5L5 0L0 5L5 10L0 15L5 20L10 15L15 20L20 15L15 10L20 5L15 0L10 5Z" fill="#7cd3c6"/></g><rect x="1087.5" y="0" width="72.5" height="72.5" fill="#f7fbec"/><g transform="translate(1087.5,0) scale(3.625) rotate(0)"><path d="M5 0H10L5 5L0 10V5L5 0Z" fill="#bfda5f"/><path d="M20 15V20H15L20 15Z" fill="#bfda5f"/><path d="M20 5V10L15 15L10 20H5L20 5Z" fill="#bfda5f"/><path d="M15 0H20L5 15.0002L0 20.0002V15.0002L15 0Z" fill="#bfda5f"/></g><rect x="145" y="72.5" width="72.5" height="72.5" fill="#fafdfd"/><g transform="translate(145,72.5) scale(3.625) rotate(0)"><path d="M5 0H10L5 5L0 10V5L5 0Z" fill="#c1db63"/><path d="M20 15V20H15L20 15Z" fill="#c1db63"/><path d="M20 5V10L15 15L10 20H5L20 5Z" fill="#c1db63"/><path d="M15 0H20L5 15.0002L0 20.0002V15.0002L15 0Z" fill="#c1db63"/></g><rect x="217.5" y="72.5" width="72.5" height="72.5" fill="#f2fbf9"/><g transform="translate(217.5,72.5) scale(3.625) rotate(0)"><path fill-rule="evenodd" clip-rule="evenodd" d="M10 20C15.5228 20 20 15.5228 20 10C20 4.47715 15.5228 0 10 0C4.47715 0 0 4.47715 0 10C0 15.5228 4.47715 20 10 20ZM10 17C13.866 17 17 13.866 17 10C17 6.13401 13.866 3 10 3C6.13401 3 3 6.13401 3 10C3 13.866 6.13401 17 10 17Z" fill="#d8e89c"/></g><rect x="290" y="72.5" width="72.5" height="72.5" fill="#57c7b6"/><g transform="translate(290,72.5) scale(3.625) rotate(0)"><path d="M10 5L5 0L0 5L5 10L0 15L5 20L10 15L15 20L20 15L15 10L20 5L15 0L10 5Z" fill="#c9e079"/></g><rect x="362.5" y="72.5" width="72.5" height="72.5" fill="#d0e48a"/><g transform="translate(362.5,72.5) scale(3.625) rotate(0)"><path fill-rule="evenodd" clip-rule="evenodd" d="M10 20C15.5228 20 20 15.5228 20 10C20 4.47715 15.5228 0 10 0C4.47715 0 0 4.47715 0 10C0 15.5228 4.47715 20 10 20ZM10 17C13.866 17 17 13.866 17 10C17 6.13401 13.866 3 10 3C6.13401 3 3 6.13401 3 10C3 13.866 6.13401 17 10 17Z" fill="#74d0c3"/></g><rect x="507.5" y="72.5" width="72.5" height="72.5" fill="#f5fcfb"/><g transform="translate(507.5,72.5) scale(3.625) rotate(0)"><path fill-rule="evenodd" clip-rule="evenodd" d="M10 20C15.5228 20 20 15.5228 20 10C20 4.47715 15.5228 0 10 0C4.47715 0 0 4.47715 0 10C0 15.5228 4.47715 20 10 20ZM10 17C13.866 17 17 13.866 17 10C17 6.13401 13.866 3 10 3C6.13401 3 3 6.13401 3 10C3 13.866 6.13401 17 10 17Z" fill="#b7e7e0"/></g><rect x="797.5" y="72.5" width="72.5" height="72.5" fill="#76d1c3"/><g transform="translate(797.5,72.5) scale(3.625) rotate(0)"><path d="M10 5L5 0L0 5L5 10L0 15L5 20L10 15L15 20L20 15L15 10L20 5L15 0L10 5Z" fill="#e0edb1"/></g><rect x="1087.5" y="72.5" width="72.5" height="72.5" fill="#d4f1ed"/><g transform="translate(1087.5,72.5) scale(3.625) rotate(0)"><path d="M10 5L5 0L0 5L5 10L0 15L5 20L10 15L15 20L20 15L15 10L20 5L15 0L10 5Z" fill="#a8cc25"/></g><rect x="72.5" y="145" width="72.5" height="72.5" fill="#dfedaf"/><g transform="translate(72.5,145) scale(3.625) rotate(0)"><path d="M5 0H10L5 5L0 10V5L5 0Z" fill="#98ddd2"/><path d="M20 15V20H15L20 15Z" fill="#98ddd2"/><path d="M20 5V10L15 15L10 20H5L20 5Z" fill="#98ddd2"/><path d="M15 0H20L5 15.0002L0 20.0002V15.0002L15 0Z" fill="#98ddd2"/></g><rect x="145" y="145" width="72.5" height="72.5" fill="#c8df75"/><g transform="translate(145,145) scale(3.625) rotate(0)"><path d="M10 0L20 10L10 20L0 10L10 0Z" fill="#f2f7de"/></g><rect x="217.5" y="145" width="72.5" height="72.5" fill="#d5f1ed"/><g transform="translate(217.5,145) scale(3.625) rotate(0)"><path d="M10 0L20 10L10 20L0 10L10 0Z" fill="#eef5d3"/></g><rect x="362.5" y="145" width="72.5" height="72.5" fill="#b6d549"/><g transform="translate(362.5,145) scale(3.625) rotate(0)"><path fill-rule="evenodd" clip-rule="evenodd" d="M10 20C15.5228 20 20 15.5228 20 10C20 4.47715 15.5228 0 10 0C4.47715 0 0 4.47715 0 10C0 15.5228 4.47715 20 10 20ZM10 17C13.866 17 17 13.866 17 10C17 6.13401 13.866 3 10 3C6.13401 3 3 6.13401 3 10C3 13.866 6.13401 17 10 17Z" fill="#80d4c8"/></g><rect x="507.5" y="145" width="72.5" height="72.5" fill="#b5d447"/><g transform="translate(507.5,145) scale(3.625) rotate(0)"><path d="M5 0H10L5 5L0 10V5L5 0Z" fill="#c2db66"/><path d="M20 15V20H15L20 15Z" fill="#c2db66"/><path d="M20 5V10L15 15L10 20H5L20 5Z" fill="#c2db66"/><path d="M15 0H20L5 15.0002L0 20.0002V15.0002L15 0Z" fill="#c2db66"/></g><rect x="870" y="145" width="72.5" height="72.5" fill="#d2f0eb"/><g transform="translate(870,145) scale(3.625) rotate(0)"><path d="M10 0L20 10L10 20L0 10L10 0Z" fill="#aee4dc"/></g><rect x="942.5" y="145" width="72.5" height="72.5" fill="#c6de71"/><g transform="translate(942.5,145) scale(3.625) rotate(0)"><path fill-rule="evenodd" clip-rule="evenodd" d="M10 20C15.5228 20 20 15.5228 20 10C20 4.47715 15.5228 0 10 0C4.47715 0 0 4.47715 0 10C0 15.5228 4.47715 20 10 20ZM10 17C13.866 17 17 13.866 17 10C17 6.13401 13.866 3 10 3C6.13401 3 3 6.13401 3 10C3 13.866 6.13401 17 10 17Z" fill="#d2f0ec"/></g><rect x="1015" y="145" width="72.5" height="72.5" fill="#b2d33f"/><g transform="translate(1015,145) scale(3.625) rotate(0)"><path fill-rule="evenodd" clip-rule="evenodd" d="M10 20C15.5228 20 20 15.5228 20 10C20 4.47715 15.5228 0 10 0C4.47715 0 0 4.47715 0 10C0 15.5228 4.47715 20 10 20ZM10 17C13.866 17 17 13.866 17 10C17 6.13401 13.866 3 10 3C6.13401 3 3 6.13401 3 10C3 13.866 6.13401 17 10 17Z" fill="#f8fdfc"/></g><rect x="0" y="217.5" width="72.5" height="72.5" fill="#e5f6f4"/><g transform="translate(0,217.5) scale(3.625) rotate(0)"><path fill-rule="evenodd" clip-rule="evenodd" d="M10 20C15.5228 20 20 15.5228 20 10C20 4.47715 15.5228 0 10 0C4.47715 0 0 4.47715 0 10C0 15.5228 4.47715 20 10 20ZM10 17C13.866 17 17 13.866 17 10C17 6.13401 13.866 3 10 3C6.13401 3 3 6.13401 3 10C3 13.866 6.13401 17 10 17Z" fill="#d0e488"/></g><rect x="217.5" y="217.5" width="72.5" height="72.5" fill="#d1e48b"/><g transform="translate(217.5,217.5) scale(3.625) rotate(0)"><path fill-rule="evenodd" clip-rule="evenodd" d="M10 20C15.5228 20 20 15.5228 20 10C20 4.47715 15.5228 0 10 0C4.47715 0 0 4.47715 0 10C0 15.5228 4.47715 20 10 20ZM10 17C13.866 17 17 13.866 17 10C17 6.13401 13.866 3 10 3C6.13401 3 3 6.13401 3 10C3 13.866 6.13401 17 10 17Z" fill="#e4efba"/></g><rect x="290" y="217.5" width="72.5" height="72.5" fill="#eaf3cb"/><g transform="translate(290,217.5) scale(3.625) rotate(0)"><path d="M5 0H10L5 5L0 10V5L5 0Z" fill="#cae07a"/><path d="M20 15V20H15L20 15Z" fill="#cae07a"/><path d="M20 5V10L15 15L10 20H5L20 5Z" fill="#cae07a"/><path d="M15 0H20L5 15.0002L0 20.0002V15.0002L15 0Z" fill="#cae07a"/></g><rect x="652.5" y="217.5" width="72.5" height="72.5" fill="#b5d446"/><g transform="translate(652.5,217.5) scale(3.625) rotate(0)"><path d="M10 5L5 0L0 5L5 10L0 15L5 20L10 15L15 20L20 15L15 10L20 5L15 0L10 5Z" fill="#b1d23c"/></g><rect x="725" y="217.5" width="72.5" height="72.5" fill="#daeaa3"/><g transform="translate(725,217.5) scale(3.625) rotate(0)"><path d="M5 0H10L5 5L0 10V5L5 0Z" fill="#5dc9b9"/><path d="M20 15V20H15L20 15Z" fill="#5dc9b9"/><path d="M20 5V10L15 15L10 20H5L20 5Z" fill="#5dc9b9"/><path d="M15 0H20L5 15.0002L0 20.0002V15.0002L15 0Z" fill="#5dc9b9"/></g><rect x="870" y="217.5" width="72.5" height="72.5" fill="#aed034"/><g transform="translate(870,217.5) scale(3.625) rotate(0)"><path fill-rule="evenodd" clip-rule="evenodd" d="M10 20C15.5228 20 20 15.5228 20 10C20 4.47715 15.5228 0 10 0C4.47715 0 0 4.47715 0 10C0 15.5228 4.47715 20 10 20ZM10 17C13.866 17 17 13.866 17 10C17 6.13401 13.866 3 10 3C6.13401 3 3 6.13401 3 10C3 13.866 6.13401 17 10 17Z" fill="#f1faf9"/></g><rect x="942.5" y="217.5" width="72.5" height="72.5" fill="#6dcec0"/><g transform="translate(942.5,217.5) scale(3.625) rotate(0)"><path fill-rule="evenodd" clip-rule="evenodd" d="M10 20C15.5228 20 20 15.5228 20 10C20 4.47715 15.5228 0 10 0C4.47715 0 0 4.47715 0 10C0 15.5228 4.47715 20 10 20ZM10 17C13.866 17 17 13.866 17 10C17 6.13401 13.866 3 10 3C6.13401 3 3 6.13401 3 10C3 13.866 6.13401 17 10 17Z" fill="#d4e693"/></g><rect x="1015" y="217.5" width="72.5" height="72.5" fill="#fcfdf8"/><g transform="translate(1015,217.5) scale(3.625) rotate(0)"><path d="M10 5L5 0L0 5L5 10L0 15L5 20L10 15L15 20L20 15L15 10L20 5L15 0L10 5Z" fill="#5fc9b9"/></g><rect x="290" y="290" width="72.5" height="72.5" fill="#84d6ca"/><g transform="translate(290,290) scale(3.625) rotate(0)"><path d="M10 0L20 10L10 20L0 10L10 0Z" fill="#a9cd28"/></g><rect x="870" y="290" width="72.5" height="72.5" fill="#f0faf8"/><g transform="translate(870,290) scale(3.625) rotate(0)"><path fill-rule="evenodd" clip-rule="evenodd" d="M10 20C15.5228 20 20 15.5228 20 10C20 4.47715 15.5228 0 10 0C4.47715 0 0 4.47715 0 10C0 15.5228 4.47715 20 10 20ZM10 17C13.866 17 17 13.866 17 10C17 6.13401 13.866 3 10 3C6.13401 3 3 6.13401 3 10C3 13.866 6.13401 17 10 17Z" fill="#e8f2c6"/></g><rect x="0" y="362.5" width="72.5" height="72.5" fill="#c8df76"/><g transform="translate(0,362.5) scale(3.625) rotate(0)"><path d="M5 0H10L5 5L0 10V5L5 0Z" fill="#b5e6df"/><path d="M20 15V20H15L20 15Z" fill="#b5e6df"/><path d="M20 5V10L15 15L10 20H5L20 5Z" fill="#b5e6df"/><path d="M15 0H20L5 15.0002L0 20.0002V15.0002L15 0Z" fill="#b5e6df"/></g><rect x="145" y="362.5" width="72.5" height="72.5" fill="#b7d54b"/><g transform="translate(145,362.5) scale(3.625) rotate(0)"><path d="M10 5L5 0L0 5L5 10L0 15L5 20L10 15L15 20L20 15L15 10L20 5L15 0L10 5Z" fill="#e6f1c2"/></g><rect x="362.5" y="362.5" width="72.5" height="72.5" fill="#effaf8"/><g transform="translate(362.5,362.5) scale(3.625) rotate(0)"><path d="M10 5L5 0L0 5L5 10L0 15L5 20L10 15L15 20L20 15L15 10L20 5L15 0L10 5Z" fill="#8ad8cc"/></g><rect x="435" y="362.5" width="72.5" height="72.5" fill="#a4e1d8"/><g transform="translate(435,362.5) scale(3.625) rotate(0)"><path d="M10 5L5 0L0 5L5 10L0 15L5 20L10 15L15 20L20 15L15 10L20 5L15 0L10 5Z" fill="#c3ebe5"/></g><rect x="580" y="362.5" width="72.5" height="72.5" fill="#d8f2ee"/><g transform="translate(580,362.5) scale(3.625) rotate(0)"><path fill-rule="evenodd" clip-rule="evenodd" d="M10 20C15.5228 20 20 15.5228 20 10C20 4.47715 15.5228 0 10 0C4.47715 0 0 4.47715 0 10C0 15.5228 4.47715 20 10 20ZM10 17C13.866 17 17 13.866 17 10C17 6.13401 13.866 3 10 3C6.13401 3 3 6.13401 3 10C3 13.866 6.13401 17 10 17Z" fill="#e4efbc"/></g><rect x="725" y="362.5" width="72.5" height="72.5" fill="#e0edb1"/><g transform="translate(725,362.5) scale(3.625) rotate(0)"><path fill-rule="evenodd" clip-rule="evenodd" d="M10 20C15.5228 20 20 15.5228 20 10C20 4.47715 15.5228 0 10 0C4.47715 0 0 4.47715 0 10C0 15.5228 4.47715 20 10 20ZM10 17C13.866 17 17 13.866 17 10C17 6.13401 13.866 3 10 3C6.13401 3 3 6.13401 3 10C3 13.866 6.13401 17 10 17Z" fill="#aace2a"/></g><rect x="1015" y="362.5" width="72.5" height="72.5" fill="#aee4dc"/><g transform="translate(1015,362.5) scale(3.625) rotate(0)"><path d="M10 0L20 10L10 20L0 10L10 0Z" fill="#f3fbfa"/></g><rect x="0" y="435" width="72.5" height="72.5" fill="#53c5b4"/><g transform="translate(0,435) scale(3.625) rotate(0)"><path d="M10 5L5 0L0 5L5 10L0 15L5 20L10 15L15 20L20 15L15 10L20 5L15 0L10 5Z" fill="#a9e2da"/></g><rect x="72.5" y="435" width="72.5" height="72.5" fill="#afd036"/><g transform="translate(72.5,435) scale(3.625) rotate(0)"><path d="M5 0H10L5 5L0 10V5L5 0Z" fill="#e0edb1"/><path d="M20 15V20H15L20 15Z" fill="#e0edb1"/><path d="M20 5V10L15 15L10 20H5L20 5Z" fill="#e0edb1"/><path d="M15 0H20L5 15.0002L0 20.0002V15.0002L15 0Z" fill="#e0edb1"/></g><rect x="145" y="435" width="72.5" height="72.5" fill="#dceba8"/><g transform="translate(145,435) scale(3.625) rotate(0)"><path fill-rule="evenodd" clip-rule="evenodd" d="M10 20C15.5228 20 20 15.5228 20 10C20 4.47715 15.5228 0 10 0C4.47715 0 0 4.47715 0 10C0 15.5228 4.47715 20 10 20ZM10 17C13.866 17 17 13.866 17 10C17 6.13401 13.866 3 10 3C6.13401 3 3 6.13401 3 10C3 13.866 6.13401 17 10 17Z" fill="#cfe387"/></g><rect x="435" y="435" width="72.5" height="72.5" fill="#cfe387"/><g transform="translate(435,435) scale(3.625) rotate(0)"><path d="M5 0H10L5 5L0 10V5L5 0Z" fill="#f8fbee"/><path d="M20 15V20H15L20 15Z" fill="#f8fbee"/><path d="M20 5V10L15 15L10 20H5L20 5Z" fill="#f8fbee"/><path d="M15 0H20L5 15.0002L0 20.0002V15.0002L15 0Z" fill="#f8fbee"/></g><rect x="507.5" y="435" width="72.5" height="72.5" fill="#caede8"/><g transform="translate(507.5,435) scale(3.625) rotate(0)"><path d="M5 0H10L5 5L0 10V5L5 0Z" fill="#edf9f7"/><path d="M20 15V20H15L20 15Z" fill="#edf9f7"/><path d="M20 5V10L15 15L10 20H5L20 5Z" fill="#edf9f7"/><path d="M15 0H20L5 15.0002L0 20.0002V15.0002L15 0Z" fill="#edf9f7"/></g><rect x="725" y="435" width="72.5" height="72.5" fill="#dceaa6"/><g transform="translate(725,435) scale(3.625) rotate(0)"><path d="M10 5L5 0L0 5L5 10L0 15L5 20L10 15L15 20L20 15L15 10L20 5L15 0L10 5Z" fill="#79d2c5"/></g><rect x="797.5" y="435" width="72.5" height="72.5" fill="#bcd857"/><g transform="translate(797.5,435) scale(3.625) rotate(0)"><path fill-rule="evenodd" clip-rule="evenodd" d="M10 20C15.5228 20 20 15.5228 20 10C20 4.47715 15.5228 0 10 0C4.47715 0 0 4.47715 0 10C0 15.5228 4.47715 20 10 20ZM10 17C13.866 17 17 13.866 17 10C17 6.13401 13.866 3 10 3C6.13401 3 3 6.13401 3 10C3 13.866 6.13401 17 10 17Z" fill="#83d5c9"/></g><rect x="1087.5" y="435" width="72.5" height="72.5" fill="#8dd9cd"/><g transform="translate(1087.5,435) scale(3.625) rotate(0)"><path d="M10 5L5 0L0 5L5 10L0 15L5 20L10 15L15 20L20 15L15 10L20 5L15 0L10 5Z" fill="#bdd859"/></g><rect x="72.5" y="507.5" width="72.5" height="72.5" fill="#8ed9ce"/><g transform="translate(72.5,507.5) scale(3.625) rotate(0)"><path d="M5 0H10L5 5L0 10V5L5 0Z" fill="#73d0c2"/><path d="M20 15V20H15L20 15Z" fill="#73d0c2"/><path d="M20 5V10L15 15L10 20H5L20 5Z" fill="#73d0c2"/><path d="M15 0H20L5 15.0002L0 20.0002V15.0002L15 0Z" fill="#73d0c2"/></g><rect x="145" y="507.5" width="72.5" height="72.5" fill="#b6e7df"/><g transform="translate(145,507.5) scale(3.625) rotate(0)"><path fill-rule="evenodd" clip-rule="evenodd" d="M10 20C15.5228 20 20 15.5228 20 10C20 4.47715 15.5228 0 10 0C4.47715 0 0 4.47715 0 10C0 15.5228 4.47715 20 10 20ZM10 17C13.866 17 17 13.866 17 10C17 6.13401 13.866 3 10 3C6.13401 3 3 6.13401 3 10C3 13.866 6.13401 17 10 17Z" fill="#deecac"/></g><rect x="290" y="507.5" width="72.5" height="72.5" fill="#b6e6df"/><g transform="translate(290,507.5) scale(3.625) rotate(0)"><path d="M5 0H10L5 5L0 10V5L5 0Z" fill="#daf3ef"/><path d="M20 15V20H15L20 15Z" fill="#daf3ef"/><path d="M20 5V10L15 15L10 20H5L20 5Z" fill="#daf3ef"/><path d="M15 0H20L5 15.0002L0 20.0002V15.0002L15 0Z" fill="#daf3ef"/></g><rect x="362.5" y="507.5" width="72.5" height="72.5" fill="#b7d54b"/><g transform="translate(362.5,507.5) scale(3.625) rotate(0)"><path d="M5 0H10L5 5L0 10V5L5 0Z" fill="#c0db62"/><path d="M20 15V20H15L20 15Z" fill="#c0db62"/><path d="M20 5V10L15 15L10 20H5L20 5Z" fill="#c0db62"/><path d="M15 0H20L5 15.0002L0 20.0002V15.0002L15 0Z" fill="#c0db62"/></g><rect x="580" y="507.5" width="72.5" height="72.5" fill="#d5e695"/><g transform="translate(580,507.5) scale(3.625) rotate(0)"><path d="M10 0L20 10L10 20L0 10L10 0Z" fill="#cee385"/></g><rect x="797.5" y="507.5" width="72.5" height="72.5" fill="#f9fdfc"/><g transform="translate(797.5,507.5) scale(3.625) rotate(0)"><path fill-rule="evenodd" clip-rule="evenodd" d="M10 20C15.5228 20 20 15.5228 20 10C20 4.47715 15.5228 0 10 0C4.47715 0 0 4.47715 0 10C0 15.5228 4.47715 20 10 20ZM10 17C13.866 17 17 13.866 17 10C17 6.13401 13.866 3 10 3C6.13401 3 3 6.13401 3 10C3 13.866 6.13401 17 10 17Z" fill="#dfedb0"/></g><rect x="942.5" y="507.5" width="72.5" height="72.5" fill="#d7e89c"/><g transform="translate(942.5,507.5) scale(3.625) rotate(0)"><path d="M10 5L5 0L0 5L5 10L0 15L5 20L10 15L15 20L20 15L15 10L20 5L15 0L10 5Z" fill="#bfda60"/></g><rect x="1015" y="507.5" width="72.5" height="72.5" fill="#8ad8cc"/><g transform="translate(1015,507.5) scale(3.625) rotate(0)"><path d="M10 5L5 0L0 5L5 10L0 15L5 20L10 15L15 20L20 15L15 10L20 5L15 0L10 5Z" fill="#d4f0ec"/></g><rect x="1087.5" y="507.5" width="72.5" height="72.5" fill="#ddf4f0"/><g transform="translate(1087.5,507.5) scale(3.625) rotate(0)"><path d="M10 5L5 0L0 5L5 10L0 15L5 20L10 15L15 20L20 15L15 10L20 5L15 0L10 5Z" fill="#a9cd27"/></g><rect x="0" y="580" width="72.5" height="72.5" fill="#aace2b"/><g transform="translate(0,580) scale(3.625) rotate(0)"><path d="M5 0H10L5 5L0 10V5L5 0Z" fill="#4ec4b2"/><path d="M20 15V20H15L20 15Z" fill="#4ec4b2"/><path d="M20 5V10L15 15L10 20H5L20 5Z" fill="#4ec4b2"/><path d="M15 0H20L5 15.0002L0 20.0002V15.0002L15 0Z" fill="#4ec4b2"/></g><rect x="145" y="580" width="72.5" height="72.5" fill="#8ad8cc"/><g transform="translate(145,580) scale(3.625) rotate(0)"><path fill-rule="evenodd" clip-rule="evenodd" d="M10 20C15.5228 20 20 15.5228 20 10C20 4.47715 15.5228 0 10 0C4.47715 0 0 4.47715 0 10C0 15.5228 4.47715 20 10 20ZM10 17C13.866 17 17 13.866 17 10C17 6.13401 13.866 3 10 3C6.13401 3 3 6.13401 3 10C3 13.866 6.13401 17 10 17Z" fill="#abcf2e"/></g><rect x="290" y="580" width="72.5" height="72.5" fill="#c8df76"/><g transform="translate(290,580) scale(3.625) rotate(0)"><path fill-rule="evenodd" clip-rule="evenodd" d="M10 20C15.5228 20 20 15.5228 20 10C20 4.47715 15.5228 0 10 0C4.47715 0 0 4.47715 0 10C0 15.5228 4.47715 20 10 20ZM10 17C13.866 17 17 13.866 17 10C17 6.13401 13.866 3 10 3C6.13401 3 3 6.13401 3 10C3 13.866 6.13401 17 10 17Z" fill="#cee385"/></g><rect x="435" y="580" width="72.5" height="72.5" fill="#cfe386"/><g transform="translate(435,580) scale(3.625) rotate(0)"><path d="M5 0H10L5 5L0 10V5L5 0Z" fill="#e8f7f5"/><path d="M20 15V20H15L20 15Z" fill="#e8f7f5"/><path d="M20 5V10L15 15L10 20H5L20 5Z" fill="#e8f7f5"/><path d="M15 0H20L5 15.0002L0 20.0002V15.0002L15 0Z" fill="#e8f7f5"/></g><rect x="797.5" y="580" width="72.5" height="72.5" fill="#85d6ca"/><g transform="translate(797.5,580) scale(3.625) rotate(0)"><path d="M10 5L5 0L0 5L5 10L0 15L5 20L10 15L15 20L20 15L15 10L20 5L15 0L10 5Z" fill="#a4e1d8"/></g><rect x="942.5" y="580" width="72.5" height="72.5" fill="#f2f7dd"/><g transform="translate(942.5,580) scale(3.625) rotate(0)"><path d="M10 5L5 0L0 5L5 10L0 15L5 20L10 15L15 20L20 15L15 10L20 5L15 0L10 5Z" fill="#eaf8f6"/></g><rect x="0" y="652.5" width="72.5" height="72.5" fill="#edf5d2"/><g transform="translate(0,652.5) scale(3.625) rotate(0)"><path d="M10 0L20 10L10 20L0 10L10 0Z" fill="#49c2b0"/></g><rect x="145" y="652.5" width="72.5" height="72.5" fill="#c5ebe6"/><g transform="translate(145,652.5) scale(3.625) rotate(0)"><path d="M10 0L20 10L10 20L0 10L10 0Z" fill="#61caba"/></g><rect x="290" y="652.5" width="72.5" height="72.5" fill="#c0eae4"/><g transform="translate(290,652.5) scale(3.625) rotate(0)"><path fill-rule="evenodd" clip-rule="evenodd" d="M10 20C15.5228 20 20 15.5228 20 10C20 4.47715 15.5228 0 10 0C4.47715 0 0 4.47715 0 10C0 15.5228 4.47715 20 10 20ZM10 17C13.866 17 17 13.866 17 10C17 6.13401 13.866 3 10 3C6.13401 3 3 6.13401 3 10C3 13.866 6.13401 17 10 17Z" fill="#c2ebe4"/></g><rect x="725" y="652.5" width="72.5" height="72.5" fill="#cce180"/><g transform="translate(725,652.5) scale(3.625) rotate(0)"><path d="M5 0H10L5 5L0 10V5L5 0Z" fill="#afe4dc"/><path d="M20 15V20H15L20 15Z" fill="#afe4dc"/><path d="M20 5V10L15 15L10 20H5L20 5Z" fill="#afe4dc"/><path d="M15 0H20L5 15.0002L0 20.0002V15.0002L15 0Z" fill="#afe4dc"/></g><rect x="1015" y="652.5" width="72.5" height="72.5" fill="#b4d444"/><g transform="translate(1015,652.5) scale(3.625) rotate(0)"><path fill-rule="evenodd" clip-rule="evenodd" d="M10 20C15.5228 20 20 15.5228 20 10C20 4.47715 15.5228 0 10 0C4.47715 0 0 4.47715 0 10C0 15.5228 4.47715 20 10 20ZM10 17C13.866 17 17 13.866 17 10C17 6.13401 13.866 3 10 3C6.13401 3 3 6.13401 3 10C3 13.866 6.13401 17 10 17Z" fill="#91dacf"/></g><rect x="1087.5" y="652.5" width="72.5" height="72.5" fill="#aae3da"/><g transform="translate(1087.5,652.5) scale(3.625) rotate(0)"><path d="M10 5L5 0L0 5L5 10L0 15L5 20L10 15L15 20L20 15L15 10L20 5L15 0L10 5Z" fill="#e0edb3"/></g></g></svg>