<?xml version="1.0" standalone="no"?><svg xmlns:xlink="http://www.w3.org/1999/xlink" xmlns="http://www.w3.org/2000/svg" viewBox="0 0 1000 625" preserveAspectRatio="xMaxYMax slice"><g transform="scale(0.8620689655172413)"><rect x="0" y="0" width="1160" height="725" fill="#f5efd4"/><circle cx="36.25" cy="36.25" r="7.25" fill="#f2eecd"/><circle cx="108.75" cy="36.25" r="7.25" fill="#e1e6a7"/><circle cx="181.25" cy="36.25" r="7.25" fill="#bce0c8"/><circle cx="253.75" cy="36.25" r="7.25" fill="#e4e8ae"/><circle cx="326.25" cy="36.25" r="7.25" fill="#cce4cb"/><circle cx="398.75" cy="36.25" r="7.25" fill="#edecc3"/><circle cx="471.25" cy="36.25" r="7.25" fill="#d3e6cd"/><circle cx="543.75" cy="36.25" r="7.25" fill="#63c9b5"/><circle cx="616.25" cy="36.25" r="7.25" fill="#d7e18f"/><circle cx="688.75" cy="36.25" r="7.25" fill="#c4d966"/><circle cx="761.25" cy="36.25" r="7.25" fill="#b7dfc7"/><circle cx="833.75" cy="36.25" r="7.25" fill="#d7e7ce"/><circle cx="906.25" cy="36.25" r="7.25" fill="#bbd551"/><circle cx="978.75" cy="36.25" r="7.25" fill="#acdcc5"/><circle cx="1051.25" cy="36.25" r="7.25" fill="#b9dfc7"/><circle cx="1123.75" cy="36.25" r="7.25" fill="#b9d44b"/><circle cx="36.25" cy="108.75" r="7.25" fill="#7dd0bb"/><circle cx="108.75" cy="108.75" r="7.25" fill="#dfe5a1"/><circle cx="181.25" cy="108.75" r="7.25" fill="#eeecc3"/><circle cx="253.75" cy="108.75" r="7.25" fill="#ebeabd"/><circle cx="326.25" cy="108.75" r="7.25" fill="#adcf31"/><circle cx="398.75" cy="108.75" r="7.25" fill="#a9dbc4"/><circle cx="471.25" cy="108.75" r="7.25" fill="#69cab7"/><circle cx="543.75" cy="108.75" r="7.25" fill="#94d6c0"/><circle cx="616.25" cy="108.75" r="7.25" fill="#cbe4cb"/><circle cx="688.75" cy="108.75" r="7.25" fill="#a8cc25"/><circle cx="761.25" cy="108.75" r="7.25" fill="#5fc8b5"/><circle cx="833.75" cy="108.75" r="7.25" fill="#b6d346"/><circle cx="906.25" cy="108.75" r="7.25" fill="#6acbb7"/><circle cx="978.75" cy="108.75" r="7.25" fill="#e5e8af"/><circle cx="1051.25" cy="108.75" r="7.25" fill="#dfe5a3"/><circle cx="1123.75" cy="108.75" r="7.25" fill="#d5e18b"/><circle cx="36.25" cy="181.25" r="7.25" fill="#bed658"/><circle cx="108.75" cy="181.25" r="7.25" fill="#e1e6a8"/><circle cx="181.25" cy="181.25" r="7.25" fill="#83d1bc"/><circle cx="253.75" cy="181.25" r="7.25" fill="#b9d44b"/><circle cx="326.25" cy="181.25" r="7.25" fill="#75ceb9"/><circle cx="398.75" cy="181.25" r="7.25" fill="#c8db6d"/><circle cx="471.25" cy="181.25" r="7.25" fill="#addcc5"/><circle cx="543.75" cy="181.25" r="7.25" fill="#cfde7d"/><circle cx="616.25" cy="181.25" r="7.25" fill="#8ad3be"/><circle cx="688.75" cy="181.25" r="7.25" fill="#93d5c0"/><circle cx="761.25" cy="181.25" r="7.25" fill="#96d6c0"/><circle cx="833.75" cy="181.25" r="7.25" fill="#cedd7a"/><circle cx="906.25" cy="181.25" r="7.25" fill="#86d2bd"/><circle cx="978.75" cy="181.25" r="7.25" fill="#cfe5cc"/><circle cx="1051.25" cy="181.25" r="7.25" fill="#b0ddc6"/><circle cx="1123.75" cy="181.25" r="7.25" fill="#cadb71"/><circle cx="36.25" cy="253.75" r="7.25" fill="#c9e3cb"/><circle cx="108.75" cy="253.75" r="7.25" fill="#cadc72"/><circle cx="181.25" cy="253.75" r="7.25" fill="#eaeabb"/><circle cx="253.75" cy="253.75" r="7.25" fill="#6dcbb8"/><circle cx="326.25" cy="253.75" r="7.25" fill="#84d2bc"/><circle cx="398.75" cy="253.75" r="7.25" fill="#e1e6a7"/><circle cx="471.25" cy="253.75" r="7.25" fill="#d4e089"/><circle cx="543.75" cy="253.75" r="7.25" fill="#6fccb8"/><circle cx="616.25" cy="253.75" r="7.25" fill="#98d7c1"/><circle cx="688.75" cy="253.75" r="7.25" fill="#c2d860"/><circle cx="761.25" cy="253.75" r="7.25" fill="#f3eed3"/><circle cx="833.75" cy="253.75" r="7.25" fill="#a8cd26"/><circle cx="906.25" cy="253.75" r="7.25" fill="#56c5b3"/><circle cx="978.75" cy="253.75" r="7.25" fill="#edecc3"/><circle cx="1051.25" cy="253.75" r="7.25" fill="#e9ecd1"/><circle cx="1123.75" cy="253.75" r="7.25" fill="#eaecd2"/><circle cx="36.25" cy="326.25" r="7.25" fill="#ebebbe"/><circle cx="108.75" cy="326.25" r="7.25" fill="#9cd8c1"/><circle cx="181.25" cy="326.25" r="7.25" fill="#dae396"/><circle cx="253.75" cy="326.25" r="7.25" fill="#95d6c0"/><circle cx="326.25" cy="326.25" r="7.25" fill="#9ad7c1"/><circle cx="398.75" cy="326.25" r="7.25" fill="#b2ddc6"/><circle cx="471.25" cy="326.25" r="7.25" fill="#e2e7aa"/><circle cx="543.75" cy="326.25" r="7.25" fill="#d7e18f"/><circle cx="616.25" cy="326.25" r="7.25" fill="#cadc73"/><circle cx="688.75" cy="326.25" r="7.25" fill="#b9dfc8"/><circle cx="761.25" cy="326.25" r="7.25" fill="#d3e087"/><circle cx="833.75" cy="326.25" r="7.25" fill="#8dd4be"/><circle cx="906.25" cy="326.25" r="7.25" fill="#eaeabb"/><circle cx="978.75" cy="326.25" r="7.25" fill="#e7ebd1"/><circle cx="1051.25" cy="326.25" r="7.25" fill="#80d0bb"/><circle cx="1123.75" cy="326.25" r="7.25" fill="#d1df83"/><circle cx="36.25" cy="398.75" r="7.25" fill="#e9eab9"/><circle cx="108.75" cy="398.75" r="7.25" fill="#c2e2c9"/><circle cx="181.25" cy="398.75" r="7.25" fill="#bcd552"/><circle cx="253.75" cy="398.75" r="7.25" fill="#acdcc5"/><circle cx="326.25" cy="398.75" r="7.25" fill="#bcd654"/><circle cx="398.75" cy="398.75" r="7.25" fill="#e8e9b5"/><circle cx="471.25" cy="398.75" r="7.25" fill="#77ceba"/><circle cx="543.75" cy="398.75" r="7.25" fill="#edecc3"/><circle cx="616.25" cy="398.75" r="7.25" fill="#6bcbb7"/><circle cx="688.75" cy="398.75" r="7.25" fill="#6dcbb7"/><circle cx="761.25" cy="398.75" r="7.25" fill="#e9ecd1"/><circle cx="833.75" cy="398.75" r="7.25" fill="#aedcc5"/><circle cx="906.25" cy="398.75" r="7.25" fill="#bbd550"/><circle cx="978.75" cy="398.75" r="7.25" fill="#bed656"/><circle cx="1051.25" cy="398.75" r="7.25" fill="#bcd654"/><circle cx="1123.75" cy="398.75" r="7.25" fill="#d4e089"/><circle cx="36.25" cy="471.25" r="7.25" fill="#54c5b2"/><circle cx="108.75" cy="471.25" r="7.25" fill="#e1e6a7"/><circle cx="181.25" cy="471.25" r="7.25" fill="#cddd7a"/><circle cx="253.75" cy="471.25" r="7.25" fill="#6acbb7"/><circle cx="326.25" cy="471.25" r="7.25" fill="#a7cc24"/><circle cx="398.75" cy="471.25" r="7.25" fill="#d7e291"/><circle cx="471.25" cy="471.25" r="7.25" fill="#83d1bc"/><circle cx="543.75" cy="471.25" r="7.25" fill="#b6d344"/><circle cx="616.25" cy="471.25" r="7.25" fill="#61c8b5"/><circle cx="688.75" cy="471.25" r="7.25" fill="#f2eece"/><circle cx="761.25" cy="471.25" r="7.25" fill="#8ed4be"/><circle cx="833.75" cy="471.25" r="7.25" fill="#cfde7f"/><circle cx="906.25" cy="471.25" r="7.25" fill="#ecedd2"/><circle cx="978.75" cy="471.25" r="7.25" fill="#c7db6d"/><circle cx="1051.25" cy="471.25" r="7.25" fill="#cfde7e"/><circle cx="1123.75" cy="471.25" r="7.25" fill="#c6da69"/><circle cx="36.25" cy="543.75" r="7.25" fill="#d9e8ce"/><circle cx="108.75" cy="543.75" r="7.25" fill="#c5e3ca"/><circle cx="181.25" cy="543.75" r="7.25" fill="#8ed4be"/><circle cx="253.75" cy="543.75" r="7.25" fill="#f4efd3"/><circle cx="326.25" cy="543.75" r="7.25" fill="#b1d13b"/><circle cx="398.75" cy="543.75" r="7.25" fill="#c0d75c"/><circle cx="471.25" cy="543.75" r="7.25" fill="#d3e6cd"/><circle cx="543.75" cy="543.75" r="7.25" fill="#b4d241"/><circle cx="616.25" cy="543.75" r="7.25" fill="#b4dec6"/><circle cx="688.75" cy="543.75" r="7.25" fill="#d9e294"/><circle cx="761.25" cy="543.75" r="7.25" fill="#b6dfc7"/><circle cx="833.75" cy="543.75" r="7.25" fill="#9cd8c1"/><circle cx="906.25" cy="543.75" r="7.25" fill="#aadbc4"/><circle cx="978.75" cy="543.75" r="7.25" fill="#f1eed3"/><circle cx="1051.25" cy="543.75" r="7.25" fill="#b9d44c"/><circle cx="1123.75" cy="543.75" r="7.25" fill="#b5d242"/><circle cx="36.25" cy="616.25" r="7.25" fill="#eeecc4"/><circle cx="108.75" cy="616.25" r="7.25" fill="#83d1bc"/><circle cx="181.25" cy="616.25" r="7.25" fill="#65c9b6"/><circle cx="253.75" cy="616.25" r="7.25" fill="#d8e292"/><circle cx="326.25" cy="616.25" r="7.25" fill="#a8cc25"/><circle cx="398.75" cy="616.25" r="7.25" fill="#60c8b5"/><circle cx="471.25" cy="616.25" r="7.25" fill="#b9dfc7"/><circle cx="543.75" cy="616.25" r="7.25" fill="#a8dbc4"/><circle cx="616.25" cy="616.25" r="7.25" fill="#6bcbb7"/><circle cx="688.75" cy="616.25" r="7.25" fill="#b9d44d"/><circle cx="761.25" cy="616.25" r="7.25" fill="#8ed4be"/><circle cx="833.75" cy="616.25" r="7.25" fill="#8ed4be"/><circle cx="906.25" cy="616.25" r="7.25" fill="#edecc2"/><circle cx="978.75" cy="616.25" r="7.25" fill="#99d7c1"/><circle cx="1051.25" cy="616.25" r="7.25" fill="#b4d242"/><circle cx="1123.75" cy="616.25" r="7.25" fill="#e6ebd1"/><circle cx="36.25" cy="688.75" r="7.25" fill="#8fd4bf"/><circle cx="108.75" cy="688.75" r="7.25" fill="#e4ead0"/><circle cx="181.25" cy="688.75" r="7.25" fill="#e2ead0"/><circle cx="253.75" cy="688.75" r="7.25" fill="#d6e7cd"/><circle cx="326.25" cy="688.75" r="7.25" fill="#cede7c"/><circle cx="398.75" cy="688.75" r="7.25" fill="#f3eed0"/><circle cx="471.25" cy="688.75" r="7.25" fill="#e6ebd1"/><circle cx="543.75" cy="688.75" r="7.25" fill="#c7e3ca"/><circle cx="616.25" cy="688.75" r="7.25" fill="#d8e7ce"/><circle cx="688.75" cy="688.75" r="7.25" fill="#96d6c0"/><circle cx="761.25" cy="688.75" r="7.25" fill="#dae8ce"/><circle cx="833.75" cy="688.75" r="7.25" fill="#dde49d"/><circle cx="906.25" cy="688.75" r="7.25" fill="#a7dac4"/><circle cx="978.75" cy="688.75" r="7.25" fill="#4ec3b1"/><circle cx="1051.25" cy="688.75" r="7.25" fill="#b0d037"/><circle cx="1123.75" cy="688.75" r="7.25" fill="#edebc1"/></g></svg>