<?xml version="1.0" standalone="no"?><svg xmlns:xlink="http://www.w3.org/1999/xlink" xmlns="http://www.w3.org/2000/svg" viewBox="0 0 1080 675" preserveAspectRatio="xMaxYMax slice"><g transform="scale(0.9310344827586207)"><rect x="0" y="0" width="1160" height="725" fill="#f5efd4"/><rect x="0" y="0" width="72.5" height="72.5" fill="#9ad7c1"/><g transform="translate(0,0) scale(3.625) rotate(0)"><path d="M5 0H10L5 5L0 10V5L5 0Z" fill="#c1e1c9"/><path d="M20 15V20H15L20 15Z" fill="#c1e1c9"/><path d="M20 5V10L15 15L10 20H5L20 5Z" fill="#c1e1c9"/><path d="M15 0H20L5 15.0002L0 20.0002V15.0002L15 0Z" fill="#c1e1c9"/></g><rect x="580" y="0" width="72.5" height="72.5" fill="#c7e3ca"/><g transform="translate(580,0) scale(3.625) rotate(0)"><path fill-rule="evenodd" clip-rule="evenodd" d="M10 20C15.5228 20 20 15.5228 20 10C20 4.47715 15.5228 0 10 0C4.47715 0 0 4.47715 0 10C0 15.5228 4.47715 20 10 20ZM10 17C13.866 17 17 13.866 17 10C17 6.13401 13.866 3 10 3C6.13401 3 3 6.13401 3 10C3 13.866 6.13401 17 10 17Z" fill="#d9e8ce"/></g><rect x="942.5" y="72.5" width="72.5" height="72.5" fill="#f2eece"/><g transform="translate(942.5,72.5) scale(3.625) rotate(0)"><path d="M10 0L20 10L10 20L0 10L10 0Z" fill="#efecc7"/></g><rect x="217.5" y="145" width="72.5" height="72.5" fill="#d1df82"/><g transform="translate(217.5,145) scale(3.625) rotate(0)"><path d="M10 5L5 0L0 5L5 10L0 15L5 20L10 15L15 20L20 15L15 10L20 5L15 0L10 5Z" fill="#e4e7ac"/></g><rect x="942.5" y="145" width="72.5" height="72.5" fill="#c1d85d"/><g transform="translate(942.5,145) scale(3.625) rotate(0)"><path fill-rule="evenodd" clip-rule="evenodd" d="M10 20C15.5228 20 20 15.5228 20 10C20 4.47715 15.5228 0 10 0C4.47715 0 0 4.47715 0 10C0 15.5228 4.47715 20 10 20ZM10 17C13.866 17 17 13.866 17 10C17 6.13401 13.866 3 10 3C6.13401 3 3 6.13401 3 10C3 13.866 6.13401 17 10 17Z" fill="#efecc6"/></g><rect x="362.5" y="217.5" width="72.5" height="72.5" fill="#6ccbb7"/><g transform="translate(362.5,217.5) scale(3.625) rotate(0)"><path d="M10 0L20 10L10 20L0 10L10 0Z" fill="#f5efd4"/></g><rect x="580" y="217.5" width="72.5" height="72.5" fill="#d9e8ce"/><g transform="translate(580,217.5) scale(3.625) rotate(0)"><path d="M5 0H10L5 5L0 10V5L5 0Z" fill="#b8dfc7"/><path d="M20 15V20H15L20 15Z" fill="#b8dfc7"/><path d="M20 5V10L15 15L10 20H5L20 5Z" fill="#b8dfc7"/><path d="M15 0H20L5 15.0002L0 20.0002V15.0002L15 0Z" fill="#b8dfc7"/></g><rect x="725" y="217.5" width="72.5" height="72.5" fill="#e0e5a3"/><g transform="translate(725,217.5) scale(3.625) rotate(0)"><path d="M10 0L20 10L10 20L0 10L10 0Z" fill="#f5efd4"/></g><rect x="1015" y="217.5" width="72.5" height="72.5" fill="#c6e3ca"/><g transform="translate(1015,217.5) scale(3.625) rotate(0)"><path d="M10 5L5 0L0 5L5 10L0 15L5 20L10 15L15 20L20 15L15 10L20 5L15 0L10 5Z" fill="#bde0c8"/></g><rect x="797.5" y="290" width="72.5" height="72.5" fill="#ecebbf"/><g transform="translate(797.5,290) scale(3.625) rotate(0)"><path fill-rule="evenodd" clip-rule="evenodd" d="M10 20C15.5228 20 20 15.5228 20 10C20 4.47715 15.5228 0 10 0C4.47715 0 0 4.47715 0 10C0 15.5228 4.47715 20 10 20ZM10 17C13.866 17 17 13.866 17 10C17 6.13401 13.866 3 10 3C6.13401 3 3 6.13401 3 10C3 13.866 6.13401 17 10 17Z" fill="#bde0c8"/></g><rect x="652.5" y="362.5" width="72.5" height="72.5" fill="#a8cc25"/><g transform="translate(652.5,362.5) scale(3.625) rotate(0)"><path fill-rule="evenodd" clip-rule="evenodd" d="M10 20C15.5228 20 20 15.5228 20 10C20 4.47715 15.5228 0 10 0C4.47715 0 0 4.47715 0 10C0 15.5228 4.47715 20 10 20ZM10 17C13.866 17 17 13.866 17 10C17 6.13401 13.866 3 10 3C6.13401 3 3 6.13401 3 10C3 13.866 6.13401 17 10 17Z" fill="#b4d240"/></g><rect x="725" y="362.5" width="72.5" height="72.5" fill="#acce2e"/><g transform="translate(725,362.5) scale(3.625) rotate(0)"><path fill-rule="evenodd" clip-rule="evenodd" d="M10 20C15.5228 20 20 15.5228 20 10C20 4.47715 15.5228 0 10 0C4.47715 0 0 4.47715 0 10C0 15.5228 4.47715 20 10 20ZM10 17C13.866 17 17 13.866 17 10C17 6.13401 13.866 3 10 3C6.13401 3 3 6.13401 3 10C3 13.866 6.13401 17 10 17Z" fill="#e2e7a9"/></g><rect x="797.5" y="362.5" width="72.5" height="72.5" fill="#69cab7"/><g transform="translate(797.5,362.5) scale(3.625) rotate(0)"><path d="M10 5L5 0L0 5L5 10L0 15L5 20L10 15L15 20L20 15L15 10L20 5L15 0L10 5Z" fill="#adcf32"/></g><rect x="0" y="435" width="72.5" height="72.5" fill="#85d2bc"/><g transform="translate(0,435) scale(3.625) rotate(0)"><path d="M10 0L20 10L10 20L0 10L10 0Z" fill="#bed657"/></g><rect x="145" y="507.5" width="72.5" height="72.5" fill="#e7e9b3"/><g transform="translate(145,507.5) scale(3.625) rotate(0)"><path d="M10 0L20 10L10 20L0 10L10 0Z" fill="#f5efd3"/></g><rect x="870" y="507.5" width="72.5" height="72.5" fill="#dde49d"/><g transform="translate(870,507.5) scale(3.625) rotate(0)"><path d="M10 0L20 10L10 20L0 10L10 0Z" fill="#c7db6d"/></g><rect x="290" y="580" width="72.5" height="72.5" fill="#c8e3ca"/><g transform="translate(290,580) scale(3.625) rotate(0)"><path d="M10 0L20 10L10 20L0 10L10 0Z" fill="#dfe5a3"/></g><rect x="362.5" y="580" width="72.5" height="72.5" fill="#55c5b3"/><g transform="translate(362.5,580) scale(3.625) rotate(0)"><path d="M10 5L5 0L0 5L5 10L0 15L5 20L10 15L15 20L20 15L15 10L20 5L15 0L10 5Z" fill="#86d2bd"/></g><rect x="435" y="652.5" width="72.5" height="72.5" fill="#eeecc4"/><g transform="translate(435,652.5) scale(3.625) rotate(0)"><path fill-rule="evenodd" clip-rule="evenodd" d="M10 20C15.5228 20 20 15.5228 20 10C20 4.47715 15.5228 0 10 0C4.47715 0 0 4.47715 0 10C0 15.5228 4.47715 20 10 20ZM10 17C13.866 17 17 13.866 17 10C17 6.13401 13.866 3 10 3C6.13401 3 3 6.13401 3 10C3 13.866 6.13401 17 10 17Z" fill="#8fd4bf"/></g></g></svg>