<?xml version="1.0" standalone="no"?><svg xmlns:xlink="http://www.w3.org/1999/xlink" xmlns="http://www.w3.org/2000/svg" viewBox="0 0 1000 625" preserveAspectRatio="xMaxYMax slice"><g transform="scale(0.8620689655172413)"><rect x="0" y="0" width="1160" height="725" fill="#f5efd4"/><rect x="290" y="72.5" width="72.5" height="72.5" fill="#f5efd4"/><rect x="870" y="72.5" width="72.5" height="72.5" fill="#f5efd4"/><rect x="870" y="108.75" width="36.25" height="36.25" fill="#d6e7ce"/><rect x="362.5" y="145" width="72.5" height="72.5" fill="#f5efd4"/><rect x="362.5" y="181.25" width="36.25" height="36.25" fill="#ebecd2"/><rect x="398.75" y="181.25" width="36.25" height="36.25" fill="#f2eece"/><rect x="1015" y="145" width="72.5" height="72.5" fill="#f5efd4"/><rect x="1015" y="145" width="36.25" height="36.25" fill="#afd035"/><rect x="1051.25" y="145" width="36.25" height="36.25" fill="#cadc73"/><rect x="1015" y="181.25" width="36.25" height="36.25" fill="#a4dac3"/><rect x="1087.5" y="145" width="72.5" height="72.5" fill="#f5efd4"/><rect x="1087.5" y="145" width="36.25" height="36.25" fill="#b0d038"/><rect x="1087.5" y="181.25" width="36.25" height="36.25" fill="#f0edc8"/><rect x="1123.75" y="181.25" width="36.25" height="36.25" fill="#dee9cf"/><rect x="652.5" y="217.5" width="72.5" height="72.5" fill="#f5efd4"/><rect x="652.5" y="253.75" width="36.25" height="36.25" fill="#addcc5"/><rect x="688.75" y="253.75" width="36.25" height="36.25" fill="#ebeabd"/><rect x="797.5" y="217.5" width="72.5" height="72.5" fill="#f5efd4"/><rect x="797.5" y="217.5" width="36.25" height="36.25" fill="#d5e18c"/><rect x="833.75" y="217.5" width="36.25" height="36.25" fill="#77ceba"/><rect x="833.75" y="253.75" width="36.25" height="36.25" fill="#cbdc74"/><rect x="1087.5" y="217.5" width="72.5" height="72.5" fill="#f5efd4"/><rect x="1123.75" y="253.75" width="36.25" height="36.25" fill="#7fd0bb"/><rect x="0" y="290" width="72.5" height="72.5" fill="#f5efd4"/><rect x="0" y="290" width="36.25" height="36.25" fill="#dce49c"/><rect x="36.25" y="290" width="36.25" height="36.25" fill="#dbe398"/><rect x="145" y="290" width="72.5" height="72.5" fill="#f5efd4"/><rect x="145" y="290" width="36.25" height="36.25" fill="#adcf31"/><rect x="145" y="326.25" width="36.25" height="36.25" fill="#7ccfbb"/><rect x="181.25" y="326.25" width="36.25" height="36.25" fill="#e7ebd1"/><rect x="217.5" y="290" width="72.5" height="72.5" fill="#f5efd4"/><rect x="217.5" y="290" width="36.25" height="36.25" fill="#d5e7cd"/><rect x="290" y="290" width="72.5" height="72.5" fill="#f5efd4"/><rect x="326.25" y="290" width="36.25" height="36.25" fill="#ededd2"/><rect x="326.25" y="326.25" width="36.25" height="36.25" fill="#a7cc24"/><rect x="362.5" y="290" width="72.5" height="72.5" fill="#f5efd4"/><rect x="398.75" y="326.25" width="36.25" height="36.25" fill="#c6da68"/><rect x="435" y="290" width="72.5" height="72.5" fill="#f5efd4"/><rect x="435" y="326.25" width="36.25" height="36.25" fill="#bcd552"/><rect x="471.25" y="326.25" width="36.25" height="36.25" fill="#b6d346"/><rect x="725" y="290" width="72.5" height="72.5" fill="#f5efd4"/><rect x="761.25" y="290" width="36.25" height="36.25" fill="#cbdc75"/><rect x="797.5" y="290" width="72.5" height="72.5" fill="#f5efd4"/><rect x="797.5" y="290" width="36.25" height="36.25" fill="#91d5bf"/><rect x="833.75" y="326.25" width="36.25" height="36.25" fill="#f2edcc"/><rect x="942.5" y="290" width="72.5" height="72.5" fill="#f5efd4"/><rect x="978.75" y="290" width="36.25" height="36.25" fill="#b1d13a"/><rect x="942.5" y="326.25" width="36.25" height="36.25" fill="#f3eed4"/><rect x="72.5" y="362.5" width="72.5" height="72.5" fill="#f5efd4"/><rect x="108.75" y="362.5" width="36.25" height="36.25" fill="#5fc8b5"/><rect x="108.75" y="398.75" width="36.25" height="36.25" fill="#8ed4be"/><rect x="145" y="362.5" width="72.5" height="72.5" fill="#f5efd4"/><rect x="145" y="362.5" width="36.25" height="36.25" fill="#aadbc4"/><rect x="181.25" y="362.5" width="36.25" height="36.25" fill="#b1d13a"/><rect x="145" y="398.75" width="36.25" height="36.25" fill="#d8e7ce"/><rect x="217.5" y="362.5" width="72.5" height="72.5" fill="#f5efd4"/><rect x="217.5" y="398.75" width="36.25" height="36.25" fill="#c0d75b"/><rect x="290" y="362.5" width="72.5" height="72.5" fill="#f5efd4"/><rect x="290" y="362.5" width="36.25" height="36.25" fill="#84d2bc"/><rect x="326.25" y="362.5" width="36.25" height="36.25" fill="#efecc7"/><rect x="290" y="398.75" width="36.25" height="36.25" fill="#a8cc25"/><rect x="362.5" y="362.5" width="72.5" height="72.5" fill="#f5efd4"/><rect x="398.75" y="362.5" width="36.25" height="36.25" fill="#b0d038"/><rect x="398.75" y="398.75" width="36.25" height="36.25" fill="#7ccfbb"/><rect x="435" y="362.5" width="72.5" height="72.5" fill="#f5efd4"/><rect x="471.25" y="362.5" width="36.25" height="36.25" fill="#afd036"/><rect x="471.25" y="398.75" width="36.25" height="36.25" fill="#cedd7b"/><rect x="507.5" y="362.5" width="72.5" height="72.5" fill="#f5efd4"/><rect x="507.5" y="398.75" width="36.25" height="36.25" fill="#e6e8b3"/><rect x="543.75" y="398.75" width="36.25" height="36.25" fill="#81d1bc"/><rect x="580" y="362.5" width="72.5" height="72.5" fill="#f5efd4"/><rect x="616.25" y="362.5" width="36.25" height="36.25" fill="#eeedd2"/><rect x="616.25" y="398.75" width="36.25" height="36.25" fill="#98d7c1"/><rect x="652.5" y="362.5" width="72.5" height="72.5" fill="#f5efd4"/><rect x="652.5" y="362.5" width="36.25" height="36.25" fill="#ebebbe"/><rect x="688.75" y="362.5" width="36.25" height="36.25" fill="#c9e3cb"/><rect x="688.75" y="398.75" width="36.25" height="36.25" fill="#bad54f"/><rect x="725" y="362.5" width="72.5" height="72.5" fill="#f5efd4"/><rect x="725" y="362.5" width="36.25" height="36.25" fill="#cfde7d"/><rect x="942.5" y="362.5" width="72.5" height="72.5" fill="#f5efd4"/><rect x="978.75" y="362.5" width="36.25" height="36.25" fill="#dee5a0"/><rect x="978.75" y="398.75" width="36.25" height="36.25" fill="#c8db6f"/><rect x="1015" y="362.5" width="72.5" height="72.5" fill="#f5efd4"/><rect x="1051.25" y="362.5" width="36.25" height="36.25" fill="#d5e18b"/><rect x="1015" y="398.75" width="36.25" height="36.25" fill="#b3d23f"/><rect x="1051.25" y="398.75" width="36.25" height="36.25" fill="#81d1bc"/><rect x="0" y="435" width="72.5" height="72.5" fill="#f5efd4"/><rect x="0" y="435" width="36.25" height="36.25" fill="#adcf31"/><rect x="36.25" y="435" width="36.25" height="36.25" fill="#92d5bf"/><rect x="145" y="435" width="72.5" height="72.5" fill="#f5efd4"/><rect x="145" y="435" width="36.25" height="36.25" fill="#d0e5cc"/><rect x="145" y="471.25" width="36.25" height="36.25" fill="#52c4b2"/><rect x="217.5" y="435" width="72.5" height="72.5" fill="#f5efd4"/><rect x="217.5" y="435" width="36.25" height="36.25" fill="#c3d963"/><rect x="253.75" y="435" width="36.25" height="36.25" fill="#e3ead0"/><rect x="217.5" y="471.25" width="36.25" height="36.25" fill="#e5ebd1"/><rect x="253.75" y="471.25" width="36.25" height="36.25" fill="#4dc3b1"/><rect x="290" y="435" width="72.5" height="72.5" fill="#f5efd4"/><rect x="290" y="435" width="36.25" height="36.25" fill="#80d1bc"/><rect x="290" y="471.25" width="36.25" height="36.25" fill="#6eccb8"/><rect x="326.25" y="471.25" width="36.25" height="36.25" fill="#70ccb8"/><rect x="362.5" y="435" width="72.5" height="72.5" fill="#f5efd4"/><rect x="362.5" y="471.25" width="36.25" height="36.25" fill="#dfe9cf"/><rect x="435" y="435" width="72.5" height="72.5" fill="#f5efd4"/><rect x="471.25" y="435" width="36.25" height="36.25" fill="#f3efd4"/><rect x="435" y="471.25" width="36.25" height="36.25" fill="#eaeabb"/><rect x="471.25" y="471.25" width="36.25" height="36.25" fill="#e6ebd1"/><rect x="507.5" y="435" width="72.5" height="72.5" fill="#f5efd4"/><rect x="507.5" y="435" width="36.25" height="36.25" fill="#b9d44c"/><rect x="543.75" y="435" width="36.25" height="36.25" fill="#a4dac3"/><rect x="507.5" y="471.25" width="36.25" height="36.25" fill="#a9cd27"/><rect x="543.75" y="471.25" width="36.25" height="36.25" fill="#a4dac3"/><rect x="580" y="435" width="72.5" height="72.5" fill="#f5efd4"/><rect x="580" y="435" width="36.25" height="36.25" fill="#e4e7ad"/><rect x="616.25" y="435" width="36.25" height="36.25" fill="#d1df82"/><rect x="616.25" y="471.25" width="36.25" height="36.25" fill="#86d2bd"/><rect x="725" y="435" width="72.5" height="72.5" fill="#f5efd4"/><rect x="725" y="435" width="36.25" height="36.25" fill="#e3e7ac"/><rect x="725" y="471.25" width="36.25" height="36.25" fill="#5bc7b4"/><rect x="761.25" y="471.25" width="36.25" height="36.25" fill="#dfe5a2"/><rect x="797.5" y="435" width="72.5" height="72.5" fill="#f5efd4"/><rect x="797.5" y="435" width="36.25" height="36.25" fill="#d8e7ce"/><rect x="833.75" y="435" width="36.25" height="36.25" fill="#e6ebd1"/><rect x="797.5" y="471.25" width="36.25" height="36.25" fill="#74cdb9"/><rect x="833.75" y="471.25" width="36.25" height="36.25" fill="#49c2b0"/><rect x="870" y="435" width="72.5" height="72.5" fill="#f5efd4"/><rect x="870" y="435" width="36.25" height="36.25" fill="#bfe1c9"/><rect x="906.25" y="435" width="36.25" height="36.25" fill="#7bcfba"/><rect x="870" y="471.25" width="36.25" height="36.25" fill="#bae0c8"/><rect x="1015" y="435" width="72.5" height="72.5" fill="#f5efd4"/><rect x="1015" y="435" width="36.25" height="36.25" fill="#a1d9c2"/><rect x="1051.25" y="435" width="36.25" height="36.25" fill="#eaecd2"/><rect x="1015" y="471.25" width="36.25" height="36.25" fill="#5bc7b4"/><rect x="1051.25" y="471.25" width="36.25" height="36.25" fill="#61c8b5"/><rect x="1087.5" y="435" width="72.5" height="72.5" fill="#f5efd4"/><rect x="1087.5" y="435" width="36.25" height="36.25" fill="#dde49d"/><rect x="1123.75" y="435" width="36.25" height="36.25" fill="#c8db6e"/><rect x="1087.5" y="471.25" width="36.25" height="36.25" fill="#b8dfc7"/><rect x="72.5" y="507.5" width="72.5" height="72.5" fill="#f5efd4"/><rect x="72.5" y="507.5" width="36.25" height="36.25" fill="#d8e292"/><rect x="108.75" y="507.5" width="36.25" height="36.25" fill="#edebc2"/><rect x="72.5" y="543.75" width="36.25" height="36.25" fill="#b1ddc6"/><rect x="108.75" y="543.75" width="36.25" height="36.25" fill="#a8dbc4"/><rect x="145" y="507.5" width="72.5" height="72.5" fill="#f5efd4"/><rect x="145" y="507.5" width="36.25" height="36.25" fill="#edebc1"/><rect x="181.25" y="507.5" width="36.25" height="36.25" fill="#ecedd2"/><rect x="181.25" y="543.75" width="36.25" height="36.25" fill="#a7cc23"/><rect x="217.5" y="507.5" width="72.5" height="72.5" fill="#f5efd4"/><rect x="217.5" y="507.5" width="36.25" height="36.25" fill="#d0de80"/><rect x="217.5" y="543.75" width="36.25" height="36.25" fill="#dde9cf"/><rect x="290" y="507.5" width="72.5" height="72.5" fill="#f5efd4"/><rect x="290" y="507.5" width="36.25" height="36.25" fill="#94d6c0"/><rect x="326.25" y="507.5" width="36.25" height="36.25" fill="#aedcc5"/><rect x="326.25" y="543.75" width="36.25" height="36.25" fill="#efecc6"/><rect x="362.5" y="507.5" width="72.5" height="72.5" fill="#f5efd4"/><rect x="362.5" y="507.5" width="36.25" height="36.25" fill="#b7dfc7"/><rect x="398.75" y="507.5" width="36.25" height="36.25" fill="#b5dec7"/><rect x="362.5" y="543.75" width="36.25" height="36.25" fill="#95d6c0"/><rect x="398.75" y="543.75" width="36.25" height="36.25" fill="#e4e8af"/><rect x="435" y="507.5" width="72.5" height="72.5" fill="#f5efd4"/><rect x="435" y="507.5" width="36.25" height="36.25" fill="#dce49c"/><rect x="471.25" y="507.5" width="36.25" height="36.25" fill="#7ed0bb"/><rect x="435" y="543.75" width="36.25" height="36.25" fill="#4fc4b1"/><rect x="471.25" y="543.75" width="36.25" height="36.25" fill="#e1e6a7"/><rect x="507.5" y="507.5" width="72.5" height="72.5" fill="#f5efd4"/><rect x="507.5" y="507.5" width="36.25" height="36.25" fill="#e5ebd1"/><rect x="543.75" y="507.5" width="36.25" height="36.25" fill="#62c9b5"/><rect x="507.5" y="543.75" width="36.25" height="36.25" fill="#5ec8b4"/><rect x="543.75" y="543.75" width="36.25" height="36.25" fill="#f2eed3"/><rect x="580" y="507.5" width="72.5" height="72.5" fill="#f5efd4"/><rect x="580" y="507.5" width="36.25" height="36.25" fill="#dce8cf"/><rect x="616.25" y="507.5" width="36.25" height="36.25" fill="#e1ead0"/><rect x="580" y="543.75" width="36.25" height="36.25" fill="#e1ead0"/><rect x="616.25" y="543.75" width="36.25" height="36.25" fill="#9dd8c2"/><rect x="652.5" y="507.5" width="72.5" height="72.5" fill="#f5efd4"/><rect x="652.5" y="507.5" width="36.25" height="36.25" fill="#7dd0bb"/><rect x="688.75" y="507.5" width="36.25" height="36.25" fill="#e6e8b2"/><rect x="652.5" y="543.75" width="36.25" height="36.25" fill="#67cab6"/><rect x="688.75" y="543.75" width="36.25" height="36.25" fill="#f1eed3"/><rect x="725" y="507.5" width="72.5" height="72.5" fill="#f5efd4"/><rect x="725" y="507.5" width="36.25" height="36.25" fill="#f4efd4"/><rect x="761.25" y="507.5" width="36.25" height="36.25" fill="#60c8b5"/><rect x="725" y="543.75" width="36.25" height="36.25" fill="#c8db6d"/><rect x="761.25" y="543.75" width="36.25" height="36.25" fill="#acdcc5"/><rect x="797.5" y="507.5" width="72.5" height="72.5" fill="#f5efd4"/><rect x="833.75" y="507.5" width="36.25" height="36.25" fill="#a8cd26"/><rect x="797.5" y="543.75" width="36.25" height="36.25" fill="#bae0c8"/><rect x="833.75" y="543.75" width="36.25" height="36.25" fill="#c4e2ca"/><rect x="870" y="507.5" width="72.5" height="72.5" fill="#f5efd4"/><rect x="870" y="507.5" width="36.25" height="36.25" fill="#89d3bd"/><rect x="906.25" y="507.5" width="36.25" height="36.25" fill="#dbe398"/><rect x="906.25" y="543.75" width="36.25" height="36.25" fill="#efecc5"/><rect x="942.5" y="507.5" width="72.5" height="72.5" fill="#f5efd4"/><rect x="978.75" y="507.5" width="36.25" height="36.25" fill="#5fc8b5"/><rect x="942.5" y="543.75" width="36.25" height="36.25" fill="#b6dec7"/><rect x="978.75" y="543.75" width="36.25" height="36.25" fill="#efedd3"/><rect x="1015" y="507.5" width="72.5" height="72.5" fill="#f5efd4"/><rect x="1015" y="507.5" width="36.25" height="36.25" fill="#f1edca"/><rect x="1051.25" y="507.5" width="36.25" height="36.25" fill="#bfd759"/><rect x="1015" y="543.75" width="36.25" height="36.25" fill="#c5e2ca"/><rect x="1051.25" y="543.75" width="36.25" height="36.25" fill="#d2df86"/><rect x="1087.5" y="507.5" width="72.5" height="72.5" fill="#f5efd4"/><rect x="1123.75" y="507.5" width="36.25" height="36.25" fill="#6eccb8"/><rect x="1087.5" y="543.75" width="36.25" height="36.25" fill="#bbd54f"/><rect x="1123.75" y="543.75" width="36.25" height="36.25" fill="#c0d75b"/><rect x="0" y="580" width="72.5" height="72.5" fill="#f5efd4"/><rect x="0" y="580" width="36.25" height="36.25" fill="#4dc3b1"/><rect x="36.25" y="580" width="36.25" height="36.25" fill="#a7dbc4"/><rect x="0" y="616.25" width="36.25" height="36.25" fill="#96d6c0"/><rect x="36.25" y="616.25" width="36.25" height="36.25" fill="#a7cc23"/><rect x="72.5" y="580" width="72.5" height="72.5" fill="#f5efd4"/><rect x="72.5" y="580" width="36.25" height="36.25" fill="#c2d85f"/><rect x="108.75" y="616.25" width="36.25" height="36.25" fill="#e1e6a6"/><rect x="145" y="580" width="72.5" height="72.5" fill="#f5efd4"/><rect x="145" y="580" width="36.25" height="36.25" fill="#bdd654"/><rect x="181.25" y="580" width="36.25" height="36.25" fill="#a9cd27"/><rect x="145" y="616.25" width="36.25" height="36.25" fill="#57c6b3"/><rect x="181.25" y="616.25" width="36.25" height="36.25" fill="#93d5bf"/><rect x="217.5" y="580" width="72.5" height="72.5" fill="#f5efd4"/><rect x="217.5" y="580" width="36.25" height="36.25" fill="#e7e9b5"/><rect x="253.75" y="580" width="36.25" height="36.25" fill="#dbe49a"/><rect x="217.5" y="616.25" width="36.25" height="36.25" fill="#edecc3"/><rect x="253.75" y="616.25" width="36.25" height="36.25" fill="#e3e7ac"/><rect x="362.5" y="580" width="72.5" height="72.5" fill="#f5efd4"/><rect x="362.5" y="580" width="36.25" height="36.25" fill="#9ed8c2"/><rect x="398.75" y="580" width="36.25" height="36.25" fill="#abce2b"/><rect x="362.5" y="616.25" width="36.25" height="36.25" fill="#abce2b"/><rect x="398.75" y="616.25" width="36.25" height="36.25" fill="#c0d75b"/><rect x="435" y="580" width="72.5" height="72.5" fill="#f5efd4"/><rect x="435" y="580" width="36.25" height="36.25" fill="#bad44e"/><rect x="471.25" y="580" width="36.25" height="36.25" fill="#66cab6"/><rect x="435" y="616.25" width="36.25" height="36.25" fill="#dfe9cf"/><rect x="471.25" y="616.25" width="36.25" height="36.25" fill="#dae398"/><rect x="507.5" y="580" width="72.5" height="72.5" fill="#f5efd4"/><rect x="507.5" y="580" width="36.25" height="36.25" fill="#cfde7d"/><rect x="543.75" y="580" width="36.25" height="36.25" fill="#b7d346"/><rect x="507.5" y="616.25" width="36.25" height="36.25" fill="#c3d862"/><rect x="580" y="580" width="72.5" height="72.5" fill="#f5efd4"/><rect x="580" y="580" width="36.25" height="36.25" fill="#56c5b3"/><rect x="616.25" y="580" width="36.25" height="36.25" fill="#efedd3"/><rect x="580" y="616.25" width="36.25" height="36.25" fill="#d5e18c"/><rect x="616.25" y="616.25" width="36.25" height="36.25" fill="#e2e6a9"/><rect x="652.5" y="580" width="72.5" height="72.5" fill="#f5efd4"/><rect x="652.5" y="580" width="36.25" height="36.25" fill="#aadbc4"/><rect x="688.75" y="580" width="36.25" height="36.25" fill="#a8cc25"/><rect x="652.5" y="616.25" width="36.25" height="36.25" fill="#76ceb9"/><rect x="688.75" y="616.25" width="36.25" height="36.25" fill="#e0e9d0"/><rect x="725" y="580" width="72.5" height="72.5" fill="#f5efd4"/><rect x="725" y="580" width="36.25" height="36.25" fill="#c3d861"/><rect x="761.25" y="580" width="36.25" height="36.25" fill="#bfd75a"/><rect x="725" y="616.25" width="36.25" height="36.25" fill="#f3eed4"/><rect x="761.25" y="616.25" width="36.25" height="36.25" fill="#e0e5a3"/><rect x="797.5" y="580" width="72.5" height="72.5" fill="#f5efd4"/><rect x="797.5" y="580" width="36.25" height="36.25" fill="#cedd7b"/><rect x="833.75" y="580" width="36.25" height="36.25" fill="#bbe0c8"/><rect x="797.5" y="616.25" width="36.25" height="36.25" fill="#87d2bd"/><rect x="833.75" y="616.25" width="36.25" height="36.25" fill="#c3d963"/><rect x="870" y="580" width="72.5" height="72.5" fill="#f5efd4"/><rect x="870" y="580" width="36.25" height="36.25" fill="#cfde7e"/><rect x="906.25" y="580" width="36.25" height="36.25" fill="#aadbc4"/><rect x="870" y="616.25" width="36.25" height="36.25" fill="#c7db6d"/><rect x="906.25" y="616.25" width="36.25" height="36.25" fill="#f0edca"/><rect x="942.5" y="580" width="72.5" height="72.5" fill="#f5efd4"/><rect x="942.5" y="580" width="36.25" height="36.25" fill="#f1edca"/><rect x="978.75" y="580" width="36.25" height="36.25" fill="#79cfba"/><rect x="942.5" y="616.25" width="36.25" height="36.25" fill="#7bcfba"/><rect x="978.75" y="616.25" width="36.25" height="36.25" fill="#dfe9cf"/><rect x="1015" y="580" width="72.5" height="72.5" fill="#f5efd4"/><rect x="1015" y="580" width="36.25" height="36.25" fill="#a2d9c3"/><rect x="1051.25" y="580" width="36.25" height="36.25" fill="#75cdb9"/><rect x="1051.25" y="616.25" width="36.25" height="36.25" fill="#cddd79"/><rect x="1087.5" y="580" width="72.5" height="72.5" fill="#f5efd4"/><rect x="1087.5" y="580" width="36.25" height="36.25" fill="#b4d241"/><rect x="1123.75" y="580" width="36.25" height="36.25" fill="#b6d345"/><rect x="1087.5" y="616.25" width="36.25" height="36.25" fill="#f3eed4"/><rect x="1123.75" y="616.25" width="36.25" height="36.25" fill="#f0edc8"/><rect x="0" y="652.5" width="72.5" height="72.5" fill="#f5efd4"/><rect x="0" y="652.5" width="36.25" height="36.25" fill="#82d1bc"/><rect x="36.25" y="652.5" width="36.25" height="36.25" fill="#57c6b3"/><rect x="0" y="688.75" width="36.25" height="36.25" fill="#52c4b2"/><rect x="36.25" y="688.75" width="36.25" height="36.25" fill="#c6e3ca"/><rect x="72.5" y="652.5" width="72.5" height="72.5" fill="#f5efd4"/><rect x="72.5" y="652.5" width="36.25" height="36.25" fill="#5bc7b4"/><rect x="108.75" y="652.5" width="36.25" height="36.25" fill="#afd035"/><rect x="72.5" y="688.75" width="36.25" height="36.25" fill="#ecebc0"/><rect x="108.75" y="688.75" width="36.25" height="36.25" fill="#98d7c1"/><rect x="145" y="652.5" width="72.5" height="72.5" fill="#f5efd4"/><rect x="145" y="652.5" width="36.25" height="36.25" fill="#4dc3b1"/><rect x="181.25" y="652.5" width="36.25" height="36.25" fill="#e3ead0"/><rect x="145" y="688.75" width="36.25" height="36.25" fill="#d0e5cc"/><rect x="181.25" y="688.75" width="36.25" height="36.25" fill="#d1df83"/><rect x="217.5" y="652.5" width="72.5" height="72.5" fill="#f5efd4"/><rect x="217.5" y="652.5" width="36.25" height="36.25" fill="#4ec3b1"/><rect x="253.75" y="652.5" width="36.25" height="36.25" fill="#c3d963"/><rect x="217.5" y="688.75" width="36.25" height="36.25" fill="#6bcbb7"/><rect x="253.75" y="688.75" width="36.25" height="36.25" fill="#4cc3b1"/><rect x="290" y="652.5" width="72.5" height="72.5" fill="#f5efd4"/><rect x="290" y="652.5" width="36.25" height="36.25" fill="#f5efd4"/><rect x="326.25" y="652.5" width="36.25" height="36.25" fill="#f4efd3"/><rect x="290" y="688.75" width="36.25" height="36.25" fill="#b2d13b"/><rect x="326.25" y="688.75" width="36.25" height="36.25" fill="#d9e294"/><rect x="362.5" y="652.5" width="72.5" height="72.5" fill="#f5efd4"/><rect x="362.5" y="652.5" width="36.25" height="36.25" fill="#bae0c8"/><rect x="398.75" y="652.5" width="36.25" height="36.25" fill="#bed657"/><rect x="362.5" y="688.75" width="36.25" height="36.25" fill="#e0e5a4"/><rect x="398.75" y="688.75" width="36.25" height="36.25" fill="#f2eecd"/><rect x="435" y="652.5" width="72.5" height="72.5" fill="#f5efd4"/><rect x="435" y="652.5" width="36.25" height="36.25" fill="#e8e9b6"/><rect x="471.25" y="652.5" width="36.25" height="36.25" fill="#d6e7cd"/><rect x="435" y="688.75" width="36.25" height="36.25" fill="#d1e6cd"/><rect x="471.25" y="688.75" width="36.25" height="36.25" fill="#c5d967"/><rect x="507.5" y="652.5" width="72.5" height="72.5" fill="#f5efd4"/><rect x="507.5" y="652.5" width="36.25" height="36.25" fill="#eaeabb"/><rect x="543.75" y="652.5" width="36.25" height="36.25" fill="#c6da69"/><rect x="507.5" y="688.75" width="36.25" height="36.25" fill="#73cdb9"/><rect x="543.75" y="688.75" width="36.25" height="36.25" fill="#c0d75b"/><rect x="580" y="652.5" width="72.5" height="72.5" fill="#f5efd4"/><rect x="580" y="652.5" width="36.25" height="36.25" fill="#b1d039"/><rect x="616.25" y="652.5" width="36.25" height="36.25" fill="#d4e08a"/><rect x="580" y="688.75" width="36.25" height="36.25" fill="#bfe1c9"/><rect x="616.25" y="688.75" width="36.25" height="36.25" fill="#dde9cf"/><rect x="652.5" y="652.5" width="72.5" height="72.5" fill="#f5efd4"/><rect x="652.5" y="652.5" width="36.25" height="36.25" fill="#dde9cf"/><rect x="688.75" y="652.5" width="36.25" height="36.25" fill="#c4e2ca"/><rect x="652.5" y="688.75" width="36.25" height="36.25" fill="#e5ebd1"/><rect x="688.75" y="688.75" width="36.25" height="36.25" fill="#c8e3cb"/><rect x="725" y="652.5" width="72.5" height="72.5" fill="#f5efd4"/><rect x="725" y="652.5" width="36.25" height="36.25" fill="#aacd2a"/><rect x="761.25" y="652.5" width="36.25" height="36.25" fill="#89d3bd"/><rect x="725" y="688.75" width="36.25" height="36.25" fill="#b5dec7"/><rect x="761.25" y="688.75" width="36.25" height="36.25" fill="#b9d44d"/><rect x="797.5" y="652.5" width="72.5" height="72.5" fill="#f5efd4"/><rect x="797.5" y="652.5" width="36.25" height="36.25" fill="#e1e6a7"/><rect x="833.75" y="652.5" width="36.25" height="36.25" fill="#aecf32"/><rect x="797.5" y="688.75" width="36.25" height="36.25" fill="#e2ead0"/><rect x="833.75" y="688.75" width="36.25" height="36.25" fill="#50c4b1"/><rect x="870" y="652.5" width="72.5" height="72.5" fill="#f5efd4"/><rect x="870" y="652.5" width="36.25" height="36.25" fill="#c6da69"/><rect x="906.25" y="652.5" width="36.25" height="36.25" fill="#84d1bc"/><rect x="870" y="688.75" width="36.25" height="36.25" fill="#92d5bf"/><rect x="906.25" y="688.75" width="36.25" height="36.25" fill="#8dd4be"/><rect x="942.5" y="652.5" width="72.5" height="72.5" fill="#f5efd4"/><rect x="942.5" y="652.5" width="36.25" height="36.25" fill="#f3eecf"/><rect x="978.75" y="652.5" width="36.25" height="36.25" fill="#c8db6e"/><rect x="942.5" y="688.75" width="36.25" height="36.25" fill="#9bd7c1"/><rect x="978.75" y="688.75" width="36.25" height="36.25" fill="#cadc72"/><rect x="1015" y="652.5" width="72.5" height="72.5" fill="#f5efd4"/><rect x="1015" y="652.5" width="36.25" height="36.25" fill="#c8db6e"/><rect x="1051.25" y="652.5" width="36.25" height="36.25" fill="#5fc8b5"/><rect x="1015" y="688.75" width="36.25" height="36.25" fill="#60c8b5"/><rect x="1051.25" y="688.75" width="36.25" height="36.25" fill="#e2e6a8"/><rect x="1087.5" y="652.5" width="72.5" height="72.5" fill="#f5efd4"/><rect x="1087.5" y="652.5" width="36.25" height="36.25" fill="#eeecc4"/><rect x="1123.75" y="652.5" width="36.25" height="36.25" fill="#7fd0bb"/><rect x="1087.5" y="688.75" width="36.25" height="36.25" fill="#bde0c8"/><rect x="1123.75" y="688.75" width="36.25" height="36.25" fill="#abdcc5"/></g></svg>